G04 #@! TF.GenerationSoftware,KiCad,Pcbnew,(6.0.4)*
G04 #@! TF.CreationDate,2022-05-20T18:13:48-05:00*
G04 #@! TF.ProjectId,REEL,5245454c-2e6b-4696-9361-645f70636258,rev?*
G04 #@! TF.SameCoordinates,Original*
G04 #@! TF.FileFunction,Legend,Top*
G04 #@! TF.FilePolarity,Positive*
%FSLAX46Y46*%
G04 Gerber Fmt 4.6, Leading zero omitted, Abs format (unit mm)*
G04 Created by KiCad (PCBNEW (6.0.4)) date 2022-05-20 18:13:48*
%MOMM*%
%LPD*%
G01*
G04 APERTURE LIST*
G04 Aperture macros list*
%AMRoundRect*
0 Rectangle with rounded corners*
0 $1 Rounding radius*
0 $2 $3 $4 $5 $6 $7 $8 $9 X,Y pos of 4 corners*
0 Add a 4 corners polygon primitive as box body*
4,1,4,$2,$3,$4,$5,$6,$7,$8,$9,$2,$3,0*
0 Add four circle primitives for the rounded corners*
1,1,$1+$1,$2,$3*
1,1,$1+$1,$4,$5*
1,1,$1+$1,$6,$7*
1,1,$1+$1,$8,$9*
0 Add four rect primitives between the rounded corners*
20,1,$1+$1,$2,$3,$4,$5,0*
20,1,$1+$1,$4,$5,$6,$7,0*
20,1,$1+$1,$6,$7,$8,$9,0*
20,1,$1+$1,$8,$9,$2,$3,0*%
G04 Aperture macros list end*
%ADD10C,0.100000*%
%ADD11C,0.150000*%
%ADD12C,0.120000*%
%ADD13C,0.200000*%
%ADD14C,0.127000*%
%ADD15RoundRect,0.250000X-0.475000X0.337500X-0.475000X-0.337500X0.475000X-0.337500X0.475000X0.337500X0*%
%ADD16RoundRect,0.237500X0.237500X-0.300000X0.237500X0.300000X-0.237500X0.300000X-0.237500X-0.300000X0*%
%ADD17R,2.000000X1.500000*%
%ADD18R,2.000000X3.800000*%
%ADD19RoundRect,0.250000X-0.350000X-0.450000X0.350000X-0.450000X0.350000X0.450000X-0.350000X0.450000X0*%
%ADD20R,1.980000X3.960000*%
%ADD21O,1.980000X3.960000*%
%ADD22R,1.700000X1.700000*%
%ADD23O,1.700000X1.700000*%
%ADD24RoundRect,0.250000X0.350000X0.450000X-0.350000X0.450000X-0.350000X-0.450000X0.350000X-0.450000X0*%
%ADD25RoundRect,0.250000X0.337500X0.475000X-0.337500X0.475000X-0.337500X-0.475000X0.337500X-0.475000X0*%
%ADD26RoundRect,0.250000X0.325000X0.450000X-0.325000X0.450000X-0.325000X-0.450000X0.325000X-0.450000X0*%
%ADD27RoundRect,0.250000X0.362500X2.125000X-0.362500X2.125000X-0.362500X-2.125000X0.362500X-2.125000X0*%
%ADD28RoundRect,0.237500X-0.237500X0.300000X-0.237500X-0.300000X0.237500X-0.300000X0.237500X0.300000X0*%
%ADD29RoundRect,0.250000X-1.100000X0.412500X-1.100000X-0.412500X1.100000X-0.412500X1.100000X0.412500X0*%
%ADD30RoundRect,0.250000X1.100000X-0.412500X1.100000X0.412500X-1.100000X0.412500X-1.100000X-0.412500X0*%
%ADD31RoundRect,0.250000X-0.725000X0.600000X-0.725000X-0.600000X0.725000X-0.600000X0.725000X0.600000X0*%
%ADD32O,1.950000X1.700000*%
%ADD33RoundRect,0.250000X-0.450000X0.350000X-0.450000X-0.350000X0.450000X-0.350000X0.450000X0.350000X0*%
%ADD34R,3.200000X1.000000*%
%ADD35R,2.000000X0.900000*%
%ADD36R,0.900000X2.000000*%
%ADD37R,5.000000X5.000000*%
%ADD38R,1.500000X2.400000*%
%ADD39R,1.525000X0.700000*%
%ADD40R,2.513000X3.402000*%
%ADD41RoundRect,0.250000X0.750000X-0.600000X0.750000X0.600000X-0.750000X0.600000X-0.750000X-0.600000X0*%
%ADD42O,2.000000X1.700000*%
%ADD43C,1.000000*%
%ADD44R,1.500000X0.500000*%
%ADD45R,1.800000X3.000000*%
%ADD46R,3.120000X2.290000*%
%ADD47RoundRect,0.250000X-0.362500X-2.125000X0.362500X-2.125000X0.362500X2.125000X-0.362500X2.125000X0*%
%ADD48RoundRect,0.250000X-0.625000X0.350000X-0.625000X-0.350000X0.625000X-0.350000X0.625000X0.350000X0*%
%ADD49O,1.750000X1.200000*%
%ADD50R,2.400000X1.500000*%
%ADD51R,1.500000X1.500000*%
G04 APERTURE END LIST*
D10*
X192404194Y-24150000D02*
X192404194Y-28468000D01*
D11*
X90860952Y-127166666D02*
X91337142Y-127166666D01*
X90765714Y-127452380D02*
X91099047Y-126452380D01*
X91432380Y-127452380D01*
X91765714Y-127452380D02*
X91765714Y-126785714D01*
X91765714Y-126880952D02*
X91813333Y-126833333D01*
X91908571Y-126785714D01*
X92051428Y-126785714D01*
X92146666Y-126833333D01*
X92194285Y-126928571D01*
X92194285Y-127452380D01*
X92194285Y-126928571D02*
X92241904Y-126833333D01*
X92337142Y-126785714D01*
X92480000Y-126785714D01*
X92575238Y-126833333D01*
X92622857Y-126928571D01*
X92622857Y-127452380D01*
X93099047Y-126785714D02*
X93099047Y-127785714D01*
X93099047Y-126833333D02*
X93194285Y-126785714D01*
X93384761Y-126785714D01*
X93480000Y-126833333D01*
X93527619Y-126880952D01*
X93575238Y-126976190D01*
X93575238Y-127261904D01*
X93527619Y-127357142D01*
X93480000Y-127404761D01*
X93384761Y-127452380D01*
X93194285Y-127452380D01*
X93099047Y-127404761D01*
X94146666Y-127452380D02*
X94051428Y-127404761D01*
X94003809Y-127309523D01*
X94003809Y-126452380D01*
X94527619Y-127452380D02*
X94527619Y-126785714D01*
X94527619Y-126452380D02*
X94480000Y-126500000D01*
X94527619Y-126547619D01*
X94575238Y-126500000D01*
X94527619Y-126452380D01*
X94527619Y-126547619D01*
X94860952Y-126785714D02*
X95241904Y-126785714D01*
X95003809Y-127452380D02*
X95003809Y-126595238D01*
X95051428Y-126500000D01*
X95146666Y-126452380D01*
X95241904Y-126452380D01*
X95575238Y-127452380D02*
X95575238Y-126785714D01*
X95575238Y-126452380D02*
X95527619Y-126500000D01*
X95575238Y-126547619D01*
X95622857Y-126500000D01*
X95575238Y-126452380D01*
X95575238Y-126547619D01*
X96432380Y-127404761D02*
X96337142Y-127452380D01*
X96146666Y-127452380D01*
X96051428Y-127404761D01*
X96003809Y-127309523D01*
X96003809Y-126928571D01*
X96051428Y-126833333D01*
X96146666Y-126785714D01*
X96337142Y-126785714D01*
X96432380Y-126833333D01*
X96480000Y-126928571D01*
X96480000Y-127023809D01*
X96003809Y-127119047D01*
X96908571Y-127452380D02*
X96908571Y-126785714D01*
X96908571Y-126976190D02*
X96956190Y-126880952D01*
X97003809Y-126833333D01*
X97099047Y-126785714D01*
X97194285Y-126785714D01*
X88397142Y-91739166D02*
X88444761Y-91786785D01*
X88492380Y-91929642D01*
X88492380Y-92024880D01*
X88444761Y-92167738D01*
X88349523Y-92262976D01*
X88254285Y-92310595D01*
X88063809Y-92358214D01*
X87920952Y-92358214D01*
X87730476Y-92310595D01*
X87635238Y-92262976D01*
X87540000Y-92167738D01*
X87492380Y-92024880D01*
X87492380Y-91929642D01*
X87540000Y-91786785D01*
X87587619Y-91739166D01*
X88492380Y-91262976D02*
X88492380Y-91072500D01*
X88444761Y-90977261D01*
X88397142Y-90929642D01*
X88254285Y-90834404D01*
X88063809Y-90786785D01*
X87682857Y-90786785D01*
X87587619Y-90834404D01*
X87540000Y-90882023D01*
X87492380Y-90977261D01*
X87492380Y-91167738D01*
X87540000Y-91262976D01*
X87587619Y-91310595D01*
X87682857Y-91358214D01*
X87920952Y-91358214D01*
X88016190Y-91310595D01*
X88063809Y-91262976D01*
X88111428Y-91167738D01*
X88111428Y-90977261D01*
X88063809Y-90882023D01*
X88016190Y-90834404D01*
X87920952Y-90786785D01*
X47187142Y-84621666D02*
X47234761Y-84669285D01*
X47282380Y-84812142D01*
X47282380Y-84907380D01*
X47234761Y-85050238D01*
X47139523Y-85145476D01*
X47044285Y-85193095D01*
X46853809Y-85240714D01*
X46710952Y-85240714D01*
X46520476Y-85193095D01*
X46425238Y-85145476D01*
X46330000Y-85050238D01*
X46282380Y-84907380D01*
X46282380Y-84812142D01*
X46330000Y-84669285D01*
X46377619Y-84621666D01*
X46377619Y-84240714D02*
X46330000Y-84193095D01*
X46282380Y-84097857D01*
X46282380Y-83859761D01*
X46330000Y-83764523D01*
X46377619Y-83716904D01*
X46472857Y-83669285D01*
X46568095Y-83669285D01*
X46710952Y-83716904D01*
X47282380Y-84288333D01*
X47282380Y-83669285D01*
X50495695Y-60447580D02*
X50495695Y-61257104D01*
X50543314Y-61352342D01*
X50590933Y-61399961D01*
X50686171Y-61447580D01*
X50876647Y-61447580D01*
X50971885Y-61399961D01*
X51019504Y-61352342D01*
X51067123Y-61257104D01*
X51067123Y-60447580D01*
X51971885Y-60780914D02*
X51971885Y-61447580D01*
X51733790Y-60399961D02*
X51495695Y-61114247D01*
X52114742Y-61114247D01*
X73922142Y-59762380D02*
X73588809Y-59286190D01*
X73350714Y-59762380D02*
X73350714Y-58762380D01*
X73731666Y-58762380D01*
X73826904Y-58810000D01*
X73874523Y-58857619D01*
X73922142Y-58952857D01*
X73922142Y-59095714D01*
X73874523Y-59190952D01*
X73826904Y-59238571D01*
X73731666Y-59286190D01*
X73350714Y-59286190D01*
X74874523Y-59762380D02*
X74303095Y-59762380D01*
X74588809Y-59762380D02*
X74588809Y-58762380D01*
X74493571Y-58905238D01*
X74398333Y-59000476D01*
X74303095Y-59048095D01*
X75826904Y-59762380D02*
X75255476Y-59762380D01*
X75541190Y-59762380D02*
X75541190Y-58762380D01*
X75445952Y-58905238D01*
X75350714Y-59000476D01*
X75255476Y-59048095D01*
X96988333Y-96322380D02*
X96655000Y-95846190D01*
X96416904Y-96322380D02*
X96416904Y-95322380D01*
X96797857Y-95322380D01*
X96893095Y-95370000D01*
X96940714Y-95417619D01*
X96988333Y-95512857D01*
X96988333Y-95655714D01*
X96940714Y-95750952D01*
X96893095Y-95798571D01*
X96797857Y-95846190D01*
X96416904Y-95846190D01*
X97464523Y-96322380D02*
X97655000Y-96322380D01*
X97750238Y-96274761D01*
X97797857Y-96227142D01*
X97893095Y-96084285D01*
X97940714Y-95893809D01*
X97940714Y-95512857D01*
X97893095Y-95417619D01*
X97845476Y-95370000D01*
X97750238Y-95322380D01*
X97559761Y-95322380D01*
X97464523Y-95370000D01*
X97416904Y-95417619D01*
X97369285Y-95512857D01*
X97369285Y-95750952D01*
X97416904Y-95846190D01*
X97464523Y-95893809D01*
X97559761Y-95941428D01*
X97750238Y-95941428D01*
X97845476Y-95893809D01*
X97893095Y-95846190D01*
X97940714Y-95750952D01*
X111331428Y-101528571D02*
X110998095Y-101528571D01*
X110998095Y-102052380D02*
X110998095Y-101052380D01*
X111474285Y-101052380D01*
X111760000Y-101052380D02*
X111998095Y-102052380D01*
X112188571Y-101338095D01*
X112379047Y-102052380D01*
X112617142Y-101052380D01*
X83042380Y-124158333D02*
X83756666Y-124158333D01*
X83899523Y-124205952D01*
X83994761Y-124301190D01*
X84042380Y-124444047D01*
X84042380Y-124539285D01*
X83375714Y-123253571D02*
X84042380Y-123253571D01*
X82994761Y-123491666D02*
X83709047Y-123729761D01*
X83709047Y-123110714D01*
X102973333Y-96592380D02*
X102640000Y-96116190D01*
X102401904Y-96592380D02*
X102401904Y-95592380D01*
X102782857Y-95592380D01*
X102878095Y-95640000D01*
X102925714Y-95687619D01*
X102973333Y-95782857D01*
X102973333Y-95925714D01*
X102925714Y-96020952D01*
X102878095Y-96068571D01*
X102782857Y-96116190D01*
X102401904Y-96116190D01*
X103830476Y-95592380D02*
X103640000Y-95592380D01*
X103544761Y-95640000D01*
X103497142Y-95687619D01*
X103401904Y-95830476D01*
X103354285Y-96020952D01*
X103354285Y-96401904D01*
X103401904Y-96497142D01*
X103449523Y-96544761D01*
X103544761Y-96592380D01*
X103735238Y-96592380D01*
X103830476Y-96544761D01*
X103878095Y-96497142D01*
X103925714Y-96401904D01*
X103925714Y-96163809D01*
X103878095Y-96068571D01*
X103830476Y-96020952D01*
X103735238Y-95973333D01*
X103544761Y-95973333D01*
X103449523Y-96020952D01*
X103401904Y-96068571D01*
X103354285Y-96163809D01*
X109053333Y-95447380D02*
X108720000Y-94971190D01*
X108481904Y-95447380D02*
X108481904Y-94447380D01*
X108862857Y-94447380D01*
X108958095Y-94495000D01*
X109005714Y-94542619D01*
X109053333Y-94637857D01*
X109053333Y-94780714D01*
X109005714Y-94875952D01*
X108958095Y-94923571D01*
X108862857Y-94971190D01*
X108481904Y-94971190D01*
X109386666Y-94447380D02*
X110053333Y-94447380D01*
X109624761Y-95447380D01*
X60335000Y-68349761D02*
X60477857Y-68397380D01*
X60715952Y-68397380D01*
X60811190Y-68349761D01*
X60858809Y-68302142D01*
X60906428Y-68206904D01*
X60906428Y-68111666D01*
X60858809Y-68016428D01*
X60811190Y-67968809D01*
X60715952Y-67921190D01*
X60525476Y-67873571D01*
X60430238Y-67825952D01*
X60382619Y-67778333D01*
X60335000Y-67683095D01*
X60335000Y-67587857D01*
X60382619Y-67492619D01*
X60430238Y-67445000D01*
X60525476Y-67397380D01*
X60763571Y-67397380D01*
X60906428Y-67445000D01*
X61335000Y-68397380D02*
X61335000Y-67397380D01*
X61573095Y-67397380D01*
X61715952Y-67445000D01*
X61811190Y-67540238D01*
X61858809Y-67635476D01*
X61906428Y-67825952D01*
X61906428Y-67968809D01*
X61858809Y-68159285D01*
X61811190Y-68254523D01*
X61715952Y-68349761D01*
X61573095Y-68397380D01*
X61335000Y-68397380D01*
X62906428Y-68302142D02*
X62858809Y-68349761D01*
X62715952Y-68397380D01*
X62620714Y-68397380D01*
X62477857Y-68349761D01*
X62382619Y-68254523D01*
X62335000Y-68159285D01*
X62287380Y-67968809D01*
X62287380Y-67825952D01*
X62335000Y-67635476D01*
X62382619Y-67540238D01*
X62477857Y-67445000D01*
X62620714Y-67397380D01*
X62715952Y-67397380D01*
X62858809Y-67445000D01*
X62906428Y-67492619D01*
X63763571Y-68397380D02*
X63763571Y-67873571D01*
X63715952Y-67778333D01*
X63620714Y-67730714D01*
X63430238Y-67730714D01*
X63335000Y-67778333D01*
X63763571Y-68349761D02*
X63668333Y-68397380D01*
X63430238Y-68397380D01*
X63335000Y-68349761D01*
X63287380Y-68254523D01*
X63287380Y-68159285D01*
X63335000Y-68064047D01*
X63430238Y-68016428D01*
X63668333Y-68016428D01*
X63763571Y-67968809D01*
X64239761Y-68397380D02*
X64239761Y-67730714D01*
X64239761Y-67921190D02*
X64287380Y-67825952D01*
X64335000Y-67778333D01*
X64430238Y-67730714D01*
X64525476Y-67730714D01*
X65287380Y-68397380D02*
X65287380Y-67397380D01*
X65287380Y-68349761D02*
X65192142Y-68397380D01*
X65001666Y-68397380D01*
X64906428Y-68349761D01*
X64858809Y-68302142D01*
X64811190Y-68206904D01*
X64811190Y-67921190D01*
X64858809Y-67825952D01*
X64906428Y-67778333D01*
X65001666Y-67730714D01*
X65192142Y-67730714D01*
X65287380Y-67778333D01*
X89157580Y-111356733D02*
X89871866Y-111356733D01*
X90014723Y-111404352D01*
X90109961Y-111499590D01*
X90157580Y-111642447D01*
X90157580Y-111737685D01*
X89157580Y-110451971D02*
X89157580Y-110642447D01*
X89205200Y-110737685D01*
X89252819Y-110785304D01*
X89395676Y-110880542D01*
X89586152Y-110928161D01*
X89967104Y-110928161D01*
X90062342Y-110880542D01*
X90109961Y-110832923D01*
X90157580Y-110737685D01*
X90157580Y-110547209D01*
X90109961Y-110451971D01*
X90062342Y-110404352D01*
X89967104Y-110356733D01*
X89729009Y-110356733D01*
X89633771Y-110404352D01*
X89586152Y-110451971D01*
X89538533Y-110547209D01*
X89538533Y-110737685D01*
X89586152Y-110832923D01*
X89633771Y-110880542D01*
X89729009Y-110928161D01*
X82907142Y-100740357D02*
X82954761Y-100787976D01*
X83002380Y-100930833D01*
X83002380Y-101026071D01*
X82954761Y-101168928D01*
X82859523Y-101264166D01*
X82764285Y-101311785D01*
X82573809Y-101359404D01*
X82430952Y-101359404D01*
X82240476Y-101311785D01*
X82145238Y-101264166D01*
X82050000Y-101168928D01*
X82002380Y-101026071D01*
X82002380Y-100930833D01*
X82050000Y-100787976D01*
X82097619Y-100740357D01*
X83002380Y-99787976D02*
X83002380Y-100359404D01*
X83002380Y-100073690D02*
X82002380Y-100073690D01*
X82145238Y-100168928D01*
X82240476Y-100264166D01*
X82288095Y-100359404D01*
X83002380Y-98835595D02*
X83002380Y-99407023D01*
X83002380Y-99121309D02*
X82002380Y-99121309D01*
X82145238Y-99216547D01*
X82240476Y-99311785D01*
X82288095Y-99407023D01*
X102459642Y-91797142D02*
X102412023Y-91844761D01*
X102269166Y-91892380D01*
X102173928Y-91892380D01*
X102031071Y-91844761D01*
X101935833Y-91749523D01*
X101888214Y-91654285D01*
X101840595Y-91463809D01*
X101840595Y-91320952D01*
X101888214Y-91130476D01*
X101935833Y-91035238D01*
X102031071Y-90940000D01*
X102173928Y-90892380D01*
X102269166Y-90892380D01*
X102412023Y-90940000D01*
X102459642Y-90987619D01*
X103412023Y-91892380D02*
X102840595Y-91892380D01*
X103126309Y-91892380D02*
X103126309Y-90892380D01*
X103031071Y-91035238D01*
X102935833Y-91130476D01*
X102840595Y-91178095D01*
X103792976Y-90987619D02*
X103840595Y-90940000D01*
X103935833Y-90892380D01*
X104173928Y-90892380D01*
X104269166Y-90940000D01*
X104316785Y-90987619D01*
X104364404Y-91082857D01*
X104364404Y-91178095D01*
X104316785Y-91320952D01*
X103745357Y-91892380D01*
X104364404Y-91892380D01*
X37361904Y-108402380D02*
X37361904Y-107402380D01*
X37600000Y-107402380D01*
X37742857Y-107450000D01*
X37838095Y-107545238D01*
X37885714Y-107640476D01*
X37933333Y-107830952D01*
X37933333Y-107973809D01*
X37885714Y-108164285D01*
X37838095Y-108259523D01*
X37742857Y-108354761D01*
X37600000Y-108402380D01*
X37361904Y-108402380D01*
X38885714Y-108402380D02*
X38314285Y-108402380D01*
X38600000Y-108402380D02*
X38600000Y-107402380D01*
X38504761Y-107545238D01*
X38409523Y-107640476D01*
X38314285Y-107688095D01*
X63222142Y-74492380D02*
X62888809Y-74016190D01*
X62650714Y-74492380D02*
X62650714Y-73492380D01*
X63031666Y-73492380D01*
X63126904Y-73540000D01*
X63174523Y-73587619D01*
X63222142Y-73682857D01*
X63222142Y-73825714D01*
X63174523Y-73920952D01*
X63126904Y-73968571D01*
X63031666Y-74016190D01*
X62650714Y-74016190D01*
X64174523Y-74492380D02*
X63603095Y-74492380D01*
X63888809Y-74492380D02*
X63888809Y-73492380D01*
X63793571Y-73635238D01*
X63698333Y-73730476D01*
X63603095Y-73778095D01*
X64555476Y-73587619D02*
X64603095Y-73540000D01*
X64698333Y-73492380D01*
X64936428Y-73492380D01*
X65031666Y-73540000D01*
X65079285Y-73587619D01*
X65126904Y-73682857D01*
X65126904Y-73778095D01*
X65079285Y-73920952D01*
X64507857Y-74492380D01*
X65126904Y-74492380D01*
X42085833Y-92037380D02*
X41752500Y-91561190D01*
X41514404Y-92037380D02*
X41514404Y-91037380D01*
X41895357Y-91037380D01*
X41990595Y-91085000D01*
X42038214Y-91132619D01*
X42085833Y-91227857D01*
X42085833Y-91370714D01*
X42038214Y-91465952D01*
X41990595Y-91513571D01*
X41895357Y-91561190D01*
X41514404Y-91561190D01*
X43038214Y-92037380D02*
X42466785Y-92037380D01*
X42752500Y-92037380D02*
X42752500Y-91037380D01*
X42657261Y-91180238D01*
X42562023Y-91275476D01*
X42466785Y-91323095D01*
X54100833Y-124667380D02*
X53767500Y-124191190D01*
X53529404Y-124667380D02*
X53529404Y-123667380D01*
X53910357Y-123667380D01*
X54005595Y-123715000D01*
X54053214Y-123762619D01*
X54100833Y-123857857D01*
X54100833Y-124000714D01*
X54053214Y-124095952D01*
X54005595Y-124143571D01*
X53910357Y-124191190D01*
X53529404Y-124191190D01*
X54434166Y-123667380D02*
X55053214Y-123667380D01*
X54719880Y-124048333D01*
X54862738Y-124048333D01*
X54957976Y-124095952D01*
X55005595Y-124143571D01*
X55053214Y-124238809D01*
X55053214Y-124476904D01*
X55005595Y-124572142D01*
X54957976Y-124619761D01*
X54862738Y-124667380D01*
X54577023Y-124667380D01*
X54481785Y-124619761D01*
X54434166Y-124572142D01*
X71637142Y-110674166D02*
X71684761Y-110721785D01*
X71732380Y-110864642D01*
X71732380Y-110959880D01*
X71684761Y-111102738D01*
X71589523Y-111197976D01*
X71494285Y-111245595D01*
X71303809Y-111293214D01*
X71160952Y-111293214D01*
X70970476Y-111245595D01*
X70875238Y-111197976D01*
X70780000Y-111102738D01*
X70732380Y-110959880D01*
X70732380Y-110864642D01*
X70780000Y-110721785D01*
X70827619Y-110674166D01*
X71065714Y-109817023D02*
X71732380Y-109817023D01*
X70684761Y-110055119D02*
X71399047Y-110293214D01*
X71399047Y-109674166D01*
X37361904Y-105227380D02*
X37361904Y-104227380D01*
X37600000Y-104227380D01*
X37742857Y-104275000D01*
X37838095Y-104370238D01*
X37885714Y-104465476D01*
X37933333Y-104655952D01*
X37933333Y-104798809D01*
X37885714Y-104989285D01*
X37838095Y-105084523D01*
X37742857Y-105179761D01*
X37600000Y-105227380D01*
X37361904Y-105227380D01*
X38314285Y-104322619D02*
X38361904Y-104275000D01*
X38457142Y-104227380D01*
X38695238Y-104227380D01*
X38790476Y-104275000D01*
X38838095Y-104322619D01*
X38885714Y-104417857D01*
X38885714Y-104513095D01*
X38838095Y-104655952D01*
X38266666Y-105227380D01*
X38885714Y-105227380D01*
X63428571Y-121150000D02*
X63476190Y-121007142D01*
X63523809Y-120959523D01*
X63619047Y-120911904D01*
X63761904Y-120911904D01*
X63857142Y-120959523D01*
X63904761Y-121007142D01*
X63952380Y-121102380D01*
X63952380Y-121483333D01*
X62952380Y-121483333D01*
X62952380Y-121150000D01*
X63000000Y-121054761D01*
X63047619Y-121007142D01*
X63142857Y-120959523D01*
X63238095Y-120959523D01*
X63333333Y-121007142D01*
X63380952Y-121054761D01*
X63428571Y-121150000D01*
X63428571Y-121483333D01*
X62952380Y-120578571D02*
X63952380Y-120340476D01*
X63238095Y-120150000D01*
X63952380Y-119959523D01*
X62952380Y-119721428D01*
X79492142Y-109924166D02*
X79539761Y-109971785D01*
X79587380Y-110114642D01*
X79587380Y-110209880D01*
X79539761Y-110352738D01*
X79444523Y-110447976D01*
X79349285Y-110495595D01*
X79158809Y-110543214D01*
X79015952Y-110543214D01*
X78825476Y-110495595D01*
X78730238Y-110447976D01*
X78635000Y-110352738D01*
X78587380Y-110209880D01*
X78587380Y-110114642D01*
X78635000Y-109971785D01*
X78682619Y-109924166D01*
X79015952Y-109352738D02*
X78968333Y-109447976D01*
X78920714Y-109495595D01*
X78825476Y-109543214D01*
X78777857Y-109543214D01*
X78682619Y-109495595D01*
X78635000Y-109447976D01*
X78587380Y-109352738D01*
X78587380Y-109162261D01*
X78635000Y-109067023D01*
X78682619Y-109019404D01*
X78777857Y-108971785D01*
X78825476Y-108971785D01*
X78920714Y-109019404D01*
X78968333Y-109067023D01*
X79015952Y-109162261D01*
X79015952Y-109352738D01*
X79063571Y-109447976D01*
X79111190Y-109495595D01*
X79206428Y-109543214D01*
X79396904Y-109543214D01*
X79492142Y-109495595D01*
X79539761Y-109447976D01*
X79587380Y-109352738D01*
X79587380Y-109162261D01*
X79539761Y-109067023D01*
X79492142Y-109019404D01*
X79396904Y-108971785D01*
X79206428Y-108971785D01*
X79111190Y-109019404D01*
X79063571Y-109067023D01*
X79015952Y-109162261D01*
X68542142Y-103671666D02*
X68589761Y-103719285D01*
X68637380Y-103862142D01*
X68637380Y-103957380D01*
X68589761Y-104100238D01*
X68494523Y-104195476D01*
X68399285Y-104243095D01*
X68208809Y-104290714D01*
X68065952Y-104290714D01*
X67875476Y-104243095D01*
X67780238Y-104195476D01*
X67685000Y-104100238D01*
X67637380Y-103957380D01*
X67637380Y-103862142D01*
X67685000Y-103719285D01*
X67732619Y-103671666D01*
X67637380Y-102766904D02*
X67637380Y-103243095D01*
X68113571Y-103290714D01*
X68065952Y-103243095D01*
X68018333Y-103147857D01*
X68018333Y-102909761D01*
X68065952Y-102814523D01*
X68113571Y-102766904D01*
X68208809Y-102719285D01*
X68446904Y-102719285D01*
X68542142Y-102766904D01*
X68589761Y-102814523D01*
X68637380Y-102909761D01*
X68637380Y-103147857D01*
X68589761Y-103243095D01*
X68542142Y-103290714D01*
X81002142Y-70492857D02*
X81049761Y-70540476D01*
X81097380Y-70683333D01*
X81097380Y-70778571D01*
X81049761Y-70921428D01*
X80954523Y-71016666D01*
X80859285Y-71064285D01*
X80668809Y-71111904D01*
X80525952Y-71111904D01*
X80335476Y-71064285D01*
X80240238Y-71016666D01*
X80145000Y-70921428D01*
X80097380Y-70778571D01*
X80097380Y-70683333D01*
X80145000Y-70540476D01*
X80192619Y-70492857D01*
X81097380Y-69540476D02*
X81097380Y-70111904D01*
X81097380Y-69826190D02*
X80097380Y-69826190D01*
X80240238Y-69921428D01*
X80335476Y-70016666D01*
X80383095Y-70111904D01*
X80097380Y-69207142D02*
X80097380Y-68588095D01*
X80478333Y-68921428D01*
X80478333Y-68778571D01*
X80525952Y-68683333D01*
X80573571Y-68635714D01*
X80668809Y-68588095D01*
X80906904Y-68588095D01*
X81002142Y-68635714D01*
X81049761Y-68683333D01*
X81097380Y-68778571D01*
X81097380Y-69064285D01*
X81049761Y-69159523D01*
X81002142Y-69207142D01*
X78817380Y-77877380D02*
X77817380Y-77877380D01*
X77817380Y-77639285D01*
X77865000Y-77496428D01*
X77960238Y-77401190D01*
X78055476Y-77353571D01*
X78245952Y-77305952D01*
X78388809Y-77305952D01*
X78579285Y-77353571D01*
X78674523Y-77401190D01*
X78769761Y-77496428D01*
X78817380Y-77639285D01*
X78817380Y-77877380D01*
X78817380Y-76877380D02*
X78150714Y-76877380D01*
X77817380Y-76877380D02*
X77865000Y-76925000D01*
X77912619Y-76877380D01*
X77865000Y-76829761D01*
X77817380Y-76877380D01*
X77912619Y-76877380D01*
X78769761Y-76448809D02*
X78817380Y-76353571D01*
X78817380Y-76163095D01*
X78769761Y-76067857D01*
X78674523Y-76020238D01*
X78626904Y-76020238D01*
X78531666Y-76067857D01*
X78484047Y-76163095D01*
X78484047Y-76305952D01*
X78436428Y-76401190D01*
X78341190Y-76448809D01*
X78293571Y-76448809D01*
X78198333Y-76401190D01*
X78150714Y-76305952D01*
X78150714Y-76163095D01*
X78198333Y-76067857D01*
X78150714Y-75591666D02*
X79150714Y-75591666D01*
X78198333Y-75591666D02*
X78150714Y-75496428D01*
X78150714Y-75305952D01*
X78198333Y-75210714D01*
X78245952Y-75163095D01*
X78341190Y-75115476D01*
X78626904Y-75115476D01*
X78722142Y-75163095D01*
X78769761Y-75210714D01*
X78817380Y-75305952D01*
X78817380Y-75496428D01*
X78769761Y-75591666D01*
X78817380Y-74544047D02*
X78769761Y-74639285D01*
X78674523Y-74686904D01*
X77817380Y-74686904D01*
X78817380Y-73734523D02*
X78293571Y-73734523D01*
X78198333Y-73782142D01*
X78150714Y-73877380D01*
X78150714Y-74067857D01*
X78198333Y-74163095D01*
X78769761Y-73734523D02*
X78817380Y-73829761D01*
X78817380Y-74067857D01*
X78769761Y-74163095D01*
X78674523Y-74210714D01*
X78579285Y-74210714D01*
X78484047Y-74163095D01*
X78436428Y-74067857D01*
X78436428Y-73829761D01*
X78388809Y-73734523D01*
X78150714Y-73353571D02*
X78817380Y-73115476D01*
X78150714Y-72877380D02*
X78817380Y-73115476D01*
X79055476Y-73210714D01*
X79103095Y-73258333D01*
X79150714Y-73353571D01*
X62192142Y-103671666D02*
X62239761Y-103719285D01*
X62287380Y-103862142D01*
X62287380Y-103957380D01*
X62239761Y-104100238D01*
X62144523Y-104195476D01*
X62049285Y-104243095D01*
X61858809Y-104290714D01*
X61715952Y-104290714D01*
X61525476Y-104243095D01*
X61430238Y-104195476D01*
X61335000Y-104100238D01*
X61287380Y-103957380D01*
X61287380Y-103862142D01*
X61335000Y-103719285D01*
X61382619Y-103671666D01*
X61287380Y-102814523D02*
X61287380Y-103005000D01*
X61335000Y-103100238D01*
X61382619Y-103147857D01*
X61525476Y-103243095D01*
X61715952Y-103290714D01*
X62096904Y-103290714D01*
X62192142Y-103243095D01*
X62239761Y-103195476D01*
X62287380Y-103100238D01*
X62287380Y-102909761D01*
X62239761Y-102814523D01*
X62192142Y-102766904D01*
X62096904Y-102719285D01*
X61858809Y-102719285D01*
X61763571Y-102766904D01*
X61715952Y-102814523D01*
X61668333Y-102909761D01*
X61668333Y-103100238D01*
X61715952Y-103195476D01*
X61763571Y-103243095D01*
X61858809Y-103290714D01*
X82112380Y-91971666D02*
X81636190Y-92305000D01*
X82112380Y-92543095D02*
X81112380Y-92543095D01*
X81112380Y-92162142D01*
X81160000Y-92066904D01*
X81207619Y-92019285D01*
X81302857Y-91971666D01*
X81445714Y-91971666D01*
X81540952Y-92019285D01*
X81588571Y-92066904D01*
X81636190Y-92162142D01*
X81636190Y-92543095D01*
X81112380Y-91066904D02*
X81112380Y-91543095D01*
X81588571Y-91590714D01*
X81540952Y-91543095D01*
X81493333Y-91447857D01*
X81493333Y-91209761D01*
X81540952Y-91114523D01*
X81588571Y-91066904D01*
X81683809Y-91019285D01*
X81921904Y-91019285D01*
X82017142Y-91066904D01*
X82064761Y-91114523D01*
X82112380Y-91209761D01*
X82112380Y-91447857D01*
X82064761Y-91543095D01*
X82017142Y-91590714D01*
X110607380Y-85733476D02*
X109607380Y-85733476D01*
X110607380Y-85162047D02*
X110035952Y-85590619D01*
X109607380Y-85162047D02*
X110178809Y-85733476D01*
X110559761Y-84352523D02*
X110607380Y-84447761D01*
X110607380Y-84638238D01*
X110559761Y-84733476D01*
X110464523Y-84781095D01*
X110083571Y-84781095D01*
X109988333Y-84733476D01*
X109940714Y-84638238D01*
X109940714Y-84447761D01*
X109988333Y-84352523D01*
X110083571Y-84304904D01*
X110178809Y-84304904D01*
X110274047Y-84781095D01*
X109940714Y-83971571D02*
X110607380Y-83733476D01*
X109940714Y-83495380D02*
X110607380Y-83733476D01*
X110845476Y-83828714D01*
X110893095Y-83876333D01*
X110940714Y-83971571D01*
X110607380Y-83114428D02*
X109607380Y-83114428D01*
X109988333Y-83114428D02*
X109940714Y-83019190D01*
X109940714Y-82828714D01*
X109988333Y-82733476D01*
X110035952Y-82685857D01*
X110131190Y-82638238D01*
X110416904Y-82638238D01*
X110512142Y-82685857D01*
X110559761Y-82733476D01*
X110607380Y-82828714D01*
X110607380Y-83019190D01*
X110559761Y-83114428D01*
X110607380Y-82066809D02*
X110559761Y-82162047D01*
X110512142Y-82209666D01*
X110416904Y-82257285D01*
X110131190Y-82257285D01*
X110035952Y-82209666D01*
X109988333Y-82162047D01*
X109940714Y-82066809D01*
X109940714Y-81923952D01*
X109988333Y-81828714D01*
X110035952Y-81781095D01*
X110131190Y-81733476D01*
X110416904Y-81733476D01*
X110512142Y-81781095D01*
X110559761Y-81828714D01*
X110607380Y-81923952D01*
X110607380Y-82066809D01*
X110607380Y-80876333D02*
X110083571Y-80876333D01*
X109988333Y-80923952D01*
X109940714Y-81019190D01*
X109940714Y-81209666D01*
X109988333Y-81304904D01*
X110559761Y-80876333D02*
X110607380Y-80971571D01*
X110607380Y-81209666D01*
X110559761Y-81304904D01*
X110464523Y-81352523D01*
X110369285Y-81352523D01*
X110274047Y-81304904D01*
X110226428Y-81209666D01*
X110226428Y-80971571D01*
X110178809Y-80876333D01*
X110607380Y-80400142D02*
X109940714Y-80400142D01*
X110131190Y-80400142D02*
X110035952Y-80352523D01*
X109988333Y-80304904D01*
X109940714Y-80209666D01*
X109940714Y-80114428D01*
X110607380Y-79352523D02*
X109607380Y-79352523D01*
X110559761Y-79352523D02*
X110607380Y-79447761D01*
X110607380Y-79638238D01*
X110559761Y-79733476D01*
X110512142Y-79781095D01*
X110416904Y-79828714D01*
X110131190Y-79828714D01*
X110035952Y-79781095D01*
X109988333Y-79733476D01*
X109940714Y-79638238D01*
X109940714Y-79447761D01*
X109988333Y-79352523D01*
X41885833Y-100927380D02*
X41552500Y-100451190D01*
X41314404Y-100927380D02*
X41314404Y-99927380D01*
X41695357Y-99927380D01*
X41790595Y-99975000D01*
X41838214Y-100022619D01*
X41885833Y-100117857D01*
X41885833Y-100260714D01*
X41838214Y-100355952D01*
X41790595Y-100403571D01*
X41695357Y-100451190D01*
X41314404Y-100451190D01*
X42266785Y-100022619D02*
X42314404Y-99975000D01*
X42409642Y-99927380D01*
X42647738Y-99927380D01*
X42742976Y-99975000D01*
X42790595Y-100022619D01*
X42838214Y-100117857D01*
X42838214Y-100213095D01*
X42790595Y-100355952D01*
X42219166Y-100927380D01*
X42838214Y-100927380D01*
X120642142Y-86177380D02*
X120308809Y-85701190D01*
X120070714Y-86177380D02*
X120070714Y-85177380D01*
X120451666Y-85177380D01*
X120546904Y-85225000D01*
X120594523Y-85272619D01*
X120642142Y-85367857D01*
X120642142Y-85510714D01*
X120594523Y-85605952D01*
X120546904Y-85653571D01*
X120451666Y-85701190D01*
X120070714Y-85701190D01*
X121594523Y-86177380D02*
X121023095Y-86177380D01*
X121308809Y-86177380D02*
X121308809Y-85177380D01*
X121213571Y-85320238D01*
X121118333Y-85415476D01*
X121023095Y-85463095D01*
X122070714Y-86177380D02*
X122261190Y-86177380D01*
X122356428Y-86129761D01*
X122404047Y-86082142D01*
X122499285Y-85939285D01*
X122546904Y-85748809D01*
X122546904Y-85367857D01*
X122499285Y-85272619D01*
X122451666Y-85225000D01*
X122356428Y-85177380D01*
X122165952Y-85177380D01*
X122070714Y-85225000D01*
X122023095Y-85272619D01*
X121975476Y-85367857D01*
X121975476Y-85605952D01*
X122023095Y-85701190D01*
X122070714Y-85748809D01*
X122165952Y-85796428D01*
X122356428Y-85796428D01*
X122451666Y-85748809D01*
X122499285Y-85701190D01*
X122546904Y-85605952D01*
X81477380Y-117006666D02*
X81001190Y-117340000D01*
X81477380Y-117578095D02*
X80477380Y-117578095D01*
X80477380Y-117197142D01*
X80525000Y-117101904D01*
X80572619Y-117054285D01*
X80667857Y-117006666D01*
X80810714Y-117006666D01*
X80905952Y-117054285D01*
X80953571Y-117101904D01*
X81001190Y-117197142D01*
X81001190Y-117578095D01*
X80905952Y-116435238D02*
X80858333Y-116530476D01*
X80810714Y-116578095D01*
X80715476Y-116625714D01*
X80667857Y-116625714D01*
X80572619Y-116578095D01*
X80525000Y-116530476D01*
X80477380Y-116435238D01*
X80477380Y-116244761D01*
X80525000Y-116149523D01*
X80572619Y-116101904D01*
X80667857Y-116054285D01*
X80715476Y-116054285D01*
X80810714Y-116101904D01*
X80858333Y-116149523D01*
X80905952Y-116244761D01*
X80905952Y-116435238D01*
X80953571Y-116530476D01*
X81001190Y-116578095D01*
X81096428Y-116625714D01*
X81286904Y-116625714D01*
X81382142Y-116578095D01*
X81429761Y-116530476D01*
X81477380Y-116435238D01*
X81477380Y-116244761D01*
X81429761Y-116149523D01*
X81382142Y-116101904D01*
X81286904Y-116054285D01*
X81096428Y-116054285D01*
X81001190Y-116101904D01*
X80953571Y-116149523D01*
X80905952Y-116244761D01*
X117675952Y-92638571D02*
X117818809Y-92686190D01*
X117866428Y-92733809D01*
X117914047Y-92829047D01*
X117914047Y-92971904D01*
X117866428Y-93067142D01*
X117818809Y-93114761D01*
X117723571Y-93162380D01*
X117342619Y-93162380D01*
X117342619Y-92162380D01*
X117675952Y-92162380D01*
X117771190Y-92210000D01*
X117818809Y-92257619D01*
X117866428Y-92352857D01*
X117866428Y-92448095D01*
X117818809Y-92543333D01*
X117771190Y-92590952D01*
X117675952Y-92638571D01*
X117342619Y-92638571D01*
X118485476Y-93162380D02*
X118390238Y-93114761D01*
X118342619Y-93067142D01*
X118295000Y-92971904D01*
X118295000Y-92686190D01*
X118342619Y-92590952D01*
X118390238Y-92543333D01*
X118485476Y-92495714D01*
X118628333Y-92495714D01*
X118723571Y-92543333D01*
X118771190Y-92590952D01*
X118818809Y-92686190D01*
X118818809Y-92971904D01*
X118771190Y-93067142D01*
X118723571Y-93114761D01*
X118628333Y-93162380D01*
X118485476Y-93162380D01*
X119390238Y-93162380D02*
X119295000Y-93114761D01*
X119247380Y-93067142D01*
X119199761Y-92971904D01*
X119199761Y-92686190D01*
X119247380Y-92590952D01*
X119295000Y-92543333D01*
X119390238Y-92495714D01*
X119533095Y-92495714D01*
X119628333Y-92543333D01*
X119675952Y-92590952D01*
X119723571Y-92686190D01*
X119723571Y-92971904D01*
X119675952Y-93067142D01*
X119628333Y-93114761D01*
X119533095Y-93162380D01*
X119390238Y-93162380D01*
X120009285Y-92495714D02*
X120390238Y-92495714D01*
X120152142Y-92162380D02*
X120152142Y-93019523D01*
X120199761Y-93114761D01*
X120295000Y-93162380D01*
X120390238Y-93162380D01*
X120277142Y-74747380D02*
X119943809Y-74271190D01*
X119705714Y-74747380D02*
X119705714Y-73747380D01*
X120086666Y-73747380D01*
X120181904Y-73795000D01*
X120229523Y-73842619D01*
X120277142Y-73937857D01*
X120277142Y-74080714D01*
X120229523Y-74175952D01*
X120181904Y-74223571D01*
X120086666Y-74271190D01*
X119705714Y-74271190D01*
X121229523Y-74747380D02*
X120658095Y-74747380D01*
X120943809Y-74747380D02*
X120943809Y-73747380D01*
X120848571Y-73890238D01*
X120753333Y-73985476D01*
X120658095Y-74033095D01*
X122086666Y-73747380D02*
X121896190Y-73747380D01*
X121800952Y-73795000D01*
X121753333Y-73842619D01*
X121658095Y-73985476D01*
X121610476Y-74175952D01*
X121610476Y-74556904D01*
X121658095Y-74652142D01*
X121705714Y-74699761D01*
X121800952Y-74747380D01*
X121991428Y-74747380D01*
X122086666Y-74699761D01*
X122134285Y-74652142D01*
X122181904Y-74556904D01*
X122181904Y-74318809D01*
X122134285Y-74223571D01*
X122086666Y-74175952D01*
X121991428Y-74128333D01*
X121800952Y-74128333D01*
X121705714Y-74175952D01*
X121658095Y-74223571D01*
X121610476Y-74318809D01*
X51019780Y-76354504D02*
X51829304Y-76354504D01*
X51924542Y-76306885D01*
X51972161Y-76259266D01*
X52019780Y-76164028D01*
X52019780Y-75973552D01*
X51972161Y-75878314D01*
X51924542Y-75830695D01*
X51829304Y-75783076D01*
X51019780Y-75783076D01*
X51115019Y-75354504D02*
X51067400Y-75306885D01*
X51019780Y-75211647D01*
X51019780Y-74973552D01*
X51067400Y-74878314D01*
X51115019Y-74830695D01*
X51210257Y-74783076D01*
X51305495Y-74783076D01*
X51448352Y-74830695D01*
X52019780Y-75402123D01*
X52019780Y-74783076D01*
X58253333Y-90227380D02*
X57777142Y-90227380D01*
X57777142Y-89227380D01*
X59110476Y-90227380D02*
X58539047Y-90227380D01*
X58824761Y-90227380D02*
X58824761Y-89227380D01*
X58729523Y-89370238D01*
X58634285Y-89465476D01*
X58539047Y-89513095D01*
X74892142Y-104050357D02*
X74939761Y-104097976D01*
X74987380Y-104240833D01*
X74987380Y-104336071D01*
X74939761Y-104478928D01*
X74844523Y-104574166D01*
X74749285Y-104621785D01*
X74558809Y-104669404D01*
X74415952Y-104669404D01*
X74225476Y-104621785D01*
X74130238Y-104574166D01*
X74035000Y-104478928D01*
X73987380Y-104336071D01*
X73987380Y-104240833D01*
X74035000Y-104097976D01*
X74082619Y-104050357D01*
X74987380Y-103097976D02*
X74987380Y-103669404D01*
X74987380Y-103383690D02*
X73987380Y-103383690D01*
X74130238Y-103478928D01*
X74225476Y-103574166D01*
X74273095Y-103669404D01*
X74320714Y-102240833D02*
X74987380Y-102240833D01*
X73939761Y-102478928D02*
X74654047Y-102717023D01*
X74654047Y-102097976D01*
X120007142Y-70937380D02*
X119673809Y-70461190D01*
X119435714Y-70937380D02*
X119435714Y-69937380D01*
X119816666Y-69937380D01*
X119911904Y-69985000D01*
X119959523Y-70032619D01*
X120007142Y-70127857D01*
X120007142Y-70270714D01*
X119959523Y-70365952D01*
X119911904Y-70413571D01*
X119816666Y-70461190D01*
X119435714Y-70461190D01*
X120959523Y-70937380D02*
X120388095Y-70937380D01*
X120673809Y-70937380D02*
X120673809Y-69937380D01*
X120578571Y-70080238D01*
X120483333Y-70175476D01*
X120388095Y-70223095D01*
X121864285Y-69937380D02*
X121388095Y-69937380D01*
X121340476Y-70413571D01*
X121388095Y-70365952D01*
X121483333Y-70318333D01*
X121721428Y-70318333D01*
X121816666Y-70365952D01*
X121864285Y-70413571D01*
X121911904Y-70508809D01*
X121911904Y-70746904D01*
X121864285Y-70842142D01*
X121816666Y-70889761D01*
X121721428Y-70937380D01*
X121483333Y-70937380D01*
X121388095Y-70889761D01*
X121340476Y-70842142D01*
X124912380Y-90669523D02*
X123912380Y-90669523D01*
X123912380Y-90288571D01*
X123960000Y-90193333D01*
X124007619Y-90145714D01*
X124102857Y-90098095D01*
X124245714Y-90098095D01*
X124340952Y-90145714D01*
X124388571Y-90193333D01*
X124436190Y-90288571D01*
X124436190Y-90669523D01*
X124912380Y-89669523D02*
X124245714Y-89669523D01*
X124436190Y-89669523D02*
X124340952Y-89621904D01*
X124293333Y-89574285D01*
X124245714Y-89479047D01*
X124245714Y-89383809D01*
X124912380Y-88907619D02*
X124864761Y-89002857D01*
X124817142Y-89050476D01*
X124721904Y-89098095D01*
X124436190Y-89098095D01*
X124340952Y-89050476D01*
X124293333Y-89002857D01*
X124245714Y-88907619D01*
X124245714Y-88764761D01*
X124293333Y-88669523D01*
X124340952Y-88621904D01*
X124436190Y-88574285D01*
X124721904Y-88574285D01*
X124817142Y-88621904D01*
X124864761Y-88669523D01*
X124912380Y-88764761D01*
X124912380Y-88907619D01*
X124245714Y-87717142D02*
X125055238Y-87717142D01*
X125150476Y-87764761D01*
X125198095Y-87812380D01*
X125245714Y-87907619D01*
X125245714Y-88050476D01*
X125198095Y-88145714D01*
X124864761Y-87717142D02*
X124912380Y-87812380D01*
X124912380Y-88002857D01*
X124864761Y-88098095D01*
X124817142Y-88145714D01*
X124721904Y-88193333D01*
X124436190Y-88193333D01*
X124340952Y-88145714D01*
X124293333Y-88098095D01*
X124245714Y-88002857D01*
X124245714Y-87812380D01*
X124293333Y-87717142D01*
X124912380Y-87240952D02*
X124245714Y-87240952D01*
X124436190Y-87240952D02*
X124340952Y-87193333D01*
X124293333Y-87145714D01*
X124245714Y-87050476D01*
X124245714Y-86955238D01*
X124912380Y-86193333D02*
X124388571Y-86193333D01*
X124293333Y-86240952D01*
X124245714Y-86336190D01*
X124245714Y-86526666D01*
X124293333Y-86621904D01*
X124864761Y-86193333D02*
X124912380Y-86288571D01*
X124912380Y-86526666D01*
X124864761Y-86621904D01*
X124769523Y-86669523D01*
X124674285Y-86669523D01*
X124579047Y-86621904D01*
X124531428Y-86526666D01*
X124531428Y-86288571D01*
X124483809Y-86193333D01*
X124912380Y-85717142D02*
X124245714Y-85717142D01*
X124340952Y-85717142D02*
X124293333Y-85669523D01*
X124245714Y-85574285D01*
X124245714Y-85431428D01*
X124293333Y-85336190D01*
X124388571Y-85288571D01*
X124912380Y-85288571D01*
X124388571Y-85288571D02*
X124293333Y-85240952D01*
X124245714Y-85145714D01*
X124245714Y-85002857D01*
X124293333Y-84907619D01*
X124388571Y-84860000D01*
X124912380Y-84860000D01*
X124912380Y-84383809D02*
X124245714Y-84383809D01*
X124340952Y-84383809D02*
X124293333Y-84336190D01*
X124245714Y-84240952D01*
X124245714Y-84098095D01*
X124293333Y-84002857D01*
X124388571Y-83955238D01*
X124912380Y-83955238D01*
X124388571Y-83955238D02*
X124293333Y-83907619D01*
X124245714Y-83812380D01*
X124245714Y-83669523D01*
X124293333Y-83574285D01*
X124388571Y-83526666D01*
X124912380Y-83526666D01*
X124864761Y-82669523D02*
X124912380Y-82764761D01*
X124912380Y-82955238D01*
X124864761Y-83050476D01*
X124769523Y-83098095D01*
X124388571Y-83098095D01*
X124293333Y-83050476D01*
X124245714Y-82955238D01*
X124245714Y-82764761D01*
X124293333Y-82669523D01*
X124388571Y-82621904D01*
X124483809Y-82621904D01*
X124579047Y-83098095D01*
X124912380Y-82193333D02*
X124245714Y-82193333D01*
X124436190Y-82193333D02*
X124340952Y-82145714D01*
X124293333Y-82098095D01*
X124245714Y-82002857D01*
X124245714Y-81907619D01*
X93321642Y-101957142D02*
X93274023Y-102004761D01*
X93131166Y-102052380D01*
X93035928Y-102052380D01*
X92893071Y-102004761D01*
X92797833Y-101909523D01*
X92750214Y-101814285D01*
X92702595Y-101623809D01*
X92702595Y-101480952D01*
X92750214Y-101290476D01*
X92797833Y-101195238D01*
X92893071Y-101100000D01*
X93035928Y-101052380D01*
X93131166Y-101052380D01*
X93274023Y-101100000D01*
X93321642Y-101147619D01*
X94274023Y-102052380D02*
X93702595Y-102052380D01*
X93988309Y-102052380D02*
X93988309Y-101052380D01*
X93893071Y-101195238D01*
X93797833Y-101290476D01*
X93702595Y-101338095D01*
X94893071Y-101052380D02*
X94988309Y-101052380D01*
X95083547Y-101100000D01*
X95131166Y-101147619D01*
X95178785Y-101242857D01*
X95226404Y-101433333D01*
X95226404Y-101671428D01*
X95178785Y-101861904D01*
X95131166Y-101957142D01*
X95083547Y-102004761D01*
X94988309Y-102052380D01*
X94893071Y-102052380D01*
X94797833Y-102004761D01*
X94750214Y-101957142D01*
X94702595Y-101861904D01*
X94654976Y-101671428D01*
X94654976Y-101433333D01*
X94702595Y-101242857D01*
X94750214Y-101147619D01*
X94797833Y-101100000D01*
X94893071Y-101052380D01*
X121923571Y-109243571D02*
X121971190Y-109100714D01*
X122018809Y-109053095D01*
X122114047Y-109005476D01*
X122256904Y-109005476D01*
X122352142Y-109053095D01*
X122399761Y-109100714D01*
X122447380Y-109195952D01*
X122447380Y-109576904D01*
X121447380Y-109576904D01*
X121447380Y-109243571D01*
X121495000Y-109148333D01*
X121542619Y-109100714D01*
X121637857Y-109053095D01*
X121733095Y-109053095D01*
X121828333Y-109100714D01*
X121875952Y-109148333D01*
X121923571Y-109243571D01*
X121923571Y-109576904D01*
X121780714Y-108148333D02*
X122447380Y-108148333D01*
X121780714Y-108576904D02*
X122304523Y-108576904D01*
X122399761Y-108529285D01*
X122447380Y-108434047D01*
X122447380Y-108291190D01*
X122399761Y-108195952D01*
X122352142Y-108148333D01*
X121780714Y-107767380D02*
X121780714Y-107243571D01*
X122447380Y-107767380D01*
X122447380Y-107243571D01*
X121780714Y-106957857D02*
X121780714Y-106434047D01*
X122447380Y-106957857D01*
X122447380Y-106434047D01*
X122399761Y-105672142D02*
X122447380Y-105767380D01*
X122447380Y-105957857D01*
X122399761Y-106053095D01*
X122304523Y-106100714D01*
X121923571Y-106100714D01*
X121828333Y-106053095D01*
X121780714Y-105957857D01*
X121780714Y-105767380D01*
X121828333Y-105672142D01*
X121923571Y-105624523D01*
X122018809Y-105624523D01*
X122114047Y-106100714D01*
X122447380Y-105195952D02*
X121780714Y-105195952D01*
X121971190Y-105195952D02*
X121875952Y-105148333D01*
X121828333Y-105100714D01*
X121780714Y-105005476D01*
X121780714Y-104910238D01*
X42997380Y-77556904D02*
X41997380Y-77556904D01*
X42711666Y-77223571D01*
X41997380Y-76890238D01*
X42997380Y-76890238D01*
X42997380Y-76414047D02*
X42330714Y-76414047D01*
X41997380Y-76414047D02*
X42045000Y-76461666D01*
X42092619Y-76414047D01*
X42045000Y-76366428D01*
X41997380Y-76414047D01*
X42092619Y-76414047D01*
X42949761Y-75509285D02*
X42997380Y-75604523D01*
X42997380Y-75795000D01*
X42949761Y-75890238D01*
X42902142Y-75937857D01*
X42806904Y-75985476D01*
X42521190Y-75985476D01*
X42425952Y-75937857D01*
X42378333Y-75890238D01*
X42330714Y-75795000D01*
X42330714Y-75604523D01*
X42378333Y-75509285D01*
X42997380Y-75080714D02*
X42330714Y-75080714D01*
X42521190Y-75080714D02*
X42425952Y-75033095D01*
X42378333Y-74985476D01*
X42330714Y-74890238D01*
X42330714Y-74795000D01*
X42997380Y-74318809D02*
X42949761Y-74414047D01*
X42902142Y-74461666D01*
X42806904Y-74509285D01*
X42521190Y-74509285D01*
X42425952Y-74461666D01*
X42378333Y-74414047D01*
X42330714Y-74318809D01*
X42330714Y-74175952D01*
X42378333Y-74080714D01*
X42425952Y-74033095D01*
X42521190Y-73985476D01*
X42806904Y-73985476D01*
X42902142Y-74033095D01*
X42949761Y-74080714D01*
X42997380Y-74175952D01*
X42997380Y-74318809D01*
X41997380Y-73556904D02*
X42806904Y-73556904D01*
X42902142Y-73509285D01*
X42949761Y-73461666D01*
X42997380Y-73366428D01*
X42997380Y-73175952D01*
X42949761Y-73080714D01*
X42902142Y-73033095D01*
X42806904Y-72985476D01*
X41997380Y-72985476D01*
X42949761Y-72556904D02*
X42997380Y-72414047D01*
X42997380Y-72175952D01*
X42949761Y-72080714D01*
X42902142Y-72033095D01*
X42806904Y-71985476D01*
X42711666Y-71985476D01*
X42616428Y-72033095D01*
X42568809Y-72080714D01*
X42521190Y-72175952D01*
X42473571Y-72366428D01*
X42425952Y-72461666D01*
X42378333Y-72509285D01*
X42283095Y-72556904D01*
X42187857Y-72556904D01*
X42092619Y-72509285D01*
X42045000Y-72461666D01*
X41997380Y-72366428D01*
X41997380Y-72128333D01*
X42045000Y-71985476D01*
X42473571Y-71223571D02*
X42521190Y-71080714D01*
X42568809Y-71033095D01*
X42664047Y-70985476D01*
X42806904Y-70985476D01*
X42902142Y-71033095D01*
X42949761Y-71080714D01*
X42997380Y-71175952D01*
X42997380Y-71556904D01*
X41997380Y-71556904D01*
X41997380Y-71223571D01*
X42045000Y-71128333D01*
X42092619Y-71080714D01*
X42187857Y-71033095D01*
X42283095Y-71033095D01*
X42378333Y-71080714D01*
X42425952Y-71128333D01*
X42473571Y-71223571D01*
X42473571Y-71556904D01*
X68582380Y-94300595D02*
X67582380Y-94300595D01*
X67582380Y-94062500D01*
X67630000Y-93919642D01*
X67725238Y-93824404D01*
X67820476Y-93776785D01*
X68010952Y-93729166D01*
X68153809Y-93729166D01*
X68344285Y-93776785D01*
X68439523Y-93824404D01*
X68534761Y-93919642D01*
X68582380Y-94062500D01*
X68582380Y-94300595D01*
X67582380Y-93395833D02*
X67582380Y-92776785D01*
X67963333Y-93110119D01*
X67963333Y-92967261D01*
X68010952Y-92872023D01*
X68058571Y-92824404D01*
X68153809Y-92776785D01*
X68391904Y-92776785D01*
X68487142Y-92824404D01*
X68534761Y-92872023D01*
X68582380Y-92967261D01*
X68582380Y-93252976D01*
X68534761Y-93348214D01*
X68487142Y-93395833D01*
X120372142Y-78557380D02*
X120038809Y-78081190D01*
X119800714Y-78557380D02*
X119800714Y-77557380D01*
X120181666Y-77557380D01*
X120276904Y-77605000D01*
X120324523Y-77652619D01*
X120372142Y-77747857D01*
X120372142Y-77890714D01*
X120324523Y-77985952D01*
X120276904Y-78033571D01*
X120181666Y-78081190D01*
X119800714Y-78081190D01*
X121324523Y-78557380D02*
X120753095Y-78557380D01*
X121038809Y-78557380D02*
X121038809Y-77557380D01*
X120943571Y-77700238D01*
X120848333Y-77795476D01*
X120753095Y-77843095D01*
X121657857Y-77557380D02*
X122324523Y-77557380D01*
X121895952Y-78557380D01*
X120912142Y-82367380D02*
X120578809Y-81891190D01*
X120340714Y-82367380D02*
X120340714Y-81367380D01*
X120721666Y-81367380D01*
X120816904Y-81415000D01*
X120864523Y-81462619D01*
X120912142Y-81557857D01*
X120912142Y-81700714D01*
X120864523Y-81795952D01*
X120816904Y-81843571D01*
X120721666Y-81891190D01*
X120340714Y-81891190D01*
X121864523Y-82367380D02*
X121293095Y-82367380D01*
X121578809Y-82367380D02*
X121578809Y-81367380D01*
X121483571Y-81510238D01*
X121388333Y-81605476D01*
X121293095Y-81653095D01*
X122435952Y-81795952D02*
X122340714Y-81748333D01*
X122293095Y-81700714D01*
X122245476Y-81605476D01*
X122245476Y-81557857D01*
X122293095Y-81462619D01*
X122340714Y-81415000D01*
X122435952Y-81367380D01*
X122626428Y-81367380D01*
X122721666Y-81415000D01*
X122769285Y-81462619D01*
X122816904Y-81557857D01*
X122816904Y-81605476D01*
X122769285Y-81700714D01*
X122721666Y-81748333D01*
X122626428Y-81795952D01*
X122435952Y-81795952D01*
X122340714Y-81843571D01*
X122293095Y-81891190D01*
X122245476Y-81986428D01*
X122245476Y-82176904D01*
X122293095Y-82272142D01*
X122340714Y-82319761D01*
X122435952Y-82367380D01*
X122626428Y-82367380D01*
X122721666Y-82319761D01*
X122769285Y-82272142D01*
X122816904Y-82176904D01*
X122816904Y-81986428D01*
X122769285Y-81891190D01*
X122721666Y-81843571D01*
X122626428Y-81795952D01*
X54100833Y-110407380D02*
X53767500Y-109931190D01*
X53529404Y-110407380D02*
X53529404Y-109407380D01*
X53910357Y-109407380D01*
X54005595Y-109455000D01*
X54053214Y-109502619D01*
X54100833Y-109597857D01*
X54100833Y-109740714D01*
X54053214Y-109835952D01*
X54005595Y-109883571D01*
X53910357Y-109931190D01*
X53529404Y-109931190D01*
X54957976Y-109740714D02*
X54957976Y-110407380D01*
X54719880Y-109359761D02*
X54481785Y-110074047D01*
X55100833Y-110074047D01*
X45288571Y-116371428D02*
X45336190Y-116228571D01*
X45383809Y-116180952D01*
X45479047Y-116133333D01*
X45621904Y-116133333D01*
X45717142Y-116180952D01*
X45764761Y-116228571D01*
X45812380Y-116323809D01*
X45812380Y-116704761D01*
X44812380Y-116704761D01*
X44812380Y-116371428D01*
X44860000Y-116276190D01*
X44907619Y-116228571D01*
X45002857Y-116180952D01*
X45098095Y-116180952D01*
X45193333Y-116228571D01*
X45240952Y-116276190D01*
X45288571Y-116371428D01*
X45288571Y-116704761D01*
X45812380Y-115276190D02*
X45288571Y-115276190D01*
X45193333Y-115323809D01*
X45145714Y-115419047D01*
X45145714Y-115609523D01*
X45193333Y-115704761D01*
X45764761Y-115276190D02*
X45812380Y-115371428D01*
X45812380Y-115609523D01*
X45764761Y-115704761D01*
X45669523Y-115752380D01*
X45574285Y-115752380D01*
X45479047Y-115704761D01*
X45431428Y-115609523D01*
X45431428Y-115371428D01*
X45383809Y-115276190D01*
X45145714Y-114942857D02*
X45145714Y-114561904D01*
X44812380Y-114800000D02*
X45669523Y-114800000D01*
X45764761Y-114752380D01*
X45812380Y-114657142D01*
X45812380Y-114561904D01*
X45145714Y-114371428D02*
X45145714Y-113990476D01*
X44812380Y-114228571D02*
X45669523Y-114228571D01*
X45764761Y-114180952D01*
X45812380Y-114085714D01*
X45812380Y-113990476D01*
X45764761Y-113276190D02*
X45812380Y-113371428D01*
X45812380Y-113561904D01*
X45764761Y-113657142D01*
X45669523Y-113704761D01*
X45288571Y-113704761D01*
X45193333Y-113657142D01*
X45145714Y-113561904D01*
X45145714Y-113371428D01*
X45193333Y-113276190D01*
X45288571Y-113228571D01*
X45383809Y-113228571D01*
X45479047Y-113704761D01*
X45812380Y-112800000D02*
X45145714Y-112800000D01*
X45336190Y-112800000D02*
X45240952Y-112752380D01*
X45193333Y-112704761D01*
X45145714Y-112609523D01*
X45145714Y-112514285D01*
X45145714Y-112276190D02*
X45812380Y-112038095D01*
X45145714Y-111800000D02*
X45812380Y-112038095D01*
X46050476Y-112133333D01*
X46098095Y-112180952D01*
X46145714Y-112276190D01*
X96242142Y-92147380D02*
X95908809Y-91671190D01*
X95670714Y-92147380D02*
X95670714Y-91147380D01*
X96051666Y-91147380D01*
X96146904Y-91195000D01*
X96194523Y-91242619D01*
X96242142Y-91337857D01*
X96242142Y-91480714D01*
X96194523Y-91575952D01*
X96146904Y-91623571D01*
X96051666Y-91671190D01*
X95670714Y-91671190D01*
X97194523Y-92147380D02*
X96623095Y-92147380D01*
X96908809Y-92147380D02*
X96908809Y-91147380D01*
X96813571Y-91290238D01*
X96718333Y-91385476D01*
X96623095Y-91433095D01*
X97813571Y-91147380D02*
X97908809Y-91147380D01*
X98004047Y-91195000D01*
X98051666Y-91242619D01*
X98099285Y-91337857D01*
X98146904Y-91528333D01*
X98146904Y-91766428D01*
X98099285Y-91956904D01*
X98051666Y-92052142D01*
X98004047Y-92099761D01*
X97908809Y-92147380D01*
X97813571Y-92147380D01*
X97718333Y-92099761D01*
X97670714Y-92052142D01*
X97623095Y-91956904D01*
X97575476Y-91766428D01*
X97575476Y-91528333D01*
X97623095Y-91337857D01*
X97670714Y-91242619D01*
X97718333Y-91195000D01*
X97813571Y-91147380D01*
X115197142Y-63062380D02*
X114863809Y-62586190D01*
X114625714Y-63062380D02*
X114625714Y-62062380D01*
X115006666Y-62062380D01*
X115101904Y-62110000D01*
X115149523Y-62157619D01*
X115197142Y-62252857D01*
X115197142Y-62395714D01*
X115149523Y-62490952D01*
X115101904Y-62538571D01*
X115006666Y-62586190D01*
X114625714Y-62586190D01*
X116149523Y-63062380D02*
X115578095Y-63062380D01*
X115863809Y-63062380D02*
X115863809Y-62062380D01*
X115768571Y-62205238D01*
X115673333Y-62300476D01*
X115578095Y-62348095D01*
X116482857Y-62062380D02*
X117101904Y-62062380D01*
X116768571Y-62443333D01*
X116911428Y-62443333D01*
X117006666Y-62490952D01*
X117054285Y-62538571D01*
X117101904Y-62633809D01*
X117101904Y-62871904D01*
X117054285Y-62967142D01*
X117006666Y-63014761D01*
X116911428Y-63062380D01*
X116625714Y-63062380D01*
X116530476Y-63014761D01*
X116482857Y-62967142D01*
X62192142Y-110266666D02*
X62239761Y-110314285D01*
X62287380Y-110457142D01*
X62287380Y-110552380D01*
X62239761Y-110695238D01*
X62144523Y-110790476D01*
X62049285Y-110838095D01*
X61858809Y-110885714D01*
X61715952Y-110885714D01*
X61525476Y-110838095D01*
X61430238Y-110790476D01*
X61335000Y-110695238D01*
X61287380Y-110552380D01*
X61287380Y-110457142D01*
X61335000Y-110314285D01*
X61382619Y-110266666D01*
X62287380Y-109314285D02*
X62287380Y-109885714D01*
X62287380Y-109600000D02*
X61287380Y-109600000D01*
X61430238Y-109695238D01*
X61525476Y-109790476D01*
X61573095Y-109885714D01*
X120007142Y-67127380D02*
X119673809Y-66651190D01*
X119435714Y-67127380D02*
X119435714Y-66127380D01*
X119816666Y-66127380D01*
X119911904Y-66175000D01*
X119959523Y-66222619D01*
X120007142Y-66317857D01*
X120007142Y-66460714D01*
X119959523Y-66555952D01*
X119911904Y-66603571D01*
X119816666Y-66651190D01*
X119435714Y-66651190D01*
X120959523Y-67127380D02*
X120388095Y-67127380D01*
X120673809Y-67127380D02*
X120673809Y-66127380D01*
X120578571Y-66270238D01*
X120483333Y-66365476D01*
X120388095Y-66413095D01*
X121816666Y-66460714D02*
X121816666Y-67127380D01*
X121578571Y-66079761D02*
X121340476Y-66794047D01*
X121959523Y-66794047D01*
X55702380Y-75941666D02*
X55702380Y-76417857D01*
X54702380Y-76417857D01*
X54797619Y-75655952D02*
X54750000Y-75608333D01*
X54702380Y-75513095D01*
X54702380Y-75275000D01*
X54750000Y-75179761D01*
X54797619Y-75132142D01*
X54892857Y-75084523D01*
X54988095Y-75084523D01*
X55130952Y-75132142D01*
X55702380Y-75703571D01*
X55702380Y-75084523D01*
X51397142Y-85549166D02*
X51444761Y-85596785D01*
X51492380Y-85739642D01*
X51492380Y-85834880D01*
X51444761Y-85977738D01*
X51349523Y-86072976D01*
X51254285Y-86120595D01*
X51063809Y-86168214D01*
X50920952Y-86168214D01*
X50730476Y-86120595D01*
X50635238Y-86072976D01*
X50540000Y-85977738D01*
X50492380Y-85834880D01*
X50492380Y-85739642D01*
X50540000Y-85596785D01*
X50587619Y-85549166D01*
X50492380Y-85215833D02*
X50492380Y-84549166D01*
X51492380Y-84977738D01*
X86863571Y-102591904D02*
X86863571Y-102258571D01*
X87387380Y-102115714D02*
X87387380Y-102591904D01*
X86387380Y-102591904D01*
X86387380Y-102115714D01*
X86720714Y-101687142D02*
X87387380Y-101687142D01*
X86815952Y-101687142D02*
X86768333Y-101639523D01*
X86720714Y-101544285D01*
X86720714Y-101401428D01*
X86768333Y-101306190D01*
X86863571Y-101258571D01*
X87387380Y-101258571D01*
X87387380Y-100353809D02*
X86863571Y-100353809D01*
X86768333Y-100401428D01*
X86720714Y-100496666D01*
X86720714Y-100687142D01*
X86768333Y-100782380D01*
X87339761Y-100353809D02*
X87387380Y-100449047D01*
X87387380Y-100687142D01*
X87339761Y-100782380D01*
X87244523Y-100830000D01*
X87149285Y-100830000D01*
X87054047Y-100782380D01*
X87006428Y-100687142D01*
X87006428Y-100449047D01*
X86958809Y-100353809D01*
X87387380Y-99877619D02*
X86387380Y-99877619D01*
X86768333Y-99877619D02*
X86720714Y-99782380D01*
X86720714Y-99591904D01*
X86768333Y-99496666D01*
X86815952Y-99449047D01*
X86911190Y-99401428D01*
X87196904Y-99401428D01*
X87292142Y-99449047D01*
X87339761Y-99496666D01*
X87387380Y-99591904D01*
X87387380Y-99782380D01*
X87339761Y-99877619D01*
X87387380Y-98830000D02*
X87339761Y-98925238D01*
X87244523Y-98972857D01*
X86387380Y-98972857D01*
X87339761Y-98068095D02*
X87387380Y-98163333D01*
X87387380Y-98353809D01*
X87339761Y-98449047D01*
X87244523Y-98496666D01*
X86863571Y-98496666D01*
X86768333Y-98449047D01*
X86720714Y-98353809D01*
X86720714Y-98163333D01*
X86768333Y-98068095D01*
X86863571Y-98020476D01*
X86958809Y-98020476D01*
X87054047Y-98496666D01*
X64732142Y-85256666D02*
X64779761Y-85304285D01*
X64827380Y-85447142D01*
X64827380Y-85542380D01*
X64779761Y-85685238D01*
X64684523Y-85780476D01*
X64589285Y-85828095D01*
X64398809Y-85875714D01*
X64255952Y-85875714D01*
X64065476Y-85828095D01*
X63970238Y-85780476D01*
X63875000Y-85685238D01*
X63827380Y-85542380D01*
X63827380Y-85447142D01*
X63875000Y-85304285D01*
X63922619Y-85256666D01*
X63827380Y-84923333D02*
X63827380Y-84304285D01*
X64208333Y-84637619D01*
X64208333Y-84494761D01*
X64255952Y-84399523D01*
X64303571Y-84351904D01*
X64398809Y-84304285D01*
X64636904Y-84304285D01*
X64732142Y-84351904D01*
X64779761Y-84399523D01*
X64827380Y-84494761D01*
X64827380Y-84780476D01*
X64779761Y-84875714D01*
X64732142Y-84923333D01*
X58382142Y-86334880D02*
X58429761Y-86382500D01*
X58477380Y-86525357D01*
X58477380Y-86620595D01*
X58429761Y-86763452D01*
X58334523Y-86858690D01*
X58239285Y-86906309D01*
X58048809Y-86953928D01*
X57905952Y-86953928D01*
X57715476Y-86906309D01*
X57620238Y-86858690D01*
X57525000Y-86763452D01*
X57477380Y-86620595D01*
X57477380Y-86525357D01*
X57525000Y-86382500D01*
X57572619Y-86334880D01*
X58572619Y-86144404D02*
X58572619Y-85382500D01*
X58477380Y-85144404D02*
X57477380Y-85144404D01*
X58096428Y-85049166D02*
X58477380Y-84763452D01*
X57810714Y-84763452D02*
X58191666Y-85144404D01*
X58477380Y-83811071D02*
X58477380Y-84382500D01*
X58477380Y-84096785D02*
X57477380Y-84096785D01*
X57620238Y-84192023D01*
X57715476Y-84287261D01*
X57763095Y-84382500D01*
D12*
X85625000Y-91311248D02*
X85625000Y-91833752D01*
X87095000Y-91311248D02*
X87095000Y-91833752D01*
X47750000Y-84601267D02*
X47750000Y-84308733D01*
X48770000Y-84601267D02*
X48770000Y-84308733D01*
X47157600Y-62085200D02*
X53167600Y-62085200D01*
X53167600Y-68905200D02*
X53167600Y-67645200D01*
X49407600Y-68905200D02*
X53167600Y-68905200D01*
X53167600Y-62085200D02*
X53167600Y-63345200D01*
X74337936Y-60225000D02*
X74792064Y-60225000D01*
X74337936Y-61695000D02*
X74792064Y-61695000D01*
X96927936Y-96785000D02*
X97382064Y-96785000D01*
X96927936Y-98255000D02*
X97382064Y-98255000D01*
X117830000Y-102920000D02*
X106980000Y-102920000D01*
X117830000Y-114820000D02*
X117830000Y-112920000D01*
X117830000Y-112920000D02*
X117830000Y-112870000D01*
X117330000Y-107720000D02*
X117830000Y-108020000D01*
X117830000Y-108020000D02*
X117830000Y-102920000D01*
X117330000Y-115520000D02*
X117330000Y-114570000D01*
X117830000Y-112870000D02*
X117330000Y-113120000D01*
X106980000Y-102920000D02*
X106980000Y-115520000D01*
X117330000Y-114570000D02*
X117830000Y-114820000D01*
X106980000Y-115520000D02*
X117330000Y-115520000D01*
X117330000Y-113120000D02*
X117330000Y-107720000D01*
X87630000Y-125155000D02*
X102930000Y-125155000D01*
X87630000Y-125155000D02*
X87630000Y-122495000D01*
X102930000Y-125155000D02*
X102930000Y-122495000D01*
X85030000Y-122495000D02*
X86360000Y-122495000D01*
X85030000Y-123825000D02*
X85030000Y-122495000D01*
X87630000Y-122495000D02*
X102930000Y-122495000D01*
X102912936Y-98525000D02*
X103367064Y-98525000D01*
X102912936Y-97055000D02*
X103367064Y-97055000D01*
X109447064Y-94080000D02*
X108992936Y-94080000D01*
X109447064Y-92610000D02*
X108992936Y-92610000D01*
X69215000Y-64075000D02*
X56455000Y-64075000D01*
X69215000Y-64075000D02*
X69215000Y-66735000D01*
X70485000Y-64075000D02*
X71815000Y-64075000D01*
X56455000Y-64075000D02*
X56455000Y-66735000D01*
X71815000Y-64075000D02*
X71815000Y-65405000D01*
X69215000Y-66735000D02*
X56455000Y-66735000D01*
X91145200Y-109693400D02*
X92475200Y-109693400D01*
X94945200Y-112353400D02*
X97545200Y-112353400D01*
X94945200Y-112353400D02*
X94945200Y-109693400D01*
X91145200Y-111023400D02*
X91145200Y-109693400D01*
X97545200Y-112353400D02*
X97545200Y-109693400D01*
X94945200Y-109693400D02*
X97545200Y-109693400D01*
X85190000Y-99836248D02*
X85190000Y-100358752D01*
X83720000Y-99836248D02*
X83720000Y-100358752D01*
X103363752Y-92610000D02*
X102841248Y-92610000D01*
X103363752Y-94080000D02*
X102841248Y-94080000D01*
X43380000Y-106990000D02*
X40520000Y-106990000D01*
X43380000Y-108910000D02*
X43380000Y-106990000D01*
X40520000Y-108910000D02*
X43380000Y-108910000D01*
X64092064Y-71655000D02*
X63637936Y-71655000D01*
X64092064Y-73125000D02*
X63637936Y-73125000D01*
X43029564Y-90675000D02*
X41475436Y-90675000D01*
X43029564Y-85855000D02*
X41475436Y-85855000D01*
X55044564Y-123305000D02*
X53490436Y-123305000D01*
X55044564Y-118485000D02*
X53490436Y-118485000D01*
X70360000Y-110361233D02*
X70360000Y-110653767D01*
X69340000Y-110361233D02*
X69340000Y-110653767D01*
X40275000Y-105735000D02*
X43135000Y-105735000D01*
X43135000Y-103815000D02*
X40275000Y-103815000D01*
X43135000Y-105735000D02*
X43135000Y-103815000D01*
X65550000Y-116995000D02*
X65550000Y-122395000D01*
X65550000Y-122395000D02*
X65050000Y-122095000D01*
X65050000Y-117195000D02*
X65050000Y-117245000D01*
X65050000Y-117245000D02*
X65550000Y-116995000D01*
X65050000Y-115295000D02*
X65050000Y-117195000D01*
X65550000Y-114595000D02*
X65550000Y-115545000D01*
X75900000Y-127195000D02*
X75900000Y-114595000D01*
X65550000Y-115545000D02*
X65050000Y-115295000D01*
X65050000Y-127195000D02*
X75900000Y-127195000D01*
X75900000Y-114595000D02*
X65550000Y-114595000D01*
X65050000Y-122095000D02*
X65050000Y-127195000D01*
X78195000Y-109046248D02*
X78195000Y-110468752D01*
X75475000Y-109046248D02*
X75475000Y-110468752D01*
X69125000Y-104216252D02*
X69125000Y-102793748D01*
X71845000Y-104216252D02*
X71845000Y-102793748D01*
X81380000Y-65778748D02*
X81380000Y-66301252D01*
X79910000Y-65778748D02*
X79910000Y-66301252D01*
X77275000Y-86785000D02*
X77275000Y-64065000D01*
X73255000Y-86785000D02*
X77275000Y-86785000D01*
X74755000Y-85785000D02*
X73255000Y-85785000D01*
X74755000Y-64065000D02*
X74755000Y-65065000D01*
X75565000Y-86285000D02*
X75565000Y-86785000D01*
X76775000Y-64565000D02*
X76775000Y-86285000D01*
X77275000Y-64065000D02*
X73255000Y-64065000D01*
X76775000Y-86285000D02*
X75565000Y-86285000D01*
X73255000Y-64065000D02*
X73255000Y-86785000D01*
X74755000Y-86785000D02*
X74755000Y-85785000D01*
X75455000Y-63765000D02*
X72955000Y-63765000D01*
X75565000Y-64065000D02*
X75565000Y-64565000D01*
X75565000Y-64565000D02*
X76775000Y-64565000D01*
X72955000Y-63765000D02*
X72955000Y-66265000D01*
X74755000Y-65065000D02*
X73255000Y-65065000D01*
X65495000Y-104216252D02*
X65495000Y-102793748D01*
X62775000Y-104216252D02*
X62775000Y-102793748D01*
X80745000Y-91577936D02*
X80745000Y-92032064D01*
X79275000Y-91577936D02*
X79275000Y-92032064D01*
X113965000Y-83905000D02*
X113965000Y-84405000D01*
X115175000Y-64685000D02*
X115175000Y-83905000D01*
X115675000Y-64185000D02*
X111655000Y-64185000D01*
X111355000Y-63885000D02*
X111355000Y-66385000D01*
X113965000Y-64185000D02*
X113965000Y-64685000D01*
X115175000Y-83905000D02*
X113965000Y-83905000D01*
X113155000Y-64185000D02*
X113155000Y-65185000D01*
X111655000Y-84405000D02*
X115675000Y-84405000D01*
X113855000Y-63885000D02*
X111355000Y-63885000D01*
X113155000Y-83405000D02*
X111655000Y-83405000D01*
X113155000Y-65185000D02*
X111655000Y-65185000D01*
X115675000Y-84405000D02*
X115675000Y-64185000D01*
X113965000Y-64685000D02*
X115175000Y-64685000D01*
X113155000Y-84405000D02*
X113155000Y-83405000D01*
X111655000Y-64185000D02*
X111655000Y-84405000D01*
X42829564Y-99565000D02*
X41275436Y-99565000D01*
X42829564Y-94745000D02*
X41275436Y-94745000D01*
X119242064Y-86895000D02*
X118787936Y-86895000D01*
X119242064Y-88365000D02*
X118787936Y-88365000D01*
X80110000Y-116612936D02*
X80110000Y-117067064D01*
X78640000Y-116612936D02*
X78640000Y-117067064D01*
X122095000Y-94055000D02*
X115395000Y-94055000D01*
X115395000Y-100255000D02*
X122095000Y-100255000D01*
X115395000Y-94055000D02*
X115395000Y-94255000D01*
X122095000Y-100255000D02*
X122095000Y-100055000D01*
X122095000Y-94055000D02*
X122095000Y-94255000D01*
X115395000Y-95955000D02*
X115395000Y-98355000D01*
X115395000Y-100255000D02*
X115395000Y-100055000D01*
X122095000Y-95955000D02*
X122095000Y-98355000D01*
X119242064Y-75465000D02*
X118787936Y-75465000D01*
X119242064Y-76935000D02*
X118787936Y-76935000D01*
X102818800Y-82402000D02*
X101818800Y-82402000D01*
X84578800Y-56657000D02*
X84578800Y-63077000D01*
X84578800Y-63077000D02*
X84198800Y-63077000D01*
X84578800Y-56657000D02*
X102818800Y-56657000D01*
X84578800Y-81622000D02*
X84578800Y-82402000D01*
X102818800Y-56657000D02*
X102818800Y-63077000D01*
X102818800Y-81622000D02*
X102818800Y-82402000D01*
X84578800Y-82402000D02*
X85578800Y-82402000D01*
X61720000Y-91025000D02*
X61720000Y-92725000D01*
X55120000Y-97425000D02*
X55120000Y-95725000D01*
X55120000Y-92725000D02*
X55120000Y-91025000D01*
X61720000Y-95725000D02*
X61720000Y-97425000D01*
X55120000Y-91025000D02*
X61720000Y-91025000D01*
X61720000Y-97425000D02*
X55120000Y-97425000D01*
X78195000Y-104118752D02*
X78195000Y-102696248D01*
X75475000Y-104118752D02*
X75475000Y-102696248D01*
X118972064Y-71655000D02*
X118517936Y-71655000D01*
X118972064Y-73125000D02*
X118517936Y-73125000D01*
X124485000Y-66005000D02*
X125815000Y-66005000D01*
X123155000Y-68605000D02*
X125815000Y-68605000D01*
X123155000Y-68605000D02*
X123155000Y-81365000D01*
X123155000Y-81365000D02*
X125815000Y-81365000D01*
X125815000Y-68605000D02*
X125815000Y-81365000D01*
X125815000Y-66005000D02*
X125815000Y-67335000D01*
X97818752Y-100865000D02*
X97296248Y-100865000D01*
X97818752Y-102335000D02*
X97296248Y-102335000D01*
D13*
X49865000Y-100900000D02*
X51390000Y-100900000D01*
D12*
X125605000Y-103455000D02*
X125605000Y-104455000D01*
X124795000Y-110675000D02*
X123585000Y-110675000D01*
X123085000Y-103455000D02*
X123085000Y-111175000D01*
X123585000Y-103955000D02*
X124795000Y-103955000D01*
X124905000Y-111475000D02*
X127405000Y-111475000D01*
X125605000Y-110175000D02*
X127105000Y-110175000D01*
X125605000Y-104455000D02*
X127105000Y-104455000D01*
X123585000Y-110675000D02*
X123585000Y-103955000D01*
X124795000Y-111175000D02*
X124795000Y-110675000D01*
X127405000Y-111475000D02*
X127405000Y-108975000D01*
X123085000Y-111175000D02*
X127105000Y-111175000D01*
X127105000Y-111175000D02*
X127105000Y-103455000D01*
X124795000Y-103955000D02*
X124795000Y-103455000D01*
X127105000Y-103455000D02*
X123085000Y-103455000D01*
X125605000Y-111175000D02*
X125605000Y-110175000D01*
D10*
X38270000Y-70015000D02*
X35970000Y-70015000D01*
X35970000Y-77915000D02*
X38270000Y-77915000D01*
X40070000Y-76015000D02*
X40070000Y-77015000D01*
X41120000Y-76015000D02*
X40070000Y-76015000D01*
X35970000Y-70015000D02*
X35970000Y-77915000D01*
X40058539Y-71900524D02*
X40058539Y-70900524D01*
D14*
X70072500Y-90797500D02*
X71145000Y-90797500D01*
X70072500Y-90797500D02*
X70072500Y-97652500D01*
X70072500Y-97652500D02*
X71145000Y-97652500D01*
X75977500Y-90797500D02*
X74905000Y-90797500D01*
X75977500Y-97652500D02*
X75977500Y-90797500D01*
X74905000Y-97652500D02*
X75977500Y-97652500D01*
D13*
X73125000Y-88975000D02*
G75*
G03*
X73125000Y-88975000I-100000J0D01*
G01*
D12*
X119242064Y-79275000D02*
X118787936Y-79275000D01*
X119242064Y-80745000D02*
X118787936Y-80745000D01*
X119242064Y-83085000D02*
X118787936Y-83085000D01*
X119242064Y-84555000D02*
X118787936Y-84555000D01*
X53490436Y-115685000D02*
X55044564Y-115685000D01*
X53490436Y-110865000D02*
X55044564Y-110865000D01*
X43660000Y-113800000D02*
X43660000Y-111850000D01*
X44270000Y-117360000D02*
X44270000Y-111240000D01*
X44470000Y-112700000D02*
X44270000Y-112700000D01*
X40160000Y-114300000D02*
X40660000Y-114300000D01*
X39550000Y-111240000D02*
X39550000Y-117360000D01*
X41660000Y-111240000D02*
X41660000Y-111850000D01*
X43660000Y-114800000D02*
X44270000Y-114800000D01*
X44470000Y-113000000D02*
X44470000Y-112700000D01*
X44570000Y-110940000D02*
X43320000Y-110940000D01*
X41660000Y-117360000D02*
X41660000Y-116750000D01*
X42960000Y-111240000D02*
X42960000Y-111850000D01*
X40160000Y-114200000D02*
X40660000Y-114200000D01*
X42960000Y-117360000D02*
X42960000Y-116750000D01*
X43660000Y-111850000D02*
X40160000Y-111850000D01*
X44370000Y-113000000D02*
X44370000Y-112700000D01*
X44270000Y-111240000D02*
X39550000Y-111240000D01*
X40660000Y-114200000D02*
X40660000Y-114400000D01*
X44570000Y-112190000D02*
X44570000Y-110940000D01*
X39550000Y-117360000D02*
X44270000Y-117360000D01*
X40160000Y-111850000D02*
X40160000Y-116750000D01*
X40160000Y-116750000D02*
X43660000Y-116750000D01*
X44270000Y-113000000D02*
X44470000Y-113000000D01*
X43660000Y-116750000D02*
X43660000Y-114800000D01*
X40660000Y-114400000D02*
X40160000Y-114400000D01*
X44270000Y-113800000D02*
X43660000Y-113800000D01*
X96657936Y-94080000D02*
X97112064Y-94080000D01*
X96657936Y-92610000D02*
X97112064Y-92610000D01*
X116067064Y-60225000D02*
X115612936Y-60225000D01*
X116067064Y-61695000D02*
X115612936Y-61695000D01*
X62775000Y-110811252D02*
X62775000Y-109388748D01*
X65495000Y-110811252D02*
X65495000Y-109388748D01*
X118607064Y-67845000D02*
X118152936Y-67845000D01*
X118607064Y-69315000D02*
X118152936Y-69315000D01*
X49300000Y-79075000D02*
X47600000Y-79075000D01*
X54000000Y-79075000D02*
X52300000Y-79075000D01*
X52300000Y-72475000D02*
X54000000Y-72475000D01*
X54000000Y-72475000D02*
X54000000Y-79075000D01*
X47600000Y-79075000D02*
X47600000Y-72475000D01*
X47600000Y-72475000D02*
X49300000Y-72475000D01*
X51980000Y-86093752D02*
X51980000Y-84671248D01*
X54700000Y-86093752D02*
X54700000Y-84671248D01*
X91385000Y-103390000D02*
X87685000Y-103390000D01*
X87685000Y-103390000D02*
X87685000Y-97270000D01*
X87685000Y-97270000D02*
X91385000Y-97270000D01*
X91385000Y-97270000D02*
X91385000Y-103390000D01*
X65315000Y-85801252D02*
X65315000Y-84378748D01*
X68035000Y-85801252D02*
X68035000Y-84378748D01*
X61685000Y-86093752D02*
X61685000Y-84671248D01*
X58965000Y-86093752D02*
X58965000Y-84671248D01*
%LPC*%
D15*
X86360000Y-90535000D03*
X86360000Y-92610000D03*
D16*
X48260000Y-85317500D03*
X48260000Y-83592500D03*
D17*
X48107600Y-63195200D03*
X48107600Y-65495200D03*
D18*
X54407600Y-65495200D03*
D17*
X48107600Y-67795200D03*
D19*
X73565000Y-60960000D03*
X75565000Y-60960000D03*
X96155000Y-97520000D03*
X98155000Y-97520000D03*
D20*
X109630000Y-109220000D03*
D21*
X114630000Y-109220000D03*
D22*
X86360000Y-123825000D03*
D23*
X88900000Y-123825000D03*
X91440000Y-123825000D03*
X93980000Y-123825000D03*
X96520000Y-123825000D03*
X99060000Y-123825000D03*
X101600000Y-123825000D03*
D19*
X102140000Y-97790000D03*
X104140000Y-97790000D03*
D24*
X110220000Y-93345000D03*
X108220000Y-93345000D03*
D22*
X70485000Y-65405000D03*
D23*
X67945000Y-65405000D03*
X65405000Y-65405000D03*
X62865000Y-65405000D03*
X60325000Y-65405000D03*
X57785000Y-65405000D03*
D22*
X92405200Y-111023400D03*
D23*
X96215200Y-111023400D03*
D15*
X84455000Y-99060000D03*
X84455000Y-101135000D03*
D25*
X104140000Y-93345000D03*
X102065000Y-93345000D03*
D26*
X42545000Y-107950000D03*
X40495000Y-107950000D03*
D24*
X64865000Y-72390000D03*
X62865000Y-72390000D03*
D27*
X43815000Y-88265000D03*
X40690000Y-88265000D03*
X55830000Y-120895000D03*
X52705000Y-120895000D03*
D28*
X69850000Y-109645000D03*
X69850000Y-111370000D03*
D26*
X42300000Y-104775000D03*
X40250000Y-104775000D03*
D20*
X73250000Y-120895000D03*
D21*
X68250000Y-120895000D03*
D29*
X76835000Y-108195000D03*
X76835000Y-111320000D03*
D30*
X70485000Y-105067500D03*
X70485000Y-101942500D03*
D15*
X80645000Y-65002500D03*
X80645000Y-67077500D03*
D31*
X75565000Y-66675000D03*
D32*
X75565000Y-69175000D03*
X75565000Y-71675000D03*
X75565000Y-74175000D03*
X75565000Y-76675000D03*
X75565000Y-79175000D03*
X75565000Y-81675000D03*
X75565000Y-84175000D03*
D30*
X64135000Y-105067500D03*
X64135000Y-101942500D03*
D33*
X80010000Y-90805000D03*
X80010000Y-92805000D03*
D31*
X113965000Y-66795000D03*
D32*
X113965000Y-69295000D03*
X113965000Y-71795000D03*
X113965000Y-74295000D03*
X113965000Y-76795000D03*
X113965000Y-79295000D03*
X113965000Y-81795000D03*
D27*
X43615000Y-97155000D03*
X40490000Y-97155000D03*
D24*
X120015000Y-87630000D03*
X118015000Y-87630000D03*
D33*
X79375000Y-115840000D03*
X79375000Y-117840000D03*
D34*
X122145000Y-95155000D03*
X115345000Y-95155000D03*
X115345000Y-99155000D03*
X122145000Y-99155000D03*
D24*
X120015000Y-76200000D03*
X118015000Y-76200000D03*
D35*
X85198800Y-64267000D03*
X85198800Y-65537000D03*
X85198800Y-66807000D03*
X85198800Y-68077000D03*
X85198800Y-69347000D03*
X85198800Y-70617000D03*
X85198800Y-71887000D03*
X85198800Y-73157000D03*
X85198800Y-74427000D03*
X85198800Y-75697000D03*
X85198800Y-76967000D03*
X85198800Y-78237000D03*
X85198800Y-79507000D03*
X85198800Y-80777000D03*
D36*
X87983800Y-81777000D03*
X89253800Y-81777000D03*
X90523800Y-81777000D03*
X91793800Y-81777000D03*
X93063800Y-81777000D03*
X94333800Y-81777000D03*
X95603800Y-81777000D03*
X96873800Y-81777000D03*
X98143800Y-81777000D03*
X99413800Y-81777000D03*
D35*
X102198800Y-80777000D03*
X102198800Y-79507000D03*
X102198800Y-78237000D03*
X102198800Y-76967000D03*
X102198800Y-75697000D03*
X102198800Y-74427000D03*
X102198800Y-73157000D03*
X102198800Y-71887000D03*
X102198800Y-70617000D03*
X102198800Y-69347000D03*
X102198800Y-68077000D03*
X102198800Y-66807000D03*
X102198800Y-65537000D03*
X102198800Y-64267000D03*
D37*
X92698800Y-71767000D03*
D38*
X55670000Y-94225000D03*
X61170000Y-94225000D03*
D30*
X76835000Y-104970000D03*
X76835000Y-101845000D03*
D24*
X119745000Y-72390000D03*
X117745000Y-72390000D03*
D22*
X124485000Y-67335000D03*
D23*
X124485000Y-69875000D03*
X124485000Y-72415000D03*
X124485000Y-74955000D03*
X124485000Y-77495000D03*
X124485000Y-80035000D03*
D25*
X98595000Y-101600000D03*
X96520000Y-101600000D03*
D39*
X50628000Y-101600000D03*
X50628000Y-102870000D03*
X50628000Y-104140000D03*
X50628000Y-105410000D03*
X56052000Y-105410000D03*
X56052000Y-104140000D03*
X56052000Y-102870000D03*
X56052000Y-101600000D03*
D40*
X53340000Y-103505000D03*
D41*
X124795000Y-108565000D03*
D42*
X124795000Y-106065000D03*
D43*
X37070000Y-76965000D03*
X37070000Y-70965000D03*
D44*
X40520000Y-75565000D03*
X40520000Y-74765000D03*
X40520000Y-73965000D03*
X40520000Y-73165000D03*
X40520000Y-72365000D03*
D45*
X39370000Y-69215000D03*
X39370000Y-78715000D03*
D46*
X73025000Y-97655000D03*
X73025000Y-90795000D03*
D24*
X120015000Y-80010000D03*
X118015000Y-80010000D03*
X120015000Y-83820000D03*
X118015000Y-83820000D03*
D47*
X52705000Y-113275000D03*
X55830000Y-113275000D03*
D48*
X42460000Y-113300000D03*
D49*
X42460000Y-115300000D03*
D19*
X95885000Y-93345000D03*
X97885000Y-93345000D03*
D24*
X116840000Y-60960000D03*
X114840000Y-60960000D03*
D30*
X64135000Y-111662500D03*
X64135000Y-108537500D03*
D24*
X119380000Y-68580000D03*
X117380000Y-68580000D03*
D50*
X50800000Y-73025000D03*
X50800000Y-78525000D03*
D30*
X53340000Y-86945000D03*
X53340000Y-83820000D03*
D51*
X89535000Y-104230000D03*
X89535000Y-96430000D03*
D30*
X66675000Y-86652500D03*
X66675000Y-83527500D03*
X60325000Y-86945000D03*
X60325000Y-83820000D03*
M02*
