G04 #@! TF.GenerationSoftware,KiCad,Pcbnew,(6.0.4)*
G04 #@! TF.CreationDate,2022-05-20T18:13:48-05:00*
G04 #@! TF.ProjectId,REEL,5245454c-2e6b-4696-9361-645f70636258,rev?*
G04 #@! TF.SameCoordinates,Original*
G04 #@! TF.FileFunction,Other,User*
%FSLAX46Y46*%
G04 Gerber Fmt 4.6, Leading zero omitted, Abs format (unit mm)*
G04 Created by KiCad (PCBNEW (6.0.4)) date 2022-05-20 18:13:48*
%MOMM*%
%LPD*%
G01*
G04 APERTURE LIST*
%ADD10C,0.050000*%
G04 APERTURE END LIST*
D10*
X85380000Y-93452500D02*
X85380000Y-89692500D01*
X85380000Y-89692500D02*
X87340000Y-89692500D01*
X87340000Y-93452500D02*
X85380000Y-93452500D01*
X87340000Y-89692500D02*
X87340000Y-93452500D01*
X48990000Y-86105000D02*
X47530000Y-86105000D01*
X47530000Y-82805000D02*
X48990000Y-82805000D01*
X47530000Y-86105000D02*
X47530000Y-82805000D01*
X48990000Y-82805000D02*
X48990000Y-86105000D01*
X46857600Y-69095200D02*
X55657600Y-69095200D01*
X55657600Y-69095200D02*
X55657600Y-61895200D01*
X55657600Y-61895200D02*
X46857600Y-61895200D01*
X46857600Y-61895200D02*
X46857600Y-69095200D01*
X76415000Y-61910000D02*
X72715000Y-61910000D01*
X76415000Y-60010000D02*
X76415000Y-61910000D01*
X72715000Y-61910000D02*
X72715000Y-60010000D01*
X72715000Y-60010000D02*
X76415000Y-60010000D01*
X99005000Y-96570000D02*
X99005000Y-98470000D01*
X95305000Y-96570000D02*
X99005000Y-96570000D01*
X99005000Y-98470000D02*
X95305000Y-98470000D01*
X95305000Y-98470000D02*
X95305000Y-96570000D01*
X117990000Y-115690000D02*
X106800000Y-115690000D01*
X106800000Y-102750000D02*
X117990000Y-102750000D01*
X117990000Y-115690000D02*
X117990000Y-102750000D01*
X106800000Y-102750000D02*
X106800000Y-115690000D01*
X84560000Y-122075000D02*
X103360000Y-122075000D01*
X84560000Y-125625000D02*
X84560000Y-122075000D01*
X103360000Y-122075000D02*
X103360000Y-125625000D01*
X103360000Y-125625000D02*
X84560000Y-125625000D01*
X104990000Y-96840000D02*
X104990000Y-98740000D01*
X104990000Y-98740000D02*
X101290000Y-98740000D01*
X101290000Y-96840000D02*
X104990000Y-96840000D01*
X101290000Y-98740000D02*
X101290000Y-96840000D01*
X111070000Y-92395000D02*
X111070000Y-94295000D01*
X107370000Y-94295000D02*
X107370000Y-92395000D01*
X111070000Y-94295000D02*
X107370000Y-94295000D01*
X107370000Y-92395000D02*
X111070000Y-92395000D01*
X55985000Y-63605000D02*
X55985000Y-67205000D01*
X55985000Y-67205000D02*
X72285000Y-67205000D01*
X72285000Y-63605000D02*
X55985000Y-63605000D01*
X72285000Y-67205000D02*
X72285000Y-63605000D01*
X97975200Y-112823400D02*
X90675200Y-112823400D01*
X97975200Y-109273400D02*
X97975200Y-112823400D01*
X90675200Y-112823400D02*
X90675200Y-109273400D01*
X90675200Y-109273400D02*
X97975200Y-109273400D01*
X83475000Y-101977500D02*
X83475000Y-98217500D01*
X85435000Y-101977500D02*
X83475000Y-101977500D01*
X85435000Y-98217500D02*
X85435000Y-101977500D01*
X83475000Y-98217500D02*
X85435000Y-98217500D01*
X101222500Y-94325000D02*
X101222500Y-92365000D01*
X104982500Y-94325000D02*
X101222500Y-94325000D01*
X101222500Y-92365000D02*
X104982500Y-92365000D01*
X104982500Y-92365000D02*
X104982500Y-94325000D01*
X39670000Y-108900000D02*
X39670000Y-107000000D01*
X43370000Y-108900000D02*
X39670000Y-108900000D01*
X43370000Y-107000000D02*
X43370000Y-108900000D01*
X39670000Y-107000000D02*
X43370000Y-107000000D01*
X65715000Y-73340000D02*
X62015000Y-73340000D01*
X62015000Y-71440000D02*
X65715000Y-71440000D01*
X65715000Y-71440000D02*
X65715000Y-73340000D01*
X62015000Y-73340000D02*
X62015000Y-71440000D01*
X44672500Y-90885000D02*
X39832500Y-90885000D01*
X44672500Y-85645000D02*
X44672500Y-90885000D01*
X39832500Y-90885000D02*
X39832500Y-85645000D01*
X39832500Y-85645000D02*
X44672500Y-85645000D01*
X56687500Y-118275000D02*
X56687500Y-123515000D01*
X51847500Y-123515000D02*
X51847500Y-118275000D01*
X51847500Y-118275000D02*
X56687500Y-118275000D01*
X56687500Y-123515000D02*
X51847500Y-123515000D01*
X69120000Y-112157500D02*
X69120000Y-108857500D01*
X69120000Y-108857500D02*
X70580000Y-108857500D01*
X70580000Y-112157500D02*
X69120000Y-112157500D01*
X70580000Y-108857500D02*
X70580000Y-112157500D01*
X39425000Y-103825000D02*
X43125000Y-103825000D01*
X43125000Y-105725000D02*
X39425000Y-105725000D01*
X39425000Y-105725000D02*
X39425000Y-103825000D01*
X43125000Y-103825000D02*
X43125000Y-105725000D01*
X76080000Y-127365000D02*
X76080000Y-114425000D01*
X76080000Y-127365000D02*
X64890000Y-127365000D01*
X64890000Y-114425000D02*
X76080000Y-114425000D01*
X64890000Y-114425000D02*
X64890000Y-127365000D01*
X75235000Y-112237500D02*
X75235000Y-107277500D01*
X78435000Y-107277500D02*
X78435000Y-112237500D01*
X75235000Y-107277500D02*
X78435000Y-107277500D01*
X78435000Y-112237500D02*
X75235000Y-112237500D01*
X72085000Y-101025000D02*
X72085000Y-105985000D01*
X68885000Y-105985000D02*
X68885000Y-101025000D01*
X72085000Y-105985000D02*
X68885000Y-105985000D01*
X68885000Y-101025000D02*
X72085000Y-101025000D01*
X81625000Y-67920000D02*
X79665000Y-67920000D01*
X81625000Y-64160000D02*
X81625000Y-67920000D01*
X79665000Y-67920000D02*
X79665000Y-64160000D01*
X79665000Y-64160000D02*
X81625000Y-64160000D01*
X77665000Y-87175000D02*
X77665000Y-63675000D01*
X77665000Y-63675000D02*
X72865000Y-63675000D01*
X72865000Y-87175000D02*
X77665000Y-87175000D01*
X72865000Y-63675000D02*
X72865000Y-87175000D01*
X65735000Y-105985000D02*
X62535000Y-105985000D01*
X62535000Y-105985000D02*
X62535000Y-101025000D01*
X62535000Y-101025000D02*
X65735000Y-101025000D01*
X65735000Y-101025000D02*
X65735000Y-105985000D01*
X79060000Y-89955000D02*
X80960000Y-89955000D01*
X79060000Y-93655000D02*
X79060000Y-89955000D01*
X80960000Y-93655000D02*
X79060000Y-93655000D01*
X80960000Y-89955000D02*
X80960000Y-93655000D01*
X116065000Y-63795000D02*
X111265000Y-63795000D01*
X111265000Y-84795000D02*
X116065000Y-84795000D01*
X111265000Y-63795000D02*
X111265000Y-84795000D01*
X116065000Y-84795000D02*
X116065000Y-63795000D01*
X39632500Y-99775000D02*
X39632500Y-94535000D01*
X44472500Y-94535000D02*
X44472500Y-99775000D01*
X44472500Y-99775000D02*
X39632500Y-99775000D01*
X39632500Y-94535000D02*
X44472500Y-94535000D01*
X117165000Y-86680000D02*
X120865000Y-86680000D01*
X120865000Y-86680000D02*
X120865000Y-88580000D01*
X120865000Y-88580000D02*
X117165000Y-88580000D01*
X117165000Y-88580000D02*
X117165000Y-86680000D01*
X80325000Y-114990000D02*
X80325000Y-118690000D01*
X78425000Y-114990000D02*
X80325000Y-114990000D01*
X78425000Y-118690000D02*
X78425000Y-114990000D01*
X80325000Y-118690000D02*
X78425000Y-118690000D01*
X113495000Y-93905000D02*
X123995000Y-93905000D01*
X113495000Y-100405000D02*
X113495000Y-93905000D01*
X123995000Y-100405000D02*
X113495000Y-100405000D01*
X123995000Y-93905000D02*
X123995000Y-100405000D01*
X120865000Y-77150000D02*
X117165000Y-77150000D01*
X117165000Y-75250000D02*
X120865000Y-75250000D01*
X117165000Y-77150000D02*
X117165000Y-75250000D01*
X120865000Y-75250000D02*
X120865000Y-77150000D01*
X79448800Y-51522000D02*
X79448800Y-62802000D01*
X79448800Y-51522000D02*
X107948800Y-51522000D01*
X79448800Y-62802000D02*
X83948800Y-62802000D01*
X83948800Y-83022000D02*
X83948800Y-62802000D01*
X107948800Y-51522000D02*
X107948800Y-62802000D01*
X103448800Y-62802000D02*
X107948800Y-62802000D01*
X83948800Y-83022000D02*
X103448800Y-83022000D01*
X103448800Y-62802000D02*
X103448800Y-83022000D01*
X54670000Y-97625000D02*
X62170000Y-97625000D01*
X62170000Y-90825000D02*
X54670000Y-90825000D01*
X62170000Y-97625000D02*
X62170000Y-90825000D01*
X54670000Y-90825000D02*
X54670000Y-97625000D01*
X78435000Y-105887500D02*
X75235000Y-105887500D01*
X78435000Y-100927500D02*
X78435000Y-105887500D01*
X75235000Y-100927500D02*
X78435000Y-100927500D01*
X75235000Y-105887500D02*
X75235000Y-100927500D01*
X116895000Y-73340000D02*
X116895000Y-71440000D01*
X120595000Y-71440000D02*
X120595000Y-73340000D01*
X116895000Y-71440000D02*
X120595000Y-71440000D01*
X120595000Y-73340000D02*
X116895000Y-73340000D01*
X122685000Y-65535000D02*
X126235000Y-65535000D01*
X126235000Y-65535000D02*
X126235000Y-81785000D01*
X122685000Y-81785000D02*
X122685000Y-65535000D01*
X126235000Y-81785000D02*
X122685000Y-81785000D01*
X95677500Y-100620000D02*
X99437500Y-100620000D01*
X95677500Y-102580000D02*
X95677500Y-100620000D01*
X99437500Y-100620000D02*
X99437500Y-102580000D01*
X99437500Y-102580000D02*
X95677500Y-102580000D01*
X49615000Y-106305000D02*
X49615000Y-100705000D01*
X49615000Y-100705000D02*
X57065000Y-100705000D01*
X57065000Y-106305000D02*
X49615000Y-106305000D01*
X57065000Y-100705000D02*
X57065000Y-106305000D01*
X127495000Y-111565000D02*
X127495000Y-103065000D01*
X122695000Y-103065000D02*
X122695000Y-111565000D01*
X122695000Y-111565000D02*
X127495000Y-111565000D01*
X127495000Y-103065000D02*
X122695000Y-103065000D01*
X41770000Y-80715000D02*
X35570000Y-80715000D01*
X41770000Y-67215000D02*
X41770000Y-80715000D01*
X35570000Y-80715000D02*
X35570000Y-67215000D01*
X35570000Y-67215000D02*
X41770000Y-67215000D01*
X69822500Y-99050000D02*
X76227500Y-99050000D01*
X76227500Y-89400000D02*
X69822500Y-89400000D01*
X69822500Y-89400000D02*
X69822500Y-99050000D01*
X76227500Y-99050000D02*
X76227500Y-89400000D01*
X120865000Y-80960000D02*
X117165000Y-80960000D01*
X117165000Y-79060000D02*
X120865000Y-79060000D01*
X117165000Y-80960000D02*
X117165000Y-79060000D01*
X120865000Y-79060000D02*
X120865000Y-80960000D01*
X120865000Y-82870000D02*
X120865000Y-84770000D01*
X117165000Y-82870000D02*
X120865000Y-82870000D01*
X120865000Y-84770000D02*
X117165000Y-84770000D01*
X117165000Y-84770000D02*
X117165000Y-82870000D01*
X51847500Y-110655000D02*
X56687500Y-110655000D01*
X56687500Y-110655000D02*
X56687500Y-115895000D01*
X51847500Y-115895000D02*
X51847500Y-110655000D01*
X56687500Y-115895000D02*
X51847500Y-115895000D01*
X39160000Y-117750000D02*
X44660000Y-117750000D01*
X39160000Y-110850000D02*
X39160000Y-117750000D01*
X44660000Y-117750000D02*
X44660000Y-110850000D01*
X44660000Y-110850000D02*
X39160000Y-110850000D01*
X98735000Y-94295000D02*
X95035000Y-94295000D01*
X98735000Y-92395000D02*
X98735000Y-94295000D01*
X95035000Y-92395000D02*
X98735000Y-92395000D01*
X95035000Y-94295000D02*
X95035000Y-92395000D01*
X113990000Y-61910000D02*
X113990000Y-60010000D01*
X113990000Y-60010000D02*
X117690000Y-60010000D01*
X117690000Y-60010000D02*
X117690000Y-61910000D01*
X117690000Y-61910000D02*
X113990000Y-61910000D01*
X65735000Y-107620000D02*
X65735000Y-112580000D01*
X65735000Y-112580000D02*
X62535000Y-112580000D01*
X62535000Y-112580000D02*
X62535000Y-107620000D01*
X62535000Y-107620000D02*
X65735000Y-107620000D01*
X120230000Y-67630000D02*
X120230000Y-69530000D01*
X120230000Y-69530000D02*
X116530000Y-69530000D01*
X116530000Y-69530000D02*
X116530000Y-67630000D01*
X116530000Y-67630000D02*
X120230000Y-67630000D01*
X47400000Y-72025000D02*
X47400000Y-79525000D01*
X54200000Y-72025000D02*
X47400000Y-72025000D01*
X47400000Y-79525000D02*
X54200000Y-79525000D01*
X54200000Y-79525000D02*
X54200000Y-72025000D01*
X51740000Y-82902500D02*
X54940000Y-82902500D01*
X54940000Y-82902500D02*
X54940000Y-87862500D01*
X54940000Y-87862500D02*
X51740000Y-87862500D01*
X51740000Y-87862500D02*
X51740000Y-82902500D01*
X87485000Y-95430000D02*
X91585000Y-95430000D01*
X87485000Y-105230000D02*
X87485000Y-95430000D01*
X91585000Y-95430000D02*
X91585000Y-105230000D01*
X91585000Y-105230000D02*
X87485000Y-105230000D01*
X68275000Y-82610000D02*
X68275000Y-87570000D01*
X65075000Y-82610000D02*
X68275000Y-82610000D01*
X68275000Y-87570000D02*
X65075000Y-87570000D01*
X65075000Y-87570000D02*
X65075000Y-82610000D01*
X58725000Y-82902500D02*
X61925000Y-82902500D01*
X61925000Y-87862500D02*
X58725000Y-87862500D01*
X58725000Y-87862500D02*
X58725000Y-82902500D01*
X61925000Y-82902500D02*
X61925000Y-87862500D01*
M02*
