G04 #@! TF.GenerationSoftware,KiCad,Pcbnew,(6.0.4)*
G04 #@! TF.CreationDate,2022-05-20T18:13:48-05:00*
G04 #@! TF.ProjectId,REEL,5245454c-2e6b-4696-9361-645f70636258,rev?*
G04 #@! TF.SameCoordinates,Original*
G04 #@! TF.FileFunction,Other,Comment*
%FSLAX46Y46*%
G04 Gerber Fmt 4.6, Leading zero omitted, Abs format (unit mm)*
G04 Created by KiCad (PCBNEW (6.0.4)) date 2022-05-20 18:13:48*
%MOMM*%
%LPD*%
G01*
G04 APERTURE LIST*
%ADD10C,0.100000*%
%ADD11C,0.150000*%
G04 APERTURE END LIST*
D10*
X104760704Y-57873190D02*
X104522609Y-57873190D01*
X104498800Y-58111285D01*
X104522609Y-58087476D01*
X104570228Y-58063666D01*
X104689276Y-58063666D01*
X104736895Y-58087476D01*
X104760704Y-58111285D01*
X104784514Y-58158904D01*
X104784514Y-58277952D01*
X104760704Y-58325571D01*
X104736895Y-58349380D01*
X104689276Y-58373190D01*
X104570228Y-58373190D01*
X104522609Y-58349380D01*
X104498800Y-58325571D01*
X105379752Y-58373190D02*
X105379752Y-58039857D01*
X105379752Y-58087476D02*
X105403561Y-58063666D01*
X105451180Y-58039857D01*
X105522609Y-58039857D01*
X105570228Y-58063666D01*
X105594038Y-58111285D01*
X105594038Y-58373190D01*
X105594038Y-58111285D02*
X105617847Y-58063666D01*
X105665466Y-58039857D01*
X105736895Y-58039857D01*
X105784514Y-58063666D01*
X105808323Y-58111285D01*
X105808323Y-58373190D01*
X106046419Y-58373190D02*
X106046419Y-58039857D01*
X106046419Y-58087476D02*
X106070228Y-58063666D01*
X106117847Y-58039857D01*
X106189276Y-58039857D01*
X106236895Y-58063666D01*
X106260704Y-58111285D01*
X106260704Y-58373190D01*
X106260704Y-58111285D02*
X106284514Y-58063666D01*
X106332133Y-58039857D01*
X106403561Y-58039857D01*
X106451180Y-58063666D01*
X106474990Y-58111285D01*
X106474990Y-58373190D01*
D11*
X90936895Y-59688666D02*
X91413085Y-59688666D01*
X90841657Y-59974380D02*
X91174990Y-58974380D01*
X91508323Y-59974380D01*
X91841657Y-59307714D02*
X91841657Y-59974380D01*
X91841657Y-59402952D02*
X91889276Y-59355333D01*
X91984514Y-59307714D01*
X92127371Y-59307714D01*
X92222609Y-59355333D01*
X92270228Y-59450571D01*
X92270228Y-59974380D01*
X92603561Y-59307714D02*
X92984514Y-59307714D01*
X92746419Y-58974380D02*
X92746419Y-59831523D01*
X92794038Y-59926761D01*
X92889276Y-59974380D01*
X92984514Y-59974380D01*
X93698800Y-59926761D02*
X93603561Y-59974380D01*
X93413085Y-59974380D01*
X93317847Y-59926761D01*
X93270228Y-59831523D01*
X93270228Y-59450571D01*
X93317847Y-59355333D01*
X93413085Y-59307714D01*
X93603561Y-59307714D01*
X93698800Y-59355333D01*
X93746419Y-59450571D01*
X93746419Y-59545809D01*
X93270228Y-59641047D01*
X94174990Y-59307714D02*
X94174990Y-59974380D01*
X94174990Y-59402952D02*
X94222609Y-59355333D01*
X94317847Y-59307714D01*
X94460704Y-59307714D01*
X94555942Y-59355333D01*
X94603561Y-59450571D01*
X94603561Y-59974380D01*
X95079752Y-59307714D02*
X95079752Y-59974380D01*
X95079752Y-59402952D02*
X95127371Y-59355333D01*
X95222609Y-59307714D01*
X95365466Y-59307714D01*
X95460704Y-59355333D01*
X95508323Y-59450571D01*
X95508323Y-59974380D01*
X96413085Y-59974380D02*
X96413085Y-59450571D01*
X96365466Y-59355333D01*
X96270228Y-59307714D01*
X96079752Y-59307714D01*
X95984514Y-59355333D01*
X96413085Y-59926761D02*
X96317847Y-59974380D01*
X96079752Y-59974380D01*
X95984514Y-59926761D01*
X95936895Y-59831523D01*
X95936895Y-59736285D01*
X95984514Y-59641047D01*
X96079752Y-59593428D01*
X96317847Y-59593428D01*
X96413085Y-59545809D01*
D10*
X81760704Y-57873190D02*
X81522609Y-57873190D01*
X81498800Y-58111285D01*
X81522609Y-58087476D01*
X81570228Y-58063666D01*
X81689276Y-58063666D01*
X81736895Y-58087476D01*
X81760704Y-58111285D01*
X81784514Y-58158904D01*
X81784514Y-58277952D01*
X81760704Y-58325571D01*
X81736895Y-58349380D01*
X81689276Y-58373190D01*
X81570228Y-58373190D01*
X81522609Y-58349380D01*
X81498800Y-58325571D01*
X82379752Y-58373190D02*
X82379752Y-58039857D01*
X82379752Y-58087476D02*
X82403561Y-58063666D01*
X82451180Y-58039857D01*
X82522609Y-58039857D01*
X82570228Y-58063666D01*
X82594038Y-58111285D01*
X82594038Y-58373190D01*
X82594038Y-58111285D02*
X82617847Y-58063666D01*
X82665466Y-58039857D01*
X82736895Y-58039857D01*
X82784514Y-58063666D01*
X82808323Y-58111285D01*
X82808323Y-58373190D01*
X83046419Y-58373190D02*
X83046419Y-58039857D01*
X83046419Y-58087476D02*
X83070228Y-58063666D01*
X83117847Y-58039857D01*
X83189276Y-58039857D01*
X83236895Y-58063666D01*
X83260704Y-58111285D01*
X83260704Y-58373190D01*
X83260704Y-58111285D02*
X83284514Y-58063666D01*
X83332133Y-58039857D01*
X83403561Y-58039857D01*
X83451180Y-58063666D01*
X83474990Y-58111285D01*
X83474990Y-58373190D01*
D11*
X87627371Y-53974380D02*
X87627371Y-52974380D01*
X88198800Y-53974380D02*
X87770228Y-53402952D01*
X88198800Y-52974380D02*
X87627371Y-53545809D01*
X88627371Y-53450571D02*
X88960704Y-53450571D01*
X89103561Y-53974380D02*
X88627371Y-53974380D01*
X88627371Y-52974380D01*
X89103561Y-52974380D01*
X89532133Y-53450571D02*
X89865466Y-53450571D01*
X90008323Y-53974380D02*
X89532133Y-53974380D01*
X89532133Y-52974380D01*
X90008323Y-52974380D01*
X90436895Y-53974380D02*
X90436895Y-52974380D01*
X90817847Y-52974380D01*
X90913085Y-53022000D01*
X90960704Y-53069619D01*
X91008323Y-53164857D01*
X91008323Y-53307714D01*
X90960704Y-53402952D01*
X90913085Y-53450571D01*
X90817847Y-53498190D01*
X90436895Y-53498190D01*
X91436895Y-53593428D02*
X92198800Y-53593428D01*
X92865466Y-52974380D02*
X93055942Y-52974380D01*
X93151180Y-53022000D01*
X93246419Y-53117238D01*
X93294038Y-53307714D01*
X93294038Y-53641047D01*
X93246419Y-53831523D01*
X93151180Y-53926761D01*
X93055942Y-53974380D01*
X92865466Y-53974380D01*
X92770228Y-53926761D01*
X92674990Y-53831523D01*
X92627371Y-53641047D01*
X92627371Y-53307714D01*
X92674990Y-53117238D01*
X92770228Y-53022000D01*
X92865466Y-52974380D01*
X93722609Y-52974380D02*
X93722609Y-53783904D01*
X93770228Y-53879142D01*
X93817847Y-53926761D01*
X93913085Y-53974380D01*
X94103561Y-53974380D01*
X94198800Y-53926761D01*
X94246419Y-53879142D01*
X94294038Y-53783904D01*
X94294038Y-52974380D01*
X94627371Y-52974380D02*
X95198800Y-52974380D01*
X94913085Y-53974380D02*
X94913085Y-52974380D01*
X96198800Y-52974380D02*
X96865466Y-52974380D01*
X96198800Y-53974380D01*
X96865466Y-53974380D01*
X97436895Y-52974380D02*
X97627371Y-52974380D01*
X97722609Y-53022000D01*
X97817847Y-53117238D01*
X97865466Y-53307714D01*
X97865466Y-53641047D01*
X97817847Y-53831523D01*
X97722609Y-53926761D01*
X97627371Y-53974380D01*
X97436895Y-53974380D01*
X97341657Y-53926761D01*
X97246419Y-53831523D01*
X97198800Y-53641047D01*
X97198800Y-53307714D01*
X97246419Y-53117238D01*
X97341657Y-53022000D01*
X97436895Y-52974380D01*
X98294038Y-53974380D02*
X98294038Y-52974380D01*
X98865466Y-53974380D01*
X98865466Y-52974380D01*
X99341657Y-53450571D02*
X99674990Y-53450571D01*
X99817847Y-53974380D02*
X99341657Y-53974380D01*
X99341657Y-52974380D01*
X99817847Y-52974380D01*
D10*
X101224990Y-54185095D02*
X101224990Y-54423190D01*
X101463085Y-54447000D01*
X101439276Y-54423190D01*
X101415466Y-54375571D01*
X101415466Y-54256523D01*
X101439276Y-54208904D01*
X101463085Y-54185095D01*
X101510704Y-54161285D01*
X101629752Y-54161285D01*
X101677371Y-54185095D01*
X101701180Y-54208904D01*
X101724990Y-54256523D01*
X101724990Y-54375571D01*
X101701180Y-54423190D01*
X101677371Y-54447000D01*
X101724990Y-53566047D02*
X101391657Y-53566047D01*
X101439276Y-53566047D02*
X101415466Y-53542238D01*
X101391657Y-53494619D01*
X101391657Y-53423190D01*
X101415466Y-53375571D01*
X101463085Y-53351761D01*
X101724990Y-53351761D01*
X101463085Y-53351761D02*
X101415466Y-53327952D01*
X101391657Y-53280333D01*
X101391657Y-53208904D01*
X101415466Y-53161285D01*
X101463085Y-53137476D01*
X101724990Y-53137476D01*
X101724990Y-52899380D02*
X101391657Y-52899380D01*
X101439276Y-52899380D02*
X101415466Y-52875571D01*
X101391657Y-52827952D01*
X101391657Y-52756523D01*
X101415466Y-52708904D01*
X101463085Y-52685095D01*
X101724990Y-52685095D01*
X101463085Y-52685095D02*
X101415466Y-52661285D01*
X101391657Y-52613666D01*
X101391657Y-52542238D01*
X101415466Y-52494619D01*
X101463085Y-52470809D01*
X101724990Y-52470809D01*
X84498800Y-58647000D02*
X84298800Y-58447000D01*
X102898800Y-58647000D02*
X103098800Y-58847000D01*
X102098800Y-56522000D02*
X102098800Y-51922000D01*
X102098800Y-56522000D02*
X101898800Y-56322000D01*
X102098800Y-51922000D02*
X102298800Y-52122000D01*
X79898800Y-58647000D02*
X80098800Y-58847000D01*
X107498800Y-58647000D02*
X107298800Y-58447000D01*
X107498800Y-58647000D02*
X107298800Y-58847000D01*
X102898800Y-58647000D02*
X107498800Y-58647000D01*
X84498800Y-58647000D02*
X84298800Y-58847000D01*
X79898800Y-58647000D02*
X84498800Y-58647000D01*
X102098800Y-51922000D02*
X101898800Y-52122000D01*
X79898800Y-58647000D02*
X80098800Y-58447000D01*
X102098800Y-56522000D02*
X102298800Y-56322000D01*
X102898800Y-58647000D02*
X103098800Y-58447000D01*
M02*
