%FSLAX45Y45*%
G04 Gerber Fmt 4.5, Leading zero omitted, Abs format (unit mm)*
G04 Created by KiCad (PCBNEW (6.0.4)) date 2022-05-20 18:14:04*
%MOMM*%
%LPD*%
G01*
G04 APERTURE LIST*
%TA.AperFunction,Profile*%
%ADD10C,0.200000*%
%TD*%
%TA.AperFunction,Profile*%
%ADD11C,0.100000*%
%TD*%
%ADD12C,0.200000*%
%ADD13C,0.100000*%
G04 APERTURE END LIST*
D10*
X3565500Y-5504000D02*
X12890500Y-5504000D01*
X12890500Y-5504000D02*
X12890500Y-12890500D01*
X12890500Y-12890500D02*
X3565500Y-12890500D01*
X3565500Y-12890500D02*
X3565500Y-5504000D01*
D11*
X12729981Y-6032500D02*
G75*
G03*
X12729981Y-6032500I-283981J0D01*
G01*
X12602981Y-12319000D02*
G75*
G03*
X12602981Y-12319000I-283981J0D01*
G01*
X4347981Y-12382500D02*
G75*
G03*
X4347981Y-12382500I-283981J0D01*
G01*
X4284481Y-6032500D02*
G75*
G03*
X4284481Y-6032500I-283981J0D01*
G01*
D12*
D13*
X3657000Y-7046500D02*
X3757000Y-7146500D01*
X3757000Y-7046500D02*
X3657000Y-7146500D01*
X3657000Y-7646500D02*
X3757000Y-7746500D01*
X3757000Y-7646500D02*
X3657000Y-7746500D01*
D12*
X3813119Y-13210976D02*
X3813119Y-13010976D01*
X3860738Y-13010976D01*
X3889309Y-13020500D01*
X3908357Y-13039548D01*
X3917881Y-13058595D01*
X3927405Y-13096690D01*
X3927405Y-13125262D01*
X3917881Y-13163357D01*
X3908357Y-13182405D01*
X3889309Y-13201452D01*
X3860738Y-13210976D01*
X3813119Y-13210976D01*
X4013119Y-13210976D02*
X4013119Y-13077643D01*
X4013119Y-13115738D02*
X4022643Y-13096690D01*
X4032167Y-13087167D01*
X4051214Y-13077643D01*
X4070262Y-13077643D01*
X4136928Y-13210976D02*
X4136928Y-13077643D01*
X4136928Y-13010976D02*
X4127405Y-13020500D01*
X4136928Y-13030024D01*
X4146452Y-13020500D01*
X4136928Y-13010976D01*
X4136928Y-13030024D01*
X4260738Y-13210976D02*
X4241690Y-13201452D01*
X4232167Y-13182405D01*
X4232167Y-13010976D01*
X4365500Y-13210976D02*
X4346452Y-13201452D01*
X4336929Y-13182405D01*
X4336929Y-13010976D01*
X4594071Y-13210976D02*
X4594071Y-13010976D01*
X4660738Y-13153833D01*
X4727405Y-13010976D01*
X4727405Y-13210976D01*
X4908357Y-13210976D02*
X4908357Y-13106214D01*
X4898833Y-13087167D01*
X4879786Y-13077643D01*
X4841690Y-13077643D01*
X4822643Y-13087167D01*
X4908357Y-13201452D02*
X4889310Y-13210976D01*
X4841690Y-13210976D01*
X4822643Y-13201452D01*
X4813119Y-13182405D01*
X4813119Y-13163357D01*
X4822643Y-13144309D01*
X4841690Y-13134786D01*
X4889310Y-13134786D01*
X4908357Y-13125262D01*
X5003595Y-13077643D02*
X5003595Y-13277643D01*
X5003595Y-13087167D02*
X5022643Y-13077643D01*
X5060738Y-13077643D01*
X5079786Y-13087167D01*
X5089310Y-13096690D01*
X5098833Y-13115738D01*
X5098833Y-13172881D01*
X5089310Y-13191928D01*
X5079786Y-13201452D01*
X5060738Y-13210976D01*
X5022643Y-13210976D01*
X5003595Y-13201452D01*
X5184548Y-13191928D02*
X5194071Y-13201452D01*
X5184548Y-13210976D01*
X5175024Y-13201452D01*
X5184548Y-13191928D01*
X5184548Y-13210976D01*
X5184548Y-13087167D02*
X5194071Y-13096690D01*
X5184548Y-13106214D01*
X5175024Y-13096690D01*
X5184548Y-13087167D01*
X5184548Y-13106214D01*
D13*
X3455500Y-13490500D02*
X3555500Y-13590500D01*
X3555500Y-13490500D02*
X3455500Y-13590500D01*
D12*
X3917881Y-13630976D02*
X3803595Y-13630976D01*
X3860738Y-13630976D02*
X3860738Y-13430976D01*
X3841690Y-13459548D01*
X3822643Y-13478595D01*
X3803595Y-13488119D01*
X4003595Y-13611928D02*
X4013119Y-13621452D01*
X4003595Y-13630976D01*
X3994071Y-13621452D01*
X4003595Y-13611928D01*
X4003595Y-13630976D01*
X4136928Y-13430976D02*
X4155976Y-13430976D01*
X4175024Y-13440500D01*
X4184548Y-13450024D01*
X4194071Y-13469071D01*
X4203595Y-13507167D01*
X4203595Y-13554786D01*
X4194071Y-13592881D01*
X4184548Y-13611928D01*
X4175024Y-13621452D01*
X4155976Y-13630976D01*
X4136928Y-13630976D01*
X4117881Y-13621452D01*
X4108357Y-13611928D01*
X4098833Y-13592881D01*
X4089309Y-13554786D01*
X4089309Y-13507167D01*
X4098833Y-13469071D01*
X4108357Y-13450024D01*
X4117881Y-13440500D01*
X4136928Y-13430976D01*
X4327405Y-13430976D02*
X4346452Y-13430976D01*
X4365500Y-13440500D01*
X4375024Y-13450024D01*
X4384548Y-13469071D01*
X4394071Y-13507167D01*
X4394071Y-13554786D01*
X4384548Y-13592881D01*
X4375024Y-13611928D01*
X4365500Y-13621452D01*
X4346452Y-13630976D01*
X4327405Y-13630976D01*
X4308357Y-13621452D01*
X4298833Y-13611928D01*
X4289310Y-13592881D01*
X4279786Y-13554786D01*
X4279786Y-13507167D01*
X4289310Y-13469071D01*
X4298833Y-13450024D01*
X4308357Y-13440500D01*
X4327405Y-13430976D01*
X4517881Y-13430976D02*
X4536929Y-13430976D01*
X4555976Y-13440500D01*
X4565500Y-13450024D01*
X4575024Y-13469071D01*
X4584548Y-13507167D01*
X4584548Y-13554786D01*
X4575024Y-13592881D01*
X4565500Y-13611928D01*
X4555976Y-13621452D01*
X4536929Y-13630976D01*
X4517881Y-13630976D01*
X4498833Y-13621452D01*
X4489310Y-13611928D01*
X4479786Y-13592881D01*
X4470262Y-13554786D01*
X4470262Y-13507167D01*
X4479786Y-13469071D01*
X4489310Y-13450024D01*
X4498833Y-13440500D01*
X4517881Y-13430976D01*
X4670262Y-13630976D02*
X4670262Y-13497643D01*
X4670262Y-13516690D02*
X4679786Y-13507167D01*
X4698833Y-13497643D01*
X4727405Y-13497643D01*
X4746452Y-13507167D01*
X4755976Y-13526214D01*
X4755976Y-13630976D01*
X4755976Y-13526214D02*
X4765500Y-13507167D01*
X4784548Y-13497643D01*
X4813119Y-13497643D01*
X4832167Y-13507167D01*
X4841690Y-13526214D01*
X4841690Y-13630976D01*
X4936929Y-13630976D02*
X4936929Y-13497643D01*
X4936929Y-13516690D02*
X4946452Y-13507167D01*
X4965500Y-13497643D01*
X4994071Y-13497643D01*
X5013119Y-13507167D01*
X5022643Y-13526214D01*
X5022643Y-13630976D01*
X5022643Y-13526214D02*
X5032167Y-13507167D01*
X5051214Y-13497643D01*
X5079786Y-13497643D01*
X5098833Y-13507167D01*
X5108357Y-13526214D01*
X5108357Y-13630976D01*
X5498833Y-13421452D02*
X5327405Y-13678595D01*
X5755976Y-13430976D02*
X5775024Y-13430976D01*
X5794071Y-13440500D01*
X5803595Y-13450024D01*
X5813119Y-13469071D01*
X5822643Y-13507167D01*
X5822643Y-13554786D01*
X5813119Y-13592881D01*
X5803595Y-13611928D01*
X5794071Y-13621452D01*
X5775024Y-13630976D01*
X5755976Y-13630976D01*
X5736928Y-13621452D01*
X5727405Y-13611928D01*
X5717881Y-13592881D01*
X5708357Y-13554786D01*
X5708357Y-13507167D01*
X5717881Y-13469071D01*
X5727405Y-13450024D01*
X5736928Y-13440500D01*
X5755976Y-13430976D01*
X5908357Y-13611928D02*
X5917881Y-13621452D01*
X5908357Y-13630976D01*
X5898833Y-13621452D01*
X5908357Y-13611928D01*
X5908357Y-13630976D01*
X6041690Y-13430976D02*
X6060738Y-13430976D01*
X6079786Y-13440500D01*
X6089309Y-13450024D01*
X6098833Y-13469071D01*
X6108357Y-13507167D01*
X6108357Y-13554786D01*
X6098833Y-13592881D01*
X6089309Y-13611928D01*
X6079786Y-13621452D01*
X6060738Y-13630976D01*
X6041690Y-13630976D01*
X6022643Y-13621452D01*
X6013119Y-13611928D01*
X6003595Y-13592881D01*
X5994071Y-13554786D01*
X5994071Y-13507167D01*
X6003595Y-13469071D01*
X6013119Y-13450024D01*
X6022643Y-13440500D01*
X6041690Y-13430976D01*
X6175024Y-13430976D02*
X6298833Y-13430976D01*
X6232167Y-13507167D01*
X6260738Y-13507167D01*
X6279786Y-13516690D01*
X6289309Y-13526214D01*
X6298833Y-13545262D01*
X6298833Y-13592881D01*
X6289309Y-13611928D01*
X6279786Y-13621452D01*
X6260738Y-13630976D01*
X6203595Y-13630976D01*
X6184548Y-13621452D01*
X6175024Y-13611928D01*
X6394071Y-13630976D02*
X6432167Y-13630976D01*
X6451214Y-13621452D01*
X6460738Y-13611928D01*
X6479786Y-13583357D01*
X6489309Y-13545262D01*
X6489309Y-13469071D01*
X6479786Y-13450024D01*
X6470262Y-13440500D01*
X6451214Y-13430976D01*
X6413119Y-13430976D01*
X6394071Y-13440500D01*
X6384548Y-13450024D01*
X6375024Y-13469071D01*
X6375024Y-13516690D01*
X6384548Y-13535738D01*
X6394071Y-13545262D01*
X6413119Y-13554786D01*
X6451214Y-13554786D01*
X6470262Y-13545262D01*
X6479786Y-13535738D01*
X6489309Y-13516690D01*
X6660738Y-13497643D02*
X6660738Y-13630976D01*
X6613119Y-13421452D02*
X6565500Y-13564309D01*
X6689309Y-13564309D01*
X6755976Y-13430976D02*
X6755976Y-13469071D01*
X6832167Y-13430976D02*
X6832167Y-13469071D01*
X7127405Y-13707167D02*
X7117881Y-13697643D01*
X7098833Y-13669071D01*
X7089309Y-13650024D01*
X7079786Y-13621452D01*
X7070262Y-13573833D01*
X7070262Y-13535738D01*
X7079786Y-13488119D01*
X7089309Y-13459548D01*
X7098833Y-13440500D01*
X7117881Y-13411928D01*
X7127405Y-13402405D01*
X7194071Y-13450024D02*
X7203595Y-13440500D01*
X7222643Y-13430976D01*
X7270262Y-13430976D01*
X7289309Y-13440500D01*
X7298833Y-13450024D01*
X7308357Y-13469071D01*
X7308357Y-13488119D01*
X7298833Y-13516690D01*
X7184548Y-13630976D01*
X7308357Y-13630976D01*
X7546452Y-13630976D02*
X7546452Y-13430976D01*
X7632167Y-13630976D02*
X7632167Y-13526214D01*
X7622643Y-13507167D01*
X7603595Y-13497643D01*
X7575024Y-13497643D01*
X7555976Y-13507167D01*
X7546452Y-13516690D01*
X7755976Y-13630976D02*
X7736928Y-13621452D01*
X7727405Y-13611928D01*
X7717881Y-13592881D01*
X7717881Y-13535738D01*
X7727405Y-13516690D01*
X7736928Y-13507167D01*
X7755976Y-13497643D01*
X7784548Y-13497643D01*
X7803595Y-13507167D01*
X7813119Y-13516690D01*
X7822643Y-13535738D01*
X7822643Y-13592881D01*
X7813119Y-13611928D01*
X7803595Y-13621452D01*
X7784548Y-13630976D01*
X7755976Y-13630976D01*
X7936928Y-13630976D02*
X7917881Y-13621452D01*
X7908357Y-13602405D01*
X7908357Y-13430976D01*
X8089309Y-13621452D02*
X8070262Y-13630976D01*
X8032167Y-13630976D01*
X8013119Y-13621452D01*
X8003595Y-13602405D01*
X8003595Y-13526214D01*
X8013119Y-13507167D01*
X8032167Y-13497643D01*
X8070262Y-13497643D01*
X8089309Y-13507167D01*
X8098833Y-13526214D01*
X8098833Y-13545262D01*
X8003595Y-13564309D01*
X8175024Y-13621452D02*
X8194071Y-13630976D01*
X8232167Y-13630976D01*
X8251214Y-13621452D01*
X8260738Y-13602405D01*
X8260738Y-13592881D01*
X8251214Y-13573833D01*
X8232167Y-13564309D01*
X8203595Y-13564309D01*
X8184548Y-13554786D01*
X8175024Y-13535738D01*
X8175024Y-13526214D01*
X8184548Y-13507167D01*
X8203595Y-13497643D01*
X8232167Y-13497643D01*
X8251214Y-13507167D01*
X8327405Y-13707167D02*
X8336928Y-13697643D01*
X8355976Y-13669071D01*
X8365500Y-13650024D01*
X8375024Y-13621452D01*
X8384548Y-13573833D01*
X8384548Y-13535738D01*
X8375024Y-13488119D01*
X8365500Y-13459548D01*
X8355976Y-13440500D01*
X8336928Y-13411928D01*
X8327405Y-13402405D01*
X8689310Y-13707167D02*
X8679786Y-13697643D01*
X8660738Y-13669071D01*
X8651214Y-13650024D01*
X8641690Y-13621452D01*
X8632167Y-13573833D01*
X8632167Y-13535738D01*
X8641690Y-13488119D01*
X8651214Y-13459548D01*
X8660738Y-13440500D01*
X8679786Y-13411928D01*
X8689310Y-13402405D01*
X8765500Y-13497643D02*
X8765500Y-13630976D01*
X8765500Y-13516690D02*
X8775024Y-13507167D01*
X8794071Y-13497643D01*
X8822643Y-13497643D01*
X8841690Y-13507167D01*
X8851214Y-13526214D01*
X8851214Y-13630976D01*
X8975024Y-13630976D02*
X8955976Y-13621452D01*
X8946452Y-13611928D01*
X8936929Y-13592881D01*
X8936929Y-13535738D01*
X8946452Y-13516690D01*
X8955976Y-13507167D01*
X8975024Y-13497643D01*
X9003595Y-13497643D01*
X9022643Y-13507167D01*
X9032167Y-13516690D01*
X9041690Y-13535738D01*
X9041690Y-13592881D01*
X9032167Y-13611928D01*
X9022643Y-13621452D01*
X9003595Y-13630976D01*
X8975024Y-13630976D01*
X9098833Y-13497643D02*
X9175024Y-13497643D01*
X9127405Y-13430976D02*
X9127405Y-13602405D01*
X9136929Y-13621452D01*
X9155976Y-13630976D01*
X9175024Y-13630976D01*
X9394071Y-13497643D02*
X9394071Y-13697643D01*
X9394071Y-13507167D02*
X9413119Y-13497643D01*
X9451214Y-13497643D01*
X9470262Y-13507167D01*
X9479786Y-13516690D01*
X9489310Y-13535738D01*
X9489310Y-13592881D01*
X9479786Y-13611928D01*
X9470262Y-13621452D01*
X9451214Y-13630976D01*
X9413119Y-13630976D01*
X9394071Y-13621452D01*
X9603595Y-13630976D02*
X9584548Y-13621452D01*
X9575024Y-13602405D01*
X9575024Y-13430976D01*
X9765500Y-13630976D02*
X9765500Y-13526214D01*
X9755976Y-13507167D01*
X9736929Y-13497643D01*
X9698833Y-13497643D01*
X9679786Y-13507167D01*
X9765500Y-13621452D02*
X9746452Y-13630976D01*
X9698833Y-13630976D01*
X9679786Y-13621452D01*
X9670262Y-13602405D01*
X9670262Y-13583357D01*
X9679786Y-13564309D01*
X9698833Y-13554786D01*
X9746452Y-13554786D01*
X9765500Y-13545262D01*
X9832167Y-13497643D02*
X9908357Y-13497643D01*
X9860738Y-13430976D02*
X9860738Y-13602405D01*
X9870262Y-13621452D01*
X9889310Y-13630976D01*
X9908357Y-13630976D01*
X10051214Y-13621452D02*
X10032167Y-13630976D01*
X9994071Y-13630976D01*
X9975024Y-13621452D01*
X9965500Y-13602405D01*
X9965500Y-13526214D01*
X9975024Y-13507167D01*
X9994071Y-13497643D01*
X10032167Y-13497643D01*
X10051214Y-13507167D01*
X10060738Y-13526214D01*
X10060738Y-13545262D01*
X9965500Y-13564309D01*
X10232167Y-13630976D02*
X10232167Y-13430976D01*
X10232167Y-13621452D02*
X10213119Y-13630976D01*
X10175024Y-13630976D01*
X10155976Y-13621452D01*
X10146452Y-13611928D01*
X10136929Y-13592881D01*
X10136929Y-13535738D01*
X10146452Y-13516690D01*
X10155976Y-13507167D01*
X10175024Y-13497643D01*
X10213119Y-13497643D01*
X10232167Y-13507167D01*
X10308357Y-13707167D02*
X10317881Y-13697643D01*
X10336929Y-13669071D01*
X10346452Y-13650024D01*
X10355976Y-13621452D01*
X10365500Y-13573833D01*
X10365500Y-13535738D01*
X10355976Y-13488119D01*
X10346452Y-13459548D01*
X10336929Y-13440500D01*
X10317881Y-13411928D01*
X10308357Y-13402405D01*
M02*
