G04 #@! TF.GenerationSoftware,KiCad,Pcbnew,(6.0.4)*
G04 #@! TF.CreationDate,2022-05-20T18:13:48-05:00*
G04 #@! TF.ProjectId,REEL,5245454c-2e6b-4696-9361-645f70636258,rev?*
G04 #@! TF.SameCoordinates,Original*
G04 #@! TF.FileFunction,Paste,Top*
G04 #@! TF.FilePolarity,Positive*
%FSLAX46Y46*%
G04 Gerber Fmt 4.6, Leading zero omitted, Abs format (unit mm)*
G04 Created by KiCad (PCBNEW (6.0.4)) date 2022-05-20 18:13:48*
%MOMM*%
%LPD*%
G01*
G04 APERTURE LIST*
G04 Aperture macros list*
%AMRoundRect*
0 Rectangle with rounded corners*
0 $1 Rounding radius*
0 $2 $3 $4 $5 $6 $7 $8 $9 X,Y pos of 4 corners*
0 Add a 4 corners polygon primitive as box body*
4,1,4,$2,$3,$4,$5,$6,$7,$8,$9,$2,$3,0*
0 Add four circle primitives for the rounded corners*
1,1,$1+$1,$2,$3*
1,1,$1+$1,$4,$5*
1,1,$1+$1,$6,$7*
1,1,$1+$1,$8,$9*
0 Add four rect primitives between the rounded corners*
20,1,$1+$1,$2,$3,$4,$5,0*
20,1,$1+$1,$4,$5,$6,$7,0*
20,1,$1+$1,$6,$7,$8,$9,0*
20,1,$1+$1,$8,$9,$2,$3,0*%
G04 Aperture macros list end*
%ADD10RoundRect,0.250000X-0.475000X0.337500X-0.475000X-0.337500X0.475000X-0.337500X0.475000X0.337500X0*%
%ADD11RoundRect,0.237500X0.237500X-0.300000X0.237500X0.300000X-0.237500X0.300000X-0.237500X-0.300000X0*%
%ADD12R,2.000000X1.500000*%
%ADD13R,2.000000X3.800000*%
%ADD14RoundRect,0.250000X-0.350000X-0.450000X0.350000X-0.450000X0.350000X0.450000X-0.350000X0.450000X0*%
%ADD15RoundRect,0.250000X0.350000X0.450000X-0.350000X0.450000X-0.350000X-0.450000X0.350000X-0.450000X0*%
%ADD16RoundRect,0.250000X0.337500X0.475000X-0.337500X0.475000X-0.337500X-0.475000X0.337500X-0.475000X0*%
%ADD17RoundRect,0.250000X0.325000X0.450000X-0.325000X0.450000X-0.325000X-0.450000X0.325000X-0.450000X0*%
%ADD18RoundRect,0.250000X0.362500X2.125000X-0.362500X2.125000X-0.362500X-2.125000X0.362500X-2.125000X0*%
%ADD19RoundRect,0.237500X-0.237500X0.300000X-0.237500X-0.300000X0.237500X-0.300000X0.237500X0.300000X0*%
%ADD20RoundRect,0.250000X-1.100000X0.412500X-1.100000X-0.412500X1.100000X-0.412500X1.100000X0.412500X0*%
%ADD21RoundRect,0.250000X1.100000X-0.412500X1.100000X0.412500X-1.100000X0.412500X-1.100000X-0.412500X0*%
%ADD22RoundRect,0.250000X-0.450000X0.350000X-0.450000X-0.350000X0.450000X-0.350000X0.450000X0.350000X0*%
%ADD23R,3.200000X1.000000*%
%ADD24R,2.000000X0.900000*%
%ADD25R,0.900000X2.000000*%
%ADD26R,5.000000X5.000000*%
%ADD27R,1.500000X2.400000*%
%ADD28R,1.525000X0.700000*%
%ADD29R,2.513000X3.402000*%
%ADD30R,1.500000X0.500000*%
%ADD31R,1.800000X3.000000*%
%ADD32R,3.120000X2.290000*%
%ADD33RoundRect,0.250000X-0.362500X-2.125000X0.362500X-2.125000X0.362500X2.125000X-0.362500X2.125000X0*%
%ADD34R,2.400000X1.500000*%
%ADD35R,1.500000X1.500000*%
G04 APERTURE END LIST*
D10*
X86360000Y-90535000D03*
X86360000Y-92610000D03*
D11*
X48260000Y-85317500D03*
X48260000Y-83592500D03*
D12*
X48107600Y-63195200D03*
X48107600Y-65495200D03*
D13*
X54407600Y-65495200D03*
D12*
X48107600Y-67795200D03*
D14*
X73565000Y-60960000D03*
X75565000Y-60960000D03*
X96155000Y-97520000D03*
X98155000Y-97520000D03*
X102140000Y-97790000D03*
X104140000Y-97790000D03*
D15*
X110220000Y-93345000D03*
X108220000Y-93345000D03*
D10*
X84455000Y-99060000D03*
X84455000Y-101135000D03*
D16*
X104140000Y-93345000D03*
X102065000Y-93345000D03*
D17*
X42545000Y-107950000D03*
X40495000Y-107950000D03*
D15*
X64865000Y-72390000D03*
X62865000Y-72390000D03*
D18*
X43815000Y-88265000D03*
X40690000Y-88265000D03*
X55830000Y-120895000D03*
X52705000Y-120895000D03*
D19*
X69850000Y-109645000D03*
X69850000Y-111370000D03*
D17*
X42300000Y-104775000D03*
X40250000Y-104775000D03*
D20*
X76835000Y-108195000D03*
X76835000Y-111320000D03*
D21*
X70485000Y-105067500D03*
X70485000Y-101942500D03*
D10*
X80645000Y-65002500D03*
X80645000Y-67077500D03*
D21*
X64135000Y-105067500D03*
X64135000Y-101942500D03*
D22*
X80010000Y-90805000D03*
X80010000Y-92805000D03*
D18*
X43615000Y-97155000D03*
X40490000Y-97155000D03*
D15*
X120015000Y-87630000D03*
X118015000Y-87630000D03*
D22*
X79375000Y-115840000D03*
X79375000Y-117840000D03*
D23*
X122145000Y-95155000D03*
X115345000Y-95155000D03*
X115345000Y-99155000D03*
X122145000Y-99155000D03*
D15*
X120015000Y-76200000D03*
X118015000Y-76200000D03*
D24*
X85198800Y-64267000D03*
X85198800Y-65537000D03*
X85198800Y-66807000D03*
X85198800Y-68077000D03*
X85198800Y-69347000D03*
X85198800Y-70617000D03*
X85198800Y-71887000D03*
X85198800Y-73157000D03*
X85198800Y-74427000D03*
X85198800Y-75697000D03*
X85198800Y-76967000D03*
X85198800Y-78237000D03*
X85198800Y-79507000D03*
X85198800Y-80777000D03*
D25*
X87983800Y-81777000D03*
X89253800Y-81777000D03*
X90523800Y-81777000D03*
X91793800Y-81777000D03*
X93063800Y-81777000D03*
X94333800Y-81777000D03*
X95603800Y-81777000D03*
X96873800Y-81777000D03*
X98143800Y-81777000D03*
X99413800Y-81777000D03*
D24*
X102198800Y-80777000D03*
X102198800Y-79507000D03*
X102198800Y-78237000D03*
X102198800Y-76967000D03*
X102198800Y-75697000D03*
X102198800Y-74427000D03*
X102198800Y-73157000D03*
X102198800Y-71887000D03*
X102198800Y-70617000D03*
X102198800Y-69347000D03*
X102198800Y-68077000D03*
X102198800Y-66807000D03*
X102198800Y-65537000D03*
X102198800Y-64267000D03*
D26*
X92698800Y-71767000D03*
D27*
X55670000Y-94225000D03*
X61170000Y-94225000D03*
D21*
X76835000Y-104970000D03*
X76835000Y-101845000D03*
D15*
X119745000Y-72390000D03*
X117745000Y-72390000D03*
D16*
X98595000Y-101600000D03*
X96520000Y-101600000D03*
D28*
X50628000Y-101600000D03*
X50628000Y-102870000D03*
X50628000Y-104140000D03*
X50628000Y-105410000D03*
X56052000Y-105410000D03*
X56052000Y-104140000D03*
X56052000Y-102870000D03*
X56052000Y-101600000D03*
D29*
X53340000Y-103505000D03*
D30*
X40520000Y-75565000D03*
X40520000Y-74765000D03*
X40520000Y-73965000D03*
X40520000Y-73165000D03*
X40520000Y-72365000D03*
D31*
X39370000Y-69215000D03*
X39370000Y-78715000D03*
D32*
X73025000Y-97655000D03*
X73025000Y-90795000D03*
D15*
X120015000Y-80010000D03*
X118015000Y-80010000D03*
X120015000Y-83820000D03*
X118015000Y-83820000D03*
D33*
X52705000Y-113275000D03*
X55830000Y-113275000D03*
D14*
X95885000Y-93345000D03*
X97885000Y-93345000D03*
D15*
X116840000Y-60960000D03*
X114840000Y-60960000D03*
D21*
X64135000Y-111662500D03*
X64135000Y-108537500D03*
D15*
X119380000Y-68580000D03*
X117380000Y-68580000D03*
D34*
X50800000Y-73025000D03*
X50800000Y-78525000D03*
D21*
X53340000Y-86945000D03*
X53340000Y-83820000D03*
D35*
X89535000Y-104230000D03*
X89535000Y-96430000D03*
D21*
X66675000Y-86652500D03*
X66675000Y-83527500D03*
X60325000Y-86945000D03*
X60325000Y-83820000D03*
M02*
