%FSLAX45Y45*%
G04 Gerber Fmt 4.5, Leading zero omitted, Abs format (unit mm)*
G04 Created by KiCad (PCBNEW (6.0.4)) date 2022-05-21 11:58:03*
%MOMM*%
%LPD*%
G01*
G04 APERTURE LIST*
%TA.AperFunction,Profile*%
%ADD10C,0.200000*%
%TD*%
%TA.AperFunction,Profile*%
%ADD11C,0.100000*%
%TD*%
%ADD12C,0.200000*%
%ADD13C,0.040000*%
%ADD14C,0.060000*%
%ADD15C,0.075000*%
%ADD16C,0.095000*%
%ADD17C,0.100000*%
%ADD18C,0.132000*%
G04 APERTURE END LIST*
D10*
X3565500Y-5504000D02*
X12890500Y-5504000D01*
X12890500Y-5504000D02*
X12890500Y-12890500D01*
X12890500Y-12890500D02*
X3565500Y-12890500D01*
X3565500Y-12890500D02*
X3565500Y-5504000D01*
D11*
X12729981Y-6032500D02*
G75*
G03*
X12729981Y-6032500I-283981J0D01*
G01*
X12602981Y-12319000D02*
G75*
G03*
X12602981Y-12319000I-283981J0D01*
G01*
X4347981Y-12382500D02*
G75*
G03*
X4347981Y-12382500I-283981J0D01*
G01*
X4284481Y-6032500D02*
G75*
G03*
X4284481Y-6032500I-283981J0D01*
G01*
D12*
D13*
X5631500Y-9759000D02*
X5671500Y-9799000D01*
X5671500Y-9759000D02*
X5631500Y-9799000D01*
X5631500Y-9886000D02*
X5671500Y-9926000D01*
X5671500Y-9886000D02*
X5631500Y-9926000D01*
X5758500Y-9759000D02*
X5798500Y-9799000D01*
X5798500Y-9759000D02*
X5758500Y-9799000D01*
X5758500Y-9886000D02*
X5798500Y-9926000D01*
X5798500Y-9886000D02*
X5758500Y-9926000D01*
X5822000Y-11156000D02*
X5862000Y-11196000D01*
X5862000Y-11156000D02*
X5822000Y-11196000D01*
X5822000Y-11283000D02*
X5862000Y-11323000D01*
X5862000Y-11283000D02*
X5822000Y-11323000D01*
X5822000Y-11410000D02*
X5862000Y-11450000D01*
X5862000Y-11410000D02*
X5822000Y-11450000D01*
X5885500Y-9759000D02*
X5925500Y-9799000D01*
X5925500Y-9759000D02*
X5885500Y-9799000D01*
X5885500Y-9886000D02*
X5925500Y-9926000D01*
X5925500Y-9886000D02*
X5885500Y-9926000D01*
X5949000Y-10648000D02*
X5989000Y-10688000D01*
X5989000Y-10648000D02*
X5949000Y-10688000D01*
X5949000Y-11156000D02*
X5989000Y-11196000D01*
X5989000Y-11156000D02*
X5949000Y-11196000D01*
X5949000Y-11283000D02*
X5989000Y-11323000D01*
X5989000Y-11283000D02*
X5949000Y-11323000D01*
X5949000Y-11410000D02*
X5989000Y-11450000D01*
X5989000Y-11410000D02*
X5949000Y-11450000D01*
X6702050Y-6711000D02*
X6742050Y-6751000D01*
X6742050Y-6711000D02*
X6702050Y-6751000D01*
X6711000Y-7092000D02*
X6751000Y-7132000D01*
X6751000Y-7092000D02*
X6711000Y-7132000D01*
X6774500Y-6838000D02*
X6814500Y-6878000D01*
X6814500Y-6838000D02*
X6774500Y-6878000D01*
X6901500Y-7536500D02*
X6941500Y-7576500D01*
X6941500Y-7536500D02*
X6901500Y-7576500D01*
X6901500Y-7663500D02*
X6941500Y-7703500D01*
X6941500Y-7663500D02*
X6901500Y-7703500D01*
X6931920Y-8265420D02*
X6971920Y-8305420D01*
X6971920Y-8265420D02*
X6931920Y-8305420D01*
X6937260Y-8015360D02*
X6977260Y-8055360D01*
X6977260Y-8015360D02*
X6937260Y-8055360D01*
X7028500Y-7028500D02*
X7068500Y-7068500D01*
X7068500Y-7028500D02*
X7028500Y-7068500D01*
X7028500Y-7536500D02*
X7068500Y-7576500D01*
X7068500Y-7536500D02*
X7028500Y-7576500D01*
X7028500Y-7663500D02*
X7068500Y-7703500D01*
X7068500Y-7663500D02*
X7028500Y-7703500D01*
X7155500Y-7536500D02*
X7195500Y-7576500D01*
X7195500Y-7536500D02*
X7155500Y-7576500D01*
X7155500Y-7663500D02*
X7195500Y-7703500D01*
X7195500Y-7663500D02*
X7155500Y-7703500D01*
X7727000Y-8743000D02*
X7767000Y-8783000D01*
X7767000Y-8743000D02*
X7727000Y-8783000D01*
X7901025Y-7774025D02*
X7941025Y-7814025D01*
X7941025Y-7774025D02*
X7901025Y-7814025D01*
X7917500Y-8552500D02*
X7957500Y-8592500D01*
X7957500Y-8552500D02*
X7917500Y-8592500D01*
X7917500Y-8679500D02*
X7957500Y-8719500D01*
X7957500Y-8679500D02*
X7917500Y-8719500D01*
X8044500Y-8552500D02*
X8084500Y-8592500D01*
X8084500Y-8552500D02*
X8044500Y-8592500D01*
X8044500Y-8679500D02*
X8084500Y-8719500D01*
X8084500Y-8679500D02*
X8044500Y-8719500D01*
X8171500Y-8552500D02*
X8211500Y-8592500D01*
X8211500Y-8552500D02*
X8171500Y-8592500D01*
X8171500Y-8679500D02*
X8211500Y-8719500D01*
X8211500Y-8679500D02*
X8171500Y-8719500D01*
X8227000Y-7147500D02*
X8267000Y-7187500D01*
X8267000Y-7147500D02*
X8227000Y-7187500D01*
X8235000Y-6520500D02*
X8275000Y-6560500D01*
X8275000Y-6520500D02*
X8235000Y-6560500D01*
X8235000Y-6774500D02*
X8275000Y-6814500D01*
X8275000Y-6774500D02*
X8235000Y-6814500D01*
X8235000Y-7028500D02*
X8275000Y-7068500D01*
X8275000Y-7028500D02*
X8235000Y-7068500D01*
X8715750Y-9623000D02*
X8755750Y-9663000D01*
X8755750Y-9623000D02*
X8715750Y-9663000D01*
X8743000Y-7092000D02*
X8783000Y-7132000D01*
X8783000Y-7092000D02*
X8743000Y-7132000D01*
X8743000Y-7219000D02*
X8783000Y-7259000D01*
X8783000Y-7219000D02*
X8743000Y-7259000D01*
X9062670Y-8489000D02*
X9102670Y-8529000D01*
X9102670Y-8489000D02*
X9062670Y-8529000D01*
X9251000Y-8743000D02*
X9291000Y-8783000D01*
X9291000Y-8743000D02*
X9251000Y-8783000D01*
X9505000Y-11854500D02*
X9545000Y-11894500D01*
X9545000Y-11854500D02*
X9505000Y-11894500D01*
X9632000Y-11981500D02*
X9672000Y-12021500D01*
X9672000Y-11981500D02*
X9632000Y-12021500D01*
X9822500Y-10648000D02*
X9862500Y-10688000D01*
X9862500Y-10648000D02*
X9822500Y-10688000D01*
X9822500Y-10775000D02*
X9862500Y-10815000D01*
X9862500Y-10775000D02*
X9822500Y-10815000D01*
X9949500Y-7536500D02*
X9989500Y-7576500D01*
X9989500Y-7536500D02*
X9949500Y-7576500D01*
X9949500Y-7663500D02*
X9989500Y-7703500D01*
X9989500Y-7663500D02*
X9949500Y-7703500D01*
X9949500Y-10648000D02*
X9989500Y-10688000D01*
X9989500Y-10648000D02*
X9949500Y-10688000D01*
X9949500Y-10775000D02*
X9989500Y-10815000D01*
X9989500Y-10775000D02*
X9949500Y-10815000D01*
X10076500Y-10648000D02*
X10116500Y-10688000D01*
X10116500Y-10648000D02*
X10076500Y-10688000D01*
X10076500Y-10775000D02*
X10116500Y-10815000D01*
X10116500Y-10775000D02*
X10076500Y-10815000D01*
X10140000Y-11283000D02*
X10180000Y-11323000D01*
X10180000Y-11283000D02*
X10140000Y-11323000D01*
X10152590Y-9555910D02*
X10192590Y-9595910D01*
X10192590Y-9555910D02*
X10152590Y-9595910D01*
X10203500Y-11727500D02*
X10243500Y-11767500D01*
X10243500Y-11727500D02*
X10203500Y-11767500D01*
X10203500Y-11854500D02*
X10243500Y-11894500D01*
X10243500Y-11854500D02*
X10203500Y-11894500D01*
X10267000Y-11283000D02*
X10307000Y-11323000D01*
X10307000Y-11283000D02*
X10267000Y-11323000D01*
X10330500Y-11727500D02*
X10370500Y-11767500D01*
X10370500Y-11727500D02*
X10330500Y-11767500D01*
X10330500Y-11854500D02*
X10370500Y-11894500D01*
X10370500Y-11854500D02*
X10330500Y-11894500D01*
X10394000Y-10049500D02*
X10434000Y-10089500D01*
X10434000Y-10049500D02*
X10394000Y-10089500D01*
X10457500Y-7536500D02*
X10497500Y-7576500D01*
X10497500Y-7536500D02*
X10457500Y-7576500D01*
X10457500Y-7663500D02*
X10497500Y-7703500D01*
X10497500Y-7663500D02*
X10457500Y-7703500D01*
X10457500Y-11727500D02*
X10497500Y-11767500D01*
X10497500Y-11727500D02*
X10457500Y-11767500D01*
X10457500Y-11854500D02*
X10497500Y-11894500D01*
X10497500Y-11854500D02*
X10457500Y-11894500D01*
X10521000Y-7917500D02*
X10561000Y-7957500D01*
X10561000Y-7917500D02*
X10521000Y-7957500D01*
X10648000Y-6774500D02*
X10688000Y-6814500D01*
X10688000Y-6774500D02*
X10648000Y-6814500D01*
X10838500Y-6901500D02*
X10878500Y-6941500D01*
X10878500Y-6901500D02*
X10838500Y-6941500D01*
X10902000Y-8997000D02*
X10942000Y-9037000D01*
X10942000Y-8997000D02*
X10902000Y-9037000D01*
X11156000Y-8870000D02*
X11196000Y-8910000D01*
X11196000Y-8870000D02*
X11156000Y-8910000D01*
X11156000Y-8997000D02*
X11196000Y-9037000D01*
X11196000Y-8997000D02*
X11156000Y-9037000D01*
X11156000Y-12172000D02*
X11196000Y-12212000D01*
X11196000Y-12172000D02*
X11156000Y-12212000D01*
X11156000Y-12299000D02*
X11196000Y-12339000D01*
X11196000Y-12299000D02*
X11156000Y-12339000D01*
X11283000Y-8870000D02*
X11323000Y-8910000D01*
X11323000Y-8870000D02*
X11283000Y-8910000D01*
X11283000Y-8997000D02*
X11323000Y-9037000D01*
X11323000Y-8997000D02*
X11283000Y-9037000D01*
X11283000Y-12172000D02*
X11323000Y-12212000D01*
X11323000Y-12172000D02*
X11283000Y-12212000D01*
X11283000Y-12299000D02*
X11323000Y-12339000D01*
X11323000Y-12299000D02*
X11283000Y-12339000D01*
X11410000Y-8870000D02*
X11450000Y-8910000D01*
X11450000Y-8870000D02*
X11410000Y-8910000D01*
X11410000Y-8997000D02*
X11450000Y-9037000D01*
X11450000Y-8997000D02*
X11410000Y-9037000D01*
X11410000Y-12172000D02*
X11450000Y-12212000D01*
X11450000Y-12172000D02*
X11410000Y-12212000D01*
X11410000Y-12299000D02*
X11450000Y-12339000D01*
X11450000Y-12299000D02*
X11410000Y-12339000D01*
X11727500Y-6384550D02*
X11767500Y-6424550D01*
X11767500Y-6384550D02*
X11727500Y-6424550D01*
X11781520Y-7037980D02*
X11821520Y-7077980D01*
X11821520Y-7037980D02*
X11781520Y-7077980D01*
D14*
X3903500Y-7493000D02*
G75*
G03*
X3903500Y-7493000I-30000J0D01*
G01*
X4157500Y-8255000D02*
G75*
G03*
X4157500Y-8255000I-30000J0D01*
G01*
X4169860Y-10274640D02*
G75*
G03*
X4169860Y-10274640I-30000J0D01*
G01*
X4538500Y-10985500D02*
G75*
G03*
X4538500Y-10985500I-30000J0D01*
G01*
X8094500Y-10414000D02*
G75*
G03*
X8094500Y-10414000I-30000J0D01*
G01*
X8412000Y-10668000D02*
G75*
G03*
X8412000Y-10668000I-30000J0D01*
G01*
D15*
X4246000Y-11292500D02*
X4246000Y-11367500D01*
X4208500Y-11330000D02*
X4283500Y-11330000D01*
X4246000Y-11492500D02*
X4246000Y-11567500D01*
X4208500Y-11530000D02*
X4283500Y-11530000D01*
D16*
X7590088Y-6701088D02*
X7590088Y-6633912D01*
X7522912Y-6633912D01*
X7522912Y-6701088D01*
X7590088Y-6701088D01*
X7590088Y-6951088D02*
X7590088Y-6883912D01*
X7522912Y-6883912D01*
X7522912Y-6951088D01*
X7590088Y-6951088D01*
X7590088Y-7201088D02*
X7590088Y-7133912D01*
X7522912Y-7133912D01*
X7522912Y-7201088D01*
X7590088Y-7201088D01*
X7590088Y-7451088D02*
X7590088Y-7383912D01*
X7522912Y-7383912D01*
X7522912Y-7451088D01*
X7590088Y-7451088D01*
X7590088Y-7701088D02*
X7590088Y-7633912D01*
X7522912Y-7633912D01*
X7522912Y-7701088D01*
X7590088Y-7701088D01*
X7590088Y-7951088D02*
X7590088Y-7883912D01*
X7522912Y-7883912D01*
X7522912Y-7951088D01*
X7590088Y-7951088D01*
X7590088Y-8201088D02*
X7590088Y-8133912D01*
X7522912Y-8133912D01*
X7522912Y-8201088D01*
X7590088Y-8201088D01*
X7590088Y-8451088D02*
X7590088Y-8383912D01*
X7522912Y-8383912D01*
X7522912Y-8451088D01*
X7590088Y-8451088D01*
X11430088Y-6713088D02*
X11430088Y-6645912D01*
X11362912Y-6645912D01*
X11362912Y-6713088D01*
X11430088Y-6713088D01*
X11430088Y-6963088D02*
X11430088Y-6895912D01*
X11362912Y-6895912D01*
X11362912Y-6963088D01*
X11430088Y-6963088D01*
X11430088Y-7213088D02*
X11430088Y-7145912D01*
X11362912Y-7145912D01*
X11362912Y-7213088D01*
X11430088Y-7213088D01*
X11430088Y-7463088D02*
X11430088Y-7395912D01*
X11362912Y-7395912D01*
X11362912Y-7463088D01*
X11430088Y-7463088D01*
X11430088Y-7713088D02*
X11430088Y-7645912D01*
X11362912Y-7645912D01*
X11362912Y-7713088D01*
X11430088Y-7713088D01*
X11430088Y-7963088D02*
X11430088Y-7895912D01*
X11362912Y-7895912D01*
X11362912Y-7963088D01*
X11430088Y-7963088D01*
X11430088Y-8213088D02*
X11430088Y-8145912D01*
X11362912Y-8145912D01*
X11362912Y-8213088D01*
X11430088Y-8213088D01*
D17*
X5778500Y-6590500D02*
X5828500Y-6540500D01*
X5778500Y-6490500D01*
X5728500Y-6540500D01*
X5778500Y-6590500D01*
X6032500Y-6590500D02*
X6082500Y-6540500D01*
X6032500Y-6490500D01*
X5982500Y-6540500D01*
X6032500Y-6590500D01*
X6286500Y-6590500D02*
X6336500Y-6540500D01*
X6286500Y-6490500D01*
X6236500Y-6540500D01*
X6286500Y-6590500D01*
X6540500Y-6590500D02*
X6590500Y-6540500D01*
X6540500Y-6490500D01*
X6490500Y-6540500D01*
X6540500Y-6590500D01*
X6794500Y-6590500D02*
X6844500Y-6540500D01*
X6794500Y-6490500D01*
X6744500Y-6540500D01*
X6794500Y-6590500D01*
X7048500Y-6590500D02*
X7098500Y-6540500D01*
X7048500Y-6490500D01*
X6998500Y-6540500D01*
X7048500Y-6590500D01*
X8636000Y-12432500D02*
X8686000Y-12382500D01*
X8636000Y-12332500D01*
X8586000Y-12382500D01*
X8636000Y-12432500D01*
X8890000Y-12432500D02*
X8940000Y-12382500D01*
X8890000Y-12332500D01*
X8840000Y-12382500D01*
X8890000Y-12432500D01*
X9144000Y-12432500D02*
X9194000Y-12382500D01*
X9144000Y-12332500D01*
X9094000Y-12382500D01*
X9144000Y-12432500D01*
X9240520Y-11152340D02*
X9290520Y-11102340D01*
X9240520Y-11052340D01*
X9190520Y-11102340D01*
X9240520Y-11152340D01*
X9398000Y-12432500D02*
X9448000Y-12382500D01*
X9398000Y-12332500D01*
X9348000Y-12382500D01*
X9398000Y-12432500D01*
X9621520Y-11152340D02*
X9671520Y-11102340D01*
X9621520Y-11052340D01*
X9571520Y-11102340D01*
X9621520Y-11152340D01*
X9652000Y-12432500D02*
X9702000Y-12382500D01*
X9652000Y-12332500D01*
X9602000Y-12382500D01*
X9652000Y-12432500D01*
X9906000Y-12432500D02*
X9956000Y-12382500D01*
X9906000Y-12332500D01*
X9856000Y-12382500D01*
X9906000Y-12432500D01*
X10160000Y-12432500D02*
X10210000Y-12382500D01*
X10160000Y-12332500D01*
X10110000Y-12382500D01*
X10160000Y-12432500D01*
X12448500Y-6783500D02*
X12498500Y-6733500D01*
X12448500Y-6683500D01*
X12398500Y-6733500D01*
X12448500Y-6783500D01*
X12448500Y-7037500D02*
X12498500Y-6987500D01*
X12448500Y-6937500D01*
X12398500Y-6987500D01*
X12448500Y-7037500D01*
X12448500Y-7291500D02*
X12498500Y-7241500D01*
X12448500Y-7191500D01*
X12398500Y-7241500D01*
X12448500Y-7291500D01*
X12448500Y-7545500D02*
X12498500Y-7495500D01*
X12448500Y-7445500D01*
X12398500Y-7495500D01*
X12448500Y-7545500D01*
X12448500Y-7799500D02*
X12498500Y-7749500D01*
X12448500Y-7699500D01*
X12398500Y-7749500D01*
X12448500Y-7799500D01*
X12448500Y-8053500D02*
X12498500Y-8003500D01*
X12448500Y-7953500D01*
X12398500Y-8003500D01*
X12448500Y-8053500D01*
X12479500Y-10656500D02*
X12529500Y-10606500D01*
X12479500Y-10556500D01*
X12429500Y-10606500D01*
X12479500Y-10656500D01*
X12479500Y-10906500D02*
X12529500Y-10856500D01*
X12479500Y-10806500D01*
X12429500Y-10856500D01*
X12479500Y-10906500D01*
D18*
X6759000Y-12023500D02*
X6891000Y-12155500D01*
X6891000Y-12023500D02*
X6759000Y-12155500D01*
X6891000Y-12089500D02*
G75*
G03*
X6891000Y-12089500I-66000J0D01*
G01*
X7259000Y-12023500D02*
X7391000Y-12155500D01*
X7391000Y-12023500D02*
X7259000Y-12155500D01*
X7391000Y-12089500D02*
G75*
G03*
X7391000Y-12089500I-66000J0D01*
G01*
X10897000Y-10856000D02*
X11029000Y-10988000D01*
X11029000Y-10856000D02*
X10897000Y-10988000D01*
X11029000Y-10922000D02*
G75*
G03*
X11029000Y-10922000I-66000J0D01*
G01*
X11397000Y-10856000D02*
X11529000Y-10988000D01*
X11529000Y-10856000D02*
X11397000Y-10988000D01*
X11529000Y-10922000D02*
G75*
G03*
X11529000Y-10922000I-66000J0D01*
G01*
D12*
X3813119Y-13210976D02*
X3813119Y-13010976D01*
X3860738Y-13010976D01*
X3889309Y-13020500D01*
X3908357Y-13039548D01*
X3917881Y-13058595D01*
X3927405Y-13096690D01*
X3927405Y-13125262D01*
X3917881Y-13163357D01*
X3908357Y-13182405D01*
X3889309Y-13201452D01*
X3860738Y-13210976D01*
X3813119Y-13210976D01*
X4013119Y-13210976D02*
X4013119Y-13077643D01*
X4013119Y-13115738D02*
X4022643Y-13096690D01*
X4032167Y-13087167D01*
X4051214Y-13077643D01*
X4070262Y-13077643D01*
X4136928Y-13210976D02*
X4136928Y-13077643D01*
X4136928Y-13010976D02*
X4127405Y-13020500D01*
X4136928Y-13030024D01*
X4146452Y-13020500D01*
X4136928Y-13010976D01*
X4136928Y-13030024D01*
X4260738Y-13210976D02*
X4241690Y-13201452D01*
X4232167Y-13182405D01*
X4232167Y-13010976D01*
X4365500Y-13210976D02*
X4346452Y-13201452D01*
X4336929Y-13182405D01*
X4336929Y-13010976D01*
X4594071Y-13210976D02*
X4594071Y-13010976D01*
X4660738Y-13153833D01*
X4727405Y-13010976D01*
X4727405Y-13210976D01*
X4908357Y-13210976D02*
X4908357Y-13106214D01*
X4898833Y-13087167D01*
X4879786Y-13077643D01*
X4841690Y-13077643D01*
X4822643Y-13087167D01*
X4908357Y-13201452D02*
X4889310Y-13210976D01*
X4841690Y-13210976D01*
X4822643Y-13201452D01*
X4813119Y-13182405D01*
X4813119Y-13163357D01*
X4822643Y-13144309D01*
X4841690Y-13134786D01*
X4889310Y-13134786D01*
X4908357Y-13125262D01*
X5003595Y-13077643D02*
X5003595Y-13277643D01*
X5003595Y-13087167D02*
X5022643Y-13077643D01*
X5060738Y-13077643D01*
X5079786Y-13087167D01*
X5089310Y-13096690D01*
X5098833Y-13115738D01*
X5098833Y-13172881D01*
X5089310Y-13191928D01*
X5079786Y-13201452D01*
X5060738Y-13210976D01*
X5022643Y-13210976D01*
X5003595Y-13201452D01*
X5184548Y-13191928D02*
X5194071Y-13201452D01*
X5184548Y-13210976D01*
X5175024Y-13201452D01*
X5184548Y-13191928D01*
X5184548Y-13210976D01*
X5184548Y-13087167D02*
X5194071Y-13096690D01*
X5184548Y-13106214D01*
X5175024Y-13096690D01*
X5184548Y-13087167D01*
X5184548Y-13106214D01*
D13*
X3515500Y-13520500D02*
X3555500Y-13560500D01*
X3555500Y-13520500D02*
X3515500Y-13560500D01*
D12*
X3851214Y-13430976D02*
X3870262Y-13430976D01*
X3889309Y-13440500D01*
X3898833Y-13450024D01*
X3908357Y-13469071D01*
X3917881Y-13507167D01*
X3917881Y-13554786D01*
X3908357Y-13592881D01*
X3898833Y-13611928D01*
X3889309Y-13621452D01*
X3870262Y-13630976D01*
X3851214Y-13630976D01*
X3832167Y-13621452D01*
X3822643Y-13611928D01*
X3813119Y-13592881D01*
X3803595Y-13554786D01*
X3803595Y-13507167D01*
X3813119Y-13469071D01*
X3822643Y-13450024D01*
X3832167Y-13440500D01*
X3851214Y-13430976D01*
X4003595Y-13611928D02*
X4013119Y-13621452D01*
X4003595Y-13630976D01*
X3994071Y-13621452D01*
X4003595Y-13611928D01*
X4003595Y-13630976D01*
X4184548Y-13497643D02*
X4184548Y-13630976D01*
X4136928Y-13421452D02*
X4089309Y-13564309D01*
X4213119Y-13564309D01*
X4327405Y-13430976D02*
X4346452Y-13430976D01*
X4365500Y-13440500D01*
X4375024Y-13450024D01*
X4384548Y-13469071D01*
X4394071Y-13507167D01*
X4394071Y-13554786D01*
X4384548Y-13592881D01*
X4375024Y-13611928D01*
X4365500Y-13621452D01*
X4346452Y-13630976D01*
X4327405Y-13630976D01*
X4308357Y-13621452D01*
X4298833Y-13611928D01*
X4289310Y-13592881D01*
X4279786Y-13554786D01*
X4279786Y-13507167D01*
X4289310Y-13469071D01*
X4298833Y-13450024D01*
X4308357Y-13440500D01*
X4327405Y-13430976D01*
X4517881Y-13430976D02*
X4536929Y-13430976D01*
X4555976Y-13440500D01*
X4565500Y-13450024D01*
X4575024Y-13469071D01*
X4584548Y-13507167D01*
X4584548Y-13554786D01*
X4575024Y-13592881D01*
X4565500Y-13611928D01*
X4555976Y-13621452D01*
X4536929Y-13630976D01*
X4517881Y-13630976D01*
X4498833Y-13621452D01*
X4489310Y-13611928D01*
X4479786Y-13592881D01*
X4470262Y-13554786D01*
X4470262Y-13507167D01*
X4479786Y-13469071D01*
X4489310Y-13450024D01*
X4498833Y-13440500D01*
X4517881Y-13430976D01*
X4670262Y-13630976D02*
X4670262Y-13497643D01*
X4670262Y-13516690D02*
X4679786Y-13507167D01*
X4698833Y-13497643D01*
X4727405Y-13497643D01*
X4746452Y-13507167D01*
X4755976Y-13526214D01*
X4755976Y-13630976D01*
X4755976Y-13526214D02*
X4765500Y-13507167D01*
X4784548Y-13497643D01*
X4813119Y-13497643D01*
X4832167Y-13507167D01*
X4841690Y-13526214D01*
X4841690Y-13630976D01*
X4936929Y-13630976D02*
X4936929Y-13497643D01*
X4936929Y-13516690D02*
X4946452Y-13507167D01*
X4965500Y-13497643D01*
X4994071Y-13497643D01*
X5013119Y-13507167D01*
X5022643Y-13526214D01*
X5022643Y-13630976D01*
X5022643Y-13526214D02*
X5032167Y-13507167D01*
X5051214Y-13497643D01*
X5079786Y-13497643D01*
X5098833Y-13507167D01*
X5108357Y-13526214D01*
X5108357Y-13630976D01*
X5498833Y-13421452D02*
X5327405Y-13678595D01*
X5755976Y-13430976D02*
X5775024Y-13430976D01*
X5794071Y-13440500D01*
X5803595Y-13450024D01*
X5813119Y-13469071D01*
X5822643Y-13507167D01*
X5822643Y-13554786D01*
X5813119Y-13592881D01*
X5803595Y-13611928D01*
X5794071Y-13621452D01*
X5775024Y-13630976D01*
X5755976Y-13630976D01*
X5736928Y-13621452D01*
X5727405Y-13611928D01*
X5717881Y-13592881D01*
X5708357Y-13554786D01*
X5708357Y-13507167D01*
X5717881Y-13469071D01*
X5727405Y-13450024D01*
X5736928Y-13440500D01*
X5755976Y-13430976D01*
X5908357Y-13611928D02*
X5917881Y-13621452D01*
X5908357Y-13630976D01*
X5898833Y-13621452D01*
X5908357Y-13611928D01*
X5908357Y-13630976D01*
X6041690Y-13430976D02*
X6060738Y-13430976D01*
X6079786Y-13440500D01*
X6089309Y-13450024D01*
X6098833Y-13469071D01*
X6108357Y-13507167D01*
X6108357Y-13554786D01*
X6098833Y-13592881D01*
X6089309Y-13611928D01*
X6079786Y-13621452D01*
X6060738Y-13630976D01*
X6041690Y-13630976D01*
X6022643Y-13621452D01*
X6013119Y-13611928D01*
X6003595Y-13592881D01*
X5994071Y-13554786D01*
X5994071Y-13507167D01*
X6003595Y-13469071D01*
X6013119Y-13450024D01*
X6022643Y-13440500D01*
X6041690Y-13430976D01*
X6298833Y-13630976D02*
X6184548Y-13630976D01*
X6241690Y-13630976D02*
X6241690Y-13430976D01*
X6222643Y-13459548D01*
X6203595Y-13478595D01*
X6184548Y-13488119D01*
X6479786Y-13430976D02*
X6384548Y-13430976D01*
X6375024Y-13526214D01*
X6384548Y-13516690D01*
X6403595Y-13507167D01*
X6451214Y-13507167D01*
X6470262Y-13516690D01*
X6479786Y-13526214D01*
X6489309Y-13545262D01*
X6489309Y-13592881D01*
X6479786Y-13611928D01*
X6470262Y-13621452D01*
X6451214Y-13630976D01*
X6403595Y-13630976D01*
X6384548Y-13621452D01*
X6375024Y-13611928D01*
X6555976Y-13430976D02*
X6689309Y-13430976D01*
X6603595Y-13630976D01*
X6755976Y-13430976D02*
X6755976Y-13469071D01*
X6832167Y-13430976D02*
X6832167Y-13469071D01*
X7127405Y-13707167D02*
X7117881Y-13697643D01*
X7098833Y-13669071D01*
X7089309Y-13650024D01*
X7079786Y-13621452D01*
X7070262Y-13573833D01*
X7070262Y-13535738D01*
X7079786Y-13488119D01*
X7089309Y-13459548D01*
X7098833Y-13440500D01*
X7117881Y-13411928D01*
X7127405Y-13402405D01*
X7232167Y-13516690D02*
X7213119Y-13507167D01*
X7203595Y-13497643D01*
X7194071Y-13478595D01*
X7194071Y-13469071D01*
X7203595Y-13450024D01*
X7213119Y-13440500D01*
X7232167Y-13430976D01*
X7270262Y-13430976D01*
X7289309Y-13440500D01*
X7298833Y-13450024D01*
X7308357Y-13469071D01*
X7308357Y-13478595D01*
X7298833Y-13497643D01*
X7289309Y-13507167D01*
X7270262Y-13516690D01*
X7232167Y-13516690D01*
X7213119Y-13526214D01*
X7203595Y-13535738D01*
X7194071Y-13554786D01*
X7194071Y-13592881D01*
X7203595Y-13611928D01*
X7213119Y-13621452D01*
X7232167Y-13630976D01*
X7270262Y-13630976D01*
X7289309Y-13621452D01*
X7298833Y-13611928D01*
X7308357Y-13592881D01*
X7308357Y-13554786D01*
X7298833Y-13535738D01*
X7289309Y-13526214D01*
X7270262Y-13516690D01*
X7384548Y-13450024D02*
X7394071Y-13440500D01*
X7413119Y-13430976D01*
X7460738Y-13430976D01*
X7479786Y-13440500D01*
X7489309Y-13450024D01*
X7498833Y-13469071D01*
X7498833Y-13488119D01*
X7489309Y-13516690D01*
X7375024Y-13630976D01*
X7498833Y-13630976D01*
X7736928Y-13630976D02*
X7736928Y-13430976D01*
X7822643Y-13630976D02*
X7822643Y-13526214D01*
X7813119Y-13507167D01*
X7794071Y-13497643D01*
X7765500Y-13497643D01*
X7746452Y-13507167D01*
X7736928Y-13516690D01*
X7946452Y-13630976D02*
X7927405Y-13621452D01*
X7917881Y-13611928D01*
X7908357Y-13592881D01*
X7908357Y-13535738D01*
X7917881Y-13516690D01*
X7927405Y-13507167D01*
X7946452Y-13497643D01*
X7975024Y-13497643D01*
X7994071Y-13507167D01*
X8003595Y-13516690D01*
X8013119Y-13535738D01*
X8013119Y-13592881D01*
X8003595Y-13611928D01*
X7994071Y-13621452D01*
X7975024Y-13630976D01*
X7946452Y-13630976D01*
X8127405Y-13630976D02*
X8108357Y-13621452D01*
X8098833Y-13602405D01*
X8098833Y-13430976D01*
X8279786Y-13621452D02*
X8260738Y-13630976D01*
X8222643Y-13630976D01*
X8203595Y-13621452D01*
X8194071Y-13602405D01*
X8194071Y-13526214D01*
X8203595Y-13507167D01*
X8222643Y-13497643D01*
X8260738Y-13497643D01*
X8279786Y-13507167D01*
X8289309Y-13526214D01*
X8289309Y-13545262D01*
X8194071Y-13564309D01*
X8365500Y-13621452D02*
X8384548Y-13630976D01*
X8422643Y-13630976D01*
X8441690Y-13621452D01*
X8451214Y-13602405D01*
X8451214Y-13592881D01*
X8441690Y-13573833D01*
X8422643Y-13564309D01*
X8394071Y-13564309D01*
X8375024Y-13554786D01*
X8365500Y-13535738D01*
X8365500Y-13526214D01*
X8375024Y-13507167D01*
X8394071Y-13497643D01*
X8422643Y-13497643D01*
X8441690Y-13507167D01*
X8517881Y-13707167D02*
X8527405Y-13697643D01*
X8546452Y-13669071D01*
X8555976Y-13650024D01*
X8565500Y-13621452D01*
X8575024Y-13573833D01*
X8575024Y-13535738D01*
X8565500Y-13488119D01*
X8555976Y-13459548D01*
X8546452Y-13440500D01*
X8527405Y-13411928D01*
X8517881Y-13402405D01*
D14*
X3555500Y-13804500D02*
G75*
G03*
X3555500Y-13804500I-30000J0D01*
G01*
D12*
X3851214Y-13694976D02*
X3870262Y-13694976D01*
X3889309Y-13704500D01*
X3898833Y-13714024D01*
X3908357Y-13733071D01*
X3917881Y-13771167D01*
X3917881Y-13818786D01*
X3908357Y-13856881D01*
X3898833Y-13875928D01*
X3889309Y-13885452D01*
X3870262Y-13894976D01*
X3851214Y-13894976D01*
X3832167Y-13885452D01*
X3822643Y-13875928D01*
X3813119Y-13856881D01*
X3803595Y-13818786D01*
X3803595Y-13771167D01*
X3813119Y-13733071D01*
X3822643Y-13714024D01*
X3832167Y-13704500D01*
X3851214Y-13694976D01*
X4003595Y-13875928D02*
X4013119Y-13885452D01*
X4003595Y-13894976D01*
X3994071Y-13885452D01*
X4003595Y-13875928D01*
X4003595Y-13894976D01*
X4184548Y-13694976D02*
X4146452Y-13694976D01*
X4127405Y-13704500D01*
X4117881Y-13714024D01*
X4098833Y-13742595D01*
X4089309Y-13780690D01*
X4089309Y-13856881D01*
X4098833Y-13875928D01*
X4108357Y-13885452D01*
X4127405Y-13894976D01*
X4165500Y-13894976D01*
X4184548Y-13885452D01*
X4194071Y-13875928D01*
X4203595Y-13856881D01*
X4203595Y-13809262D01*
X4194071Y-13790214D01*
X4184548Y-13780690D01*
X4165500Y-13771167D01*
X4127405Y-13771167D01*
X4108357Y-13780690D01*
X4098833Y-13790214D01*
X4089309Y-13809262D01*
X4327405Y-13694976D02*
X4346452Y-13694976D01*
X4365500Y-13704500D01*
X4375024Y-13714024D01*
X4384548Y-13733071D01*
X4394071Y-13771167D01*
X4394071Y-13818786D01*
X4384548Y-13856881D01*
X4375024Y-13875928D01*
X4365500Y-13885452D01*
X4346452Y-13894976D01*
X4327405Y-13894976D01*
X4308357Y-13885452D01*
X4298833Y-13875928D01*
X4289310Y-13856881D01*
X4279786Y-13818786D01*
X4279786Y-13771167D01*
X4289310Y-13733071D01*
X4298833Y-13714024D01*
X4308357Y-13704500D01*
X4327405Y-13694976D01*
X4517881Y-13694976D02*
X4536929Y-13694976D01*
X4555976Y-13704500D01*
X4565500Y-13714024D01*
X4575024Y-13733071D01*
X4584548Y-13771167D01*
X4584548Y-13818786D01*
X4575024Y-13856881D01*
X4565500Y-13875928D01*
X4555976Y-13885452D01*
X4536929Y-13894976D01*
X4517881Y-13894976D01*
X4498833Y-13885452D01*
X4489310Y-13875928D01*
X4479786Y-13856881D01*
X4470262Y-13818786D01*
X4470262Y-13771167D01*
X4479786Y-13733071D01*
X4489310Y-13714024D01*
X4498833Y-13704500D01*
X4517881Y-13694976D01*
X4670262Y-13894976D02*
X4670262Y-13761643D01*
X4670262Y-13780690D02*
X4679786Y-13771167D01*
X4698833Y-13761643D01*
X4727405Y-13761643D01*
X4746452Y-13771167D01*
X4755976Y-13790214D01*
X4755976Y-13894976D01*
X4755976Y-13790214D02*
X4765500Y-13771167D01*
X4784548Y-13761643D01*
X4813119Y-13761643D01*
X4832167Y-13771167D01*
X4841690Y-13790214D01*
X4841690Y-13894976D01*
X4936929Y-13894976D02*
X4936929Y-13761643D01*
X4936929Y-13780690D02*
X4946452Y-13771167D01*
X4965500Y-13761643D01*
X4994071Y-13761643D01*
X5013119Y-13771167D01*
X5022643Y-13790214D01*
X5022643Y-13894976D01*
X5022643Y-13790214D02*
X5032167Y-13771167D01*
X5051214Y-13761643D01*
X5079786Y-13761643D01*
X5098833Y-13771167D01*
X5108357Y-13790214D01*
X5108357Y-13894976D01*
X5498833Y-13685452D02*
X5327405Y-13942595D01*
X5755976Y-13694976D02*
X5775024Y-13694976D01*
X5794071Y-13704500D01*
X5803595Y-13714024D01*
X5813119Y-13733071D01*
X5822643Y-13771167D01*
X5822643Y-13818786D01*
X5813119Y-13856881D01*
X5803595Y-13875928D01*
X5794071Y-13885452D01*
X5775024Y-13894976D01*
X5755976Y-13894976D01*
X5736928Y-13885452D01*
X5727405Y-13875928D01*
X5717881Y-13856881D01*
X5708357Y-13818786D01*
X5708357Y-13771167D01*
X5717881Y-13733071D01*
X5727405Y-13714024D01*
X5736928Y-13704500D01*
X5755976Y-13694976D01*
X5908357Y-13875928D02*
X5917881Y-13885452D01*
X5908357Y-13894976D01*
X5898833Y-13885452D01*
X5908357Y-13875928D01*
X5908357Y-13894976D01*
X6041690Y-13694976D02*
X6060738Y-13694976D01*
X6079786Y-13704500D01*
X6089309Y-13714024D01*
X6098833Y-13733071D01*
X6108357Y-13771167D01*
X6108357Y-13818786D01*
X6098833Y-13856881D01*
X6089309Y-13875928D01*
X6079786Y-13885452D01*
X6060738Y-13894976D01*
X6041690Y-13894976D01*
X6022643Y-13885452D01*
X6013119Y-13875928D01*
X6003595Y-13856881D01*
X5994071Y-13818786D01*
X5994071Y-13771167D01*
X6003595Y-13733071D01*
X6013119Y-13714024D01*
X6022643Y-13704500D01*
X6041690Y-13694976D01*
X6184548Y-13714024D02*
X6194071Y-13704500D01*
X6213119Y-13694976D01*
X6260738Y-13694976D01*
X6279786Y-13704500D01*
X6289309Y-13714024D01*
X6298833Y-13733071D01*
X6298833Y-13752119D01*
X6289309Y-13780690D01*
X6175024Y-13894976D01*
X6298833Y-13894976D01*
X6365500Y-13694976D02*
X6489309Y-13694976D01*
X6422643Y-13771167D01*
X6451214Y-13771167D01*
X6470262Y-13780690D01*
X6479786Y-13790214D01*
X6489309Y-13809262D01*
X6489309Y-13856881D01*
X6479786Y-13875928D01*
X6470262Y-13885452D01*
X6451214Y-13894976D01*
X6394071Y-13894976D01*
X6375024Y-13885452D01*
X6365500Y-13875928D01*
X6660738Y-13694976D02*
X6622643Y-13694976D01*
X6603595Y-13704500D01*
X6594071Y-13714024D01*
X6575024Y-13742595D01*
X6565500Y-13780690D01*
X6565500Y-13856881D01*
X6575024Y-13875928D01*
X6584548Y-13885452D01*
X6603595Y-13894976D01*
X6641690Y-13894976D01*
X6660738Y-13885452D01*
X6670262Y-13875928D01*
X6679786Y-13856881D01*
X6679786Y-13809262D01*
X6670262Y-13790214D01*
X6660738Y-13780690D01*
X6641690Y-13771167D01*
X6603595Y-13771167D01*
X6584548Y-13780690D01*
X6575024Y-13790214D01*
X6565500Y-13809262D01*
X6755976Y-13694976D02*
X6755976Y-13733071D01*
X6832167Y-13694976D02*
X6832167Y-13733071D01*
X7127405Y-13971167D02*
X7117881Y-13961643D01*
X7098833Y-13933071D01*
X7089309Y-13914024D01*
X7079786Y-13885452D01*
X7070262Y-13837833D01*
X7070262Y-13799738D01*
X7079786Y-13752119D01*
X7089309Y-13723548D01*
X7098833Y-13704500D01*
X7117881Y-13675928D01*
X7127405Y-13666405D01*
X7289309Y-13694976D02*
X7251214Y-13694976D01*
X7232167Y-13704500D01*
X7222643Y-13714024D01*
X7203595Y-13742595D01*
X7194071Y-13780690D01*
X7194071Y-13856881D01*
X7203595Y-13875928D01*
X7213119Y-13885452D01*
X7232167Y-13894976D01*
X7270262Y-13894976D01*
X7289309Y-13885452D01*
X7298833Y-13875928D01*
X7308357Y-13856881D01*
X7308357Y-13809262D01*
X7298833Y-13790214D01*
X7289309Y-13780690D01*
X7270262Y-13771167D01*
X7232167Y-13771167D01*
X7213119Y-13780690D01*
X7203595Y-13790214D01*
X7194071Y-13809262D01*
X7546452Y-13894976D02*
X7546452Y-13694976D01*
X7632167Y-13894976D02*
X7632167Y-13790214D01*
X7622643Y-13771167D01*
X7603595Y-13761643D01*
X7575024Y-13761643D01*
X7555976Y-13771167D01*
X7546452Y-13780690D01*
X7755976Y-13894976D02*
X7736928Y-13885452D01*
X7727405Y-13875928D01*
X7717881Y-13856881D01*
X7717881Y-13799738D01*
X7727405Y-13780690D01*
X7736928Y-13771167D01*
X7755976Y-13761643D01*
X7784548Y-13761643D01*
X7803595Y-13771167D01*
X7813119Y-13780690D01*
X7822643Y-13799738D01*
X7822643Y-13856881D01*
X7813119Y-13875928D01*
X7803595Y-13885452D01*
X7784548Y-13894976D01*
X7755976Y-13894976D01*
X7936928Y-13894976D02*
X7917881Y-13885452D01*
X7908357Y-13866405D01*
X7908357Y-13694976D01*
X8089309Y-13885452D02*
X8070262Y-13894976D01*
X8032167Y-13894976D01*
X8013119Y-13885452D01*
X8003595Y-13866405D01*
X8003595Y-13790214D01*
X8013119Y-13771167D01*
X8032167Y-13761643D01*
X8070262Y-13761643D01*
X8089309Y-13771167D01*
X8098833Y-13790214D01*
X8098833Y-13809262D01*
X8003595Y-13828309D01*
X8175024Y-13885452D02*
X8194071Y-13894976D01*
X8232167Y-13894976D01*
X8251214Y-13885452D01*
X8260738Y-13866405D01*
X8260738Y-13856881D01*
X8251214Y-13837833D01*
X8232167Y-13828309D01*
X8203595Y-13828309D01*
X8184548Y-13818786D01*
X8175024Y-13799738D01*
X8175024Y-13790214D01*
X8184548Y-13771167D01*
X8203595Y-13761643D01*
X8232167Y-13761643D01*
X8251214Y-13771167D01*
X8327405Y-13971167D02*
X8336928Y-13961643D01*
X8355976Y-13933071D01*
X8365500Y-13914024D01*
X8375024Y-13885452D01*
X8384548Y-13837833D01*
X8384548Y-13799738D01*
X8375024Y-13752119D01*
X8365500Y-13723548D01*
X8355976Y-13704500D01*
X8336928Y-13675928D01*
X8327405Y-13666405D01*
D15*
X3518000Y-14031000D02*
X3518000Y-14106000D01*
X3480500Y-14068500D02*
X3555500Y-14068500D01*
D12*
X3851214Y-13958976D02*
X3870262Y-13958976D01*
X3889309Y-13968500D01*
X3898833Y-13978024D01*
X3908357Y-13997071D01*
X3917881Y-14035167D01*
X3917881Y-14082786D01*
X3908357Y-14120881D01*
X3898833Y-14139928D01*
X3889309Y-14149452D01*
X3870262Y-14158976D01*
X3851214Y-14158976D01*
X3832167Y-14149452D01*
X3822643Y-14139928D01*
X3813119Y-14120881D01*
X3803595Y-14082786D01*
X3803595Y-14035167D01*
X3813119Y-13997071D01*
X3822643Y-13978024D01*
X3832167Y-13968500D01*
X3851214Y-13958976D01*
X4003595Y-14139928D02*
X4013119Y-14149452D01*
X4003595Y-14158976D01*
X3994071Y-14149452D01*
X4003595Y-14139928D01*
X4003595Y-14158976D01*
X4079786Y-13958976D02*
X4213119Y-13958976D01*
X4127405Y-14158976D01*
X4384548Y-13958976D02*
X4289310Y-13958976D01*
X4279786Y-14054214D01*
X4289310Y-14044690D01*
X4308357Y-14035167D01*
X4355976Y-14035167D01*
X4375024Y-14044690D01*
X4384548Y-14054214D01*
X4394071Y-14073262D01*
X4394071Y-14120881D01*
X4384548Y-14139928D01*
X4375024Y-14149452D01*
X4355976Y-14158976D01*
X4308357Y-14158976D01*
X4289310Y-14149452D01*
X4279786Y-14139928D01*
X4517881Y-13958976D02*
X4536929Y-13958976D01*
X4555976Y-13968500D01*
X4565500Y-13978024D01*
X4575024Y-13997071D01*
X4584548Y-14035167D01*
X4584548Y-14082786D01*
X4575024Y-14120881D01*
X4565500Y-14139928D01*
X4555976Y-14149452D01*
X4536929Y-14158976D01*
X4517881Y-14158976D01*
X4498833Y-14149452D01*
X4489310Y-14139928D01*
X4479786Y-14120881D01*
X4470262Y-14082786D01*
X4470262Y-14035167D01*
X4479786Y-13997071D01*
X4489310Y-13978024D01*
X4498833Y-13968500D01*
X4517881Y-13958976D01*
X4670262Y-14158976D02*
X4670262Y-14025643D01*
X4670262Y-14044690D02*
X4679786Y-14035167D01*
X4698833Y-14025643D01*
X4727405Y-14025643D01*
X4746452Y-14035167D01*
X4755976Y-14054214D01*
X4755976Y-14158976D01*
X4755976Y-14054214D02*
X4765500Y-14035167D01*
X4784548Y-14025643D01*
X4813119Y-14025643D01*
X4832167Y-14035167D01*
X4841690Y-14054214D01*
X4841690Y-14158976D01*
X4936929Y-14158976D02*
X4936929Y-14025643D01*
X4936929Y-14044690D02*
X4946452Y-14035167D01*
X4965500Y-14025643D01*
X4994071Y-14025643D01*
X5013119Y-14035167D01*
X5022643Y-14054214D01*
X5022643Y-14158976D01*
X5022643Y-14054214D02*
X5032167Y-14035167D01*
X5051214Y-14025643D01*
X5079786Y-14025643D01*
X5098833Y-14035167D01*
X5108357Y-14054214D01*
X5108357Y-14158976D01*
X5498833Y-13949452D02*
X5327405Y-14206595D01*
X5755976Y-13958976D02*
X5775024Y-13958976D01*
X5794071Y-13968500D01*
X5803595Y-13978024D01*
X5813119Y-13997071D01*
X5822643Y-14035167D01*
X5822643Y-14082786D01*
X5813119Y-14120881D01*
X5803595Y-14139928D01*
X5794071Y-14149452D01*
X5775024Y-14158976D01*
X5755976Y-14158976D01*
X5736928Y-14149452D01*
X5727405Y-14139928D01*
X5717881Y-14120881D01*
X5708357Y-14082786D01*
X5708357Y-14035167D01*
X5717881Y-13997071D01*
X5727405Y-13978024D01*
X5736928Y-13968500D01*
X5755976Y-13958976D01*
X5908357Y-14139928D02*
X5917881Y-14149452D01*
X5908357Y-14158976D01*
X5898833Y-14149452D01*
X5908357Y-14139928D01*
X5908357Y-14158976D01*
X6041690Y-13958976D02*
X6060738Y-13958976D01*
X6079786Y-13968500D01*
X6089309Y-13978024D01*
X6098833Y-13997071D01*
X6108357Y-14035167D01*
X6108357Y-14082786D01*
X6098833Y-14120881D01*
X6089309Y-14139928D01*
X6079786Y-14149452D01*
X6060738Y-14158976D01*
X6041690Y-14158976D01*
X6022643Y-14149452D01*
X6013119Y-14139928D01*
X6003595Y-14120881D01*
X5994071Y-14082786D01*
X5994071Y-14035167D01*
X6003595Y-13997071D01*
X6013119Y-13978024D01*
X6022643Y-13968500D01*
X6041690Y-13958976D01*
X6184548Y-13978024D02*
X6194071Y-13968500D01*
X6213119Y-13958976D01*
X6260738Y-13958976D01*
X6279786Y-13968500D01*
X6289309Y-13978024D01*
X6298833Y-13997071D01*
X6298833Y-14016119D01*
X6289309Y-14044690D01*
X6175024Y-14158976D01*
X6298833Y-14158976D01*
X6394071Y-14158976D02*
X6432167Y-14158976D01*
X6451214Y-14149452D01*
X6460738Y-14139928D01*
X6479786Y-14111357D01*
X6489309Y-14073262D01*
X6489309Y-13997071D01*
X6479786Y-13978024D01*
X6470262Y-13968500D01*
X6451214Y-13958976D01*
X6413119Y-13958976D01*
X6394071Y-13968500D01*
X6384548Y-13978024D01*
X6375024Y-13997071D01*
X6375024Y-14044690D01*
X6384548Y-14063738D01*
X6394071Y-14073262D01*
X6413119Y-14082786D01*
X6451214Y-14082786D01*
X6470262Y-14073262D01*
X6479786Y-14063738D01*
X6489309Y-14044690D01*
X6670262Y-13958976D02*
X6575024Y-13958976D01*
X6565500Y-14054214D01*
X6575024Y-14044690D01*
X6594071Y-14035167D01*
X6641690Y-14035167D01*
X6660738Y-14044690D01*
X6670262Y-14054214D01*
X6679786Y-14073262D01*
X6679786Y-14120881D01*
X6670262Y-14139928D01*
X6660738Y-14149452D01*
X6641690Y-14158976D01*
X6594071Y-14158976D01*
X6575024Y-14149452D01*
X6565500Y-14139928D01*
X6755976Y-13958976D02*
X6755976Y-13997071D01*
X6832167Y-13958976D02*
X6832167Y-13997071D01*
X7127405Y-14235167D02*
X7117881Y-14225643D01*
X7098833Y-14197071D01*
X7089309Y-14178024D01*
X7079786Y-14149452D01*
X7070262Y-14101833D01*
X7070262Y-14063738D01*
X7079786Y-14016119D01*
X7089309Y-13987548D01*
X7098833Y-13968500D01*
X7117881Y-13939928D01*
X7127405Y-13930405D01*
X7194071Y-13978024D02*
X7203595Y-13968500D01*
X7222643Y-13958976D01*
X7270262Y-13958976D01*
X7289309Y-13968500D01*
X7298833Y-13978024D01*
X7308357Y-13997071D01*
X7308357Y-14016119D01*
X7298833Y-14044690D01*
X7184548Y-14158976D01*
X7308357Y-14158976D01*
X7546452Y-14158976D02*
X7546452Y-13958976D01*
X7632167Y-14158976D02*
X7632167Y-14054214D01*
X7622643Y-14035167D01*
X7603595Y-14025643D01*
X7575024Y-14025643D01*
X7555976Y-14035167D01*
X7546452Y-14044690D01*
X7755976Y-14158976D02*
X7736928Y-14149452D01*
X7727405Y-14139928D01*
X7717881Y-14120881D01*
X7717881Y-14063738D01*
X7727405Y-14044690D01*
X7736928Y-14035167D01*
X7755976Y-14025643D01*
X7784548Y-14025643D01*
X7803595Y-14035167D01*
X7813119Y-14044690D01*
X7822643Y-14063738D01*
X7822643Y-14120881D01*
X7813119Y-14139928D01*
X7803595Y-14149452D01*
X7784548Y-14158976D01*
X7755976Y-14158976D01*
X7936928Y-14158976D02*
X7917881Y-14149452D01*
X7908357Y-14130405D01*
X7908357Y-13958976D01*
X8089309Y-14149452D02*
X8070262Y-14158976D01*
X8032167Y-14158976D01*
X8013119Y-14149452D01*
X8003595Y-14130405D01*
X8003595Y-14054214D01*
X8013119Y-14035167D01*
X8032167Y-14025643D01*
X8070262Y-14025643D01*
X8089309Y-14035167D01*
X8098833Y-14054214D01*
X8098833Y-14073262D01*
X8003595Y-14092309D01*
X8175024Y-14149452D02*
X8194071Y-14158976D01*
X8232167Y-14158976D01*
X8251214Y-14149452D01*
X8260738Y-14130405D01*
X8260738Y-14120881D01*
X8251214Y-14101833D01*
X8232167Y-14092309D01*
X8203595Y-14092309D01*
X8184548Y-14082786D01*
X8175024Y-14063738D01*
X8175024Y-14054214D01*
X8184548Y-14035167D01*
X8203595Y-14025643D01*
X8232167Y-14025643D01*
X8251214Y-14035167D01*
X8327405Y-14235167D02*
X8336928Y-14225643D01*
X8355976Y-14197071D01*
X8365500Y-14178024D01*
X8375024Y-14149452D01*
X8384548Y-14101833D01*
X8384548Y-14063738D01*
X8375024Y-14016119D01*
X8365500Y-13987548D01*
X8355976Y-13968500D01*
X8336928Y-13939928D01*
X8327405Y-13930405D01*
D16*
X3541588Y-14366088D02*
X3541588Y-14298912D01*
X3474412Y-14298912D01*
X3474412Y-14366088D01*
X3541588Y-14366088D01*
D12*
X3851214Y-14222976D02*
X3870262Y-14222976D01*
X3889309Y-14232500D01*
X3898833Y-14242024D01*
X3908357Y-14261071D01*
X3917881Y-14299167D01*
X3917881Y-14346786D01*
X3908357Y-14384881D01*
X3898833Y-14403928D01*
X3889309Y-14413452D01*
X3870262Y-14422976D01*
X3851214Y-14422976D01*
X3832167Y-14413452D01*
X3822643Y-14403928D01*
X3813119Y-14384881D01*
X3803595Y-14346786D01*
X3803595Y-14299167D01*
X3813119Y-14261071D01*
X3822643Y-14242024D01*
X3832167Y-14232500D01*
X3851214Y-14222976D01*
X4003595Y-14403928D02*
X4013119Y-14413452D01*
X4003595Y-14422976D01*
X3994071Y-14413452D01*
X4003595Y-14403928D01*
X4003595Y-14422976D01*
X4108357Y-14422976D02*
X4146452Y-14422976D01*
X4165500Y-14413452D01*
X4175024Y-14403928D01*
X4194071Y-14375357D01*
X4203595Y-14337262D01*
X4203595Y-14261071D01*
X4194071Y-14242024D01*
X4184548Y-14232500D01*
X4165500Y-14222976D01*
X4127405Y-14222976D01*
X4108357Y-14232500D01*
X4098833Y-14242024D01*
X4089309Y-14261071D01*
X4089309Y-14308690D01*
X4098833Y-14327738D01*
X4108357Y-14337262D01*
X4127405Y-14346786D01*
X4165500Y-14346786D01*
X4184548Y-14337262D01*
X4194071Y-14327738D01*
X4203595Y-14308690D01*
X4384548Y-14222976D02*
X4289310Y-14222976D01*
X4279786Y-14318214D01*
X4289310Y-14308690D01*
X4308357Y-14299167D01*
X4355976Y-14299167D01*
X4375024Y-14308690D01*
X4384548Y-14318214D01*
X4394071Y-14337262D01*
X4394071Y-14384881D01*
X4384548Y-14403928D01*
X4375024Y-14413452D01*
X4355976Y-14422976D01*
X4308357Y-14422976D01*
X4289310Y-14413452D01*
X4279786Y-14403928D01*
X4517881Y-14222976D02*
X4536929Y-14222976D01*
X4555976Y-14232500D01*
X4565500Y-14242024D01*
X4575024Y-14261071D01*
X4584548Y-14299167D01*
X4584548Y-14346786D01*
X4575024Y-14384881D01*
X4565500Y-14403928D01*
X4555976Y-14413452D01*
X4536929Y-14422976D01*
X4517881Y-14422976D01*
X4498833Y-14413452D01*
X4489310Y-14403928D01*
X4479786Y-14384881D01*
X4470262Y-14346786D01*
X4470262Y-14299167D01*
X4479786Y-14261071D01*
X4489310Y-14242024D01*
X4498833Y-14232500D01*
X4517881Y-14222976D01*
X4670262Y-14422976D02*
X4670262Y-14289643D01*
X4670262Y-14308690D02*
X4679786Y-14299167D01*
X4698833Y-14289643D01*
X4727405Y-14289643D01*
X4746452Y-14299167D01*
X4755976Y-14318214D01*
X4755976Y-14422976D01*
X4755976Y-14318214D02*
X4765500Y-14299167D01*
X4784548Y-14289643D01*
X4813119Y-14289643D01*
X4832167Y-14299167D01*
X4841690Y-14318214D01*
X4841690Y-14422976D01*
X4936929Y-14422976D02*
X4936929Y-14289643D01*
X4936929Y-14308690D02*
X4946452Y-14299167D01*
X4965500Y-14289643D01*
X4994071Y-14289643D01*
X5013119Y-14299167D01*
X5022643Y-14318214D01*
X5022643Y-14422976D01*
X5022643Y-14318214D02*
X5032167Y-14299167D01*
X5051214Y-14289643D01*
X5079786Y-14289643D01*
X5098833Y-14299167D01*
X5108357Y-14318214D01*
X5108357Y-14422976D01*
X5498833Y-14213452D02*
X5327405Y-14470595D01*
X5755976Y-14222976D02*
X5775024Y-14222976D01*
X5794071Y-14232500D01*
X5803595Y-14242024D01*
X5813119Y-14261071D01*
X5822643Y-14299167D01*
X5822643Y-14346786D01*
X5813119Y-14384881D01*
X5803595Y-14403928D01*
X5794071Y-14413452D01*
X5775024Y-14422976D01*
X5755976Y-14422976D01*
X5736928Y-14413452D01*
X5727405Y-14403928D01*
X5717881Y-14384881D01*
X5708357Y-14346786D01*
X5708357Y-14299167D01*
X5717881Y-14261071D01*
X5727405Y-14242024D01*
X5736928Y-14232500D01*
X5755976Y-14222976D01*
X5908357Y-14403928D02*
X5917881Y-14413452D01*
X5908357Y-14422976D01*
X5898833Y-14413452D01*
X5908357Y-14403928D01*
X5908357Y-14422976D01*
X6041690Y-14222976D02*
X6060738Y-14222976D01*
X6079786Y-14232500D01*
X6089309Y-14242024D01*
X6098833Y-14261071D01*
X6108357Y-14299167D01*
X6108357Y-14346786D01*
X6098833Y-14384881D01*
X6089309Y-14403928D01*
X6079786Y-14413452D01*
X6060738Y-14422976D01*
X6041690Y-14422976D01*
X6022643Y-14413452D01*
X6013119Y-14403928D01*
X6003595Y-14384881D01*
X5994071Y-14346786D01*
X5994071Y-14299167D01*
X6003595Y-14261071D01*
X6013119Y-14242024D01*
X6022643Y-14232500D01*
X6041690Y-14222976D01*
X6175024Y-14222976D02*
X6298833Y-14222976D01*
X6232167Y-14299167D01*
X6260738Y-14299167D01*
X6279786Y-14308690D01*
X6289309Y-14318214D01*
X6298833Y-14337262D01*
X6298833Y-14384881D01*
X6289309Y-14403928D01*
X6279786Y-14413452D01*
X6260738Y-14422976D01*
X6203595Y-14422976D01*
X6184548Y-14413452D01*
X6175024Y-14403928D01*
X6365500Y-14222976D02*
X6498833Y-14222976D01*
X6413119Y-14422976D01*
X6660738Y-14289643D02*
X6660738Y-14422976D01*
X6613119Y-14213452D02*
X6565500Y-14356309D01*
X6689309Y-14356309D01*
X6755976Y-14222976D02*
X6755976Y-14261071D01*
X6832167Y-14222976D02*
X6832167Y-14261071D01*
X7127405Y-14499167D02*
X7117881Y-14489643D01*
X7098833Y-14461071D01*
X7089309Y-14442024D01*
X7079786Y-14413452D01*
X7070262Y-14365833D01*
X7070262Y-14327738D01*
X7079786Y-14280119D01*
X7089309Y-14251548D01*
X7098833Y-14232500D01*
X7117881Y-14203928D01*
X7127405Y-14194405D01*
X7308357Y-14422976D02*
X7194071Y-14422976D01*
X7251214Y-14422976D02*
X7251214Y-14222976D01*
X7232167Y-14251548D01*
X7213119Y-14270595D01*
X7194071Y-14280119D01*
X7489309Y-14222976D02*
X7394071Y-14222976D01*
X7384548Y-14318214D01*
X7394071Y-14308690D01*
X7413119Y-14299167D01*
X7460738Y-14299167D01*
X7479786Y-14308690D01*
X7489309Y-14318214D01*
X7498833Y-14337262D01*
X7498833Y-14384881D01*
X7489309Y-14403928D01*
X7479786Y-14413452D01*
X7460738Y-14422976D01*
X7413119Y-14422976D01*
X7394071Y-14413452D01*
X7384548Y-14403928D01*
X7736928Y-14422976D02*
X7736928Y-14222976D01*
X7822643Y-14422976D02*
X7822643Y-14318214D01*
X7813119Y-14299167D01*
X7794071Y-14289643D01*
X7765500Y-14289643D01*
X7746452Y-14299167D01*
X7736928Y-14308690D01*
X7946452Y-14422976D02*
X7927405Y-14413452D01*
X7917881Y-14403928D01*
X7908357Y-14384881D01*
X7908357Y-14327738D01*
X7917881Y-14308690D01*
X7927405Y-14299167D01*
X7946452Y-14289643D01*
X7975024Y-14289643D01*
X7994071Y-14299167D01*
X8003595Y-14308690D01*
X8013119Y-14327738D01*
X8013119Y-14384881D01*
X8003595Y-14403928D01*
X7994071Y-14413452D01*
X7975024Y-14422976D01*
X7946452Y-14422976D01*
X8127405Y-14422976D02*
X8108357Y-14413452D01*
X8098833Y-14394405D01*
X8098833Y-14222976D01*
X8279786Y-14413452D02*
X8260738Y-14422976D01*
X8222643Y-14422976D01*
X8203595Y-14413452D01*
X8194071Y-14394405D01*
X8194071Y-14318214D01*
X8203595Y-14299167D01*
X8222643Y-14289643D01*
X8260738Y-14289643D01*
X8279786Y-14299167D01*
X8289309Y-14318214D01*
X8289309Y-14337262D01*
X8194071Y-14356309D01*
X8365500Y-14413452D02*
X8384548Y-14422976D01*
X8422643Y-14422976D01*
X8441690Y-14413452D01*
X8451214Y-14394405D01*
X8451214Y-14384881D01*
X8441690Y-14365833D01*
X8422643Y-14356309D01*
X8394071Y-14356309D01*
X8375024Y-14346786D01*
X8365500Y-14327738D01*
X8365500Y-14318214D01*
X8375024Y-14299167D01*
X8394071Y-14289643D01*
X8422643Y-14289643D01*
X8441690Y-14299167D01*
X8517881Y-14499167D02*
X8527405Y-14489643D01*
X8546452Y-14461071D01*
X8555976Y-14442024D01*
X8565500Y-14413452D01*
X8575024Y-14365833D01*
X8575024Y-14327738D01*
X8565500Y-14280119D01*
X8555976Y-14251548D01*
X8546452Y-14232500D01*
X8527405Y-14203928D01*
X8517881Y-14194405D01*
D17*
X3505500Y-14646500D02*
X3555500Y-14596500D01*
X3505500Y-14546500D01*
X3455500Y-14596500D01*
X3505500Y-14646500D01*
D12*
X3917881Y-14686976D02*
X3803595Y-14686976D01*
X3860738Y-14686976D02*
X3860738Y-14486976D01*
X3841690Y-14515548D01*
X3822643Y-14534595D01*
X3803595Y-14544119D01*
X4003595Y-14667928D02*
X4013119Y-14677452D01*
X4003595Y-14686976D01*
X3994071Y-14677452D01*
X4003595Y-14667928D01*
X4003595Y-14686976D01*
X4136928Y-14486976D02*
X4155976Y-14486976D01*
X4175024Y-14496500D01*
X4184548Y-14506024D01*
X4194071Y-14525071D01*
X4203595Y-14563167D01*
X4203595Y-14610786D01*
X4194071Y-14648881D01*
X4184548Y-14667928D01*
X4175024Y-14677452D01*
X4155976Y-14686976D01*
X4136928Y-14686976D01*
X4117881Y-14677452D01*
X4108357Y-14667928D01*
X4098833Y-14648881D01*
X4089309Y-14610786D01*
X4089309Y-14563167D01*
X4098833Y-14525071D01*
X4108357Y-14506024D01*
X4117881Y-14496500D01*
X4136928Y-14486976D01*
X4327405Y-14486976D02*
X4346452Y-14486976D01*
X4365500Y-14496500D01*
X4375024Y-14506024D01*
X4384548Y-14525071D01*
X4394071Y-14563167D01*
X4394071Y-14610786D01*
X4384548Y-14648881D01*
X4375024Y-14667928D01*
X4365500Y-14677452D01*
X4346452Y-14686976D01*
X4327405Y-14686976D01*
X4308357Y-14677452D01*
X4298833Y-14667928D01*
X4289310Y-14648881D01*
X4279786Y-14610786D01*
X4279786Y-14563167D01*
X4289310Y-14525071D01*
X4298833Y-14506024D01*
X4308357Y-14496500D01*
X4327405Y-14486976D01*
X4517881Y-14486976D02*
X4536929Y-14486976D01*
X4555976Y-14496500D01*
X4565500Y-14506024D01*
X4575024Y-14525071D01*
X4584548Y-14563167D01*
X4584548Y-14610786D01*
X4575024Y-14648881D01*
X4565500Y-14667928D01*
X4555976Y-14677452D01*
X4536929Y-14686976D01*
X4517881Y-14686976D01*
X4498833Y-14677452D01*
X4489310Y-14667928D01*
X4479786Y-14648881D01*
X4470262Y-14610786D01*
X4470262Y-14563167D01*
X4479786Y-14525071D01*
X4489310Y-14506024D01*
X4498833Y-14496500D01*
X4517881Y-14486976D01*
X4670262Y-14686976D02*
X4670262Y-14553643D01*
X4670262Y-14572690D02*
X4679786Y-14563167D01*
X4698833Y-14553643D01*
X4727405Y-14553643D01*
X4746452Y-14563167D01*
X4755976Y-14582214D01*
X4755976Y-14686976D01*
X4755976Y-14582214D02*
X4765500Y-14563167D01*
X4784548Y-14553643D01*
X4813119Y-14553643D01*
X4832167Y-14563167D01*
X4841690Y-14582214D01*
X4841690Y-14686976D01*
X4936929Y-14686976D02*
X4936929Y-14553643D01*
X4936929Y-14572690D02*
X4946452Y-14563167D01*
X4965500Y-14553643D01*
X4994071Y-14553643D01*
X5013119Y-14563167D01*
X5022643Y-14582214D01*
X5022643Y-14686976D01*
X5022643Y-14582214D02*
X5032167Y-14563167D01*
X5051214Y-14553643D01*
X5079786Y-14553643D01*
X5098833Y-14563167D01*
X5108357Y-14582214D01*
X5108357Y-14686976D01*
X5498833Y-14477452D02*
X5327405Y-14734595D01*
X5755976Y-14486976D02*
X5775024Y-14486976D01*
X5794071Y-14496500D01*
X5803595Y-14506024D01*
X5813119Y-14525071D01*
X5822643Y-14563167D01*
X5822643Y-14610786D01*
X5813119Y-14648881D01*
X5803595Y-14667928D01*
X5794071Y-14677452D01*
X5775024Y-14686976D01*
X5755976Y-14686976D01*
X5736928Y-14677452D01*
X5727405Y-14667928D01*
X5717881Y-14648881D01*
X5708357Y-14610786D01*
X5708357Y-14563167D01*
X5717881Y-14525071D01*
X5727405Y-14506024D01*
X5736928Y-14496500D01*
X5755976Y-14486976D01*
X5908357Y-14667928D02*
X5917881Y-14677452D01*
X5908357Y-14686976D01*
X5898833Y-14677452D01*
X5908357Y-14667928D01*
X5908357Y-14686976D01*
X6041690Y-14486976D02*
X6060738Y-14486976D01*
X6079786Y-14496500D01*
X6089309Y-14506024D01*
X6098833Y-14525071D01*
X6108357Y-14563167D01*
X6108357Y-14610786D01*
X6098833Y-14648881D01*
X6089309Y-14667928D01*
X6079786Y-14677452D01*
X6060738Y-14686976D01*
X6041690Y-14686976D01*
X6022643Y-14677452D01*
X6013119Y-14667928D01*
X6003595Y-14648881D01*
X5994071Y-14610786D01*
X5994071Y-14563167D01*
X6003595Y-14525071D01*
X6013119Y-14506024D01*
X6022643Y-14496500D01*
X6041690Y-14486976D01*
X6175024Y-14486976D02*
X6298833Y-14486976D01*
X6232167Y-14563167D01*
X6260738Y-14563167D01*
X6279786Y-14572690D01*
X6289309Y-14582214D01*
X6298833Y-14601262D01*
X6298833Y-14648881D01*
X6289309Y-14667928D01*
X6279786Y-14677452D01*
X6260738Y-14686976D01*
X6203595Y-14686976D01*
X6184548Y-14677452D01*
X6175024Y-14667928D01*
X6394071Y-14686976D02*
X6432167Y-14686976D01*
X6451214Y-14677452D01*
X6460738Y-14667928D01*
X6479786Y-14639357D01*
X6489309Y-14601262D01*
X6489309Y-14525071D01*
X6479786Y-14506024D01*
X6470262Y-14496500D01*
X6451214Y-14486976D01*
X6413119Y-14486976D01*
X6394071Y-14496500D01*
X6384548Y-14506024D01*
X6375024Y-14525071D01*
X6375024Y-14572690D01*
X6384548Y-14591738D01*
X6394071Y-14601262D01*
X6413119Y-14610786D01*
X6451214Y-14610786D01*
X6470262Y-14601262D01*
X6479786Y-14591738D01*
X6489309Y-14572690D01*
X6660738Y-14553643D02*
X6660738Y-14686976D01*
X6613119Y-14477452D02*
X6565500Y-14620309D01*
X6689309Y-14620309D01*
X6755976Y-14486976D02*
X6755976Y-14525071D01*
X6832167Y-14486976D02*
X6832167Y-14525071D01*
X7127405Y-14763167D02*
X7117881Y-14753643D01*
X7098833Y-14725071D01*
X7089309Y-14706024D01*
X7079786Y-14677452D01*
X7070262Y-14629833D01*
X7070262Y-14591738D01*
X7079786Y-14544119D01*
X7089309Y-14515548D01*
X7098833Y-14496500D01*
X7117881Y-14467928D01*
X7127405Y-14458405D01*
X7194071Y-14506024D02*
X7203595Y-14496500D01*
X7222643Y-14486976D01*
X7270262Y-14486976D01*
X7289309Y-14496500D01*
X7298833Y-14506024D01*
X7308357Y-14525071D01*
X7308357Y-14544119D01*
X7298833Y-14572690D01*
X7184548Y-14686976D01*
X7308357Y-14686976D01*
X7375024Y-14486976D02*
X7498833Y-14486976D01*
X7432167Y-14563167D01*
X7460738Y-14563167D01*
X7479786Y-14572690D01*
X7489309Y-14582214D01*
X7498833Y-14601262D01*
X7498833Y-14648881D01*
X7489309Y-14667928D01*
X7479786Y-14677452D01*
X7460738Y-14686976D01*
X7403595Y-14686976D01*
X7384548Y-14677452D01*
X7375024Y-14667928D01*
X7736928Y-14686976D02*
X7736928Y-14486976D01*
X7822643Y-14686976D02*
X7822643Y-14582214D01*
X7813119Y-14563167D01*
X7794071Y-14553643D01*
X7765500Y-14553643D01*
X7746452Y-14563167D01*
X7736928Y-14572690D01*
X7946452Y-14686976D02*
X7927405Y-14677452D01*
X7917881Y-14667928D01*
X7908357Y-14648881D01*
X7908357Y-14591738D01*
X7917881Y-14572690D01*
X7927405Y-14563167D01*
X7946452Y-14553643D01*
X7975024Y-14553643D01*
X7994071Y-14563167D01*
X8003595Y-14572690D01*
X8013119Y-14591738D01*
X8013119Y-14648881D01*
X8003595Y-14667928D01*
X7994071Y-14677452D01*
X7975024Y-14686976D01*
X7946452Y-14686976D01*
X8127405Y-14686976D02*
X8108357Y-14677452D01*
X8098833Y-14658405D01*
X8098833Y-14486976D01*
X8279786Y-14677452D02*
X8260738Y-14686976D01*
X8222643Y-14686976D01*
X8203595Y-14677452D01*
X8194071Y-14658405D01*
X8194071Y-14582214D01*
X8203595Y-14563167D01*
X8222643Y-14553643D01*
X8260738Y-14553643D01*
X8279786Y-14563167D01*
X8289309Y-14582214D01*
X8289309Y-14601262D01*
X8194071Y-14620309D01*
X8365500Y-14677452D02*
X8384548Y-14686976D01*
X8422643Y-14686976D01*
X8441690Y-14677452D01*
X8451214Y-14658405D01*
X8451214Y-14648881D01*
X8441690Y-14629833D01*
X8422643Y-14620309D01*
X8394071Y-14620309D01*
X8375024Y-14610786D01*
X8365500Y-14591738D01*
X8365500Y-14582214D01*
X8375024Y-14563167D01*
X8394071Y-14553643D01*
X8422643Y-14553643D01*
X8441690Y-14563167D01*
X8517881Y-14763167D02*
X8527405Y-14753643D01*
X8546452Y-14725071D01*
X8555976Y-14706024D01*
X8565500Y-14677452D01*
X8575024Y-14629833D01*
X8575024Y-14591738D01*
X8565500Y-14544119D01*
X8555976Y-14515548D01*
X8546452Y-14496500D01*
X8527405Y-14467928D01*
X8517881Y-14458405D01*
D18*
X3423500Y-14794500D02*
X3555500Y-14926500D01*
X3555500Y-14794500D02*
X3423500Y-14926500D01*
X3555500Y-14860500D02*
G75*
G03*
X3555500Y-14860500I-66000J0D01*
G01*
D12*
X3917881Y-14950976D02*
X3803595Y-14950976D01*
X3860738Y-14950976D02*
X3860738Y-14750976D01*
X3841690Y-14779548D01*
X3822643Y-14798595D01*
X3803595Y-14808119D01*
X4003595Y-14931928D02*
X4013119Y-14941452D01*
X4003595Y-14950976D01*
X3994071Y-14941452D01*
X4003595Y-14931928D01*
X4003595Y-14950976D01*
X4079786Y-14750976D02*
X4203595Y-14750976D01*
X4136928Y-14827167D01*
X4165500Y-14827167D01*
X4184548Y-14836690D01*
X4194071Y-14846214D01*
X4203595Y-14865262D01*
X4203595Y-14912881D01*
X4194071Y-14931928D01*
X4184548Y-14941452D01*
X4165500Y-14950976D01*
X4108357Y-14950976D01*
X4089309Y-14941452D01*
X4079786Y-14931928D01*
X4279786Y-14770024D02*
X4289310Y-14760500D01*
X4308357Y-14750976D01*
X4355976Y-14750976D01*
X4375024Y-14760500D01*
X4384548Y-14770024D01*
X4394071Y-14789071D01*
X4394071Y-14808119D01*
X4384548Y-14836690D01*
X4270262Y-14950976D01*
X4394071Y-14950976D01*
X4517881Y-14750976D02*
X4536929Y-14750976D01*
X4555976Y-14760500D01*
X4565500Y-14770024D01*
X4575024Y-14789071D01*
X4584548Y-14827167D01*
X4584548Y-14874786D01*
X4575024Y-14912881D01*
X4565500Y-14931928D01*
X4555976Y-14941452D01*
X4536929Y-14950976D01*
X4517881Y-14950976D01*
X4498833Y-14941452D01*
X4489310Y-14931928D01*
X4479786Y-14912881D01*
X4470262Y-14874786D01*
X4470262Y-14827167D01*
X4479786Y-14789071D01*
X4489310Y-14770024D01*
X4498833Y-14760500D01*
X4517881Y-14750976D01*
X4670262Y-14950976D02*
X4670262Y-14817643D01*
X4670262Y-14836690D02*
X4679786Y-14827167D01*
X4698833Y-14817643D01*
X4727405Y-14817643D01*
X4746452Y-14827167D01*
X4755976Y-14846214D01*
X4755976Y-14950976D01*
X4755976Y-14846214D02*
X4765500Y-14827167D01*
X4784548Y-14817643D01*
X4813119Y-14817643D01*
X4832167Y-14827167D01*
X4841690Y-14846214D01*
X4841690Y-14950976D01*
X4936929Y-14950976D02*
X4936929Y-14817643D01*
X4936929Y-14836690D02*
X4946452Y-14827167D01*
X4965500Y-14817643D01*
X4994071Y-14817643D01*
X5013119Y-14827167D01*
X5022643Y-14846214D01*
X5022643Y-14950976D01*
X5022643Y-14846214D02*
X5032167Y-14827167D01*
X5051214Y-14817643D01*
X5079786Y-14817643D01*
X5098833Y-14827167D01*
X5108357Y-14846214D01*
X5108357Y-14950976D01*
X5498833Y-14741452D02*
X5327405Y-14998595D01*
X5755976Y-14750976D02*
X5775024Y-14750976D01*
X5794071Y-14760500D01*
X5803595Y-14770024D01*
X5813119Y-14789071D01*
X5822643Y-14827167D01*
X5822643Y-14874786D01*
X5813119Y-14912881D01*
X5803595Y-14931928D01*
X5794071Y-14941452D01*
X5775024Y-14950976D01*
X5755976Y-14950976D01*
X5736928Y-14941452D01*
X5727405Y-14931928D01*
X5717881Y-14912881D01*
X5708357Y-14874786D01*
X5708357Y-14827167D01*
X5717881Y-14789071D01*
X5727405Y-14770024D01*
X5736928Y-14760500D01*
X5755976Y-14750976D01*
X5908357Y-14931928D02*
X5917881Y-14941452D01*
X5908357Y-14950976D01*
X5898833Y-14941452D01*
X5908357Y-14931928D01*
X5908357Y-14950976D01*
X6041690Y-14750976D02*
X6060738Y-14750976D01*
X6079786Y-14760500D01*
X6089309Y-14770024D01*
X6098833Y-14789071D01*
X6108357Y-14827167D01*
X6108357Y-14874786D01*
X6098833Y-14912881D01*
X6089309Y-14931928D01*
X6079786Y-14941452D01*
X6060738Y-14950976D01*
X6041690Y-14950976D01*
X6022643Y-14941452D01*
X6013119Y-14931928D01*
X6003595Y-14912881D01*
X5994071Y-14874786D01*
X5994071Y-14827167D01*
X6003595Y-14789071D01*
X6013119Y-14770024D01*
X6022643Y-14760500D01*
X6041690Y-14750976D01*
X6289309Y-14750976D02*
X6194071Y-14750976D01*
X6184548Y-14846214D01*
X6194071Y-14836690D01*
X6213119Y-14827167D01*
X6260738Y-14827167D01*
X6279786Y-14836690D01*
X6289309Y-14846214D01*
X6298833Y-14865262D01*
X6298833Y-14912881D01*
X6289309Y-14931928D01*
X6279786Y-14941452D01*
X6260738Y-14950976D01*
X6213119Y-14950976D01*
X6194071Y-14941452D01*
X6184548Y-14931928D01*
X6375024Y-14770024D02*
X6384548Y-14760500D01*
X6403595Y-14750976D01*
X6451214Y-14750976D01*
X6470262Y-14760500D01*
X6479786Y-14770024D01*
X6489309Y-14789071D01*
X6489309Y-14808119D01*
X6479786Y-14836690D01*
X6365500Y-14950976D01*
X6489309Y-14950976D01*
X6613119Y-14750976D02*
X6632167Y-14750976D01*
X6651214Y-14760500D01*
X6660738Y-14770024D01*
X6670262Y-14789071D01*
X6679786Y-14827167D01*
X6679786Y-14874786D01*
X6670262Y-14912881D01*
X6660738Y-14931928D01*
X6651214Y-14941452D01*
X6632167Y-14950976D01*
X6613119Y-14950976D01*
X6594071Y-14941452D01*
X6584548Y-14931928D01*
X6575024Y-14912881D01*
X6565500Y-14874786D01*
X6565500Y-14827167D01*
X6575024Y-14789071D01*
X6584548Y-14770024D01*
X6594071Y-14760500D01*
X6613119Y-14750976D01*
X6755976Y-14750976D02*
X6755976Y-14789071D01*
X6832167Y-14750976D02*
X6832167Y-14789071D01*
X7127405Y-15027167D02*
X7117881Y-15017643D01*
X7098833Y-14989071D01*
X7089309Y-14970024D01*
X7079786Y-14941452D01*
X7070262Y-14893833D01*
X7070262Y-14855738D01*
X7079786Y-14808119D01*
X7089309Y-14779548D01*
X7098833Y-14760500D01*
X7117881Y-14731928D01*
X7127405Y-14722405D01*
X7289309Y-14817643D02*
X7289309Y-14950976D01*
X7241690Y-14741452D02*
X7194071Y-14884309D01*
X7317881Y-14884309D01*
X7546452Y-14950976D02*
X7546452Y-14750976D01*
X7632167Y-14950976D02*
X7632167Y-14846214D01*
X7622643Y-14827167D01*
X7603595Y-14817643D01*
X7575024Y-14817643D01*
X7555976Y-14827167D01*
X7546452Y-14836690D01*
X7755976Y-14950976D02*
X7736928Y-14941452D01*
X7727405Y-14931928D01*
X7717881Y-14912881D01*
X7717881Y-14855738D01*
X7727405Y-14836690D01*
X7736928Y-14827167D01*
X7755976Y-14817643D01*
X7784548Y-14817643D01*
X7803595Y-14827167D01*
X7813119Y-14836690D01*
X7822643Y-14855738D01*
X7822643Y-14912881D01*
X7813119Y-14931928D01*
X7803595Y-14941452D01*
X7784548Y-14950976D01*
X7755976Y-14950976D01*
X7936928Y-14950976D02*
X7917881Y-14941452D01*
X7908357Y-14922405D01*
X7908357Y-14750976D01*
X8089309Y-14941452D02*
X8070262Y-14950976D01*
X8032167Y-14950976D01*
X8013119Y-14941452D01*
X8003595Y-14922405D01*
X8003595Y-14846214D01*
X8013119Y-14827167D01*
X8032167Y-14817643D01*
X8070262Y-14817643D01*
X8089309Y-14827167D01*
X8098833Y-14846214D01*
X8098833Y-14865262D01*
X8003595Y-14884309D01*
X8175024Y-14941452D02*
X8194071Y-14950976D01*
X8232167Y-14950976D01*
X8251214Y-14941452D01*
X8260738Y-14922405D01*
X8260738Y-14912881D01*
X8251214Y-14893833D01*
X8232167Y-14884309D01*
X8203595Y-14884309D01*
X8184548Y-14874786D01*
X8175024Y-14855738D01*
X8175024Y-14846214D01*
X8184548Y-14827167D01*
X8203595Y-14817643D01*
X8232167Y-14817643D01*
X8251214Y-14827167D01*
X8327405Y-15027167D02*
X8336928Y-15017643D01*
X8355976Y-14989071D01*
X8365500Y-14970024D01*
X8375024Y-14941452D01*
X8384548Y-14893833D01*
X8384548Y-14855738D01*
X8375024Y-14808119D01*
X8365500Y-14779548D01*
X8355976Y-14760500D01*
X8336928Y-14731928D01*
X8327405Y-14722405D01*
M02*
