G04 #@! TF.GenerationSoftware,KiCad,Pcbnew,(6.0.4)*
G04 #@! TF.CreationDate,2022-05-21T11:57:54-05:00*
G04 #@! TF.ProjectId,REEL,5245454c-2e6b-4696-9361-645f70636258,rev?*
G04 #@! TF.SameCoordinates,Original*
G04 #@! TF.FileFunction,Copper,L2,Bot*
G04 #@! TF.FilePolarity,Positive*
%FSLAX46Y46*%
G04 Gerber Fmt 4.6, Leading zero omitted, Abs format (unit mm)*
G04 Created by KiCad (PCBNEW (6.0.4)) date 2022-05-21 11:57:54*
%MOMM*%
%LPD*%
G01*
G04 APERTURE LIST*
G04 Aperture macros list*
%AMRoundRect*
0 Rectangle with rounded corners*
0 $1 Rounding radius*
0 $2 $3 $4 $5 $6 $7 $8 $9 X,Y pos of 4 corners*
0 Add a 4 corners polygon primitive as box body*
4,1,4,$2,$3,$4,$5,$6,$7,$8,$9,$2,$3,0*
0 Add four circle primitives for the rounded corners*
1,1,$1+$1,$2,$3*
1,1,$1+$1,$4,$5*
1,1,$1+$1,$6,$7*
1,1,$1+$1,$8,$9*
0 Add four rect primitives between the rounded corners*
20,1,$1+$1,$2,$3,$4,$5,0*
20,1,$1+$1,$4,$5,$6,$7,0*
20,1,$1+$1,$6,$7,$8,$9,0*
20,1,$1+$1,$8,$9,$2,$3,0*%
G04 Aperture macros list end*
G04 #@! TA.AperFunction,ComponentPad*
%ADD10O,1.980000X3.960000*%
G04 #@! TD*
G04 #@! TA.AperFunction,ComponentPad*
%ADD11R,1.980000X3.960000*%
G04 #@! TD*
G04 #@! TA.AperFunction,ComponentPad*
%ADD12R,1.700000X1.700000*%
G04 #@! TD*
G04 #@! TA.AperFunction,ComponentPad*
%ADD13O,1.700000X1.700000*%
G04 #@! TD*
G04 #@! TA.AperFunction,ComponentPad*
%ADD14O,1.950000X1.700000*%
G04 #@! TD*
G04 #@! TA.AperFunction,ComponentPad*
%ADD15RoundRect,0.250000X-0.725000X0.600000X-0.725000X-0.600000X0.725000X-0.600000X0.725000X0.600000X0*%
G04 #@! TD*
G04 #@! TA.AperFunction,ComponentPad*
%ADD16O,2.000000X1.700000*%
G04 #@! TD*
G04 #@! TA.AperFunction,ComponentPad*
%ADD17RoundRect,0.250000X0.750000X-0.600000X0.750000X0.600000X-0.750000X0.600000X-0.750000X-0.600000X0*%
G04 #@! TD*
G04 #@! TA.AperFunction,ComponentPad*
%ADD18O,1.750000X1.200000*%
G04 #@! TD*
G04 #@! TA.AperFunction,ComponentPad*
%ADD19RoundRect,0.250000X-0.625000X0.350000X-0.625000X-0.350000X0.625000X-0.350000X0.625000X0.350000X0*%
G04 #@! TD*
G04 #@! TA.AperFunction,ViaPad*
%ADD20C,0.800000*%
G04 #@! TD*
G04 #@! TA.AperFunction,ViaPad*
%ADD21C,1.400000*%
G04 #@! TD*
G04 #@! TA.AperFunction,Conductor*
%ADD22C,0.250000*%
G04 #@! TD*
G04 #@! TA.AperFunction,Conductor*
%ADD23C,0.700000*%
G04 #@! TD*
G04 APERTURE END LIST*
D10*
X114630000Y-109220000D03*
D11*
X109630000Y-109220000D03*
D12*
X86360000Y-123825000D03*
D13*
X88900000Y-123825000D03*
X91440000Y-123825000D03*
X93980000Y-123825000D03*
X96520000Y-123825000D03*
X99060000Y-123825000D03*
X101600000Y-123825000D03*
X57785000Y-65405000D03*
X60325000Y-65405000D03*
X62865000Y-65405000D03*
X65405000Y-65405000D03*
X67945000Y-65405000D03*
D12*
X70485000Y-65405000D03*
X92405200Y-111023400D03*
D13*
X96215200Y-111023400D03*
D10*
X68250000Y-120895000D03*
D11*
X73250000Y-120895000D03*
D14*
X75565000Y-84175000D03*
X75565000Y-81675000D03*
X75565000Y-79175000D03*
X75565000Y-76675000D03*
X75565000Y-74175000D03*
X75565000Y-71675000D03*
X75565000Y-69175000D03*
D15*
X75565000Y-66675000D03*
D14*
X113965000Y-81795000D03*
X113965000Y-79295000D03*
X113965000Y-76795000D03*
X113965000Y-74295000D03*
X113965000Y-71795000D03*
X113965000Y-69295000D03*
D15*
X113965000Y-66795000D03*
D13*
X124485000Y-80035000D03*
X124485000Y-77495000D03*
X124485000Y-74955000D03*
X124485000Y-72415000D03*
X124485000Y-69875000D03*
D12*
X124485000Y-67335000D03*
D16*
X124795000Y-106065000D03*
D17*
X124795000Y-108565000D03*
D18*
X42460000Y-115300000D03*
D19*
X42460000Y-113300000D03*
D20*
X80645000Y-85725000D03*
X71755000Y-76835000D03*
X103505000Y-117475000D03*
X100965000Y-107950000D03*
X104775000Y-117475000D03*
X58420000Y-113030000D03*
X57785000Y-97790000D03*
X70485000Y-76835000D03*
X56515000Y-97790000D03*
X59690000Y-114300000D03*
X98425000Y-106680000D03*
X100965000Y-106680000D03*
X99695000Y-107950000D03*
X70485000Y-75565000D03*
X79375000Y-86995000D03*
X114300000Y-88900000D03*
X81915000Y-86995000D03*
X58420000Y-114300000D03*
X99695000Y-106680000D03*
X102870000Y-113030000D03*
X103505000Y-118745000D03*
X98425000Y-107950000D03*
X81915000Y-85725000D03*
X101600000Y-113030000D03*
X104775000Y-118745000D03*
X113030000Y-123190000D03*
X59690000Y-111760000D03*
X59055000Y-97790000D03*
X111760000Y-88900000D03*
X114300000Y-121920000D03*
X80645000Y-86995000D03*
X111760000Y-121920000D03*
X114300000Y-90170000D03*
X58420000Y-111760000D03*
X79375000Y-85725000D03*
X71755000Y-75565000D03*
X113030000Y-88900000D03*
X59690000Y-113030000D03*
X114300000Y-123190000D03*
X69215000Y-75565000D03*
X102235000Y-118745000D03*
X111760000Y-123190000D03*
X111760000Y-90170000D03*
X102235000Y-117475000D03*
X56515000Y-99060000D03*
X113030000Y-90170000D03*
X57785000Y-99060000D03*
X69215000Y-76835000D03*
X113030000Y-121920000D03*
X59055000Y-99060000D03*
D21*
X83820000Y-106680000D03*
X80645000Y-104140000D03*
D20*
X82550000Y-65405000D03*
X87357500Y-96430000D03*
X82550000Y-67945000D03*
X70485000Y-70485000D03*
X67220500Y-67310000D03*
X82470000Y-71675000D03*
X99695000Y-76835000D03*
X67945000Y-68580000D03*
X79210250Y-77940250D03*
X67310000Y-71120000D03*
X69572600Y-80353600D03*
X99695000Y-75565000D03*
X82550000Y-70485000D03*
X77470000Y-87630000D03*
X69519200Y-82854200D03*
X104775000Y-75565000D03*
X87630000Y-71120000D03*
X92710000Y-87630000D03*
X109220000Y-90170000D03*
X96520000Y-120015000D03*
X105410000Y-79375000D03*
X95250000Y-118745000D03*
X104140000Y-100695000D03*
X101725900Y-95759100D03*
X117475000Y-64045500D03*
X106680000Y-67945000D03*
X108585000Y-69215000D03*
X118015200Y-70579800D03*
X87630000Y-72390000D03*
X104775000Y-76835000D03*
D21*
X38735000Y-74930000D03*
X41275000Y-82550000D03*
D20*
X59690000Y-106680000D03*
D21*
X41398600Y-102746400D03*
X45085000Y-109855000D03*
D20*
X90826700Y-85090000D03*
D22*
X74240400Y-67999600D02*
X75565000Y-66675000D01*
X75050800Y-82999700D02*
X74240400Y-82189300D01*
D23*
X83185000Y-106680000D02*
X83820000Y-106680000D01*
D22*
X75565000Y-84175000D02*
X75565000Y-82999700D01*
X74240400Y-82189300D02*
X74240400Y-67999600D01*
X75565000Y-82999700D02*
X75050800Y-82999700D01*
D23*
X80645000Y-104140000D02*
X83185000Y-106680000D01*
D22*
X81280000Y-81280000D02*
X87357500Y-87357500D01*
X81280000Y-69215000D02*
X81280000Y-81280000D01*
X82550000Y-67945000D02*
X82550000Y-65405000D01*
X82550000Y-67945000D02*
X81280000Y-69215000D01*
X87357500Y-87357500D02*
X87357500Y-96430000D01*
X67220500Y-67310000D02*
X68421250Y-67310000D01*
X87630000Y-76835000D02*
X99695000Y-76835000D01*
X68421250Y-67310000D02*
X70485000Y-69373750D01*
X82470000Y-71675000D02*
X87630000Y-76835000D01*
X70485000Y-69373750D02*
X70485000Y-70485000D01*
X76835000Y-85725000D02*
X73660000Y-85725000D01*
X69572600Y-81637600D02*
X69572600Y-80353600D01*
X78105000Y-84455000D02*
X76835000Y-85725000D01*
X79210250Y-77940250D02*
X78105000Y-79045500D01*
X67310000Y-71120000D02*
X67310000Y-69215000D01*
X67310000Y-69215000D02*
X67945000Y-68580000D01*
X78105000Y-79045500D02*
X78105000Y-84455000D01*
X73660000Y-85725000D02*
X69572600Y-81637600D01*
X87630000Y-75565000D02*
X99695000Y-75565000D01*
X82550000Y-70485000D02*
X87630000Y-75565000D01*
X69519200Y-82854200D02*
X74295000Y-87630000D01*
X74295000Y-87630000D02*
X77470000Y-87630000D01*
X87630000Y-71120000D02*
X100330000Y-71120000D01*
X100330000Y-71120000D02*
X104775000Y-75565000D01*
X89535000Y-90958700D02*
X89535000Y-120744700D01*
X91440000Y-122649700D02*
X91440000Y-123825000D01*
X92710000Y-87630000D02*
X92710000Y-87783700D01*
X92710000Y-87783700D02*
X89535000Y-90958700D01*
X89535000Y-120744700D02*
X91440000Y-122649700D01*
X109220000Y-94003600D02*
X109220000Y-90170000D01*
X112395000Y-113665000D02*
X112395000Y-97178600D01*
X112395000Y-97178600D02*
X109220000Y-94003600D01*
X96520000Y-120015000D02*
X106045000Y-120015000D01*
X106045000Y-120015000D02*
X112395000Y-113665000D01*
X105410000Y-107315000D02*
X105410000Y-79375000D01*
X99695000Y-113030000D02*
X105410000Y-107315000D01*
X99695000Y-114935000D02*
X99695000Y-113030000D01*
X95250000Y-118745000D02*
X95885000Y-118745000D01*
X95885000Y-118745000D02*
X99695000Y-114935000D01*
X103140000Y-97173200D02*
X101725900Y-95759100D01*
X103140000Y-99695000D02*
X103140000Y-97173200D01*
X104140000Y-100695000D02*
X103140000Y-99695000D01*
X110579500Y-64045500D02*
X106680000Y-67945000D01*
X117475000Y-64045500D02*
X110579500Y-64045500D01*
X118110000Y-66675000D02*
X118110000Y-70485000D01*
X108585000Y-69215000D02*
X113030000Y-64770000D01*
X113030000Y-64770000D02*
X116205000Y-64770000D01*
D23*
X118110000Y-70485000D02*
X118015200Y-70579800D01*
D22*
X116205000Y-64770000D02*
X118110000Y-66675000D01*
X87630000Y-72390000D02*
X100330000Y-72390000D01*
X100330000Y-72390000D02*
X104775000Y-76835000D01*
D23*
X38735000Y-74930000D02*
X38735000Y-80010000D01*
X38735000Y-80010000D02*
X41275000Y-82550000D01*
X54598200Y-106680000D02*
X47978200Y-113300000D01*
X59690000Y-106680000D02*
X54598200Y-106680000D01*
X47978200Y-113300000D02*
X42460000Y-113300000D01*
X41398600Y-106168600D02*
X41398600Y-102746400D01*
X45085000Y-109855000D02*
X41398600Y-106168600D01*
D22*
X90826700Y-85090000D02*
X93106100Y-85090000D01*
X96520000Y-122649700D02*
X96520000Y-123825000D01*
X93106100Y-85090000D02*
X94376100Y-86360000D01*
X94376100Y-120505800D02*
X96520000Y-122649700D01*
X94376100Y-86360000D02*
X94376100Y-120505800D01*
G04 #@! TA.AperFunction,Conductor*
G36*
X79640921Y-58440002D02*
G01*
X79687414Y-58493658D01*
X79698800Y-58546000D01*
X79698800Y-62552000D01*
X107698800Y-62552000D01*
X107698800Y-58546000D01*
X107718802Y-58477879D01*
X107772458Y-58431386D01*
X107824800Y-58420000D01*
X118619000Y-58420000D01*
X118687121Y-58440002D01*
X118733614Y-58493658D01*
X118745000Y-58546000D01*
X118745000Y-64135000D01*
X126239000Y-64135000D01*
X126307121Y-64155002D01*
X126353614Y-64208658D01*
X126365000Y-64261000D01*
X126365000Y-118619000D01*
X126344998Y-118687121D01*
X126291342Y-118733614D01*
X126239000Y-118745000D01*
X118110000Y-118745000D01*
X118110000Y-126874000D01*
X118089998Y-126942121D01*
X118036342Y-126988614D01*
X117984000Y-127000000D01*
X45846000Y-127000000D01*
X45777879Y-126979998D01*
X45731386Y-126926342D01*
X45720000Y-126874000D01*
X45720000Y-124694748D01*
X85309500Y-124694748D01*
X85310707Y-124700816D01*
X85314331Y-124719033D01*
X85321133Y-124753231D01*
X85365448Y-124819552D01*
X85431769Y-124863867D01*
X85443938Y-124866288D01*
X85443939Y-124866288D01*
X85484184Y-124874293D01*
X85490252Y-124875500D01*
X87229748Y-124875500D01*
X87235816Y-124874293D01*
X87276061Y-124866288D01*
X87276062Y-124866288D01*
X87288231Y-124863867D01*
X87354552Y-124819552D01*
X87398867Y-124753231D01*
X87405670Y-124719033D01*
X87409293Y-124700816D01*
X87410500Y-124694748D01*
X87410500Y-123810262D01*
X87844520Y-123810262D01*
X87861759Y-124015553D01*
X87863458Y-124021478D01*
X87909395Y-124181678D01*
X87918544Y-124213586D01*
X87921359Y-124219063D01*
X87921360Y-124219066D01*
X88008293Y-124388220D01*
X88012712Y-124396818D01*
X88140677Y-124558270D01*
X88145370Y-124562264D01*
X88145371Y-124562265D01*
X88219541Y-124625388D01*
X88297564Y-124691791D01*
X88302942Y-124694797D01*
X88302944Y-124694798D01*
X88385722Y-124741061D01*
X88477398Y-124792297D01*
X88561280Y-124819552D01*
X88667471Y-124854056D01*
X88667475Y-124854057D01*
X88673329Y-124855959D01*
X88877894Y-124880351D01*
X88884029Y-124879879D01*
X88884031Y-124879879D01*
X88940939Y-124875500D01*
X89083300Y-124864546D01*
X89089230Y-124862890D01*
X89089232Y-124862890D01*
X89275797Y-124810800D01*
X89275796Y-124810800D01*
X89281725Y-124809145D01*
X89287214Y-124806372D01*
X89287220Y-124806370D01*
X89419952Y-124739322D01*
X89465610Y-124716258D01*
X89481345Y-124703965D01*
X89623101Y-124593213D01*
X89627951Y-124589424D01*
X89634114Y-124582285D01*
X89758540Y-124438134D01*
X89758540Y-124438133D01*
X89762564Y-124433472D01*
X89783387Y-124396818D01*
X89801056Y-124365714D01*
X89864323Y-124254344D01*
X89929351Y-124058863D01*
X89955171Y-123854474D01*
X89955583Y-123825000D01*
X89935480Y-123619970D01*
X89875935Y-123422749D01*
X89779218Y-123240849D01*
X89671659Y-123108969D01*
X89652906Y-123085975D01*
X89652903Y-123085972D01*
X89649011Y-123081200D01*
X89619727Y-123056974D01*
X89495025Y-122953811D01*
X89495021Y-122953809D01*
X89490275Y-122949882D01*
X89309055Y-122851897D01*
X89112254Y-122790977D01*
X89106129Y-122790333D01*
X89106128Y-122790333D01*
X88913498Y-122770087D01*
X88913496Y-122770087D01*
X88907369Y-122769443D01*
X88820529Y-122777346D01*
X88708342Y-122787555D01*
X88708339Y-122787556D01*
X88702203Y-122788114D01*
X88504572Y-122846280D01*
X88499107Y-122849137D01*
X88416981Y-122892072D01*
X88322002Y-122941726D01*
X88317201Y-122945586D01*
X88317198Y-122945588D01*
X88167077Y-123066288D01*
X88161447Y-123070815D01*
X88029024Y-123228630D01*
X88026056Y-123234028D01*
X88026053Y-123234033D01*
X87963403Y-123347994D01*
X87929776Y-123409162D01*
X87867484Y-123605532D01*
X87866798Y-123611649D01*
X87866797Y-123611653D01*
X87847636Y-123782484D01*
X87844520Y-123810262D01*
X87410500Y-123810262D01*
X87410500Y-122955252D01*
X87398867Y-122896769D01*
X87354552Y-122830448D01*
X87288231Y-122786133D01*
X87276062Y-122783712D01*
X87276061Y-122783712D01*
X87235816Y-122775707D01*
X87229748Y-122774500D01*
X85490252Y-122774500D01*
X85484184Y-122775707D01*
X85443939Y-122783712D01*
X85443938Y-122783712D01*
X85431769Y-122786133D01*
X85365448Y-122830448D01*
X85321133Y-122896769D01*
X85309500Y-122955252D01*
X85309500Y-124694748D01*
X45720000Y-124694748D01*
X45720000Y-121944857D01*
X66752000Y-121944857D01*
X66752212Y-121950030D01*
X66766626Y-122125350D01*
X66768309Y-122135512D01*
X66825800Y-122364396D01*
X66829121Y-122374151D01*
X66923218Y-122590557D01*
X66928096Y-122599655D01*
X67056273Y-122797787D01*
X67062563Y-122805956D01*
X67221387Y-122980501D01*
X67228920Y-122987526D01*
X67414120Y-123133787D01*
X67422707Y-123139492D01*
X67629297Y-123253536D01*
X67638709Y-123257766D01*
X67861156Y-123336539D01*
X67871127Y-123339173D01*
X67978163Y-123358239D01*
X67991460Y-123356779D01*
X67995591Y-123343534D01*
X68504000Y-123343534D01*
X68507918Y-123356878D01*
X68522194Y-123358865D01*
X68593236Y-123347994D01*
X68603263Y-123345605D01*
X68827570Y-123272291D01*
X68837079Y-123268294D01*
X69046395Y-123159331D01*
X69055120Y-123153837D01*
X69243835Y-123012146D01*
X69251542Y-123005303D01*
X69357191Y-122894748D01*
X72059500Y-122894748D01*
X72071133Y-122953231D01*
X72115448Y-123019552D01*
X72181769Y-123063867D01*
X72193938Y-123066288D01*
X72193939Y-123066288D01*
X72234184Y-123074293D01*
X72240252Y-123075500D01*
X74259748Y-123075500D01*
X74265816Y-123074293D01*
X74306061Y-123066288D01*
X74306062Y-123066288D01*
X74318231Y-123063867D01*
X74384552Y-123019552D01*
X74428867Y-122953231D01*
X74440500Y-122894748D01*
X74440500Y-120773507D01*
X89205736Y-120773507D01*
X89208590Y-120784156D01*
X89215491Y-120809910D01*
X89217870Y-120820642D01*
X89224412Y-120857745D01*
X89229923Y-120867290D01*
X89231115Y-120870566D01*
X89232592Y-120873734D01*
X89235446Y-120884384D01*
X89241770Y-120893415D01*
X89257055Y-120915244D01*
X89262961Y-120924515D01*
X89273265Y-120942361D01*
X89281806Y-120957155D01*
X89290251Y-120964241D01*
X89310682Y-120981385D01*
X89318785Y-120988811D01*
X91009758Y-122679784D01*
X91043784Y-122742096D01*
X91038719Y-122812911D01*
X90996172Y-122869747D01*
X90979039Y-122880540D01*
X90956981Y-122892072D01*
X90862002Y-122941726D01*
X90857201Y-122945586D01*
X90857198Y-122945588D01*
X90707077Y-123066288D01*
X90701447Y-123070815D01*
X90569024Y-123228630D01*
X90566056Y-123234028D01*
X90566053Y-123234033D01*
X90503403Y-123347994D01*
X90469776Y-123409162D01*
X90407484Y-123605532D01*
X90406798Y-123611649D01*
X90406797Y-123611653D01*
X90387636Y-123782484D01*
X90384520Y-123810262D01*
X90401759Y-124015553D01*
X90403458Y-124021478D01*
X90449395Y-124181678D01*
X90458544Y-124213586D01*
X90461359Y-124219063D01*
X90461360Y-124219066D01*
X90548293Y-124388220D01*
X90552712Y-124396818D01*
X90680677Y-124558270D01*
X90685370Y-124562264D01*
X90685371Y-124562265D01*
X90759541Y-124625388D01*
X90837564Y-124691791D01*
X90842942Y-124694797D01*
X90842944Y-124694798D01*
X90925722Y-124741061D01*
X91017398Y-124792297D01*
X91101280Y-124819552D01*
X91207471Y-124854056D01*
X91207475Y-124854057D01*
X91213329Y-124855959D01*
X91417894Y-124880351D01*
X91424029Y-124879879D01*
X91424031Y-124879879D01*
X91480939Y-124875500D01*
X91623300Y-124864546D01*
X91629230Y-124862890D01*
X91629232Y-124862890D01*
X91815797Y-124810800D01*
X91815796Y-124810800D01*
X91821725Y-124809145D01*
X91827214Y-124806372D01*
X91827220Y-124806370D01*
X91959952Y-124739322D01*
X92005610Y-124716258D01*
X92021345Y-124703965D01*
X92163101Y-124593213D01*
X92167951Y-124589424D01*
X92174114Y-124582285D01*
X92298540Y-124438134D01*
X92298540Y-124438133D01*
X92302564Y-124433472D01*
X92323387Y-124396818D01*
X92341056Y-124365714D01*
X92404323Y-124254344D01*
X92469351Y-124058863D01*
X92495171Y-123854474D01*
X92495583Y-123825000D01*
X92494138Y-123810262D01*
X92924520Y-123810262D01*
X92941759Y-124015553D01*
X92943458Y-124021478D01*
X92989395Y-124181678D01*
X92998544Y-124213586D01*
X93001359Y-124219063D01*
X93001360Y-124219066D01*
X93088293Y-124388220D01*
X93092712Y-124396818D01*
X93220677Y-124558270D01*
X93225370Y-124562264D01*
X93225371Y-124562265D01*
X93299541Y-124625388D01*
X93377564Y-124691791D01*
X93382942Y-124694797D01*
X93382944Y-124694798D01*
X93465722Y-124741061D01*
X93557398Y-124792297D01*
X93641280Y-124819552D01*
X93747471Y-124854056D01*
X93747475Y-124854057D01*
X93753329Y-124855959D01*
X93957894Y-124880351D01*
X93964029Y-124879879D01*
X93964031Y-124879879D01*
X94020939Y-124875500D01*
X94163300Y-124864546D01*
X94169230Y-124862890D01*
X94169232Y-124862890D01*
X94355797Y-124810800D01*
X94355796Y-124810800D01*
X94361725Y-124809145D01*
X94367214Y-124806372D01*
X94367220Y-124806370D01*
X94499952Y-124739322D01*
X94545610Y-124716258D01*
X94561345Y-124703965D01*
X94703101Y-124593213D01*
X94707951Y-124589424D01*
X94714114Y-124582285D01*
X94838540Y-124438134D01*
X94838540Y-124438133D01*
X94842564Y-124433472D01*
X94863387Y-124396818D01*
X94881056Y-124365714D01*
X94944323Y-124254344D01*
X95009351Y-124058863D01*
X95035171Y-123854474D01*
X95035583Y-123825000D01*
X95015480Y-123619970D01*
X94955935Y-123422749D01*
X94859218Y-123240849D01*
X94751659Y-123108969D01*
X94732906Y-123085975D01*
X94732903Y-123085972D01*
X94729011Y-123081200D01*
X94699727Y-123056974D01*
X94575025Y-122953811D01*
X94575021Y-122953809D01*
X94570275Y-122949882D01*
X94389055Y-122851897D01*
X94192254Y-122790977D01*
X94186129Y-122790333D01*
X94186128Y-122790333D01*
X93993498Y-122770087D01*
X93993496Y-122770087D01*
X93987369Y-122769443D01*
X93900529Y-122777346D01*
X93788342Y-122787555D01*
X93788339Y-122787556D01*
X93782203Y-122788114D01*
X93584572Y-122846280D01*
X93579107Y-122849137D01*
X93496981Y-122892072D01*
X93402002Y-122941726D01*
X93397201Y-122945586D01*
X93397198Y-122945588D01*
X93247077Y-123066288D01*
X93241447Y-123070815D01*
X93109024Y-123228630D01*
X93106056Y-123234028D01*
X93106053Y-123234033D01*
X93043403Y-123347994D01*
X93009776Y-123409162D01*
X92947484Y-123605532D01*
X92946798Y-123611649D01*
X92946797Y-123611653D01*
X92927636Y-123782484D01*
X92924520Y-123810262D01*
X92494138Y-123810262D01*
X92475480Y-123619970D01*
X92415935Y-123422749D01*
X92319218Y-123240849D01*
X92211659Y-123108969D01*
X92192906Y-123085975D01*
X92192903Y-123085972D01*
X92189011Y-123081200D01*
X92159727Y-123056974D01*
X92035025Y-122953811D01*
X92035021Y-122953809D01*
X92030275Y-122949882D01*
X91849055Y-122851897D01*
X91843167Y-122850074D01*
X91842676Y-122849868D01*
X91787628Y-122805033D01*
X91765500Y-122733712D01*
X91765500Y-122669410D01*
X91765980Y-122658428D01*
X91768303Y-122631880D01*
X91768303Y-122631878D01*
X91769264Y-122620893D01*
X91759508Y-122584485D01*
X91757130Y-122573758D01*
X91752502Y-122547512D01*
X91750588Y-122536655D01*
X91745077Y-122527110D01*
X91743885Y-122523834D01*
X91742408Y-122520666D01*
X91739554Y-122510016D01*
X91717943Y-122479153D01*
X91712039Y-122469885D01*
X91698707Y-122446794D01*
X91698706Y-122446793D01*
X91693194Y-122437245D01*
X91664317Y-122413015D01*
X91656215Y-122405589D01*
X89897405Y-120646779D01*
X89863379Y-120584467D01*
X89860500Y-120557684D01*
X89860500Y-111893148D01*
X91354700Y-111893148D01*
X91355907Y-111899216D01*
X91359531Y-111917433D01*
X91366333Y-111951631D01*
X91410648Y-112017952D01*
X91476969Y-112062267D01*
X91489138Y-112064688D01*
X91489139Y-112064688D01*
X91529384Y-112072693D01*
X91535452Y-112073900D01*
X93274948Y-112073900D01*
X93281016Y-112072693D01*
X93321261Y-112064688D01*
X93321262Y-112064688D01*
X93333431Y-112062267D01*
X93399752Y-112017952D01*
X93444067Y-111951631D01*
X93450870Y-111917433D01*
X93454493Y-111899216D01*
X93455700Y-111893148D01*
X93455700Y-110153652D01*
X93444067Y-110095169D01*
X93399752Y-110028848D01*
X93333431Y-109984533D01*
X93321262Y-109982112D01*
X93321261Y-109982112D01*
X93281016Y-109974107D01*
X93274948Y-109972900D01*
X91535452Y-109972900D01*
X91529384Y-109974107D01*
X91489139Y-109982112D01*
X91489138Y-109982112D01*
X91476969Y-109984533D01*
X91410648Y-110028848D01*
X91366333Y-110095169D01*
X91354700Y-110153652D01*
X91354700Y-111893148D01*
X89860500Y-111893148D01*
X89860500Y-91145716D01*
X89880502Y-91077595D01*
X89897405Y-91056621D01*
X92689365Y-88264661D01*
X92751677Y-88230635D01*
X92762007Y-88228835D01*
X92866762Y-88215044D01*
X93012841Y-88154536D01*
X93138282Y-88058282D01*
X93234536Y-87932841D01*
X93295044Y-87786762D01*
X93315682Y-87630000D01*
X93295044Y-87473238D01*
X93234536Y-87327159D01*
X93138282Y-87201718D01*
X93106962Y-87177685D01*
X93019392Y-87110491D01*
X93012841Y-87105464D01*
X92866762Y-87044956D01*
X92710000Y-87024318D01*
X92553238Y-87044956D01*
X92407159Y-87105464D01*
X92400608Y-87110491D01*
X92313039Y-87177685D01*
X92281718Y-87201718D01*
X92185464Y-87327159D01*
X92124956Y-87473238D01*
X92104318Y-87630000D01*
X92124956Y-87786762D01*
X92128116Y-87794391D01*
X92128372Y-87795009D01*
X92128432Y-87795572D01*
X92130254Y-87802370D01*
X92129194Y-87802654D01*
X92135958Y-87865599D01*
X92101056Y-87932318D01*
X89318785Y-90714589D01*
X89310681Y-90722016D01*
X89281806Y-90746245D01*
X89276293Y-90755794D01*
X89262961Y-90778885D01*
X89257055Y-90788156D01*
X89235446Y-90819016D01*
X89232592Y-90829666D01*
X89231115Y-90832834D01*
X89229923Y-90836110D01*
X89224412Y-90845655D01*
X89218462Y-90879399D01*
X89217870Y-90882758D01*
X89215492Y-90893485D01*
X89205736Y-90929893D01*
X89206697Y-90940878D01*
X89206697Y-90940880D01*
X89209020Y-90967428D01*
X89209500Y-90978410D01*
X89209500Y-120724990D01*
X89209020Y-120735972D01*
X89205736Y-120773507D01*
X74440500Y-120773507D01*
X74440500Y-118895252D01*
X74428867Y-118836769D01*
X74384552Y-118770448D01*
X74318231Y-118726133D01*
X74306062Y-118723712D01*
X74306061Y-118723712D01*
X74265816Y-118715707D01*
X74259748Y-118714500D01*
X72240252Y-118714500D01*
X72234184Y-118715707D01*
X72193939Y-118723712D01*
X72193938Y-118723712D01*
X72181769Y-118726133D01*
X72115448Y-118770448D01*
X72071133Y-118836769D01*
X72059500Y-118895252D01*
X72059500Y-122894748D01*
X69357191Y-122894748D01*
X69414584Y-122834690D01*
X69421067Y-122826684D01*
X69554057Y-122631726D01*
X69559143Y-122622774D01*
X69658506Y-122408715D01*
X69662060Y-122399055D01*
X69725130Y-122171631D01*
X69727057Y-122161527D01*
X69747644Y-121968898D01*
X69748000Y-121962206D01*
X69748000Y-121167115D01*
X69743525Y-121151876D01*
X69742135Y-121150671D01*
X69734452Y-121149000D01*
X68522115Y-121149000D01*
X68506876Y-121153475D01*
X68505671Y-121154865D01*
X68504000Y-121162548D01*
X68504000Y-123343534D01*
X67995591Y-123343534D01*
X67996000Y-123342222D01*
X67996000Y-121167115D01*
X67991525Y-121151876D01*
X67990135Y-121150671D01*
X67982452Y-121149000D01*
X66770115Y-121149000D01*
X66754876Y-121153475D01*
X66753671Y-121154865D01*
X66752000Y-121162548D01*
X66752000Y-121944857D01*
X45720000Y-121944857D01*
X45720000Y-120622885D01*
X66752000Y-120622885D01*
X66756475Y-120638124D01*
X66757865Y-120639329D01*
X66765548Y-120641000D01*
X67977885Y-120641000D01*
X67993124Y-120636525D01*
X67994329Y-120635135D01*
X67996000Y-120627452D01*
X67996000Y-120622885D01*
X68504000Y-120622885D01*
X68508475Y-120638124D01*
X68509865Y-120639329D01*
X68517548Y-120641000D01*
X69729885Y-120641000D01*
X69745124Y-120636525D01*
X69746329Y-120635135D01*
X69748000Y-120627452D01*
X69748000Y-119845143D01*
X69747788Y-119839970D01*
X69733374Y-119664650D01*
X69731691Y-119654488D01*
X69674200Y-119425604D01*
X69670879Y-119415849D01*
X69576782Y-119199443D01*
X69571904Y-119190345D01*
X69443727Y-118992213D01*
X69437437Y-118984044D01*
X69278613Y-118809499D01*
X69271080Y-118802474D01*
X69085880Y-118656213D01*
X69077293Y-118650508D01*
X68870703Y-118536464D01*
X68861291Y-118532234D01*
X68638844Y-118453461D01*
X68628873Y-118450827D01*
X68521837Y-118431761D01*
X68508540Y-118433221D01*
X68504000Y-118447778D01*
X68504000Y-120622885D01*
X67996000Y-120622885D01*
X67996000Y-118446466D01*
X67992082Y-118433122D01*
X67977806Y-118431135D01*
X67906764Y-118442006D01*
X67896737Y-118444395D01*
X67672430Y-118517709D01*
X67662921Y-118521706D01*
X67453605Y-118630669D01*
X67444880Y-118636163D01*
X67256165Y-118777854D01*
X67248458Y-118784697D01*
X67085416Y-118955310D01*
X67078933Y-118963316D01*
X66945943Y-119158274D01*
X66940857Y-119167226D01*
X66841494Y-119381285D01*
X66837940Y-119390945D01*
X66774870Y-119618369D01*
X66772943Y-119628473D01*
X66752356Y-119821102D01*
X66752000Y-119827794D01*
X66752000Y-120622885D01*
X45720000Y-120622885D01*
X45720000Y-119380000D01*
X37591000Y-119380000D01*
X37522879Y-119359998D01*
X37476386Y-119306342D01*
X37465000Y-119254000D01*
X37465000Y-115567399D01*
X41109712Y-115567399D01*
X41131194Y-115656537D01*
X41135083Y-115667832D01*
X41217629Y-115849382D01*
X41223576Y-115859724D01*
X41338968Y-116022397D01*
X41346761Y-116031425D01*
X41490831Y-116169342D01*
X41500196Y-116176738D01*
X41667741Y-116284921D01*
X41678345Y-116290417D01*
X41863312Y-116364961D01*
X41874770Y-116368355D01*
X42071928Y-116406857D01*
X42080791Y-116407934D01*
X42083500Y-116408000D01*
X42187885Y-116408000D01*
X42203124Y-116403525D01*
X42204329Y-116402135D01*
X42206000Y-116394452D01*
X42206000Y-116389885D01*
X42714000Y-116389885D01*
X42718475Y-116405124D01*
X42719865Y-116406329D01*
X42727548Y-116408000D01*
X42784832Y-116408000D01*
X42790808Y-116407715D01*
X42939494Y-116393529D01*
X42951228Y-116391270D01*
X43142599Y-116335128D01*
X43153675Y-116330698D01*
X43330978Y-116239381D01*
X43341024Y-116232931D01*
X43497857Y-116109738D01*
X43506506Y-116101501D01*
X43637212Y-115950877D01*
X43644147Y-115941153D01*
X43744010Y-115768533D01*
X43748984Y-115757669D01*
X43814407Y-115569273D01*
X43814648Y-115568284D01*
X43813180Y-115557992D01*
X43799615Y-115554000D01*
X42732115Y-115554000D01*
X42716876Y-115558475D01*
X42715671Y-115559865D01*
X42714000Y-115567548D01*
X42714000Y-116389885D01*
X42206000Y-116389885D01*
X42206000Y-115572115D01*
X42201525Y-115556876D01*
X42200135Y-115555671D01*
X42192452Y-115554000D01*
X41124598Y-115554000D01*
X41111067Y-115557973D01*
X41109712Y-115567399D01*
X37465000Y-115567399D01*
X37465000Y-115031716D01*
X41105352Y-115031716D01*
X41106820Y-115042008D01*
X41120385Y-115046000D01*
X43795402Y-115046000D01*
X43808933Y-115042027D01*
X43810288Y-115032601D01*
X43788806Y-114943463D01*
X43784917Y-114932168D01*
X43702371Y-114750618D01*
X43696424Y-114740276D01*
X43581032Y-114577603D01*
X43573239Y-114568575D01*
X43429169Y-114430658D01*
X43419804Y-114423262D01*
X43252259Y-114315079D01*
X43241659Y-114309585D01*
X43237372Y-114307857D01*
X43181667Y-114263840D01*
X43158603Y-114196694D01*
X43175502Y-114127738D01*
X43226999Y-114078864D01*
X43242722Y-114072111D01*
X43298184Y-114052634D01*
X43305754Y-114047042D01*
X43305757Y-114047041D01*
X43399579Y-113977742D01*
X43407150Y-113972150D01*
X43456590Y-113905214D01*
X43459230Y-113901640D01*
X43515791Y-113858730D01*
X43560581Y-113850500D01*
X47963207Y-113850500D01*
X47968484Y-113850611D01*
X48030494Y-113853210D01*
X48042048Y-113850500D01*
X48072862Y-113843273D01*
X48084533Y-113841110D01*
X48099429Y-113839069D01*
X48127632Y-113835206D01*
X48141430Y-113829235D01*
X48162699Y-113822201D01*
X48168975Y-113820729D01*
X48177336Y-113818768D01*
X48184861Y-113814631D01*
X48184864Y-113814630D01*
X48215468Y-113797805D01*
X48226113Y-113792589D01*
X48266055Y-113775305D01*
X48277741Y-113765842D01*
X48296326Y-113753354D01*
X48303718Y-113749290D01*
X48309508Y-113746107D01*
X48317622Y-113739103D01*
X48342158Y-113714567D01*
X48351959Y-113705742D01*
X48376592Y-113685794D01*
X48376593Y-113685793D01*
X48383270Y-113680386D01*
X48388243Y-113673388D01*
X48388248Y-113673383D01*
X48394168Y-113665052D01*
X48407779Y-113648946D01*
X51596213Y-110460512D01*
X54789319Y-107267405D01*
X54851631Y-107233379D01*
X54878414Y-107230500D01*
X59424779Y-107230500D01*
X59472995Y-107240090D01*
X59533238Y-107265044D01*
X59541426Y-107266122D01*
X59611619Y-107275363D01*
X59690000Y-107285682D01*
X59698188Y-107284604D01*
X59730805Y-107280310D01*
X59768381Y-107275363D01*
X59838574Y-107266122D01*
X59846762Y-107265044D01*
X59992841Y-107204536D01*
X60109268Y-107115199D01*
X60111736Y-107113305D01*
X60118282Y-107108282D01*
X60133418Y-107088557D01*
X60162134Y-107051133D01*
X60214536Y-106982841D01*
X60275044Y-106836762D01*
X60295682Y-106680000D01*
X60275044Y-106523238D01*
X60214536Y-106377159D01*
X60118282Y-106251718D01*
X59992841Y-106155464D01*
X59846762Y-106094956D01*
X59690000Y-106074318D01*
X59533238Y-106094956D01*
X59472995Y-106119910D01*
X59424779Y-106129500D01*
X54613193Y-106129500D01*
X54607917Y-106129389D01*
X54603510Y-106129204D01*
X54545906Y-106126790D01*
X54537541Y-106128752D01*
X54503538Y-106136727D01*
X54491867Y-106138890D01*
X54476971Y-106140931D01*
X54448768Y-106144794D01*
X54440884Y-106148206D01*
X54440883Y-106148206D01*
X54434970Y-106150765D01*
X54413701Y-106157799D01*
X54399064Y-106161232D01*
X54391539Y-106165369D01*
X54391536Y-106165370D01*
X54360932Y-106182195D01*
X54350287Y-106187411D01*
X54310345Y-106204695D01*
X54298659Y-106214158D01*
X54280075Y-106226645D01*
X54266892Y-106233893D01*
X54258778Y-106240897D01*
X54234242Y-106265433D01*
X54224441Y-106274258D01*
X54199808Y-106294206D01*
X54193130Y-106299614D01*
X54188157Y-106306612D01*
X54188152Y-106306617D01*
X54182232Y-106314948D01*
X54168621Y-106331054D01*
X47787081Y-112712595D01*
X47724769Y-112746621D01*
X47697986Y-112749500D01*
X43560581Y-112749500D01*
X43492460Y-112729498D01*
X43459230Y-112698360D01*
X43412742Y-112635421D01*
X43407150Y-112627850D01*
X43390206Y-112615335D01*
X43305757Y-112552959D01*
X43305754Y-112552958D01*
X43298184Y-112547366D01*
X43170369Y-112502481D01*
X43162723Y-112501758D01*
X43162722Y-112501758D01*
X43156752Y-112501194D01*
X43138834Y-112499500D01*
X41781166Y-112499500D01*
X41763248Y-112501194D01*
X41757278Y-112501758D01*
X41757277Y-112501758D01*
X41749631Y-112502481D01*
X41621816Y-112547366D01*
X41614246Y-112552958D01*
X41614243Y-112552959D01*
X41529794Y-112615335D01*
X41512850Y-112627850D01*
X41507258Y-112635421D01*
X41437959Y-112729243D01*
X41437958Y-112729246D01*
X41432366Y-112736816D01*
X41387481Y-112864631D01*
X41384500Y-112896166D01*
X41384500Y-113703834D01*
X41387481Y-113735369D01*
X41432366Y-113863184D01*
X41437958Y-113870754D01*
X41437959Y-113870757D01*
X41463410Y-113905214D01*
X41512850Y-113972150D01*
X41520421Y-113977742D01*
X41614243Y-114047041D01*
X41614246Y-114047042D01*
X41621816Y-114052634D01*
X41681831Y-114073709D01*
X41739475Y-114115152D01*
X41765564Y-114181181D01*
X41751813Y-114250834D01*
X41697774Y-114304608D01*
X41589023Y-114360619D01*
X41578976Y-114367069D01*
X41422143Y-114490262D01*
X41413494Y-114498499D01*
X41282788Y-114649123D01*
X41275853Y-114658847D01*
X41175990Y-114831467D01*
X41171016Y-114842331D01*
X41105593Y-115030727D01*
X41105352Y-115031716D01*
X37465000Y-115031716D01*
X37465000Y-102746400D01*
X40493140Y-102746400D01*
X40512926Y-102934656D01*
X40571421Y-103114684D01*
X40666067Y-103278616D01*
X40670485Y-103283523D01*
X40670486Y-103283524D01*
X40788312Y-103414383D01*
X40788315Y-103414385D01*
X40792729Y-103419288D01*
X40798072Y-103423170D01*
X40802976Y-103427585D01*
X40801717Y-103428984D01*
X40839517Y-103478008D01*
X40848100Y-103523717D01*
X40848100Y-106153607D01*
X40847989Y-106158883D01*
X40845390Y-106220894D01*
X40847352Y-106229259D01*
X40855327Y-106263262D01*
X40857490Y-106274933D01*
X40863394Y-106318032D01*
X40866806Y-106325916D01*
X40866806Y-106325917D01*
X40869365Y-106331830D01*
X40876399Y-106353099D01*
X40879832Y-106367736D01*
X40883969Y-106375261D01*
X40883970Y-106375264D01*
X40900795Y-106405868D01*
X40906011Y-106416513D01*
X40923295Y-106456455D01*
X40932758Y-106468141D01*
X40945245Y-106486725D01*
X40952493Y-106499908D01*
X40959497Y-106508022D01*
X40984033Y-106532558D01*
X40992858Y-106542359D01*
X41012806Y-106566992D01*
X41018214Y-106573670D01*
X41025212Y-106578643D01*
X41025217Y-106578648D01*
X41033548Y-106584568D01*
X41049654Y-106598179D01*
X42616446Y-108164970D01*
X44149115Y-109697639D01*
X44183141Y-109759951D01*
X44185330Y-109799903D01*
X44180230Y-109848433D01*
X44179540Y-109855000D01*
X44180230Y-109861565D01*
X44197812Y-110028848D01*
X44199326Y-110043256D01*
X44257821Y-110223284D01*
X44261124Y-110229006D01*
X44261125Y-110229007D01*
X44290335Y-110279600D01*
X44352467Y-110387216D01*
X44356885Y-110392123D01*
X44356886Y-110392124D01*
X44395018Y-110434473D01*
X44479129Y-110527888D01*
X44632270Y-110639151D01*
X44805197Y-110716144D01*
X44887863Y-110733715D01*
X44983897Y-110754128D01*
X44983901Y-110754128D01*
X44990354Y-110755500D01*
X45179646Y-110755500D01*
X45186099Y-110754128D01*
X45186103Y-110754128D01*
X45282137Y-110733715D01*
X45364803Y-110716144D01*
X45537730Y-110639151D01*
X45690871Y-110527888D01*
X45774983Y-110434473D01*
X45813114Y-110392124D01*
X45813115Y-110392123D01*
X45817533Y-110387216D01*
X45879665Y-110279600D01*
X45908875Y-110229007D01*
X45908876Y-110229006D01*
X45912179Y-110223284D01*
X45970674Y-110043256D01*
X45972189Y-110028848D01*
X45989770Y-109861565D01*
X45990460Y-109855000D01*
X45970674Y-109666744D01*
X45912179Y-109486716D01*
X45908059Y-109479579D01*
X45820836Y-109328505D01*
X45817533Y-109322784D01*
X45813114Y-109317876D01*
X45695286Y-109187015D01*
X45695284Y-109187014D01*
X45690871Y-109182112D01*
X45537730Y-109070849D01*
X45364803Y-108993856D01*
X45266788Y-108973022D01*
X45186103Y-108955872D01*
X45186099Y-108955872D01*
X45179646Y-108954500D01*
X45015215Y-108954500D01*
X44947094Y-108934498D01*
X44926120Y-108917595D01*
X41986005Y-105977481D01*
X41951979Y-105915169D01*
X41949100Y-105888386D01*
X41949100Y-104140000D01*
X79739540Y-104140000D01*
X79759326Y-104328256D01*
X79817821Y-104508284D01*
X79912467Y-104672216D01*
X80039129Y-104812888D01*
X80192270Y-104924151D01*
X80365197Y-105001144D01*
X80429882Y-105014893D01*
X80543897Y-105039128D01*
X80543901Y-105039128D01*
X80550354Y-105040500D01*
X80714785Y-105040500D01*
X80782906Y-105060502D01*
X80803880Y-105077405D01*
X82785130Y-107058655D01*
X82788783Y-107062464D01*
X82830799Y-107108156D01*
X82867797Y-107131095D01*
X82877548Y-107137797D01*
X82912216Y-107164112D01*
X82926193Y-107169646D01*
X82946202Y-107179709D01*
X82951688Y-107183111D01*
X82951692Y-107183113D01*
X82958986Y-107187635D01*
X82967228Y-107190029D01*
X82967231Y-107190031D01*
X83000784Y-107199779D01*
X83011997Y-107203618D01*
X83052453Y-107219635D01*
X83060997Y-107220533D01*
X83066954Y-107221996D01*
X83130535Y-107260048D01*
X83214129Y-107352888D01*
X83219468Y-107356767D01*
X83334906Y-107440637D01*
X83367270Y-107464151D01*
X83540197Y-107541144D01*
X83624726Y-107559111D01*
X83718897Y-107579128D01*
X83718901Y-107579128D01*
X83725354Y-107580500D01*
X83914646Y-107580500D01*
X83921099Y-107579128D01*
X83921103Y-107579128D01*
X84015274Y-107559111D01*
X84099803Y-107541144D01*
X84272730Y-107464151D01*
X84305095Y-107440637D01*
X84420532Y-107356767D01*
X84425871Y-107352888D01*
X84434049Y-107343806D01*
X84548114Y-107217124D01*
X84548115Y-107217123D01*
X84552533Y-107212216D01*
X84583303Y-107158920D01*
X84643875Y-107054007D01*
X84643876Y-107054006D01*
X84647179Y-107048284D01*
X84705674Y-106868256D01*
X84706833Y-106857234D01*
X84724770Y-106686565D01*
X84725460Y-106680000D01*
X84720997Y-106637533D01*
X84706364Y-106498307D01*
X84706364Y-106498305D01*
X84705674Y-106491744D01*
X84647179Y-106311716D01*
X84627283Y-106277254D01*
X84555836Y-106153505D01*
X84552533Y-106147784D01*
X84535970Y-106129389D01*
X84430286Y-106012015D01*
X84430284Y-106012014D01*
X84425871Y-106007112D01*
X84334292Y-105940576D01*
X84278072Y-105899730D01*
X84278071Y-105899729D01*
X84272730Y-105895849D01*
X84099803Y-105818856D01*
X84001788Y-105798022D01*
X83921103Y-105780872D01*
X83921099Y-105780872D01*
X83914646Y-105779500D01*
X83725354Y-105779500D01*
X83718901Y-105780872D01*
X83718897Y-105780872D01*
X83638212Y-105798022D01*
X83540197Y-105818856D01*
X83487564Y-105842290D01*
X83373306Y-105893161D01*
X83373302Y-105893163D01*
X83367270Y-105895849D01*
X83345502Y-105911664D01*
X83278638Y-105935522D01*
X83209486Y-105919443D01*
X83182347Y-105898823D01*
X81580885Y-104297361D01*
X81546859Y-104235049D01*
X81544670Y-104195097D01*
X81549770Y-104146567D01*
X81549770Y-104146565D01*
X81550460Y-104140000D01*
X81530674Y-103951744D01*
X81472179Y-103771716D01*
X81377533Y-103607784D01*
X81250871Y-103467112D01*
X81185047Y-103419288D01*
X81103072Y-103359730D01*
X81103071Y-103359729D01*
X81097730Y-103355849D01*
X80924803Y-103278856D01*
X80826788Y-103258022D01*
X80746103Y-103240872D01*
X80746099Y-103240872D01*
X80739646Y-103239500D01*
X80550354Y-103239500D01*
X80543901Y-103240872D01*
X80543897Y-103240872D01*
X80463212Y-103258022D01*
X80365197Y-103278856D01*
X80192270Y-103355849D01*
X80186929Y-103359729D01*
X80186928Y-103359730D01*
X80104953Y-103419288D01*
X80039129Y-103467112D01*
X79912467Y-103607784D01*
X79817821Y-103771716D01*
X79759326Y-103951744D01*
X79739540Y-104140000D01*
X41949100Y-104140000D01*
X41949100Y-103523717D01*
X41969102Y-103455596D01*
X41994874Y-103428307D01*
X41994224Y-103427585D01*
X41999128Y-103423170D01*
X42004471Y-103419288D01*
X42008885Y-103414385D01*
X42008888Y-103414383D01*
X42126714Y-103283524D01*
X42126715Y-103283523D01*
X42131133Y-103278616D01*
X42225779Y-103114684D01*
X42284274Y-102934656D01*
X42304060Y-102746400D01*
X42284274Y-102558144D01*
X42225779Y-102378116D01*
X42131133Y-102214184D01*
X42004471Y-102073512D01*
X41851330Y-101962249D01*
X41678403Y-101885256D01*
X41580388Y-101864422D01*
X41499703Y-101847272D01*
X41499699Y-101847272D01*
X41493246Y-101845900D01*
X41303954Y-101845900D01*
X41297501Y-101847272D01*
X41297497Y-101847272D01*
X41216812Y-101864422D01*
X41118797Y-101885256D01*
X40945870Y-101962249D01*
X40792729Y-102073512D01*
X40666067Y-102214184D01*
X40571421Y-102378116D01*
X40512926Y-102558144D01*
X40493140Y-102746400D01*
X37465000Y-102746400D01*
X37465000Y-77671534D01*
X37485002Y-77603413D01*
X37521915Y-77566162D01*
X37535720Y-77557111D01*
X37554685Y-77544677D01*
X37675040Y-77417628D01*
X37762939Y-77266298D01*
X37813667Y-77098807D01*
X37824503Y-76924138D01*
X37823155Y-76916290D01*
X37796106Y-76758875D01*
X37796105Y-76758873D01*
X37794866Y-76751660D01*
X37726346Y-76590627D01*
X37622617Y-76449676D01*
X37617039Y-76444937D01*
X37617036Y-76444934D01*
X37509421Y-76353509D01*
X37470456Y-76294160D01*
X37465000Y-76257484D01*
X37465000Y-74930000D01*
X37829540Y-74930000D01*
X37830230Y-74936565D01*
X37842900Y-75057111D01*
X37849326Y-75118256D01*
X37907821Y-75298284D01*
X38002467Y-75462216D01*
X38006885Y-75467123D01*
X38006886Y-75467124D01*
X38124712Y-75597983D01*
X38124715Y-75597985D01*
X38129129Y-75602888D01*
X38134472Y-75606770D01*
X38139376Y-75611185D01*
X38138117Y-75612584D01*
X38175917Y-75661608D01*
X38184500Y-75707317D01*
X38184500Y-79995007D01*
X38184389Y-80000283D01*
X38181790Y-80062294D01*
X38183752Y-80070659D01*
X38191727Y-80104662D01*
X38193890Y-80116333D01*
X38199794Y-80159432D01*
X38203206Y-80167316D01*
X38203206Y-80167317D01*
X38205765Y-80173230D01*
X38212799Y-80194499D01*
X38216232Y-80209136D01*
X38220369Y-80216661D01*
X38220370Y-80216664D01*
X38237195Y-80247268D01*
X38242411Y-80257913D01*
X38259695Y-80297855D01*
X38269158Y-80309541D01*
X38281645Y-80328125D01*
X38288893Y-80341308D01*
X38295897Y-80349422D01*
X38320433Y-80373958D01*
X38329258Y-80383759D01*
X38349206Y-80408392D01*
X38354614Y-80415070D01*
X38361612Y-80420043D01*
X38361617Y-80420048D01*
X38369948Y-80425968D01*
X38386054Y-80439579D01*
X40339115Y-82392640D01*
X40373141Y-82454952D01*
X40375330Y-82494904D01*
X40370230Y-82543433D01*
X40369540Y-82550000D01*
X40370230Y-82556565D01*
X40385897Y-82705626D01*
X40389326Y-82738256D01*
X40447821Y-82918284D01*
X40451124Y-82924006D01*
X40451125Y-82924007D01*
X40505733Y-83018591D01*
X40542467Y-83082216D01*
X40546885Y-83087123D01*
X40546886Y-83087124D01*
X40596733Y-83142484D01*
X40669129Y-83222888D01*
X40674468Y-83226767D01*
X40797991Y-83316511D01*
X40822270Y-83334151D01*
X40995197Y-83411144D01*
X41087380Y-83430738D01*
X41173897Y-83449128D01*
X41173901Y-83449128D01*
X41180354Y-83450500D01*
X41369646Y-83450500D01*
X41376099Y-83449128D01*
X41376103Y-83449128D01*
X41462620Y-83430738D01*
X41554803Y-83411144D01*
X41727730Y-83334151D01*
X41752010Y-83316511D01*
X41875532Y-83226767D01*
X41880871Y-83222888D01*
X41953268Y-83142484D01*
X42003114Y-83087124D01*
X42003115Y-83087123D01*
X42007533Y-83082216D01*
X42044267Y-83018591D01*
X42098875Y-82924007D01*
X42098876Y-82924006D01*
X42102179Y-82918284D01*
X42123001Y-82854200D01*
X68913518Y-82854200D01*
X68934156Y-83010962D01*
X68994664Y-83157041D01*
X69090918Y-83282482D01*
X69216359Y-83378736D01*
X69362438Y-83439244D01*
X69370626Y-83440322D01*
X69390755Y-83442972D01*
X69519200Y-83459882D01*
X69586043Y-83451082D01*
X69656190Y-83462021D01*
X69691583Y-83486909D01*
X74050889Y-87846215D01*
X74058316Y-87854319D01*
X74082545Y-87883194D01*
X74092094Y-87888707D01*
X74115185Y-87902039D01*
X74124456Y-87907945D01*
X74155316Y-87929554D01*
X74165967Y-87932408D01*
X74169140Y-87933888D01*
X74172412Y-87935079D01*
X74181955Y-87940588D01*
X74219076Y-87947134D01*
X74229783Y-87949508D01*
X74266193Y-87959263D01*
X74277168Y-87958303D01*
X74277170Y-87958303D01*
X74303731Y-87955979D01*
X74314712Y-87955500D01*
X76900714Y-87955500D01*
X76968835Y-87975502D01*
X77000677Y-88004796D01*
X77041718Y-88058282D01*
X77167159Y-88154536D01*
X77313238Y-88215044D01*
X77470000Y-88235682D01*
X77478188Y-88234604D01*
X77479609Y-88234417D01*
X77626762Y-88215044D01*
X77772841Y-88154536D01*
X77898282Y-88058282D01*
X77994536Y-87932841D01*
X78055044Y-87786762D01*
X78075682Y-87630000D01*
X78055044Y-87473238D01*
X77994536Y-87327159D01*
X77898282Y-87201718D01*
X77866962Y-87177685D01*
X77779392Y-87110491D01*
X77772841Y-87105464D01*
X77626762Y-87044956D01*
X77470000Y-87024318D01*
X77313238Y-87044956D01*
X77167159Y-87105464D01*
X77160608Y-87110491D01*
X77073039Y-87177685D01*
X77041718Y-87201718D01*
X77036695Y-87208264D01*
X77000677Y-87255204D01*
X76943339Y-87297071D01*
X76900714Y-87304500D01*
X74482016Y-87304500D01*
X74413895Y-87284498D01*
X74392921Y-87267595D01*
X73310319Y-86184993D01*
X73276293Y-86122681D01*
X73281358Y-86051866D01*
X73323905Y-85995030D01*
X73390425Y-85970219D01*
X73462414Y-85986779D01*
X73480185Y-85997039D01*
X73489456Y-86002945D01*
X73520316Y-86024554D01*
X73530969Y-86027409D01*
X73534131Y-86028883D01*
X73537407Y-86030075D01*
X73546955Y-86035588D01*
X73557810Y-86037502D01*
X73557815Y-86037504D01*
X73584065Y-86042133D01*
X73594792Y-86044511D01*
X73620548Y-86051412D01*
X73620551Y-86051412D01*
X73631194Y-86054264D01*
X73642169Y-86053304D01*
X73642171Y-86053304D01*
X73668744Y-86050979D01*
X73679725Y-86050500D01*
X76815290Y-86050500D01*
X76826272Y-86050980D01*
X76852820Y-86053303D01*
X76852822Y-86053303D01*
X76863807Y-86054264D01*
X76900215Y-86044508D01*
X76910942Y-86042130D01*
X76914301Y-86041538D01*
X76948045Y-86035588D01*
X76957590Y-86030077D01*
X76960866Y-86028885D01*
X76964034Y-86027408D01*
X76974684Y-86024554D01*
X77005544Y-86002945D01*
X77014815Y-85997039D01*
X77037910Y-85983705D01*
X77037911Y-85983704D01*
X77047455Y-85978194D01*
X77071685Y-85949319D01*
X77079110Y-85941217D01*
X78321222Y-84699105D01*
X78329326Y-84691678D01*
X78349750Y-84674540D01*
X78358194Y-84667455D01*
X78363704Y-84657912D01*
X78363707Y-84657908D01*
X78377036Y-84634821D01*
X78382941Y-84625551D01*
X78398232Y-84603713D01*
X78404554Y-84594684D01*
X78407407Y-84584036D01*
X78408886Y-84580865D01*
X78410078Y-84577589D01*
X78415588Y-84568045D01*
X78422134Y-84530924D01*
X78424508Y-84520217D01*
X78434263Y-84483807D01*
X78430979Y-84446269D01*
X78430500Y-84435288D01*
X78430500Y-81308807D01*
X80950736Y-81308807D01*
X80953590Y-81319456D01*
X80960491Y-81345210D01*
X80962870Y-81355942D01*
X80969412Y-81393045D01*
X80974923Y-81402590D01*
X80976115Y-81405866D01*
X80977592Y-81409034D01*
X80980446Y-81419684D01*
X80986770Y-81428715D01*
X81002055Y-81450544D01*
X81007961Y-81459815D01*
X81018095Y-81477367D01*
X81026806Y-81492455D01*
X81035251Y-81499541D01*
X81055682Y-81516685D01*
X81063785Y-81524111D01*
X86995095Y-87455421D01*
X87029121Y-87517733D01*
X87032000Y-87544516D01*
X87032000Y-95860714D01*
X87011998Y-95928835D01*
X86982704Y-95960677D01*
X86929218Y-96001718D01*
X86832964Y-96127159D01*
X86772456Y-96273238D01*
X86751818Y-96430000D01*
X86772456Y-96586762D01*
X86832964Y-96732841D01*
X86929218Y-96858282D01*
X87054659Y-96954536D01*
X87182447Y-97007468D01*
X87183868Y-97008056D01*
X87200738Y-97015044D01*
X87357500Y-97035682D01*
X87365688Y-97034604D01*
X87506074Y-97016122D01*
X87514262Y-97015044D01*
X87531133Y-97008056D01*
X87532553Y-97007468D01*
X87660341Y-96954536D01*
X87785782Y-96858282D01*
X87882036Y-96732841D01*
X87942544Y-96586762D01*
X87963182Y-96430000D01*
X87942544Y-96273238D01*
X87882036Y-96127159D01*
X87785782Y-96001718D01*
X87732296Y-95960677D01*
X87690429Y-95903339D01*
X87683000Y-95860714D01*
X87683000Y-87377210D01*
X87683480Y-87366228D01*
X87685803Y-87339680D01*
X87685803Y-87339678D01*
X87686764Y-87328693D01*
X87677008Y-87292285D01*
X87674630Y-87281558D01*
X87672168Y-87267595D01*
X87668088Y-87244455D01*
X87662577Y-87234910D01*
X87661385Y-87231634D01*
X87659908Y-87228466D01*
X87657054Y-87217816D01*
X87635445Y-87186956D01*
X87629539Y-87177685D01*
X87616207Y-87154594D01*
X87610694Y-87145045D01*
X87581817Y-87120815D01*
X87573715Y-87113389D01*
X85550326Y-85090000D01*
X90221018Y-85090000D01*
X90241656Y-85246762D01*
X90302164Y-85392841D01*
X90398418Y-85518282D01*
X90523859Y-85614536D01*
X90669938Y-85675044D01*
X90826700Y-85695682D01*
X90834888Y-85694604D01*
X90975274Y-85676122D01*
X90983462Y-85675044D01*
X91129541Y-85614536D01*
X91254982Y-85518282D01*
X91296023Y-85464796D01*
X91353361Y-85422929D01*
X91395986Y-85415500D01*
X92919084Y-85415500D01*
X92987205Y-85435502D01*
X93008179Y-85452405D01*
X94013695Y-86457922D01*
X94047721Y-86520234D01*
X94050600Y-86547017D01*
X94050600Y-120486090D01*
X94050120Y-120497072D01*
X94046836Y-120534607D01*
X94053020Y-120557684D01*
X94056591Y-120571010D01*
X94058970Y-120581742D01*
X94065512Y-120618845D01*
X94071023Y-120628390D01*
X94072215Y-120631666D01*
X94073692Y-120634834D01*
X94076546Y-120645484D01*
X94082870Y-120654515D01*
X94098155Y-120676344D01*
X94104061Y-120685615D01*
X94117393Y-120708706D01*
X94122906Y-120718255D01*
X94137482Y-120730486D01*
X94151782Y-120742485D01*
X94159885Y-120749911D01*
X96089757Y-122679784D01*
X96123783Y-122742096D01*
X96118718Y-122812912D01*
X96076171Y-122869747D01*
X96059038Y-122880540D01*
X96004717Y-122908939D01*
X95942002Y-122941726D01*
X95937201Y-122945586D01*
X95937198Y-122945588D01*
X95787077Y-123066288D01*
X95781447Y-123070815D01*
X95649024Y-123228630D01*
X95646056Y-123234028D01*
X95646053Y-123234033D01*
X95583403Y-123347994D01*
X95549776Y-123409162D01*
X95487484Y-123605532D01*
X95486798Y-123611649D01*
X95486797Y-123611653D01*
X95467636Y-123782484D01*
X95464520Y-123810262D01*
X95481759Y-124015553D01*
X95483458Y-124021478D01*
X95529395Y-124181678D01*
X95538544Y-124213586D01*
X95541359Y-124219063D01*
X95541360Y-124219066D01*
X95628293Y-124388220D01*
X95632712Y-124396818D01*
X95760677Y-124558270D01*
X95765370Y-124562264D01*
X95765371Y-124562265D01*
X95839541Y-124625388D01*
X95917564Y-124691791D01*
X95922942Y-124694797D01*
X95922944Y-124694798D01*
X96005722Y-124741061D01*
X96097398Y-124792297D01*
X96181280Y-124819552D01*
X96287471Y-124854056D01*
X96287475Y-124854057D01*
X96293329Y-124855959D01*
X96497894Y-124880351D01*
X96504029Y-124879879D01*
X96504031Y-124879879D01*
X96560939Y-124875500D01*
X96703300Y-124864546D01*
X96709230Y-124862890D01*
X96709232Y-124862890D01*
X96895797Y-124810800D01*
X96895796Y-124810800D01*
X96901725Y-124809145D01*
X96907214Y-124806372D01*
X96907220Y-124806370D01*
X97039952Y-124739322D01*
X97085610Y-124716258D01*
X97101345Y-124703965D01*
X97243101Y-124593213D01*
X97247951Y-124589424D01*
X97254114Y-124582285D01*
X97378540Y-124438134D01*
X97378540Y-124438133D01*
X97382564Y-124433472D01*
X97403387Y-124396818D01*
X97421056Y-124365714D01*
X97484323Y-124254344D01*
X97493271Y-124227444D01*
X97508496Y-124181678D01*
X97548978Y-124123354D01*
X97614566Y-124096175D01*
X97684437Y-124108770D01*
X97736406Y-124157141D01*
X97750971Y-124193751D01*
X97758564Y-124227444D01*
X97761645Y-124237275D01*
X97841770Y-124434603D01*
X97846413Y-124443794D01*
X97957694Y-124625388D01*
X97963777Y-124633699D01*
X98103213Y-124794667D01*
X98110580Y-124801883D01*
X98274434Y-124937916D01*
X98282881Y-124943831D01*
X98466756Y-125051279D01*
X98476042Y-125055729D01*
X98675001Y-125131703D01*
X98684899Y-125134579D01*
X98788250Y-125155606D01*
X98802299Y-125154410D01*
X98806000Y-125144065D01*
X98806000Y-125143517D01*
X99314000Y-125143517D01*
X99318064Y-125157359D01*
X99331478Y-125159393D01*
X99338184Y-125158534D01*
X99348262Y-125156392D01*
X99552255Y-125095191D01*
X99561842Y-125091433D01*
X99753095Y-124997739D01*
X99761945Y-124992464D01*
X99935328Y-124868792D01*
X99943200Y-124862139D01*
X100094052Y-124711812D01*
X100100730Y-124703965D01*
X100225003Y-124531020D01*
X100230313Y-124522183D01*
X100324670Y-124331267D01*
X100328469Y-124321672D01*
X100369593Y-124186319D01*
X100408534Y-124126955D01*
X100473388Y-124098068D01*
X100543564Y-124108830D01*
X100596782Y-124155823D01*
X100611270Y-124188217D01*
X100618544Y-124213586D01*
X100621359Y-124219063D01*
X100621360Y-124219066D01*
X100708293Y-124388220D01*
X100712712Y-124396818D01*
X100840677Y-124558270D01*
X100845370Y-124562264D01*
X100845371Y-124562265D01*
X100919541Y-124625388D01*
X100997564Y-124691791D01*
X101002942Y-124694797D01*
X101002944Y-124694798D01*
X101085722Y-124741061D01*
X101177398Y-124792297D01*
X101261280Y-124819552D01*
X101367471Y-124854056D01*
X101367475Y-124854057D01*
X101373329Y-124855959D01*
X101577894Y-124880351D01*
X101584029Y-124879879D01*
X101584031Y-124879879D01*
X101640939Y-124875500D01*
X101783300Y-124864546D01*
X101789230Y-124862890D01*
X101789232Y-124862890D01*
X101975797Y-124810800D01*
X101975796Y-124810800D01*
X101981725Y-124809145D01*
X101987214Y-124806372D01*
X101987220Y-124806370D01*
X102119952Y-124739322D01*
X102165610Y-124716258D01*
X102181345Y-124703965D01*
X102323101Y-124593213D01*
X102327951Y-124589424D01*
X102334114Y-124582285D01*
X102458540Y-124438134D01*
X102458540Y-124438133D01*
X102462564Y-124433472D01*
X102483387Y-124396818D01*
X102501056Y-124365714D01*
X102564323Y-124254344D01*
X102629351Y-124058863D01*
X102655171Y-123854474D01*
X102655583Y-123825000D01*
X102635480Y-123619970D01*
X102575935Y-123422749D01*
X102479218Y-123240849D01*
X102371659Y-123108969D01*
X102352906Y-123085975D01*
X102352903Y-123085972D01*
X102349011Y-123081200D01*
X102319727Y-123056974D01*
X102195025Y-122953811D01*
X102195021Y-122953809D01*
X102190275Y-122949882D01*
X102009055Y-122851897D01*
X101812254Y-122790977D01*
X101806129Y-122790333D01*
X101806128Y-122790333D01*
X101613498Y-122770087D01*
X101613496Y-122770087D01*
X101607369Y-122769443D01*
X101520529Y-122777346D01*
X101408342Y-122787555D01*
X101408339Y-122787556D01*
X101402203Y-122788114D01*
X101204572Y-122846280D01*
X101199107Y-122849137D01*
X101116981Y-122892072D01*
X101022002Y-122941726D01*
X101017201Y-122945586D01*
X101017198Y-122945588D01*
X100867077Y-123066288D01*
X100861447Y-123070815D01*
X100729024Y-123228630D01*
X100726056Y-123234028D01*
X100726053Y-123234033D01*
X100663403Y-123347994D01*
X100629776Y-123409162D01*
X100627914Y-123415032D01*
X100611068Y-123468138D01*
X100571405Y-123527022D01*
X100506202Y-123555114D01*
X100436163Y-123543497D01*
X100383523Y-123495857D01*
X100368762Y-123460735D01*
X100351214Y-123390875D01*
X100347894Y-123381124D01*
X100262972Y-123185814D01*
X100258105Y-123176739D01*
X100142426Y-122997926D01*
X100136136Y-122989757D01*
X99992806Y-122832240D01*
X99985273Y-122825215D01*
X99818139Y-122693222D01*
X99809552Y-122687517D01*
X99623117Y-122584599D01*
X99613705Y-122580369D01*
X99412959Y-122509280D01*
X99402988Y-122506646D01*
X99331837Y-122493972D01*
X99318540Y-122495432D01*
X99314000Y-122509989D01*
X99314000Y-125143517D01*
X98806000Y-125143517D01*
X98806000Y-122508102D01*
X98802082Y-122494758D01*
X98787806Y-122492771D01*
X98749324Y-122498660D01*
X98739288Y-122501051D01*
X98536868Y-122567212D01*
X98527359Y-122571209D01*
X98338463Y-122669542D01*
X98329738Y-122675036D01*
X98159433Y-122802905D01*
X98151726Y-122809748D01*
X98004590Y-122963717D01*
X97998104Y-122971727D01*
X97878098Y-123147649D01*
X97873000Y-123156623D01*
X97783338Y-123349783D01*
X97779775Y-123359470D01*
X97751012Y-123463185D01*
X97713533Y-123523483D01*
X97649405Y-123553946D01*
X97578986Y-123544903D01*
X97524636Y-123499224D01*
X97508973Y-123465933D01*
X97508143Y-123463185D01*
X97495935Y-123422749D01*
X97399218Y-123240849D01*
X97291659Y-123108969D01*
X97272906Y-123085975D01*
X97272903Y-123085972D01*
X97269011Y-123081200D01*
X97239727Y-123056974D01*
X97115025Y-122953811D01*
X97115021Y-122953809D01*
X97110275Y-122949882D01*
X96929055Y-122851897D01*
X96923167Y-122850074D01*
X96922676Y-122849868D01*
X96867628Y-122805033D01*
X96845500Y-122733712D01*
X96845500Y-122669398D01*
X96845980Y-122658416D01*
X96848302Y-122631880D01*
X96848302Y-122631878D01*
X96849263Y-122620893D01*
X96844260Y-122602220D01*
X96839512Y-122584504D01*
X96837132Y-122573769D01*
X96832502Y-122547512D01*
X96830588Y-122536655D01*
X96825076Y-122527107D01*
X96823883Y-122523830D01*
X96822406Y-122520662D01*
X96819553Y-122510016D01*
X96797942Y-122479152D01*
X96792038Y-122469884D01*
X96778707Y-122446794D01*
X96773194Y-122437245D01*
X96744323Y-122413020D01*
X96736218Y-122405592D01*
X94738505Y-120407879D01*
X94704479Y-120345567D01*
X94701600Y-120318784D01*
X94701600Y-120015000D01*
X95914318Y-120015000D01*
X95934956Y-120171762D01*
X95995464Y-120317841D01*
X96007161Y-120333085D01*
X96085144Y-120434714D01*
X96091718Y-120443282D01*
X96098264Y-120448305D01*
X96127918Y-120471059D01*
X96217159Y-120539536D01*
X96363238Y-120600044D01*
X96520000Y-120620682D01*
X96528188Y-120619604D01*
X96668574Y-120601122D01*
X96676762Y-120600044D01*
X96822841Y-120539536D01*
X96912082Y-120471059D01*
X96941736Y-120448305D01*
X96948282Y-120443282D01*
X96954857Y-120434714D01*
X96989323Y-120389796D01*
X97046661Y-120347929D01*
X97089286Y-120340500D01*
X106025290Y-120340500D01*
X106036272Y-120340980D01*
X106062820Y-120343303D01*
X106062822Y-120343303D01*
X106073807Y-120344264D01*
X106110215Y-120334508D01*
X106120942Y-120332130D01*
X106124301Y-120331538D01*
X106158045Y-120325588D01*
X106167590Y-120320077D01*
X106170866Y-120318885D01*
X106174034Y-120317408D01*
X106184684Y-120314554D01*
X106215544Y-120292945D01*
X106224815Y-120287039D01*
X106247906Y-120273707D01*
X106257455Y-120268194D01*
X106281685Y-120239317D01*
X106289111Y-120231215D01*
X112611215Y-113909111D01*
X112619319Y-113901684D01*
X112639749Y-113884541D01*
X112648194Y-113877455D01*
X112662192Y-113853210D01*
X112667039Y-113844815D01*
X112672945Y-113835544D01*
X112682288Y-113822201D01*
X112694554Y-113804684D01*
X112697408Y-113794033D01*
X112698888Y-113790860D01*
X112700079Y-113787588D01*
X112705588Y-113778045D01*
X112712134Y-113740924D01*
X112714508Y-113730217D01*
X112724263Y-113693807D01*
X112720979Y-113656269D01*
X112720500Y-113645288D01*
X112720500Y-110269857D01*
X113132000Y-110269857D01*
X113132212Y-110275030D01*
X113146626Y-110450350D01*
X113148309Y-110460512D01*
X113205800Y-110689396D01*
X113209121Y-110699151D01*
X113303218Y-110915557D01*
X113308096Y-110924655D01*
X113436273Y-111122787D01*
X113442563Y-111130956D01*
X113601387Y-111305501D01*
X113608920Y-111312526D01*
X113794120Y-111458787D01*
X113802707Y-111464492D01*
X114009297Y-111578536D01*
X114018709Y-111582766D01*
X114241156Y-111661539D01*
X114251127Y-111664173D01*
X114358163Y-111683239D01*
X114371460Y-111681779D01*
X114375591Y-111668534D01*
X114884000Y-111668534D01*
X114887918Y-111681878D01*
X114902194Y-111683865D01*
X114973236Y-111672994D01*
X114983263Y-111670605D01*
X115207570Y-111597291D01*
X115217079Y-111593294D01*
X115426395Y-111484331D01*
X115435120Y-111478837D01*
X115623835Y-111337146D01*
X115631542Y-111330303D01*
X115794584Y-111159690D01*
X115801067Y-111151684D01*
X115934057Y-110956726D01*
X115939143Y-110947774D01*
X116038506Y-110733715D01*
X116042060Y-110724055D01*
X116105130Y-110496631D01*
X116107057Y-110486527D01*
X116127644Y-110293898D01*
X116128000Y-110287206D01*
X116128000Y-109492115D01*
X116123525Y-109476876D01*
X116122135Y-109475671D01*
X116114452Y-109474000D01*
X114902115Y-109474000D01*
X114886876Y-109478475D01*
X114885671Y-109479865D01*
X114884000Y-109487548D01*
X114884000Y-111668534D01*
X114375591Y-111668534D01*
X114376000Y-111667222D01*
X114376000Y-109492115D01*
X114371525Y-109476876D01*
X114370135Y-109475671D01*
X114362452Y-109474000D01*
X113150115Y-109474000D01*
X113134876Y-109478475D01*
X113133671Y-109479865D01*
X113132000Y-109487548D01*
X113132000Y-110269857D01*
X112720500Y-110269857D01*
X112720500Y-109218834D01*
X123594500Y-109218834D01*
X123597481Y-109250369D01*
X123642366Y-109378184D01*
X123647958Y-109385754D01*
X123647959Y-109385757D01*
X123710335Y-109470206D01*
X123722850Y-109487150D01*
X123730421Y-109492742D01*
X123824243Y-109562041D01*
X123824246Y-109562042D01*
X123831816Y-109567634D01*
X123959631Y-109612519D01*
X123967277Y-109613242D01*
X123967278Y-109613242D01*
X123973248Y-109613806D01*
X123991166Y-109615500D01*
X125598834Y-109615500D01*
X125616752Y-109613806D01*
X125622722Y-109613242D01*
X125622723Y-109613242D01*
X125630369Y-109612519D01*
X125758184Y-109567634D01*
X125765754Y-109562042D01*
X125765757Y-109562041D01*
X125859579Y-109492742D01*
X125867150Y-109487150D01*
X125879665Y-109470206D01*
X125942041Y-109385757D01*
X125942042Y-109385754D01*
X125947634Y-109378184D01*
X125992519Y-109250369D01*
X125995500Y-109218834D01*
X125995500Y-107911166D01*
X125992519Y-107879631D01*
X125947634Y-107751816D01*
X125942042Y-107744246D01*
X125942041Y-107744243D01*
X125872742Y-107650421D01*
X125867150Y-107642850D01*
X125850206Y-107630335D01*
X125765757Y-107567959D01*
X125765754Y-107567958D01*
X125758184Y-107562366D01*
X125630369Y-107517481D01*
X125622723Y-107516758D01*
X125622722Y-107516758D01*
X125616752Y-107516194D01*
X125598834Y-107514500D01*
X123991166Y-107514500D01*
X123973248Y-107516194D01*
X123967278Y-107516758D01*
X123967277Y-107516758D01*
X123959631Y-107517481D01*
X123831816Y-107562366D01*
X123824246Y-107567958D01*
X123824243Y-107567959D01*
X123739794Y-107630335D01*
X123722850Y-107642850D01*
X123717258Y-107650421D01*
X123647959Y-107744243D01*
X123647958Y-107744246D01*
X123642366Y-107751816D01*
X123597481Y-107879631D01*
X123594500Y-107911166D01*
X123594500Y-109218834D01*
X112720500Y-109218834D01*
X112720500Y-108947885D01*
X113132000Y-108947885D01*
X113136475Y-108963124D01*
X113137865Y-108964329D01*
X113145548Y-108966000D01*
X114357885Y-108966000D01*
X114373124Y-108961525D01*
X114374329Y-108960135D01*
X114376000Y-108952452D01*
X114376000Y-108947885D01*
X114884000Y-108947885D01*
X114888475Y-108963124D01*
X114889865Y-108964329D01*
X114897548Y-108966000D01*
X116109885Y-108966000D01*
X116125124Y-108961525D01*
X116126329Y-108960135D01*
X116128000Y-108952452D01*
X116128000Y-108170143D01*
X116127788Y-108164970D01*
X116113374Y-107989650D01*
X116111691Y-107979488D01*
X116054200Y-107750604D01*
X116050879Y-107740849D01*
X115956782Y-107524443D01*
X115951904Y-107515345D01*
X115823727Y-107317213D01*
X115817437Y-107309044D01*
X115658613Y-107134499D01*
X115651080Y-107127474D01*
X115465880Y-106981213D01*
X115457293Y-106975508D01*
X115250703Y-106861464D01*
X115241291Y-106857234D01*
X115018844Y-106778461D01*
X115008873Y-106775827D01*
X114901837Y-106756761D01*
X114888540Y-106758221D01*
X114884000Y-106772778D01*
X114884000Y-108947885D01*
X114376000Y-108947885D01*
X114376000Y-106771466D01*
X114372082Y-106758122D01*
X114357806Y-106756135D01*
X114286764Y-106767006D01*
X114276737Y-106769395D01*
X114052430Y-106842709D01*
X114042921Y-106846706D01*
X113833605Y-106955669D01*
X113824880Y-106961163D01*
X113636165Y-107102854D01*
X113628458Y-107109697D01*
X113465416Y-107280310D01*
X113458933Y-107288316D01*
X113325943Y-107483274D01*
X113320857Y-107492226D01*
X113221494Y-107706285D01*
X113217940Y-107715945D01*
X113154870Y-107943369D01*
X113152943Y-107953473D01*
X113132356Y-108146102D01*
X113132000Y-108152794D01*
X113132000Y-108947885D01*
X112720500Y-108947885D01*
X112720500Y-106057631D01*
X123589443Y-106057631D01*
X123596838Y-106138890D01*
X123607106Y-106251718D01*
X123608114Y-106262797D01*
X123666280Y-106460428D01*
X123761726Y-106642998D01*
X123765586Y-106647799D01*
X123765588Y-106647802D01*
X123886950Y-106798746D01*
X123890815Y-106803553D01*
X124048630Y-106935976D01*
X124054028Y-106938944D01*
X124054033Y-106938947D01*
X124223765Y-107032257D01*
X124229162Y-107035224D01*
X124425532Y-107097516D01*
X124431649Y-107098202D01*
X124431653Y-107098203D01*
X124499038Y-107105761D01*
X124585864Y-107115500D01*
X124996841Y-107115500D01*
X125150030Y-107100480D01*
X125347251Y-107040935D01*
X125529151Y-106944218D01*
X125660905Y-106836762D01*
X125684025Y-106817906D01*
X125684028Y-106817903D01*
X125688800Y-106814011D01*
X125697452Y-106803553D01*
X125816189Y-106660025D01*
X125816191Y-106660021D01*
X125820118Y-106655275D01*
X125918103Y-106474055D01*
X125979023Y-106277254D01*
X125979922Y-106268705D01*
X125999913Y-106078498D01*
X125999913Y-106078496D01*
X126000557Y-106072369D01*
X125984493Y-105895849D01*
X125982445Y-105873342D01*
X125982444Y-105873339D01*
X125981886Y-105867203D01*
X125923720Y-105669572D01*
X125828274Y-105487002D01*
X125818404Y-105474725D01*
X125703050Y-105331254D01*
X125703050Y-105331253D01*
X125699185Y-105326447D01*
X125541370Y-105194024D01*
X125535972Y-105191056D01*
X125535967Y-105191053D01*
X125366235Y-105097743D01*
X125360838Y-105094776D01*
X125164468Y-105032484D01*
X125158351Y-105031798D01*
X125158347Y-105031797D01*
X125082126Y-105023248D01*
X125004136Y-105014500D01*
X124593159Y-105014500D01*
X124439970Y-105029520D01*
X124242749Y-105089065D01*
X124060849Y-105185782D01*
X123970902Y-105259141D01*
X123905975Y-105312094D01*
X123905972Y-105312097D01*
X123901200Y-105315989D01*
X123897273Y-105320736D01*
X123897271Y-105320738D01*
X123773811Y-105469975D01*
X123773809Y-105469979D01*
X123769882Y-105474725D01*
X123671897Y-105655945D01*
X123610977Y-105852746D01*
X123610333Y-105858871D01*
X123610333Y-105858872D01*
X123609458Y-105867203D01*
X123589443Y-106057631D01*
X112720500Y-106057631D01*
X112720500Y-97198310D01*
X112720980Y-97187328D01*
X112723303Y-97160780D01*
X112723303Y-97160778D01*
X112724264Y-97149793D01*
X112714508Y-97113385D01*
X112712130Y-97102658D01*
X112711180Y-97097269D01*
X112705588Y-97065555D01*
X112700077Y-97056010D01*
X112698885Y-97052734D01*
X112697408Y-97049566D01*
X112694554Y-97038916D01*
X112672945Y-97008056D01*
X112667039Y-96998785D01*
X112653707Y-96975694D01*
X112648194Y-96966145D01*
X112619317Y-96941915D01*
X112611215Y-96934489D01*
X109582405Y-93905679D01*
X109548379Y-93843367D01*
X109545500Y-93816584D01*
X109545500Y-90739286D01*
X109565502Y-90671165D01*
X109594796Y-90639323D01*
X109641736Y-90603305D01*
X109648282Y-90598282D01*
X109744536Y-90472841D01*
X109805044Y-90326762D01*
X109825682Y-90170000D01*
X109805044Y-90013238D01*
X109744536Y-89867159D01*
X109648282Y-89741718D01*
X109522841Y-89645464D01*
X109376762Y-89584956D01*
X109220000Y-89564318D01*
X109063238Y-89584956D01*
X108917159Y-89645464D01*
X108791718Y-89741718D01*
X108695464Y-89867159D01*
X108634956Y-90013238D01*
X108614318Y-90170000D01*
X108634956Y-90326762D01*
X108695464Y-90472841D01*
X108791718Y-90598282D01*
X108798264Y-90603305D01*
X108845204Y-90639323D01*
X108887071Y-90696661D01*
X108894500Y-90739286D01*
X108894500Y-93983890D01*
X108894020Y-93994872D01*
X108890736Y-94032407D01*
X108893590Y-94043056D01*
X108900491Y-94068810D01*
X108902870Y-94079542D01*
X108909412Y-94116645D01*
X108914923Y-94126190D01*
X108916115Y-94129466D01*
X108917592Y-94132634D01*
X108920446Y-94143284D01*
X108926770Y-94152315D01*
X108942055Y-94174144D01*
X108947961Y-94183415D01*
X108961293Y-94206506D01*
X108966806Y-94216055D01*
X108975251Y-94223141D01*
X108995682Y-94240285D01*
X109003785Y-94247711D01*
X112032595Y-97276521D01*
X112066621Y-97338833D01*
X112069500Y-97365616D01*
X112069500Y-113477984D01*
X112049498Y-113546105D01*
X112032595Y-113567079D01*
X105947079Y-119652595D01*
X105884767Y-119686621D01*
X105857984Y-119689500D01*
X97089286Y-119689500D01*
X97021165Y-119669498D01*
X96989323Y-119640204D01*
X96953305Y-119593264D01*
X96948282Y-119586718D01*
X96822841Y-119490464D01*
X96676762Y-119429956D01*
X96520000Y-119409318D01*
X96363238Y-119429956D01*
X96217159Y-119490464D01*
X96091718Y-119586718D01*
X95995464Y-119712159D01*
X95934956Y-119858238D01*
X95914318Y-120015000D01*
X94701600Y-120015000D01*
X94701600Y-119336615D01*
X94721602Y-119268494D01*
X94775258Y-119222001D01*
X94845532Y-119211897D01*
X94904304Y-119236653D01*
X94940603Y-119264506D01*
X94940606Y-119264508D01*
X94947159Y-119269536D01*
X95093238Y-119330044D01*
X95250000Y-119350682D01*
X95258188Y-119349604D01*
X95398574Y-119331122D01*
X95406762Y-119330044D01*
X95552841Y-119269536D01*
X95678282Y-119173282D01*
X95719323Y-119119796D01*
X95776661Y-119077929D01*
X95819286Y-119070500D01*
X95865290Y-119070500D01*
X95876272Y-119070980D01*
X95902820Y-119073303D01*
X95902822Y-119073303D01*
X95913807Y-119074264D01*
X95950215Y-119064508D01*
X95960942Y-119062130D01*
X95964301Y-119061538D01*
X95998045Y-119055588D01*
X96007590Y-119050077D01*
X96010866Y-119048885D01*
X96014034Y-119047408D01*
X96024684Y-119044554D01*
X96055544Y-119022945D01*
X96064815Y-119017039D01*
X96087906Y-119003707D01*
X96097455Y-118998194D01*
X96121685Y-118969317D01*
X96129111Y-118961215D01*
X99911215Y-115179111D01*
X99919319Y-115171684D01*
X99939749Y-115154541D01*
X99948194Y-115147455D01*
X99953707Y-115137906D01*
X99967039Y-115114815D01*
X99972945Y-115105544D01*
X99988230Y-115083715D01*
X99994554Y-115074684D01*
X99997408Y-115064034D01*
X99998885Y-115060866D01*
X100000077Y-115057590D01*
X100005588Y-115048045D01*
X100012130Y-115010942D01*
X100014509Y-115000210D01*
X100024264Y-114963807D01*
X100022485Y-114943463D01*
X100020979Y-114926257D01*
X100020500Y-114915276D01*
X100020500Y-113217016D01*
X100040502Y-113148895D01*
X100057405Y-113127921D01*
X101965578Y-111219748D01*
X108439500Y-111219748D01*
X108451133Y-111278231D01*
X108495448Y-111344552D01*
X108561769Y-111388867D01*
X108573938Y-111391288D01*
X108573939Y-111391288D01*
X108614184Y-111399293D01*
X108620252Y-111400500D01*
X110639748Y-111400500D01*
X110645816Y-111399293D01*
X110686061Y-111391288D01*
X110686062Y-111391288D01*
X110698231Y-111388867D01*
X110764552Y-111344552D01*
X110808867Y-111278231D01*
X110820500Y-111219748D01*
X110820500Y-107220252D01*
X110812528Y-107180174D01*
X110811288Y-107173939D01*
X110811288Y-107173938D01*
X110808867Y-107161769D01*
X110764552Y-107095448D01*
X110698231Y-107051133D01*
X110686062Y-107048712D01*
X110686061Y-107048712D01*
X110645816Y-107040707D01*
X110639748Y-107039500D01*
X108620252Y-107039500D01*
X108614184Y-107040707D01*
X108573939Y-107048712D01*
X108573938Y-107048712D01*
X108561769Y-107051133D01*
X108495448Y-107095448D01*
X108451133Y-107161769D01*
X108448712Y-107173938D01*
X108448712Y-107173939D01*
X108447472Y-107180174D01*
X108439500Y-107220252D01*
X108439500Y-111219748D01*
X101965578Y-111219748D01*
X105626215Y-107559111D01*
X105634319Y-107551684D01*
X105654749Y-107534541D01*
X105663194Y-107527455D01*
X105670512Y-107514779D01*
X105682039Y-107494815D01*
X105687945Y-107485544D01*
X105709554Y-107454684D01*
X105712409Y-107444031D01*
X105713883Y-107440869D01*
X105715075Y-107437593D01*
X105720588Y-107428045D01*
X105722502Y-107417190D01*
X105722504Y-107417185D01*
X105727133Y-107390935D01*
X105729511Y-107380208D01*
X105736412Y-107354452D01*
X105736412Y-107354449D01*
X105739264Y-107343806D01*
X105735979Y-107306256D01*
X105735500Y-107295275D01*
X105735500Y-81787631D01*
X112784443Y-81787631D01*
X112789255Y-81840506D01*
X112801291Y-81972760D01*
X112803114Y-81992797D01*
X112861280Y-82190428D01*
X112864137Y-82195893D01*
X112896677Y-82258136D01*
X112956726Y-82372998D01*
X112960586Y-82377799D01*
X112960588Y-82377802D01*
X113081950Y-82528746D01*
X113085815Y-82533553D01*
X113243630Y-82665976D01*
X113249028Y-82668944D01*
X113249033Y-82668947D01*
X113375107Y-82738256D01*
X113424162Y-82765224D01*
X113620532Y-82827516D01*
X113626649Y-82828202D01*
X113626653Y-82828203D01*
X113702874Y-82836752D01*
X113780864Y-82845500D01*
X114141841Y-82845500D01*
X114295030Y-82830480D01*
X114492251Y-82770935D01*
X114674151Y-82674218D01*
X114797258Y-82573814D01*
X114829025Y-82547906D01*
X114829028Y-82547903D01*
X114833800Y-82544011D01*
X114842452Y-82533553D01*
X114961189Y-82390025D01*
X114961191Y-82390021D01*
X114965118Y-82385275D01*
X115063103Y-82204055D01*
X115124023Y-82007254D01*
X115124922Y-81998705D01*
X115144913Y-81808498D01*
X115144913Y-81808496D01*
X115145557Y-81802369D01*
X115126886Y-81597203D01*
X115068720Y-81399572D01*
X114973274Y-81217002D01*
X114965827Y-81207739D01*
X114848050Y-81061254D01*
X114848050Y-81061253D01*
X114844185Y-81056447D01*
X114686370Y-80924024D01*
X114680972Y-80921056D01*
X114680967Y-80921053D01*
X114511235Y-80827743D01*
X114505838Y-80824776D01*
X114309468Y-80762484D01*
X114303351Y-80761798D01*
X114303347Y-80761797D01*
X114227126Y-80753248D01*
X114149136Y-80744500D01*
X113788159Y-80744500D01*
X113634970Y-80759520D01*
X113437749Y-80819065D01*
X113255849Y-80915782D01*
X113165902Y-80989141D01*
X113100975Y-81042094D01*
X113100972Y-81042097D01*
X113096200Y-81045989D01*
X113092273Y-81050736D01*
X113092271Y-81050738D01*
X112968811Y-81199975D01*
X112968809Y-81199979D01*
X112964882Y-81204725D01*
X112866897Y-81385945D01*
X112805977Y-81582746D01*
X112805333Y-81588871D01*
X112805333Y-81588872D01*
X112787015Y-81763163D01*
X112784443Y-81787631D01*
X105735500Y-81787631D01*
X105735500Y-79944286D01*
X105755502Y-79876165D01*
X105784796Y-79844323D01*
X105831736Y-79808305D01*
X105838282Y-79803282D01*
X105934536Y-79677841D01*
X105995044Y-79531762D01*
X106015682Y-79375000D01*
X106004180Y-79287631D01*
X112784443Y-79287631D01*
X112803114Y-79492797D01*
X112861280Y-79690428D01*
X112956726Y-79872998D01*
X112960586Y-79877799D01*
X112960588Y-79877802D01*
X113025408Y-79958422D01*
X113085815Y-80033553D01*
X113243630Y-80165976D01*
X113249028Y-80168944D01*
X113249033Y-80168947D01*
X113335831Y-80216664D01*
X113424162Y-80265224D01*
X113620532Y-80327516D01*
X113626649Y-80328202D01*
X113626653Y-80328203D01*
X113702874Y-80336752D01*
X113780864Y-80345500D01*
X114141841Y-80345500D01*
X114295030Y-80330480D01*
X114386160Y-80302966D01*
X123153257Y-80302966D01*
X123183565Y-80437446D01*
X123186645Y-80447275D01*
X123266770Y-80644603D01*
X123271413Y-80653794D01*
X123382694Y-80835388D01*
X123388777Y-80843699D01*
X123528213Y-81004667D01*
X123535580Y-81011883D01*
X123699434Y-81147916D01*
X123707881Y-81153831D01*
X123891756Y-81261279D01*
X123901042Y-81265729D01*
X124100001Y-81341703D01*
X124109899Y-81344579D01*
X124213250Y-81365606D01*
X124227299Y-81364410D01*
X124231000Y-81354065D01*
X124231000Y-81353517D01*
X124739000Y-81353517D01*
X124743064Y-81367359D01*
X124756478Y-81369393D01*
X124763184Y-81368534D01*
X124773262Y-81366392D01*
X124977255Y-81305191D01*
X124986842Y-81301433D01*
X125178095Y-81207739D01*
X125186945Y-81202464D01*
X125360328Y-81078792D01*
X125368200Y-81072139D01*
X125519052Y-80921812D01*
X125525730Y-80913965D01*
X125650003Y-80741020D01*
X125655313Y-80732183D01*
X125749670Y-80541267D01*
X125753469Y-80531672D01*
X125815377Y-80327910D01*
X125817555Y-80317837D01*
X125818986Y-80306962D01*
X125816775Y-80292778D01*
X125803617Y-80289000D01*
X124757115Y-80289000D01*
X124741876Y-80293475D01*
X124740671Y-80294865D01*
X124739000Y-80302548D01*
X124739000Y-81353517D01*
X124231000Y-81353517D01*
X124231000Y-80307115D01*
X124226525Y-80291876D01*
X124225135Y-80290671D01*
X124217452Y-80289000D01*
X123168225Y-80289000D01*
X123154694Y-80292973D01*
X123153257Y-80302966D01*
X114386160Y-80302966D01*
X114492251Y-80270935D01*
X114674151Y-80174218D01*
X114764098Y-80100859D01*
X114829025Y-80047906D01*
X114829028Y-80047903D01*
X114833800Y-80044011D01*
X114842452Y-80033553D01*
X114961189Y-79890025D01*
X114961191Y-79890021D01*
X114965118Y-79885275D01*
X115027889Y-79769183D01*
X123149389Y-79769183D01*
X123150912Y-79777607D01*
X123163292Y-79781000D01*
X125803344Y-79781000D01*
X125816875Y-79777027D01*
X125818180Y-79767947D01*
X125776214Y-79600875D01*
X125772894Y-79591124D01*
X125687972Y-79395814D01*
X125683105Y-79386739D01*
X125567426Y-79207926D01*
X125561136Y-79199757D01*
X125417806Y-79042240D01*
X125410273Y-79035215D01*
X125243139Y-78903222D01*
X125234552Y-78897517D01*
X125048117Y-78794599D01*
X125038705Y-78790369D01*
X124847031Y-78722493D01*
X124789495Y-78680899D01*
X124763579Y-78614801D01*
X124777513Y-78545185D01*
X124826872Y-78494154D01*
X124855206Y-78482362D01*
X124860790Y-78480803D01*
X124860799Y-78480800D01*
X124866725Y-78479145D01*
X124872214Y-78476372D01*
X124872220Y-78476370D01*
X125004952Y-78409322D01*
X125050610Y-78386258D01*
X125073299Y-78368532D01*
X125166415Y-78295782D01*
X125212951Y-78259424D01*
X125257561Y-78207743D01*
X125343540Y-78108134D01*
X125343540Y-78108133D01*
X125347564Y-78103472D01*
X125368387Y-78066818D01*
X125386056Y-78035714D01*
X125449323Y-77924344D01*
X125514351Y-77728863D01*
X125540171Y-77524474D01*
X125540583Y-77495000D01*
X125520480Y-77289970D01*
X125460935Y-77092749D01*
X125364218Y-76910849D01*
X125258725Y-76781502D01*
X125237906Y-76755975D01*
X125237903Y-76755972D01*
X125234011Y-76751200D01*
X125180045Y-76706555D01*
X125080025Y-76623811D01*
X125080021Y-76623809D01*
X125075275Y-76619882D01*
X124894055Y-76521897D01*
X124697254Y-76460977D01*
X124691129Y-76460333D01*
X124691128Y-76460333D01*
X124498498Y-76440087D01*
X124498496Y-76440087D01*
X124492369Y-76439443D01*
X124405529Y-76447346D01*
X124293342Y-76457555D01*
X124293339Y-76457556D01*
X124287203Y-76458114D01*
X124089572Y-76516280D01*
X124084107Y-76519137D01*
X124044604Y-76539789D01*
X123907002Y-76611726D01*
X123902201Y-76615586D01*
X123902198Y-76615588D01*
X123811516Y-76688498D01*
X123746447Y-76740815D01*
X123614024Y-76898630D01*
X123611056Y-76904028D01*
X123611053Y-76904033D01*
X123525685Y-77059319D01*
X123514776Y-77079162D01*
X123452484Y-77275532D01*
X123451798Y-77281649D01*
X123451797Y-77281653D01*
X123431970Y-77458422D01*
X123429520Y-77480262D01*
X123430036Y-77486406D01*
X123445365Y-77668947D01*
X123446759Y-77685553D01*
X123448458Y-77691478D01*
X123492537Y-77845199D01*
X123503544Y-77883586D01*
X123506359Y-77889063D01*
X123506360Y-77889066D01*
X123527247Y-77929707D01*
X123597712Y-78066818D01*
X123725677Y-78228270D01*
X123730370Y-78232264D01*
X123730371Y-78232265D01*
X123842558Y-78327743D01*
X123882564Y-78361791D01*
X123887942Y-78364797D01*
X123887944Y-78364798D01*
X123903613Y-78373555D01*
X124062398Y-78462297D01*
X124127437Y-78483429D01*
X124186042Y-78523502D01*
X124213680Y-78588898D01*
X124201574Y-78658855D01*
X124153568Y-78711162D01*
X124127646Y-78723027D01*
X123961868Y-78777212D01*
X123952359Y-78781209D01*
X123763463Y-78879542D01*
X123754738Y-78885036D01*
X123584433Y-79012905D01*
X123576726Y-79019748D01*
X123429590Y-79173717D01*
X123423104Y-79181727D01*
X123303098Y-79357649D01*
X123298000Y-79366623D01*
X123208338Y-79559783D01*
X123204775Y-79569470D01*
X123149389Y-79769183D01*
X115027889Y-79769183D01*
X115063103Y-79704055D01*
X115124023Y-79507254D01*
X115124922Y-79498705D01*
X115144913Y-79308498D01*
X115144913Y-79308496D01*
X115145557Y-79302369D01*
X115135194Y-79188498D01*
X115127445Y-79103342D01*
X115127444Y-79103339D01*
X115126886Y-79097203D01*
X115068720Y-78899572D01*
X115058249Y-78879542D01*
X114976131Y-78722467D01*
X114973274Y-78717002D01*
X114963404Y-78704725D01*
X114848050Y-78561254D01*
X114848050Y-78561253D01*
X114844185Y-78556447D01*
X114686370Y-78424024D01*
X114680972Y-78421056D01*
X114680967Y-78421053D01*
X114511235Y-78327743D01*
X114505838Y-78324776D01*
X114309468Y-78262484D01*
X114303351Y-78261798D01*
X114303347Y-78261797D01*
X114227126Y-78253248D01*
X114149136Y-78244500D01*
X113788159Y-78244500D01*
X113634970Y-78259520D01*
X113437749Y-78319065D01*
X113255849Y-78415782D01*
X113191890Y-78467946D01*
X113100975Y-78542094D01*
X113100972Y-78542097D01*
X113096200Y-78545989D01*
X113092273Y-78550736D01*
X113092271Y-78550738D01*
X112968811Y-78699975D01*
X112968809Y-78699979D01*
X112964882Y-78704725D01*
X112923527Y-78781209D01*
X112877852Y-78865685D01*
X112866897Y-78885945D01*
X112805977Y-79082746D01*
X112805333Y-79088871D01*
X112805333Y-79088872D01*
X112804458Y-79097203D01*
X112784443Y-79287631D01*
X106004180Y-79287631D01*
X105995044Y-79218238D01*
X105934536Y-79072159D01*
X105838282Y-78946718D01*
X105712841Y-78850464D01*
X105566762Y-78789956D01*
X105410000Y-78769318D01*
X105253238Y-78789956D01*
X105107159Y-78850464D01*
X104981718Y-78946718D01*
X104885464Y-79072159D01*
X104824956Y-79218238D01*
X104804318Y-79375000D01*
X104824956Y-79531762D01*
X104885464Y-79677841D01*
X104981718Y-79803282D01*
X104988264Y-79808305D01*
X105035204Y-79844323D01*
X105077071Y-79901661D01*
X105084500Y-79944286D01*
X105084500Y-107127984D01*
X105064498Y-107196105D01*
X105047595Y-107217079D01*
X99478785Y-112785889D01*
X99470681Y-112793316D01*
X99441806Y-112817545D01*
X99436293Y-112827094D01*
X99422961Y-112850185D01*
X99417055Y-112859456D01*
X99395446Y-112890316D01*
X99392592Y-112900966D01*
X99391115Y-112904134D01*
X99389923Y-112907410D01*
X99384412Y-112916955D01*
X99378462Y-112950699D01*
X99377870Y-112954058D01*
X99375492Y-112964785D01*
X99365736Y-113001193D01*
X99366697Y-113012178D01*
X99366697Y-113012180D01*
X99369020Y-113038728D01*
X99369500Y-113049710D01*
X99369500Y-114747984D01*
X99349498Y-114816105D01*
X99332595Y-114837079D01*
X95853952Y-118315722D01*
X95791640Y-118349748D01*
X95720825Y-118344683D01*
X95679225Y-118317947D01*
X95678282Y-118316718D01*
X95671732Y-118311692D01*
X95671730Y-118311690D01*
X95559392Y-118225491D01*
X95552841Y-118220464D01*
X95406762Y-118159956D01*
X95250000Y-118139318D01*
X95093238Y-118159956D01*
X94947159Y-118220464D01*
X94940608Y-118225491D01*
X94940603Y-118225494D01*
X94904304Y-118253347D01*
X94838084Y-118278948D01*
X94768535Y-118264683D01*
X94717739Y-118215082D01*
X94701600Y-118153385D01*
X94701600Y-111008662D01*
X95159720Y-111008662D01*
X95176959Y-111213953D01*
X95178658Y-111219878D01*
X95227115Y-111388867D01*
X95233744Y-111411986D01*
X95236559Y-111417463D01*
X95236560Y-111417466D01*
X95325097Y-111589741D01*
X95327912Y-111595218D01*
X95455877Y-111756670D01*
X95612764Y-111890191D01*
X95792598Y-111990697D01*
X95876480Y-112017952D01*
X95982671Y-112052456D01*
X95982675Y-112052457D01*
X95988529Y-112054359D01*
X96193094Y-112078751D01*
X96199229Y-112078279D01*
X96199231Y-112078279D01*
X96271825Y-112072693D01*
X96398500Y-112062946D01*
X96404430Y-112061290D01*
X96404432Y-112061290D01*
X96590997Y-112009200D01*
X96590996Y-112009200D01*
X96596925Y-112007545D01*
X96602414Y-112004772D01*
X96602420Y-112004770D01*
X96775316Y-111917433D01*
X96780810Y-111914658D01*
X96943151Y-111787824D01*
X97034601Y-111681878D01*
X97073740Y-111636534D01*
X97073740Y-111636533D01*
X97077764Y-111631872D01*
X97098587Y-111595218D01*
X97176476Y-111458107D01*
X97179523Y-111452744D01*
X97244551Y-111257263D01*
X97270371Y-111052874D01*
X97270783Y-111023400D01*
X97250680Y-110818370D01*
X97191135Y-110621149D01*
X97094418Y-110439249D01*
X97021059Y-110349302D01*
X96968106Y-110284375D01*
X96968103Y-110284372D01*
X96964211Y-110279600D01*
X96896137Y-110223284D01*
X96810225Y-110152211D01*
X96810221Y-110152209D01*
X96805475Y-110148282D01*
X96624255Y-110050297D01*
X96427454Y-109989377D01*
X96421329Y-109988733D01*
X96421328Y-109988733D01*
X96228698Y-109968487D01*
X96228696Y-109968487D01*
X96222569Y-109967843D01*
X96135729Y-109975746D01*
X96023542Y-109985955D01*
X96023539Y-109985956D01*
X96017403Y-109986514D01*
X95819772Y-110044680D01*
X95637202Y-110140126D01*
X95632401Y-110143986D01*
X95632398Y-110143988D01*
X95541591Y-110216999D01*
X95476647Y-110269215D01*
X95344224Y-110427030D01*
X95341256Y-110432428D01*
X95341253Y-110432433D01*
X95247943Y-110602165D01*
X95244976Y-110607562D01*
X95182684Y-110803932D01*
X95181998Y-110810049D01*
X95181997Y-110810053D01*
X95160407Y-111002537D01*
X95159720Y-111008662D01*
X94701600Y-111008662D01*
X94701600Y-95759100D01*
X101120218Y-95759100D01*
X101140856Y-95915862D01*
X101201364Y-96061941D01*
X101297618Y-96187382D01*
X101423059Y-96283636D01*
X101569138Y-96344144D01*
X101725900Y-96364782D01*
X101792742Y-96355982D01*
X101862889Y-96366921D01*
X101898283Y-96391809D01*
X102777596Y-97271123D01*
X102811621Y-97333435D01*
X102814500Y-97360218D01*
X102814500Y-99675290D01*
X102814020Y-99686272D01*
X102810736Y-99723807D01*
X102813590Y-99734456D01*
X102820491Y-99760210D01*
X102822870Y-99770942D01*
X102829412Y-99808045D01*
X102834923Y-99817590D01*
X102836115Y-99820866D01*
X102837592Y-99824034D01*
X102840446Y-99834684D01*
X102846770Y-99843715D01*
X102862055Y-99865544D01*
X102867961Y-99874815D01*
X102881293Y-99897906D01*
X102886806Y-99907455D01*
X102895251Y-99914541D01*
X102915682Y-99931685D01*
X102923785Y-99939111D01*
X103507291Y-100522617D01*
X103541317Y-100584929D01*
X103543118Y-100628157D01*
X103534318Y-100695000D01*
X103554956Y-100851762D01*
X103615464Y-100997841D01*
X103711718Y-101123282D01*
X103837159Y-101219536D01*
X103983238Y-101280044D01*
X104140000Y-101300682D01*
X104148188Y-101299604D01*
X104288574Y-101281122D01*
X104296762Y-101280044D01*
X104442841Y-101219536D01*
X104568282Y-101123282D01*
X104664536Y-100997841D01*
X104725044Y-100851762D01*
X104745682Y-100695000D01*
X104725044Y-100538238D01*
X104664536Y-100392159D01*
X104568282Y-100266718D01*
X104442841Y-100170464D01*
X104296762Y-100109956D01*
X104140000Y-100089318D01*
X104073157Y-100098118D01*
X104003010Y-100087179D01*
X103967617Y-100062291D01*
X103502405Y-99597079D01*
X103468379Y-99534767D01*
X103465500Y-99507984D01*
X103465500Y-97192898D01*
X103465980Y-97181916D01*
X103468302Y-97155380D01*
X103468302Y-97155378D01*
X103469263Y-97144393D01*
X103459512Y-97108003D01*
X103457132Y-97097269D01*
X103452502Y-97071012D01*
X103450588Y-97060155D01*
X103445076Y-97050607D01*
X103443883Y-97047330D01*
X103442406Y-97044162D01*
X103439553Y-97033516D01*
X103417942Y-97002652D01*
X103412038Y-96993384D01*
X103398704Y-96970289D01*
X103393194Y-96960745D01*
X103370754Y-96941915D01*
X103364324Y-96936520D01*
X103356221Y-96929094D01*
X102865315Y-96438188D01*
X102358609Y-95931483D01*
X102324584Y-95869171D01*
X102322782Y-95825942D01*
X102330504Y-95767288D01*
X102331582Y-95759100D01*
X102310944Y-95602338D01*
X102250436Y-95456259D01*
X102154182Y-95330818D01*
X102028741Y-95234564D01*
X101882662Y-95174056D01*
X101725900Y-95153418D01*
X101569138Y-95174056D01*
X101423059Y-95234564D01*
X101297618Y-95330818D01*
X101201364Y-95456259D01*
X101140856Y-95602338D01*
X101120218Y-95759100D01*
X94701600Y-95759100D01*
X94701600Y-86379713D01*
X94702079Y-86368732D01*
X94704403Y-86342170D01*
X94704403Y-86342168D01*
X94705363Y-86331193D01*
X94695608Y-86294783D01*
X94693233Y-86284072D01*
X94688601Y-86257806D01*
X94686688Y-86246955D01*
X94681178Y-86237411D01*
X94679986Y-86234135D01*
X94678507Y-86230964D01*
X94675654Y-86220316D01*
X94654040Y-86189448D01*
X94648136Y-86180179D01*
X94634807Y-86157092D01*
X94634804Y-86157088D01*
X94629294Y-86147545D01*
X94600424Y-86123320D01*
X94592321Y-86115894D01*
X93350210Y-84873784D01*
X93342783Y-84865680D01*
X93325641Y-84845251D01*
X93325642Y-84845251D01*
X93318555Y-84836806D01*
X93309006Y-84831293D01*
X93285915Y-84817961D01*
X93276644Y-84812055D01*
X93254815Y-84796770D01*
X93245784Y-84790446D01*
X93235134Y-84787592D01*
X93231966Y-84786115D01*
X93228690Y-84784923D01*
X93219145Y-84779412D01*
X93185401Y-84773462D01*
X93182042Y-84772870D01*
X93171315Y-84770492D01*
X93134907Y-84760736D01*
X93123922Y-84761697D01*
X93123920Y-84761697D01*
X93097372Y-84764020D01*
X93086390Y-84764500D01*
X91395986Y-84764500D01*
X91327865Y-84744498D01*
X91296023Y-84715204D01*
X91260005Y-84668264D01*
X91254982Y-84661718D01*
X91129541Y-84565464D01*
X90983462Y-84504956D01*
X90826700Y-84484318D01*
X90669938Y-84504956D01*
X90523859Y-84565464D01*
X90398418Y-84661718D01*
X90302164Y-84787159D01*
X90241656Y-84933238D01*
X90221018Y-85090000D01*
X85550326Y-85090000D01*
X81642405Y-81182079D01*
X81608379Y-81119767D01*
X81605500Y-81092984D01*
X81605500Y-71675000D01*
X81864318Y-71675000D01*
X81884956Y-71831762D01*
X81945464Y-71977841D01*
X82041718Y-72103282D01*
X82167159Y-72199536D01*
X82313238Y-72260044D01*
X82321426Y-72261122D01*
X82389052Y-72270025D01*
X82470000Y-72280682D01*
X82536843Y-72271882D01*
X82606990Y-72282821D01*
X82642383Y-72307709D01*
X87385889Y-77051215D01*
X87393316Y-77059319D01*
X87417545Y-77088194D01*
X87427094Y-77093707D01*
X87450185Y-77107039D01*
X87459456Y-77112945D01*
X87490316Y-77134554D01*
X87500966Y-77137408D01*
X87504134Y-77138885D01*
X87507410Y-77140077D01*
X87516955Y-77145588D01*
X87550699Y-77151538D01*
X87554058Y-77152130D01*
X87564785Y-77154508D01*
X87601193Y-77164264D01*
X87612178Y-77163303D01*
X87612180Y-77163303D01*
X87638728Y-77160980D01*
X87649710Y-77160500D01*
X99125714Y-77160500D01*
X99193835Y-77180502D01*
X99225677Y-77209796D01*
X99266718Y-77263282D01*
X99273264Y-77268305D01*
X99290660Y-77281653D01*
X99392159Y-77359536D01*
X99538238Y-77420044D01*
X99546426Y-77421122D01*
X99597956Y-77427906D01*
X99695000Y-77440682D01*
X99703188Y-77439604D01*
X99843574Y-77421122D01*
X99851762Y-77420044D01*
X99997841Y-77359536D01*
X100099340Y-77281653D01*
X100116736Y-77268305D01*
X100123282Y-77263282D01*
X100219536Y-77137841D01*
X100274204Y-77005862D01*
X100276884Y-76999391D01*
X100280044Y-76991762D01*
X100300682Y-76835000D01*
X100280044Y-76678238D01*
X100219536Y-76532159D01*
X100123282Y-76406718D01*
X99997841Y-76310464D01*
X99992550Y-76308272D01*
X99944364Y-76257738D01*
X99930926Y-76188025D01*
X99957312Y-76122114D01*
X99992224Y-76091863D01*
X99997841Y-76089536D01*
X100123282Y-75993282D01*
X100219536Y-75867841D01*
X100280044Y-75721762D01*
X100300682Y-75565000D01*
X100280044Y-75408238D01*
X100219536Y-75262159D01*
X100123282Y-75136718D01*
X100107404Y-75124534D01*
X100087082Y-75108941D01*
X99997841Y-75040464D01*
X99851762Y-74979956D01*
X99695000Y-74959318D01*
X99538238Y-74979956D01*
X99392159Y-75040464D01*
X99302918Y-75108941D01*
X99282597Y-75124534D01*
X99266718Y-75136718D01*
X99261695Y-75143264D01*
X99225677Y-75190204D01*
X99168339Y-75232071D01*
X99125714Y-75239500D01*
X87817016Y-75239500D01*
X87748895Y-75219498D01*
X87727921Y-75202595D01*
X84915326Y-72390000D01*
X87024318Y-72390000D01*
X87044956Y-72546762D01*
X87105464Y-72692841D01*
X87201718Y-72818282D01*
X87327159Y-72914536D01*
X87473238Y-72975044D01*
X87630000Y-72995682D01*
X87638188Y-72994604D01*
X87660657Y-72991646D01*
X87786762Y-72975044D01*
X87932841Y-72914536D01*
X88058282Y-72818282D01*
X88099323Y-72764796D01*
X88156661Y-72722929D01*
X88199286Y-72715500D01*
X100142984Y-72715500D01*
X100211105Y-72735502D01*
X100232079Y-72752405D01*
X104142291Y-76662618D01*
X104176317Y-76724930D01*
X104178118Y-76768158D01*
X104169318Y-76835000D01*
X104189956Y-76991762D01*
X104193116Y-76999391D01*
X104195796Y-77005862D01*
X104250464Y-77137841D01*
X104346718Y-77263282D01*
X104353264Y-77268305D01*
X104370660Y-77281653D01*
X104472159Y-77359536D01*
X104618238Y-77420044D01*
X104626426Y-77421122D01*
X104677956Y-77427906D01*
X104775000Y-77440682D01*
X104783188Y-77439604D01*
X104923574Y-77421122D01*
X104931762Y-77420044D01*
X105077841Y-77359536D01*
X105179340Y-77281653D01*
X105196736Y-77268305D01*
X105203282Y-77263282D01*
X105299536Y-77137841D01*
X105354204Y-77005862D01*
X105356884Y-76999391D01*
X105360044Y-76991762D01*
X105380682Y-76835000D01*
X105374446Y-76787631D01*
X112784443Y-76787631D01*
X112785784Y-76802369D01*
X112802275Y-76983574D01*
X112803114Y-76992797D01*
X112861280Y-77190428D01*
X112956726Y-77372998D01*
X112960586Y-77377799D01*
X112960588Y-77377802D01*
X113042968Y-77480262D01*
X113085815Y-77533553D01*
X113243630Y-77665976D01*
X113249028Y-77668944D01*
X113249033Y-77668947D01*
X113351904Y-77725500D01*
X113424162Y-77765224D01*
X113620532Y-77827516D01*
X113626649Y-77828202D01*
X113626653Y-77828203D01*
X113702874Y-77836752D01*
X113780864Y-77845500D01*
X114141841Y-77845500D01*
X114295030Y-77830480D01*
X114492251Y-77770935D01*
X114674151Y-77674218D01*
X114772959Y-77593632D01*
X114829025Y-77547906D01*
X114829028Y-77547903D01*
X114833800Y-77544011D01*
X114842452Y-77533553D01*
X114961189Y-77390025D01*
X114961191Y-77390021D01*
X114965118Y-77385275D01*
X115063103Y-77204055D01*
X115124023Y-77007254D01*
X115124667Y-77001128D01*
X115144913Y-76808498D01*
X115144913Y-76808496D01*
X115145557Y-76802369D01*
X115135006Y-76686426D01*
X115127445Y-76603342D01*
X115127444Y-76603339D01*
X115126886Y-76597203D01*
X115068720Y-76399572D01*
X114973274Y-76217002D01*
X114969233Y-76211975D01*
X114848050Y-76061254D01*
X114848050Y-76061253D01*
X114844185Y-76056447D01*
X114686370Y-75924024D01*
X114680972Y-75921056D01*
X114680967Y-75921053D01*
X114511235Y-75827743D01*
X114505838Y-75824776D01*
X114309468Y-75762484D01*
X114303351Y-75761798D01*
X114303347Y-75761797D01*
X114227126Y-75753248D01*
X114149136Y-75744500D01*
X113788159Y-75744500D01*
X113634970Y-75759520D01*
X113437749Y-75819065D01*
X113255849Y-75915782D01*
X113172137Y-75984056D01*
X113100975Y-76042094D01*
X113100972Y-76042097D01*
X113096200Y-76045989D01*
X113092273Y-76050736D01*
X113092271Y-76050738D01*
X112968811Y-76199975D01*
X112968809Y-76199979D01*
X112964882Y-76204725D01*
X112866897Y-76385945D01*
X112805977Y-76582746D01*
X112805333Y-76588871D01*
X112805333Y-76588872D01*
X112788224Y-76751660D01*
X112784443Y-76787631D01*
X105374446Y-76787631D01*
X105360044Y-76678238D01*
X105299536Y-76532159D01*
X105203282Y-76406718D01*
X105077841Y-76310464D01*
X105072550Y-76308272D01*
X105024364Y-76257738D01*
X105010926Y-76188025D01*
X105037312Y-76122114D01*
X105072224Y-76091863D01*
X105077841Y-76089536D01*
X105203282Y-75993282D01*
X105299536Y-75867841D01*
X105360044Y-75721762D01*
X105380682Y-75565000D01*
X105360044Y-75408238D01*
X105299536Y-75262159D01*
X105203282Y-75136718D01*
X105187404Y-75124534D01*
X105167082Y-75108941D01*
X105077841Y-75040464D01*
X104931762Y-74979956D01*
X104775000Y-74959318D01*
X104708159Y-74968118D01*
X104638011Y-74957179D01*
X104602618Y-74932291D01*
X103957958Y-74287631D01*
X112784443Y-74287631D01*
X112803114Y-74492797D01*
X112861280Y-74690428D01*
X112864137Y-74695893D01*
X112891539Y-74748307D01*
X112956726Y-74872998D01*
X112960586Y-74877799D01*
X112960588Y-74877802D01*
X113048078Y-74986618D01*
X113085815Y-75033553D01*
X113243630Y-75165976D01*
X113249028Y-75168944D01*
X113249033Y-75168947D01*
X113418587Y-75262159D01*
X113424162Y-75265224D01*
X113620532Y-75327516D01*
X113626649Y-75328202D01*
X113626653Y-75328203D01*
X113702874Y-75336752D01*
X113780864Y-75345500D01*
X114141841Y-75345500D01*
X114295030Y-75330480D01*
X114492251Y-75270935D01*
X114674151Y-75174218D01*
X114764098Y-75100859D01*
X114829025Y-75047906D01*
X114829028Y-75047903D01*
X114833800Y-75044011D01*
X114842452Y-75033553D01*
X114919629Y-74940262D01*
X123429520Y-74940262D01*
X123430036Y-74946406D01*
X123443916Y-75111693D01*
X123446759Y-75145553D01*
X123448458Y-75151478D01*
X123488752Y-75291999D01*
X123503544Y-75343586D01*
X123506359Y-75349063D01*
X123506360Y-75349066D01*
X123594897Y-75521341D01*
X123597712Y-75526818D01*
X123725677Y-75688270D01*
X123730370Y-75692264D01*
X123730371Y-75692265D01*
X123818071Y-75766903D01*
X123882564Y-75821791D01*
X123887942Y-75824797D01*
X123887944Y-75824798D01*
X123926342Y-75846258D01*
X124062398Y-75922297D01*
X124120742Y-75941254D01*
X124252471Y-75984056D01*
X124252475Y-75984057D01*
X124258329Y-75985959D01*
X124462894Y-76010351D01*
X124469029Y-76009879D01*
X124469031Y-76009879D01*
X124525039Y-76005569D01*
X124668300Y-75994546D01*
X124674230Y-75992890D01*
X124674232Y-75992890D01*
X124860797Y-75940800D01*
X124860796Y-75940800D01*
X124866725Y-75939145D01*
X124872214Y-75936372D01*
X124872220Y-75936370D01*
X125045116Y-75849033D01*
X125050610Y-75846258D01*
X125061668Y-75837619D01*
X125208101Y-75723213D01*
X125212951Y-75719424D01*
X125223402Y-75707317D01*
X125343540Y-75568134D01*
X125343540Y-75568133D01*
X125347564Y-75563472D01*
X125351348Y-75556812D01*
X125446276Y-75389707D01*
X125449323Y-75384344D01*
X125514351Y-75188863D01*
X125540171Y-74984474D01*
X125540583Y-74955000D01*
X125520480Y-74749970D01*
X125460935Y-74552749D01*
X125364218Y-74370849D01*
X125271456Y-74257112D01*
X125237906Y-74215975D01*
X125237903Y-74215972D01*
X125234011Y-74211200D01*
X125206569Y-74188498D01*
X125080025Y-74083811D01*
X125080021Y-74083809D01*
X125075275Y-74079882D01*
X124894055Y-73981897D01*
X124697254Y-73920977D01*
X124691129Y-73920333D01*
X124691128Y-73920333D01*
X124498498Y-73900087D01*
X124498496Y-73900087D01*
X124492369Y-73899443D01*
X124425988Y-73905484D01*
X124293342Y-73917555D01*
X124293339Y-73917556D01*
X124287203Y-73918114D01*
X124089572Y-73976280D01*
X123907002Y-74071726D01*
X123902201Y-74075586D01*
X123902198Y-74075588D01*
X123867679Y-74103342D01*
X123746447Y-74200815D01*
X123614024Y-74358630D01*
X123611056Y-74364028D01*
X123611053Y-74364033D01*
X123529082Y-74513139D01*
X123514776Y-74539162D01*
X123452484Y-74735532D01*
X123451798Y-74741649D01*
X123451797Y-74741653D01*
X123431407Y-74923435D01*
X123429520Y-74940262D01*
X114919629Y-74940262D01*
X114961189Y-74890025D01*
X114961191Y-74890021D01*
X114965118Y-74885275D01*
X115042774Y-74741653D01*
X115060173Y-74709474D01*
X115063103Y-74704055D01*
X115124023Y-74507254D01*
X115124922Y-74498705D01*
X115144913Y-74308498D01*
X115144913Y-74308496D01*
X115145557Y-74302369D01*
X115135194Y-74188498D01*
X115127445Y-74103342D01*
X115127444Y-74103339D01*
X115126886Y-74097203D01*
X115068720Y-73899572D01*
X114973274Y-73717002D01*
X114963404Y-73704725D01*
X114848050Y-73561254D01*
X114848050Y-73561253D01*
X114844185Y-73556447D01*
X114686370Y-73424024D01*
X114680972Y-73421056D01*
X114680967Y-73421053D01*
X114511235Y-73327743D01*
X114505838Y-73324776D01*
X114309468Y-73262484D01*
X114303351Y-73261798D01*
X114303347Y-73261797D01*
X114227126Y-73253248D01*
X114149136Y-73244500D01*
X113788159Y-73244500D01*
X113634970Y-73259520D01*
X113437749Y-73319065D01*
X113255849Y-73415782D01*
X113189835Y-73469622D01*
X113100975Y-73542094D01*
X113100972Y-73542097D01*
X113096200Y-73545989D01*
X113092273Y-73550736D01*
X113092271Y-73550738D01*
X112968811Y-73699975D01*
X112968809Y-73699979D01*
X112964882Y-73704725D01*
X112866897Y-73885945D01*
X112805977Y-74082746D01*
X112805333Y-74088871D01*
X112805333Y-74088872D01*
X112787651Y-74257112D01*
X112784443Y-74287631D01*
X103957958Y-74287631D01*
X101457957Y-71787631D01*
X112784443Y-71787631D01*
X112788871Y-71836290D01*
X112801059Y-71970211D01*
X112803114Y-71992797D01*
X112861280Y-72190428D01*
X112956726Y-72372998D01*
X112960586Y-72377799D01*
X112960588Y-72377802D01*
X113014194Y-72444474D01*
X113085815Y-72533553D01*
X113243630Y-72665976D01*
X113249028Y-72668944D01*
X113249033Y-72668947D01*
X113400844Y-72752405D01*
X113424162Y-72765224D01*
X113620532Y-72827516D01*
X113626649Y-72828202D01*
X113626653Y-72828203D01*
X113702874Y-72836752D01*
X113780864Y-72845500D01*
X114141841Y-72845500D01*
X114295030Y-72830480D01*
X114492251Y-72770935D01*
X114674151Y-72674218D01*
X114765873Y-72599411D01*
X114829025Y-72547906D01*
X114829028Y-72547903D01*
X114833800Y-72544011D01*
X114842452Y-72533553D01*
X114952720Y-72400262D01*
X123429520Y-72400262D01*
X123431514Y-72424011D01*
X123442006Y-72548947D01*
X123446759Y-72605553D01*
X123448458Y-72611478D01*
X123481041Y-72725107D01*
X123503544Y-72803586D01*
X123506359Y-72809063D01*
X123506360Y-72809066D01*
X123527247Y-72849707D01*
X123597712Y-72986818D01*
X123725677Y-73148270D01*
X123730370Y-73152264D01*
X123730371Y-73152265D01*
X123865071Y-73266903D01*
X123882564Y-73281791D01*
X124062398Y-73382297D01*
X124156550Y-73412889D01*
X124252471Y-73444056D01*
X124252475Y-73444057D01*
X124258329Y-73445959D01*
X124462894Y-73470351D01*
X124469029Y-73469879D01*
X124469031Y-73469879D01*
X124525039Y-73465569D01*
X124668300Y-73454546D01*
X124674230Y-73452890D01*
X124674232Y-73452890D01*
X124860797Y-73400800D01*
X124860796Y-73400800D01*
X124866725Y-73399145D01*
X124872214Y-73396372D01*
X124872220Y-73396370D01*
X125008077Y-73327743D01*
X125050610Y-73306258D01*
X125106639Y-73262484D01*
X125184110Y-73201957D01*
X125212951Y-73179424D01*
X125243229Y-73144347D01*
X125343540Y-73028134D01*
X125343540Y-73028133D01*
X125347564Y-73023472D01*
X125368387Y-72986818D01*
X125446276Y-72849707D01*
X125449323Y-72844344D01*
X125514351Y-72648863D01*
X125540171Y-72444474D01*
X125540457Y-72424011D01*
X125540534Y-72418522D01*
X125540534Y-72418518D01*
X125540583Y-72415000D01*
X125520480Y-72209970D01*
X125460935Y-72012749D01*
X125364218Y-71830849D01*
X125278446Y-71725682D01*
X125237906Y-71675975D01*
X125237903Y-71675972D01*
X125234011Y-71671200D01*
X125205600Y-71647696D01*
X125080025Y-71543811D01*
X125080021Y-71543809D01*
X125075275Y-71539882D01*
X124894055Y-71441897D01*
X124697254Y-71380977D01*
X124691129Y-71380333D01*
X124691128Y-71380333D01*
X124498498Y-71360087D01*
X124498496Y-71360087D01*
X124492369Y-71359443D01*
X124405529Y-71367346D01*
X124293342Y-71377555D01*
X124293339Y-71377556D01*
X124287203Y-71378114D01*
X124089572Y-71436280D01*
X123907002Y-71531726D01*
X123902201Y-71535586D01*
X123902198Y-71535588D01*
X123817929Y-71603342D01*
X123746447Y-71660815D01*
X123614024Y-71818630D01*
X123611056Y-71824028D01*
X123611053Y-71824033D01*
X123573062Y-71893139D01*
X123514776Y-71999162D01*
X123452484Y-72195532D01*
X123451798Y-72201649D01*
X123451797Y-72201653D01*
X123444758Y-72264408D01*
X123429520Y-72400262D01*
X114952720Y-72400262D01*
X114961189Y-72390025D01*
X114961191Y-72390021D01*
X114965118Y-72385275D01*
X115063103Y-72204055D01*
X115124023Y-72007254D01*
X115124667Y-72001128D01*
X115144913Y-71808498D01*
X115144913Y-71808496D01*
X115145557Y-71802369D01*
X115134711Y-71683188D01*
X115127445Y-71603342D01*
X115127444Y-71603339D01*
X115126886Y-71597203D01*
X115068720Y-71399572D01*
X115037249Y-71339373D01*
X115000235Y-71268574D01*
X114973274Y-71217002D01*
X114963404Y-71204725D01*
X114848050Y-71061254D01*
X114848050Y-71061253D01*
X114844185Y-71056447D01*
X114686370Y-70924024D01*
X114680972Y-70921056D01*
X114680967Y-70921053D01*
X114511235Y-70827743D01*
X114505838Y-70824776D01*
X114309468Y-70762484D01*
X114303351Y-70761798D01*
X114303347Y-70761797D01*
X114212969Y-70751660D01*
X114149136Y-70744500D01*
X113788159Y-70744500D01*
X113634970Y-70759520D01*
X113437749Y-70819065D01*
X113255849Y-70915782D01*
X113187623Y-70971426D01*
X113100975Y-71042094D01*
X113100972Y-71042097D01*
X113096200Y-71045989D01*
X113092273Y-71050736D01*
X113092271Y-71050738D01*
X112968811Y-71199975D01*
X112968809Y-71199979D01*
X112964882Y-71204725D01*
X112921807Y-71284391D01*
X112870226Y-71379789D01*
X112866897Y-71385945D01*
X112805977Y-71582746D01*
X112805333Y-71588871D01*
X112805333Y-71588872D01*
X112796059Y-71677114D01*
X112784443Y-71787631D01*
X101457957Y-71787631D01*
X100574110Y-70903784D01*
X100566683Y-70895680D01*
X100549541Y-70875251D01*
X100549542Y-70875251D01*
X100542455Y-70866806D01*
X100532052Y-70860800D01*
X100509815Y-70847961D01*
X100500544Y-70842055D01*
X100478715Y-70826770D01*
X100469684Y-70820446D01*
X100459034Y-70817592D01*
X100455866Y-70816115D01*
X100452590Y-70814923D01*
X100443045Y-70809412D01*
X100409301Y-70803462D01*
X100405942Y-70802870D01*
X100395215Y-70800492D01*
X100358807Y-70790736D01*
X100347822Y-70791697D01*
X100347820Y-70791697D01*
X100321272Y-70794020D01*
X100310290Y-70794500D01*
X88199286Y-70794500D01*
X88131165Y-70774498D01*
X88099323Y-70745204D01*
X88099012Y-70744798D01*
X88058282Y-70691718D01*
X87932841Y-70595464D01*
X87786762Y-70534956D01*
X87630000Y-70514318D01*
X87473238Y-70534956D01*
X87327159Y-70595464D01*
X87201718Y-70691718D01*
X87105464Y-70817159D01*
X87044956Y-70963238D01*
X87024318Y-71120000D01*
X87044956Y-71276762D01*
X87105464Y-71422841D01*
X87201718Y-71548282D01*
X87327159Y-71644536D01*
X87332450Y-71646728D01*
X87380636Y-71697262D01*
X87394074Y-71766975D01*
X87367688Y-71832886D01*
X87332776Y-71863137D01*
X87327159Y-71865464D01*
X87201718Y-71961718D01*
X87105464Y-72087159D01*
X87044956Y-72233238D01*
X87024318Y-72390000D01*
X84915326Y-72390000D01*
X83182709Y-70657383D01*
X83148683Y-70595071D01*
X83146882Y-70551842D01*
X83154604Y-70493188D01*
X83155682Y-70485000D01*
X83135044Y-70328238D01*
X83074536Y-70182159D01*
X82978282Y-70056718D01*
X82971133Y-70051232D01*
X82917701Y-70010233D01*
X82852841Y-69960464D01*
X82706762Y-69899956D01*
X82550000Y-69879318D01*
X82393238Y-69899956D01*
X82247159Y-69960464D01*
X82182299Y-70010233D01*
X82128868Y-70051232D01*
X82121718Y-70056718D01*
X82025464Y-70182159D01*
X81964956Y-70328238D01*
X81944318Y-70485000D01*
X81964956Y-70641762D01*
X82025464Y-70787841D01*
X82069487Y-70845213D01*
X82108212Y-70895680D01*
X82121718Y-70913282D01*
X82128264Y-70918305D01*
X82128268Y-70918309D01*
X82168935Y-70949514D01*
X82210802Y-71006852D01*
X82215024Y-71077723D01*
X82180260Y-71139625D01*
X82166717Y-71149888D01*
X82167159Y-71150464D01*
X82121523Y-71185482D01*
X82041718Y-71246718D01*
X81945464Y-71372159D01*
X81884956Y-71518238D01*
X81864318Y-71675000D01*
X81605500Y-71675000D01*
X81605500Y-69402017D01*
X81625502Y-69333896D01*
X81642405Y-69312921D01*
X82377619Y-68577708D01*
X82439931Y-68543683D01*
X82483158Y-68541882D01*
X82550000Y-68550682D01*
X82558188Y-68549604D01*
X82698574Y-68531122D01*
X82706762Y-68530044D01*
X82852841Y-68469536D01*
X82978282Y-68373282D01*
X83074536Y-68247841D01*
X83135044Y-68101762D01*
X83155682Y-67945000D01*
X106074318Y-67945000D01*
X106094956Y-68101762D01*
X106155464Y-68247841D01*
X106251718Y-68373282D01*
X106377159Y-68469536D01*
X106523238Y-68530044D01*
X106680000Y-68550682D01*
X106688188Y-68549604D01*
X106828574Y-68531122D01*
X106836762Y-68530044D01*
X106982841Y-68469536D01*
X107108282Y-68373282D01*
X107204536Y-68247841D01*
X107265044Y-68101762D01*
X107285682Y-67945000D01*
X107276882Y-67878157D01*
X107287821Y-67808010D01*
X107312709Y-67772617D01*
X110677421Y-64407905D01*
X110739733Y-64373879D01*
X110766516Y-64371000D01*
X112664483Y-64371000D01*
X112732604Y-64391002D01*
X112779097Y-64444658D01*
X112789201Y-64514932D01*
X112759707Y-64579512D01*
X112753578Y-64586095D01*
X108757383Y-68582291D01*
X108695071Y-68616317D01*
X108651843Y-68618118D01*
X108585000Y-68609318D01*
X108428238Y-68629956D01*
X108282159Y-68690464D01*
X108156718Y-68786718D01*
X108060464Y-68912159D01*
X107999956Y-69058238D01*
X107979318Y-69215000D01*
X107999956Y-69371762D01*
X108003116Y-69379391D01*
X108004396Y-69382482D01*
X108060464Y-69517841D01*
X108156718Y-69643282D01*
X108163264Y-69648305D01*
X108180660Y-69661653D01*
X108282159Y-69739536D01*
X108428238Y-69800044D01*
X108585000Y-69820682D01*
X108593188Y-69819604D01*
X108733574Y-69801122D01*
X108741762Y-69800044D01*
X108887841Y-69739536D01*
X108989340Y-69661653D01*
X109006736Y-69648305D01*
X109013282Y-69643282D01*
X109109536Y-69517841D01*
X109165604Y-69382482D01*
X109166884Y-69379391D01*
X109170044Y-69371762D01*
X109181120Y-69287631D01*
X112784443Y-69287631D01*
X112785784Y-69302369D01*
X112801290Y-69472749D01*
X112803114Y-69492797D01*
X112861280Y-69690428D01*
X112956726Y-69872998D01*
X112960586Y-69877799D01*
X112960588Y-69877802D01*
X113045841Y-69983835D01*
X113085815Y-70033553D01*
X113243630Y-70165976D01*
X113249028Y-70168944D01*
X113249033Y-70168947D01*
X113408804Y-70256781D01*
X113424162Y-70265224D01*
X113620532Y-70327516D01*
X113626649Y-70328202D01*
X113626653Y-70328203D01*
X113699450Y-70336368D01*
X113780864Y-70345500D01*
X114141841Y-70345500D01*
X114295030Y-70330480D01*
X114492251Y-70270935D01*
X114674151Y-70174218D01*
X114764098Y-70100859D01*
X114829025Y-70047906D01*
X114829028Y-70047903D01*
X114833800Y-70044011D01*
X114842452Y-70033553D01*
X114961189Y-69890025D01*
X114961191Y-69890021D01*
X114965118Y-69885275D01*
X115063103Y-69704055D01*
X115124023Y-69507254D01*
X115124922Y-69498705D01*
X115144913Y-69308498D01*
X115144913Y-69308496D01*
X115145557Y-69302369D01*
X115135984Y-69197180D01*
X115127445Y-69103342D01*
X115127444Y-69103339D01*
X115126886Y-69097203D01*
X115068720Y-68899572D01*
X115027122Y-68820002D01*
X114976131Y-68722467D01*
X114973274Y-68717002D01*
X114963404Y-68704725D01*
X114848050Y-68561254D01*
X114848050Y-68561253D01*
X114844185Y-68556447D01*
X114686370Y-68424024D01*
X114680972Y-68421056D01*
X114680967Y-68421053D01*
X114511235Y-68327743D01*
X114505838Y-68324776D01*
X114309468Y-68262484D01*
X114303351Y-68261798D01*
X114303347Y-68261797D01*
X114227126Y-68253248D01*
X114149136Y-68244500D01*
X113788159Y-68244500D01*
X113634970Y-68259520D01*
X113437749Y-68319065D01*
X113255849Y-68415782D01*
X113186066Y-68472696D01*
X113100975Y-68542094D01*
X113100972Y-68542097D01*
X113096200Y-68545989D01*
X113092273Y-68550736D01*
X113092271Y-68550738D01*
X112968811Y-68699975D01*
X112968809Y-68699979D01*
X112964882Y-68704725D01*
X112866897Y-68885945D01*
X112805977Y-69082746D01*
X112805333Y-69088871D01*
X112805333Y-69088872D01*
X112786133Y-69271556D01*
X112784443Y-69287631D01*
X109181120Y-69287631D01*
X109190682Y-69215000D01*
X109181882Y-69148157D01*
X109192821Y-69078010D01*
X109217709Y-69042617D01*
X110811493Y-67448834D01*
X112789500Y-67448834D01*
X112792481Y-67480369D01*
X112837366Y-67608184D01*
X112842958Y-67615754D01*
X112842959Y-67615757D01*
X112893953Y-67684796D01*
X112917850Y-67717150D01*
X112925421Y-67722742D01*
X113019243Y-67792041D01*
X113019246Y-67792042D01*
X113026816Y-67797634D01*
X113154631Y-67842519D01*
X113162277Y-67843242D01*
X113162278Y-67843242D01*
X113168248Y-67843806D01*
X113186166Y-67845500D01*
X114743834Y-67845500D01*
X114761752Y-67843806D01*
X114767722Y-67843242D01*
X114767723Y-67843242D01*
X114775369Y-67842519D01*
X114903184Y-67797634D01*
X114910754Y-67792042D01*
X114910757Y-67792041D01*
X115004579Y-67722742D01*
X115012150Y-67717150D01*
X115036047Y-67684796D01*
X115087041Y-67615757D01*
X115087042Y-67615754D01*
X115092634Y-67608184D01*
X115137519Y-67480369D01*
X115140500Y-67448834D01*
X115140500Y-66141166D01*
X115137519Y-66109631D01*
X115092634Y-65981816D01*
X115087042Y-65974246D01*
X115087041Y-65974243D01*
X115017742Y-65880421D01*
X115012150Y-65872850D01*
X114965380Y-65838305D01*
X114910757Y-65797959D01*
X114910754Y-65797958D01*
X114903184Y-65792366D01*
X114775369Y-65747481D01*
X114767723Y-65746758D01*
X114767722Y-65746758D01*
X114761752Y-65746194D01*
X114743834Y-65744500D01*
X113186166Y-65744500D01*
X113168248Y-65746194D01*
X113162278Y-65746758D01*
X113162277Y-65746758D01*
X113154631Y-65747481D01*
X113026816Y-65792366D01*
X113019246Y-65797958D01*
X113019243Y-65797959D01*
X112964620Y-65838305D01*
X112917850Y-65872850D01*
X112912258Y-65880421D01*
X112842959Y-65974243D01*
X112842958Y-65974246D01*
X112837366Y-65981816D01*
X112792481Y-66109631D01*
X112789500Y-66141166D01*
X112789500Y-67448834D01*
X110811493Y-67448834D01*
X111170439Y-67089888D01*
X113127922Y-65132405D01*
X113190234Y-65098379D01*
X113217017Y-65095500D01*
X116017984Y-65095500D01*
X116086105Y-65115502D01*
X116107079Y-65132405D01*
X117747595Y-66772921D01*
X117781621Y-66835233D01*
X117784500Y-66862016D01*
X117784500Y-69942112D01*
X117764498Y-70010233D01*
X117721498Y-70051232D01*
X117719987Y-70052104D01*
X117712359Y-70055264D01*
X117650482Y-70102744D01*
X117595121Y-70145224D01*
X117586918Y-70151518D01*
X117490664Y-70276959D01*
X117430156Y-70423038D01*
X117409518Y-70579800D01*
X117430156Y-70736562D01*
X117490664Y-70882641D01*
X117586918Y-71008082D01*
X117712359Y-71104336D01*
X117858438Y-71164844D01*
X118015200Y-71185482D01*
X118023388Y-71184404D01*
X118163774Y-71165922D01*
X118171962Y-71164844D01*
X118318041Y-71104336D01*
X118443482Y-71008082D01*
X118539736Y-70882641D01*
X118584885Y-70773641D01*
X118589905Y-70763327D01*
X118594112Y-70757784D01*
X118649635Y-70617547D01*
X118665401Y-70467546D01*
X118656583Y-70415409D01*
X118641680Y-70327294D01*
X118641679Y-70327291D01*
X118640248Y-70318830D01*
X118633432Y-70304344D01*
X118579686Y-70190130D01*
X118576029Y-70182358D01*
X118517642Y-70114715D01*
X118483087Y-70074682D01*
X118483085Y-70074680D01*
X118477475Y-70068181D01*
X118476325Y-70067417D01*
X118440305Y-70010302D01*
X118435500Y-69975838D01*
X118435500Y-69860262D01*
X123429520Y-69860262D01*
X123430758Y-69875000D01*
X123445365Y-70048947D01*
X123446759Y-70065553D01*
X123448458Y-70071478D01*
X123501593Y-70256781D01*
X123503544Y-70263586D01*
X123506359Y-70269063D01*
X123506360Y-70269066D01*
X123540978Y-70336426D01*
X123597712Y-70446818D01*
X123725677Y-70608270D01*
X123730370Y-70612264D01*
X123730371Y-70612265D01*
X123842558Y-70707743D01*
X123882564Y-70741791D01*
X123887942Y-70744797D01*
X123887944Y-70744798D01*
X123931308Y-70769033D01*
X124062398Y-70842297D01*
X124137829Y-70866806D01*
X124252471Y-70904056D01*
X124252475Y-70904057D01*
X124258329Y-70905959D01*
X124462894Y-70930351D01*
X124469029Y-70929879D01*
X124469031Y-70929879D01*
X124525039Y-70925569D01*
X124668300Y-70914546D01*
X124674230Y-70912890D01*
X124674232Y-70912890D01*
X124798104Y-70878304D01*
X124866725Y-70859145D01*
X124872214Y-70856372D01*
X124872220Y-70856370D01*
X125022988Y-70780211D01*
X125050610Y-70766258D01*
X125056954Y-70761302D01*
X125146017Y-70691718D01*
X125212951Y-70639424D01*
X125235375Y-70613446D01*
X125343540Y-70488134D01*
X125343540Y-70488133D01*
X125347564Y-70483472D01*
X125351348Y-70476812D01*
X125434134Y-70331081D01*
X125449323Y-70304344D01*
X125514351Y-70108863D01*
X125540171Y-69904474D01*
X125540583Y-69875000D01*
X125520480Y-69669970D01*
X125460935Y-69472749D01*
X125364218Y-69290849D01*
X125278446Y-69185682D01*
X125237906Y-69135975D01*
X125237903Y-69135972D01*
X125234011Y-69131200D01*
X125216786Y-69116950D01*
X125080025Y-69003811D01*
X125080021Y-69003809D01*
X125075275Y-68999882D01*
X124894055Y-68901897D01*
X124697254Y-68840977D01*
X124691129Y-68840333D01*
X124691128Y-68840333D01*
X124498498Y-68820087D01*
X124498496Y-68820087D01*
X124492369Y-68819443D01*
X124405529Y-68827346D01*
X124293342Y-68837555D01*
X124293339Y-68837556D01*
X124287203Y-68838114D01*
X124089572Y-68896280D01*
X124084107Y-68899137D01*
X124044604Y-68919789D01*
X123907002Y-68991726D01*
X123902201Y-68995586D01*
X123902198Y-68995588D01*
X123772946Y-69099509D01*
X123746447Y-69120815D01*
X123614024Y-69278630D01*
X123611056Y-69284028D01*
X123611053Y-69284033D01*
X123517743Y-69453765D01*
X123514776Y-69459162D01*
X123452484Y-69655532D01*
X123451798Y-69661649D01*
X123451797Y-69661653D01*
X123430207Y-69854137D01*
X123429520Y-69860262D01*
X118435500Y-69860262D01*
X118435500Y-68204748D01*
X123434500Y-68204748D01*
X123446133Y-68263231D01*
X123490448Y-68329552D01*
X123556769Y-68373867D01*
X123568938Y-68376288D01*
X123568939Y-68376288D01*
X123609184Y-68384293D01*
X123615252Y-68385500D01*
X125354748Y-68385500D01*
X125360816Y-68384293D01*
X125401061Y-68376288D01*
X125401062Y-68376288D01*
X125413231Y-68373867D01*
X125479552Y-68329552D01*
X125523867Y-68263231D01*
X125535500Y-68204748D01*
X125535500Y-66465252D01*
X125523867Y-66406769D01*
X125479552Y-66340448D01*
X125413231Y-66296133D01*
X125401062Y-66293712D01*
X125401061Y-66293712D01*
X125360816Y-66285707D01*
X125354748Y-66284500D01*
X123615252Y-66284500D01*
X123609184Y-66285707D01*
X123568939Y-66293712D01*
X123568938Y-66293712D01*
X123556769Y-66296133D01*
X123490448Y-66340448D01*
X123446133Y-66406769D01*
X123434500Y-66465252D01*
X123434500Y-68204748D01*
X118435500Y-68204748D01*
X118435500Y-66694710D01*
X118435980Y-66683728D01*
X118438303Y-66657180D01*
X118438303Y-66657178D01*
X118439264Y-66646193D01*
X118429508Y-66609785D01*
X118427130Y-66599058D01*
X118426538Y-66595699D01*
X118420588Y-66561955D01*
X118415077Y-66552410D01*
X118413885Y-66549134D01*
X118412408Y-66545966D01*
X118409554Y-66535316D01*
X118387945Y-66504456D01*
X118382039Y-66495185D01*
X118368707Y-66472094D01*
X118363194Y-66462545D01*
X118334317Y-66438315D01*
X118326215Y-66430889D01*
X116481421Y-64586095D01*
X116447395Y-64523783D01*
X116452460Y-64452968D01*
X116495007Y-64396132D01*
X116561527Y-64371321D01*
X116570516Y-64371000D01*
X116905714Y-64371000D01*
X116973835Y-64391002D01*
X117005677Y-64420296D01*
X117010269Y-64426280D01*
X117035692Y-64459412D01*
X117046718Y-64473782D01*
X117172159Y-64570036D01*
X117318238Y-64630544D01*
X117475000Y-64651182D01*
X117483188Y-64650104D01*
X117623574Y-64631622D01*
X117631762Y-64630544D01*
X117777841Y-64570036D01*
X117903282Y-64473782D01*
X117914309Y-64459412D01*
X117979940Y-64373879D01*
X117999536Y-64348341D01*
X118060044Y-64202262D01*
X118080682Y-64045500D01*
X118060044Y-63888738D01*
X117999536Y-63742659D01*
X117903282Y-63617218D01*
X117777841Y-63520964D01*
X117631762Y-63460456D01*
X117475000Y-63439818D01*
X117318238Y-63460456D01*
X117172159Y-63520964D01*
X117046718Y-63617218D01*
X117041695Y-63623764D01*
X117005677Y-63670704D01*
X116948339Y-63712571D01*
X116905714Y-63720000D01*
X110599210Y-63720000D01*
X110588228Y-63719520D01*
X110561680Y-63717197D01*
X110561678Y-63717197D01*
X110550693Y-63716236D01*
X110514285Y-63725992D01*
X110503558Y-63728370D01*
X110500199Y-63728962D01*
X110466455Y-63734912D01*
X110456910Y-63740423D01*
X110453634Y-63741615D01*
X110450466Y-63743092D01*
X110439816Y-63745946D01*
X110430785Y-63752270D01*
X110408956Y-63767555D01*
X110399685Y-63773461D01*
X110376594Y-63786793D01*
X110367045Y-63792306D01*
X110359959Y-63800751D01*
X110342815Y-63821182D01*
X110335389Y-63829285D01*
X106852383Y-67312291D01*
X106790071Y-67346317D01*
X106746843Y-67348118D01*
X106680000Y-67339318D01*
X106523238Y-67359956D01*
X106377159Y-67420464D01*
X106251718Y-67516718D01*
X106155464Y-67642159D01*
X106094956Y-67788238D01*
X106074318Y-67945000D01*
X83155682Y-67945000D01*
X83135044Y-67788238D01*
X83074536Y-67642159D01*
X82978282Y-67516718D01*
X82924796Y-67475677D01*
X82882929Y-67418339D01*
X82875500Y-67375714D01*
X82875500Y-65974286D01*
X82895502Y-65906165D01*
X82924796Y-65874323D01*
X82971736Y-65838305D01*
X82978282Y-65833282D01*
X83074536Y-65707841D01*
X83135044Y-65561762D01*
X83155682Y-65405000D01*
X83135044Y-65248238D01*
X83074536Y-65102159D01*
X82978282Y-64976718D01*
X82957960Y-64961124D01*
X82859392Y-64885491D01*
X82852841Y-64880464D01*
X82706762Y-64819956D01*
X82550000Y-64799318D01*
X82393238Y-64819956D01*
X82247159Y-64880464D01*
X82240608Y-64885491D01*
X82142041Y-64961124D01*
X82121718Y-64976718D01*
X82025464Y-65102159D01*
X81964956Y-65248238D01*
X81944318Y-65405000D01*
X81964956Y-65561762D01*
X82025464Y-65707841D01*
X82121718Y-65833282D01*
X82128264Y-65838305D01*
X82175204Y-65874323D01*
X82217071Y-65931661D01*
X82224500Y-65974286D01*
X82224500Y-67375714D01*
X82204498Y-67443835D01*
X82175204Y-67475677D01*
X82121718Y-67516718D01*
X82025464Y-67642159D01*
X81964956Y-67788238D01*
X81944318Y-67945000D01*
X81953118Y-68011841D01*
X81942179Y-68081988D01*
X81917292Y-68117381D01*
X81063779Y-68970895D01*
X81055681Y-68978316D01*
X81026806Y-69002545D01*
X81021293Y-69012094D01*
X81007961Y-69035185D01*
X81002055Y-69044456D01*
X80980446Y-69075316D01*
X80977592Y-69085966D01*
X80976115Y-69089134D01*
X80974923Y-69092410D01*
X80969412Y-69101955D01*
X80964530Y-69129644D01*
X80962870Y-69139058D01*
X80960492Y-69149785D01*
X80950736Y-69186193D01*
X80951697Y-69197178D01*
X80951697Y-69197180D01*
X80954020Y-69223728D01*
X80954500Y-69234710D01*
X80954500Y-81260290D01*
X80954020Y-81271272D01*
X80950736Y-81308807D01*
X78430500Y-81308807D01*
X78430500Y-79232516D01*
X78450502Y-79164395D01*
X78467405Y-79143421D01*
X79037867Y-78572959D01*
X79100179Y-78538933D01*
X79143407Y-78537132D01*
X79210250Y-78545932D01*
X79218438Y-78544854D01*
X79239403Y-78542094D01*
X79367012Y-78525294D01*
X79513091Y-78464786D01*
X79602332Y-78396309D01*
X79631986Y-78373555D01*
X79638532Y-78368532D01*
X79646769Y-78357798D01*
X79720812Y-78261302D01*
X79734786Y-78243091D01*
X79795294Y-78097012D01*
X79798634Y-78071646D01*
X79814854Y-77948438D01*
X79815932Y-77940250D01*
X79795294Y-77783488D01*
X79734786Y-77637409D01*
X79638532Y-77511968D01*
X79513091Y-77415714D01*
X79367012Y-77355206D01*
X79210250Y-77334568D01*
X79053488Y-77355206D01*
X78907409Y-77415714D01*
X78781968Y-77511968D01*
X78685714Y-77637409D01*
X78625206Y-77783488D01*
X78604568Y-77940250D01*
X78605646Y-77948438D01*
X78613368Y-78007092D01*
X78602429Y-78077240D01*
X78577541Y-78112633D01*
X77888785Y-78801389D01*
X77880681Y-78808816D01*
X77851806Y-78833045D01*
X77846293Y-78842594D01*
X77832961Y-78865685D01*
X77827055Y-78874956D01*
X77805446Y-78905816D01*
X77802592Y-78916466D01*
X77801115Y-78919634D01*
X77799923Y-78922910D01*
X77794412Y-78932455D01*
X77790743Y-78953264D01*
X77787870Y-78969558D01*
X77785492Y-78980285D01*
X77775736Y-79016693D01*
X77776697Y-79027678D01*
X77776697Y-79027680D01*
X77779020Y-79054228D01*
X77779500Y-79065210D01*
X77779500Y-84267983D01*
X77759498Y-84336104D01*
X77742595Y-84357078D01*
X76737079Y-85362595D01*
X76674767Y-85396620D01*
X76647984Y-85399500D01*
X76122234Y-85399500D01*
X76054113Y-85379498D01*
X76007620Y-85325842D01*
X75997516Y-85255568D01*
X76027010Y-85190988D01*
X76081033Y-85155977D01*
X76080657Y-85155063D01*
X76085563Y-85153041D01*
X76085813Y-85152879D01*
X76086082Y-85152797D01*
X76092251Y-85150935D01*
X76274151Y-85054218D01*
X76364098Y-84980859D01*
X76429025Y-84927906D01*
X76429028Y-84927903D01*
X76433800Y-84924011D01*
X76442452Y-84913553D01*
X76561189Y-84770025D01*
X76561191Y-84770021D01*
X76565118Y-84765275D01*
X76663103Y-84584055D01*
X76724023Y-84387254D01*
X76724922Y-84378705D01*
X76744913Y-84188498D01*
X76744913Y-84188496D01*
X76745557Y-84182369D01*
X76726886Y-83977203D01*
X76668720Y-83779572D01*
X76573274Y-83597002D01*
X76563404Y-83584725D01*
X76448050Y-83441254D01*
X76448050Y-83441253D01*
X76444185Y-83436447D01*
X76286370Y-83304024D01*
X76280972Y-83301056D01*
X76280967Y-83301053D01*
X76111240Y-83207746D01*
X76105838Y-83204776D01*
X76102022Y-83203566D01*
X76047866Y-83158824D01*
X76026268Y-83091193D01*
X76044663Y-83022620D01*
X76097210Y-82974879D01*
X76120579Y-82966271D01*
X76137535Y-82961870D01*
X76147575Y-82958335D01*
X76347970Y-82868063D01*
X76357256Y-82862894D01*
X76539575Y-82740150D01*
X76547870Y-82733481D01*
X76706900Y-82581772D01*
X76713941Y-82573814D01*
X76845141Y-82397475D01*
X76850745Y-82388438D01*
X76950357Y-82192516D01*
X76954357Y-82182665D01*
X77019534Y-81972760D01*
X77021817Y-81962376D01*
X77023861Y-81946957D01*
X77021665Y-81932793D01*
X77008478Y-81929000D01*
X75437000Y-81929000D01*
X75368879Y-81908998D01*
X75322386Y-81855342D01*
X75311000Y-81803000D01*
X75311000Y-81547000D01*
X75331002Y-81478879D01*
X75384658Y-81432386D01*
X75437000Y-81421000D01*
X77006192Y-81421000D01*
X77019723Y-81417027D01*
X77021248Y-81406420D01*
X76996523Y-81288579D01*
X76993463Y-81278383D01*
X76912737Y-81073971D01*
X76908006Y-81064439D01*
X76793984Y-80876538D01*
X76787720Y-80867948D01*
X76643673Y-80701948D01*
X76636042Y-80694528D01*
X76466089Y-80555174D01*
X76457322Y-80549150D01*
X76266318Y-80440424D01*
X76256654Y-80435959D01*
X76106447Y-80381436D01*
X76049239Y-80339391D01*
X76023843Y-80273092D01*
X76038323Y-80203588D01*
X76088081Y-80152945D01*
X76092235Y-80150940D01*
X76092251Y-80150935D01*
X76274151Y-80054218D01*
X76364098Y-79980859D01*
X76429025Y-79927906D01*
X76429028Y-79927903D01*
X76433800Y-79924011D01*
X76461916Y-79890025D01*
X76561189Y-79770025D01*
X76561191Y-79770021D01*
X76565118Y-79765275D01*
X76639293Y-79628091D01*
X76660173Y-79589474D01*
X76663103Y-79584055D01*
X76724023Y-79387254D01*
X76726172Y-79366812D01*
X76744913Y-79188498D01*
X76744913Y-79188496D01*
X76745557Y-79182369D01*
X76732805Y-79042240D01*
X76727445Y-78983342D01*
X76727444Y-78983339D01*
X76726886Y-78977203D01*
X76668720Y-78779572D01*
X76573274Y-78597002D01*
X76566759Y-78588898D01*
X76448050Y-78441254D01*
X76448050Y-78441253D01*
X76444185Y-78436447D01*
X76286370Y-78304024D01*
X76280972Y-78301056D01*
X76280967Y-78301053D01*
X76111235Y-78207743D01*
X76105838Y-78204776D01*
X75909468Y-78142484D01*
X75903351Y-78141798D01*
X75903347Y-78141797D01*
X75827126Y-78133248D01*
X75749136Y-78124500D01*
X75388159Y-78124500D01*
X75234970Y-78139520D01*
X75037749Y-78199065D01*
X74855849Y-78295782D01*
X74790565Y-78349027D01*
X74771536Y-78364546D01*
X74706104Y-78392100D01*
X74636163Y-78379905D01*
X74583918Y-78331832D01*
X74565900Y-78266903D01*
X74565900Y-77583140D01*
X74585902Y-77515019D01*
X74639558Y-77468526D01*
X74709832Y-77458422D01*
X74772889Y-77486617D01*
X74843630Y-77545976D01*
X74849028Y-77548944D01*
X74849033Y-77548947D01*
X75015807Y-77640631D01*
X75024162Y-77645224D01*
X75220532Y-77707516D01*
X75226649Y-77708202D01*
X75226653Y-77708203D01*
X75285604Y-77714815D01*
X75380864Y-77725500D01*
X75741841Y-77725500D01*
X75895030Y-77710480D01*
X76092251Y-77650935D01*
X76274151Y-77554218D01*
X76372340Y-77474137D01*
X76429025Y-77427906D01*
X76429028Y-77427903D01*
X76433800Y-77424011D01*
X76437729Y-77419262D01*
X76561189Y-77270025D01*
X76561191Y-77270021D01*
X76565118Y-77265275D01*
X76663103Y-77084055D01*
X76724023Y-76887254D01*
X76724667Y-76881128D01*
X76744913Y-76688498D01*
X76744913Y-76688496D01*
X76745557Y-76682369D01*
X76731220Y-76524827D01*
X76727445Y-76483342D01*
X76727444Y-76483339D01*
X76726886Y-76477203D01*
X76668720Y-76279572D01*
X76573274Y-76097002D01*
X76567272Y-76089536D01*
X76448050Y-75941254D01*
X76448050Y-75941253D01*
X76444185Y-75936447D01*
X76286370Y-75804024D01*
X76280972Y-75801056D01*
X76280967Y-75801053D01*
X76111235Y-75707743D01*
X76105838Y-75704776D01*
X75909468Y-75642484D01*
X75903351Y-75641798D01*
X75903347Y-75641797D01*
X75827126Y-75633248D01*
X75749136Y-75624500D01*
X75388159Y-75624500D01*
X75234970Y-75639520D01*
X75037749Y-75699065D01*
X74855849Y-75795782D01*
X74805263Y-75837039D01*
X74771536Y-75864546D01*
X74706104Y-75892100D01*
X74636163Y-75879905D01*
X74583918Y-75831832D01*
X74565900Y-75766903D01*
X74565900Y-75083140D01*
X74585902Y-75015019D01*
X74639558Y-74968526D01*
X74709832Y-74958422D01*
X74772889Y-74986617D01*
X74843630Y-75045976D01*
X74849028Y-75048944D01*
X74849033Y-75048947D01*
X75013588Y-75139411D01*
X75024162Y-75145224D01*
X75220532Y-75207516D01*
X75226649Y-75208202D01*
X75226653Y-75208203D01*
X75302874Y-75216752D01*
X75380864Y-75225500D01*
X75741841Y-75225500D01*
X75895030Y-75210480D01*
X76092251Y-75150935D01*
X76274151Y-75054218D01*
X76369776Y-74976228D01*
X76429025Y-74927906D01*
X76429028Y-74927903D01*
X76433800Y-74924011D01*
X76461916Y-74890025D01*
X76561189Y-74770025D01*
X76561191Y-74770021D01*
X76565118Y-74765275D01*
X76663103Y-74584055D01*
X76724023Y-74387254D01*
X76726464Y-74364033D01*
X76744913Y-74188498D01*
X76744913Y-74188496D01*
X76745557Y-74182369D01*
X76735955Y-74076861D01*
X76727445Y-73983342D01*
X76727444Y-73983339D01*
X76726886Y-73977203D01*
X76668720Y-73779572D01*
X76573274Y-73597002D01*
X76562414Y-73583494D01*
X76448050Y-73441254D01*
X76448050Y-73441253D01*
X76444185Y-73436447D01*
X76286370Y-73304024D01*
X76280972Y-73301056D01*
X76280967Y-73301053D01*
X76111235Y-73207743D01*
X76105838Y-73204776D01*
X75909468Y-73142484D01*
X75903351Y-73141798D01*
X75903347Y-73141797D01*
X75827126Y-73133248D01*
X75749136Y-73124500D01*
X75388159Y-73124500D01*
X75234970Y-73139520D01*
X75037749Y-73199065D01*
X74855849Y-73295782D01*
X74790565Y-73349027D01*
X74771536Y-73364546D01*
X74706104Y-73392100D01*
X74636163Y-73379905D01*
X74583918Y-73331832D01*
X74565900Y-73266903D01*
X74565900Y-72583140D01*
X74585902Y-72515019D01*
X74639558Y-72468526D01*
X74709832Y-72458422D01*
X74772889Y-72486617D01*
X74843630Y-72545976D01*
X74849028Y-72548944D01*
X74849033Y-72548947D01*
X74940828Y-72599411D01*
X75024162Y-72645224D01*
X75220532Y-72707516D01*
X75226649Y-72708202D01*
X75226653Y-72708203D01*
X75291711Y-72715500D01*
X75380864Y-72725500D01*
X75741841Y-72725500D01*
X75895030Y-72710480D01*
X76092251Y-72650935D01*
X76274151Y-72554218D01*
X76364098Y-72480859D01*
X76429025Y-72427906D01*
X76429028Y-72427903D01*
X76433800Y-72424011D01*
X76461916Y-72390025D01*
X76561189Y-72270025D01*
X76561191Y-72270021D01*
X76565118Y-72265275D01*
X76663103Y-72084055D01*
X76724023Y-71887254D01*
X76726313Y-71865464D01*
X76744913Y-71688498D01*
X76744913Y-71688496D01*
X76745557Y-71682369D01*
X76733392Y-71548689D01*
X76727445Y-71483342D01*
X76727444Y-71483339D01*
X76726886Y-71477203D01*
X76668720Y-71279572D01*
X76661781Y-71266298D01*
X76585297Y-71120000D01*
X76573274Y-71097002D01*
X76563839Y-71085266D01*
X76448050Y-70941254D01*
X76448050Y-70941253D01*
X76444185Y-70936447D01*
X76286370Y-70804024D01*
X76280972Y-70801056D01*
X76280967Y-70801053D01*
X76111235Y-70707743D01*
X76105838Y-70704776D01*
X75909468Y-70642484D01*
X75903351Y-70641798D01*
X75903347Y-70641797D01*
X75827126Y-70633248D01*
X75749136Y-70624500D01*
X75388159Y-70624500D01*
X75234970Y-70639520D01*
X75037749Y-70699065D01*
X74855849Y-70795782D01*
X74802503Y-70839290D01*
X74771536Y-70864546D01*
X74706104Y-70892100D01*
X74636163Y-70879905D01*
X74583918Y-70831832D01*
X74565900Y-70766903D01*
X74565900Y-70083140D01*
X74585902Y-70015019D01*
X74639558Y-69968526D01*
X74709832Y-69958422D01*
X74772889Y-69986617D01*
X74843630Y-70045976D01*
X74849028Y-70048944D01*
X74849033Y-70048947D01*
X74958021Y-70108863D01*
X75024162Y-70145224D01*
X75220532Y-70207516D01*
X75226649Y-70208202D01*
X75226653Y-70208203D01*
X75302874Y-70216752D01*
X75380864Y-70225500D01*
X75741841Y-70225500D01*
X75895030Y-70210480D01*
X76092251Y-70150935D01*
X76274151Y-70054218D01*
X76370254Y-69975838D01*
X76429025Y-69927906D01*
X76429028Y-69927903D01*
X76433800Y-69924011D01*
X76447064Y-69907978D01*
X76561189Y-69770025D01*
X76561191Y-69770021D01*
X76565118Y-69765275D01*
X76663103Y-69584055D01*
X76724023Y-69387254D01*
X76724667Y-69381128D01*
X76744913Y-69188498D01*
X76744913Y-69188496D01*
X76745557Y-69182369D01*
X76732163Y-69035185D01*
X76727445Y-68983342D01*
X76727444Y-68983339D01*
X76726886Y-68977203D01*
X76668720Y-68779572D01*
X76573274Y-68597002D01*
X76566188Y-68588188D01*
X76448050Y-68441254D01*
X76448050Y-68441253D01*
X76444185Y-68436447D01*
X76286370Y-68304024D01*
X76280972Y-68301056D01*
X76280967Y-68301053D01*
X76111235Y-68207743D01*
X76105838Y-68204776D01*
X75909468Y-68142484D01*
X75903351Y-68141798D01*
X75903347Y-68141797D01*
X75827126Y-68133248D01*
X75749136Y-68124500D01*
X75388159Y-68124500D01*
X75234970Y-68139520D01*
X75037749Y-68199065D01*
X74855849Y-68295782D01*
X74805994Y-68336443D01*
X74771536Y-68364546D01*
X74706104Y-68392100D01*
X74636163Y-68379905D01*
X74583918Y-68331832D01*
X74565900Y-68266903D01*
X74565900Y-68186616D01*
X74585902Y-68118495D01*
X74602805Y-68097521D01*
X74937921Y-67762405D01*
X75000233Y-67728379D01*
X75027016Y-67725500D01*
X76343834Y-67725500D01*
X76361752Y-67723806D01*
X76367722Y-67723242D01*
X76367723Y-67723242D01*
X76375369Y-67722519D01*
X76503184Y-67677634D01*
X76510754Y-67672042D01*
X76510757Y-67672041D01*
X76604579Y-67602742D01*
X76612150Y-67597150D01*
X76624665Y-67580206D01*
X76687041Y-67495757D01*
X76687042Y-67495754D01*
X76692634Y-67488184D01*
X76737519Y-67360369D01*
X76740500Y-67328834D01*
X76740500Y-66021166D01*
X76737519Y-65989631D01*
X76692634Y-65861816D01*
X76687042Y-65854246D01*
X76687041Y-65854243D01*
X76617742Y-65760421D01*
X76612150Y-65752850D01*
X76589097Y-65735823D01*
X76510757Y-65677959D01*
X76510754Y-65677958D01*
X76503184Y-65672366D01*
X76375369Y-65627481D01*
X76367723Y-65626758D01*
X76367722Y-65626758D01*
X76361752Y-65626194D01*
X76343834Y-65624500D01*
X74786166Y-65624500D01*
X74768248Y-65626194D01*
X74762278Y-65626758D01*
X74762277Y-65626758D01*
X74754631Y-65627481D01*
X74626816Y-65672366D01*
X74619246Y-65677958D01*
X74619243Y-65677959D01*
X74540903Y-65735823D01*
X74517850Y-65752850D01*
X74512258Y-65760421D01*
X74442959Y-65854243D01*
X74442958Y-65854246D01*
X74437366Y-65861816D01*
X74392481Y-65989631D01*
X74389500Y-66021166D01*
X74389500Y-67328834D01*
X74389767Y-67331659D01*
X74373001Y-67400625D01*
X74353007Y-67426667D01*
X74024185Y-67755489D01*
X74016081Y-67762916D01*
X73987206Y-67787145D01*
X73981693Y-67796694D01*
X73968361Y-67819785D01*
X73962455Y-67829056D01*
X73940846Y-67859916D01*
X73937992Y-67870566D01*
X73936515Y-67873734D01*
X73935323Y-67877010D01*
X73929812Y-67886555D01*
X73923862Y-67920299D01*
X73923270Y-67923658D01*
X73920892Y-67934385D01*
X73911136Y-67970793D01*
X73912097Y-67981778D01*
X73912097Y-67981780D01*
X73914420Y-68008328D01*
X73914900Y-68019310D01*
X73914900Y-82169590D01*
X73914420Y-82180572D01*
X73912881Y-82198168D01*
X73911136Y-82218107D01*
X73913990Y-82228756D01*
X73920891Y-82254510D01*
X73923270Y-82265242D01*
X73929812Y-82302345D01*
X73935323Y-82311890D01*
X73936515Y-82315166D01*
X73937992Y-82318334D01*
X73940846Y-82328984D01*
X73947170Y-82338015D01*
X73962455Y-82359844D01*
X73968361Y-82369115D01*
X73980434Y-82390025D01*
X73987206Y-82401755D01*
X73995651Y-82408841D01*
X74016082Y-82425985D01*
X74024185Y-82433411D01*
X74774158Y-83183384D01*
X74808184Y-83245696D01*
X74803119Y-83316511D01*
X74764699Y-83370122D01*
X74750263Y-83381896D01*
X74696200Y-83425989D01*
X74692273Y-83430736D01*
X74692271Y-83430738D01*
X74568811Y-83579975D01*
X74568809Y-83579979D01*
X74564882Y-83584725D01*
X74466897Y-83765945D01*
X74405977Y-83962746D01*
X74405333Y-83968871D01*
X74405333Y-83968872D01*
X74404458Y-83977203D01*
X74384443Y-84167631D01*
X74385784Y-84182369D01*
X74401684Y-84357078D01*
X74403114Y-84372797D01*
X74461280Y-84570428D01*
X74464137Y-84575893D01*
X74494944Y-84634821D01*
X74556726Y-84752998D01*
X74560586Y-84757799D01*
X74560588Y-84757802D01*
X74653840Y-84873784D01*
X74685815Y-84913553D01*
X74843630Y-85045976D01*
X74849028Y-85048944D01*
X74849033Y-85048947D01*
X75018765Y-85142257D01*
X75024162Y-85145224D01*
X75048805Y-85153041D01*
X75049930Y-85153398D01*
X75108814Y-85193061D01*
X75136907Y-85258263D01*
X75125290Y-85328303D01*
X75077650Y-85380943D01*
X75011832Y-85399500D01*
X73847016Y-85399500D01*
X73778895Y-85379498D01*
X73757921Y-85362595D01*
X69935005Y-81539679D01*
X69900979Y-81477367D01*
X69898100Y-81450584D01*
X69898100Y-80922886D01*
X69918102Y-80854765D01*
X69947396Y-80822923D01*
X69994336Y-80786905D01*
X70000882Y-80781882D01*
X70097136Y-80656441D01*
X70157644Y-80510362D01*
X70178282Y-80353600D01*
X70157644Y-80196838D01*
X70097136Y-80050759D01*
X70000882Y-79925318D01*
X69875441Y-79829064D01*
X69729362Y-79768556D01*
X69572600Y-79747918D01*
X69415838Y-79768556D01*
X69269759Y-79829064D01*
X69144318Y-79925318D01*
X69048064Y-80050759D01*
X68987556Y-80196838D01*
X68966918Y-80353600D01*
X68987556Y-80510362D01*
X69048064Y-80656441D01*
X69144318Y-80781882D01*
X69150864Y-80786905D01*
X69197804Y-80822923D01*
X69239671Y-80880261D01*
X69247100Y-80922886D01*
X69247100Y-81617890D01*
X69246620Y-81628872D01*
X69243336Y-81666407D01*
X69246190Y-81677056D01*
X69253091Y-81702810D01*
X69255470Y-81713542D01*
X69262012Y-81750645D01*
X69267523Y-81760190D01*
X69268715Y-81763466D01*
X69270192Y-81766634D01*
X69273046Y-81777284D01*
X69279370Y-81786315D01*
X69294655Y-81808144D01*
X69300561Y-81817415D01*
X69313893Y-81840506D01*
X69319406Y-81850055D01*
X69327851Y-81857141D01*
X69348282Y-81874285D01*
X69356385Y-81881711D01*
X69518793Y-82044119D01*
X69552819Y-82106431D01*
X69547754Y-82177246D01*
X69505207Y-82234082D01*
X69446144Y-82258136D01*
X69362438Y-82269156D01*
X69216359Y-82329664D01*
X69090918Y-82425918D01*
X68994664Y-82551359D01*
X68991504Y-82558989D01*
X68939685Y-82684091D01*
X68934156Y-82697438D01*
X68913518Y-82854200D01*
X42123001Y-82854200D01*
X42160674Y-82738256D01*
X42164104Y-82705626D01*
X42179770Y-82556565D01*
X42180460Y-82550000D01*
X42164879Y-82401755D01*
X42161364Y-82368307D01*
X42161364Y-82368305D01*
X42160674Y-82361744D01*
X42102179Y-82181716D01*
X42022738Y-82044119D01*
X42010836Y-82023505D01*
X42007533Y-82017784D01*
X41966993Y-81972760D01*
X41885286Y-81882015D01*
X41885284Y-81882014D01*
X41880871Y-81877112D01*
X41769545Y-81796229D01*
X41733072Y-81769730D01*
X41733071Y-81769729D01*
X41727730Y-81765849D01*
X41554803Y-81688856D01*
X41449188Y-81666407D01*
X41376103Y-81650872D01*
X41376099Y-81650872D01*
X41369646Y-81649500D01*
X41205214Y-81649500D01*
X41137093Y-81629498D01*
X41116119Y-81612595D01*
X39322405Y-79818881D01*
X39288379Y-79756569D01*
X39285500Y-79729786D01*
X39285500Y-75707317D01*
X39305502Y-75639196D01*
X39331274Y-75611907D01*
X39330624Y-75611185D01*
X39335528Y-75606770D01*
X39340871Y-75602888D01*
X39345285Y-75597985D01*
X39345288Y-75597983D01*
X39463114Y-75467124D01*
X39463115Y-75467123D01*
X39467533Y-75462216D01*
X39562179Y-75298284D01*
X39620674Y-75118256D01*
X39627101Y-75057111D01*
X39639770Y-74936565D01*
X39640460Y-74930000D01*
X39633895Y-74867533D01*
X39621364Y-74748307D01*
X39621364Y-74748305D01*
X39620674Y-74741744D01*
X39562179Y-74561716D01*
X39549158Y-74539162D01*
X39470836Y-74403505D01*
X39467533Y-74397784D01*
X39438980Y-74366073D01*
X39345286Y-74262015D01*
X39345284Y-74262014D01*
X39340871Y-74257112D01*
X39277678Y-74211200D01*
X39193072Y-74149730D01*
X39193071Y-74149729D01*
X39187730Y-74145849D01*
X39014803Y-74068856D01*
X38916788Y-74048022D01*
X38836103Y-74030872D01*
X38836099Y-74030872D01*
X38829646Y-74029500D01*
X38640354Y-74029500D01*
X38633901Y-74030872D01*
X38633897Y-74030872D01*
X38553212Y-74048022D01*
X38455197Y-74068856D01*
X38282270Y-74145849D01*
X38276929Y-74149729D01*
X38276928Y-74149730D01*
X38192322Y-74211200D01*
X38129129Y-74257112D01*
X38124716Y-74262014D01*
X38124714Y-74262015D01*
X38031020Y-74366073D01*
X38002467Y-74397784D01*
X37999164Y-74403505D01*
X37920843Y-74539162D01*
X37907821Y-74561716D01*
X37849326Y-74741744D01*
X37848636Y-74748305D01*
X37848636Y-74748307D01*
X37836105Y-74867533D01*
X37829540Y-74930000D01*
X37465000Y-74930000D01*
X37465000Y-71671534D01*
X37485002Y-71603413D01*
X37521915Y-71566162D01*
X37541525Y-71553305D01*
X37554685Y-71544677D01*
X37675040Y-71417628D01*
X37762939Y-71266298D01*
X37807248Y-71120000D01*
X66704318Y-71120000D01*
X66724956Y-71276762D01*
X66785464Y-71422841D01*
X66881718Y-71548282D01*
X67007159Y-71644536D01*
X67153238Y-71705044D01*
X67161426Y-71706122D01*
X67231619Y-71715363D01*
X67310000Y-71725682D01*
X67318188Y-71724604D01*
X67458574Y-71706122D01*
X67466762Y-71705044D01*
X67612841Y-71644536D01*
X67738282Y-71548282D01*
X67834536Y-71422841D01*
X67895044Y-71276762D01*
X67915682Y-71120000D01*
X67895044Y-70963238D01*
X67834536Y-70817159D01*
X67738282Y-70691718D01*
X67684796Y-70650677D01*
X67642929Y-70593339D01*
X67635500Y-70550714D01*
X67635500Y-69402016D01*
X67655502Y-69333895D01*
X67672405Y-69312921D01*
X67772617Y-69212709D01*
X67834929Y-69178683D01*
X67878157Y-69176882D01*
X67945000Y-69185682D01*
X67953188Y-69184604D01*
X68093574Y-69166122D01*
X68101762Y-69165044D01*
X68247841Y-69104536D01*
X68373282Y-69008282D01*
X68469536Y-68882841D01*
X68530044Y-68736762D01*
X68550682Y-68580000D01*
X68530044Y-68423238D01*
X68469536Y-68277159D01*
X68373282Y-68151718D01*
X68247841Y-68055464D01*
X68101762Y-67994956D01*
X67945000Y-67974318D01*
X67788238Y-67994956D01*
X67642159Y-68055464D01*
X67516718Y-68151718D01*
X67420464Y-68277159D01*
X67359956Y-68423238D01*
X67339318Y-68580000D01*
X67340396Y-68588188D01*
X67348118Y-68646842D01*
X67337179Y-68716990D01*
X67312291Y-68752383D01*
X67093785Y-68970889D01*
X67085681Y-68978316D01*
X67056806Y-69002545D01*
X67051293Y-69012094D01*
X67037961Y-69035185D01*
X67032055Y-69044456D01*
X67010446Y-69075316D01*
X67007592Y-69085966D01*
X67006115Y-69089134D01*
X67004923Y-69092410D01*
X66999412Y-69101955D01*
X66994530Y-69129644D01*
X66992870Y-69139058D01*
X66990492Y-69149785D01*
X66980736Y-69186193D01*
X66981697Y-69197178D01*
X66981697Y-69197180D01*
X66984020Y-69223728D01*
X66984500Y-69234710D01*
X66984500Y-70550714D01*
X66964498Y-70618835D01*
X66935204Y-70650677D01*
X66881718Y-70691718D01*
X66785464Y-70817159D01*
X66724956Y-70963238D01*
X66704318Y-71120000D01*
X37807248Y-71120000D01*
X37813667Y-71098807D01*
X37824503Y-70924138D01*
X37822571Y-70912890D01*
X37796106Y-70758875D01*
X37796105Y-70758873D01*
X37794866Y-70751660D01*
X37735553Y-70612265D01*
X37729211Y-70597360D01*
X37729211Y-70597359D01*
X37726346Y-70590627D01*
X37622617Y-70449676D01*
X37617039Y-70444937D01*
X37617036Y-70444934D01*
X37509421Y-70353509D01*
X37470456Y-70294160D01*
X37465000Y-70257484D01*
X37465000Y-67310000D01*
X66614818Y-67310000D01*
X66635456Y-67466762D01*
X66695964Y-67612841D01*
X66792218Y-67738282D01*
X66917659Y-67834536D01*
X67063738Y-67895044D01*
X67220500Y-67915682D01*
X67228688Y-67914604D01*
X67369074Y-67896122D01*
X67377262Y-67895044D01*
X67523341Y-67834536D01*
X67648782Y-67738282D01*
X67670807Y-67709579D01*
X67689823Y-67684796D01*
X67747161Y-67642929D01*
X67789786Y-67635500D01*
X68234234Y-67635500D01*
X68302355Y-67655502D01*
X68323329Y-67672405D01*
X70122595Y-69471672D01*
X70156621Y-69533984D01*
X70159500Y-69560767D01*
X70159500Y-69915714D01*
X70139498Y-69983835D01*
X70110204Y-70015677D01*
X70063868Y-70051232D01*
X70056718Y-70056718D01*
X69960464Y-70182159D01*
X69899956Y-70328238D01*
X69879318Y-70485000D01*
X69899956Y-70641762D01*
X69960464Y-70787841D01*
X70004487Y-70845213D01*
X70043212Y-70895680D01*
X70056718Y-70913282D01*
X70182159Y-71009536D01*
X70328238Y-71070044D01*
X70485000Y-71090682D01*
X70493188Y-71089604D01*
X70539599Y-71083494D01*
X70641762Y-71070044D01*
X70787841Y-71009536D01*
X70913282Y-70913282D01*
X70926789Y-70895680D01*
X70965513Y-70845213D01*
X71009536Y-70787841D01*
X71070044Y-70641762D01*
X71090682Y-70485000D01*
X71070044Y-70328238D01*
X71009536Y-70182159D01*
X70913282Y-70056718D01*
X70906133Y-70051232D01*
X70859796Y-70015677D01*
X70817929Y-69958339D01*
X70810500Y-69915714D01*
X70810500Y-69393463D01*
X70810979Y-69382482D01*
X70813303Y-69355920D01*
X70813303Y-69355918D01*
X70814263Y-69344943D01*
X70804508Y-69308533D01*
X70802133Y-69297822D01*
X70801419Y-69293771D01*
X70795588Y-69260705D01*
X70790078Y-69251161D01*
X70788886Y-69247885D01*
X70787407Y-69244714D01*
X70784554Y-69234066D01*
X70762940Y-69203198D01*
X70757036Y-69193929D01*
X70743707Y-69170842D01*
X70743704Y-69170838D01*
X70738194Y-69161295D01*
X70709324Y-69137070D01*
X70701221Y-69129644D01*
X68665360Y-67093784D01*
X68657933Y-67085680D01*
X68640791Y-67065251D01*
X68640792Y-67065251D01*
X68633705Y-67056806D01*
X68624156Y-67051293D01*
X68601065Y-67037961D01*
X68591794Y-67032055D01*
X68569965Y-67016770D01*
X68560934Y-67010446D01*
X68550284Y-67007592D01*
X68547116Y-67006115D01*
X68543840Y-67004923D01*
X68534295Y-66999412D01*
X68500551Y-66993462D01*
X68497192Y-66992870D01*
X68486465Y-66990492D01*
X68450057Y-66980736D01*
X68439072Y-66981697D01*
X68439070Y-66981697D01*
X68412522Y-66984020D01*
X68401540Y-66984500D01*
X67789786Y-66984500D01*
X67721665Y-66964498D01*
X67689823Y-66935204D01*
X67653805Y-66888264D01*
X67648782Y-66881718D01*
X67523341Y-66785464D01*
X67377262Y-66724956D01*
X67220500Y-66704318D01*
X67063738Y-66724956D01*
X66917659Y-66785464D01*
X66792218Y-66881718D01*
X66695964Y-67007159D01*
X66635456Y-67153238D01*
X66614818Y-67310000D01*
X37465000Y-67310000D01*
X37465000Y-66166000D01*
X37485002Y-66097879D01*
X37538658Y-66051386D01*
X37591000Y-66040000D01*
X44450000Y-66040000D01*
X44450000Y-65672966D01*
X56453257Y-65672966D01*
X56483565Y-65807446D01*
X56486645Y-65817275D01*
X56566770Y-66014603D01*
X56571413Y-66023794D01*
X56682694Y-66205388D01*
X56688777Y-66213699D01*
X56828213Y-66374667D01*
X56835580Y-66381883D01*
X56999434Y-66517916D01*
X57007881Y-66523831D01*
X57191756Y-66631279D01*
X57201042Y-66635729D01*
X57400001Y-66711703D01*
X57409899Y-66714579D01*
X57513250Y-66735606D01*
X57527299Y-66734410D01*
X57531000Y-66724065D01*
X57531000Y-66723517D01*
X58039000Y-66723517D01*
X58043064Y-66737359D01*
X58056478Y-66739393D01*
X58063184Y-66738534D01*
X58073262Y-66736392D01*
X58277255Y-66675191D01*
X58286842Y-66671433D01*
X58478095Y-66577739D01*
X58486945Y-66572464D01*
X58660328Y-66448792D01*
X58668200Y-66442139D01*
X58819052Y-66291812D01*
X58825730Y-66283965D01*
X58950003Y-66111020D01*
X58955313Y-66102183D01*
X59049670Y-65911267D01*
X59053469Y-65901672D01*
X59094593Y-65766319D01*
X59133534Y-65706955D01*
X59198388Y-65678068D01*
X59268564Y-65688830D01*
X59321782Y-65735823D01*
X59336270Y-65768217D01*
X59343544Y-65793586D01*
X59346359Y-65799063D01*
X59346360Y-65799066D01*
X59434897Y-65971341D01*
X59437712Y-65976818D01*
X59565677Y-66138270D01*
X59570370Y-66142264D01*
X59570371Y-66142265D01*
X59644541Y-66205388D01*
X59722564Y-66271791D01*
X59727942Y-66274797D01*
X59727944Y-66274798D01*
X59758387Y-66291812D01*
X59902398Y-66372297D01*
X59986280Y-66399552D01*
X60092471Y-66434056D01*
X60092475Y-66434057D01*
X60098329Y-66435959D01*
X60302894Y-66460351D01*
X60309029Y-66459879D01*
X60309031Y-66459879D01*
X60381625Y-66454293D01*
X60508300Y-66444546D01*
X60514230Y-66442890D01*
X60514232Y-66442890D01*
X60669451Y-66399552D01*
X60706725Y-66389145D01*
X60712214Y-66386372D01*
X60712220Y-66386370D01*
X60844952Y-66319322D01*
X60890610Y-66296258D01*
X60906345Y-66283965D01*
X61048101Y-66173213D01*
X61052951Y-66169424D01*
X61077343Y-66141166D01*
X61183540Y-66018134D01*
X61183540Y-66018133D01*
X61187564Y-66013472D01*
X61196764Y-65997278D01*
X61234039Y-65931661D01*
X61289323Y-65834344D01*
X61354351Y-65638863D01*
X61380171Y-65434474D01*
X61380583Y-65405000D01*
X61379138Y-65390262D01*
X61809520Y-65390262D01*
X61826759Y-65595553D01*
X61828458Y-65601478D01*
X61870324Y-65747481D01*
X61883544Y-65793586D01*
X61886359Y-65799063D01*
X61886360Y-65799066D01*
X61974897Y-65971341D01*
X61977712Y-65976818D01*
X62105677Y-66138270D01*
X62110370Y-66142264D01*
X62110371Y-66142265D01*
X62184541Y-66205388D01*
X62262564Y-66271791D01*
X62267942Y-66274797D01*
X62267944Y-66274798D01*
X62298387Y-66291812D01*
X62442398Y-66372297D01*
X62526280Y-66399552D01*
X62632471Y-66434056D01*
X62632475Y-66434057D01*
X62638329Y-66435959D01*
X62842894Y-66460351D01*
X62849029Y-66459879D01*
X62849031Y-66459879D01*
X62921625Y-66454293D01*
X63048300Y-66444546D01*
X63054230Y-66442890D01*
X63054232Y-66442890D01*
X63209451Y-66399552D01*
X63246725Y-66389145D01*
X63252214Y-66386372D01*
X63252220Y-66386370D01*
X63384952Y-66319322D01*
X63430610Y-66296258D01*
X63446345Y-66283965D01*
X63588101Y-66173213D01*
X63592951Y-66169424D01*
X63617343Y-66141166D01*
X63723540Y-66018134D01*
X63723540Y-66018133D01*
X63727564Y-66013472D01*
X63736764Y-65997278D01*
X63774039Y-65931661D01*
X63829323Y-65834344D01*
X63894351Y-65638863D01*
X63920171Y-65434474D01*
X63920583Y-65405000D01*
X63919138Y-65390262D01*
X64349520Y-65390262D01*
X64366759Y-65595553D01*
X64368458Y-65601478D01*
X64410324Y-65747481D01*
X64423544Y-65793586D01*
X64426359Y-65799063D01*
X64426360Y-65799066D01*
X64514897Y-65971341D01*
X64517712Y-65976818D01*
X64645677Y-66138270D01*
X64650370Y-66142264D01*
X64650371Y-66142265D01*
X64724541Y-66205388D01*
X64802564Y-66271791D01*
X64807942Y-66274797D01*
X64807944Y-66274798D01*
X64838387Y-66291812D01*
X64982398Y-66372297D01*
X65066280Y-66399552D01*
X65172471Y-66434056D01*
X65172475Y-66434057D01*
X65178329Y-66435959D01*
X65382894Y-66460351D01*
X65389029Y-66459879D01*
X65389031Y-66459879D01*
X65461625Y-66454293D01*
X65588300Y-66444546D01*
X65594230Y-66442890D01*
X65594232Y-66442890D01*
X65749451Y-66399552D01*
X65786725Y-66389145D01*
X65792214Y-66386372D01*
X65792220Y-66386370D01*
X65924952Y-66319322D01*
X65970610Y-66296258D01*
X65986345Y-66283965D01*
X66128101Y-66173213D01*
X66132951Y-66169424D01*
X66157343Y-66141166D01*
X66263540Y-66018134D01*
X66263540Y-66018133D01*
X66267564Y-66013472D01*
X66276764Y-65997278D01*
X66314039Y-65931661D01*
X66369323Y-65834344D01*
X66434351Y-65638863D01*
X66460171Y-65434474D01*
X66460583Y-65405000D01*
X66459138Y-65390262D01*
X66889520Y-65390262D01*
X66906759Y-65595553D01*
X66908458Y-65601478D01*
X66950324Y-65747481D01*
X66963544Y-65793586D01*
X66966359Y-65799063D01*
X66966360Y-65799066D01*
X67054897Y-65971341D01*
X67057712Y-65976818D01*
X67185677Y-66138270D01*
X67190370Y-66142264D01*
X67190371Y-66142265D01*
X67264541Y-66205388D01*
X67342564Y-66271791D01*
X67347942Y-66274797D01*
X67347944Y-66274798D01*
X67378387Y-66291812D01*
X67522398Y-66372297D01*
X67606280Y-66399552D01*
X67712471Y-66434056D01*
X67712475Y-66434057D01*
X67718329Y-66435959D01*
X67922894Y-66460351D01*
X67929029Y-66459879D01*
X67929031Y-66459879D01*
X68001625Y-66454293D01*
X68128300Y-66444546D01*
X68134230Y-66442890D01*
X68134232Y-66442890D01*
X68289451Y-66399552D01*
X68326725Y-66389145D01*
X68332214Y-66386372D01*
X68332220Y-66386370D01*
X68464952Y-66319322D01*
X68510610Y-66296258D01*
X68526345Y-66283965D01*
X68538142Y-66274748D01*
X69434500Y-66274748D01*
X69435707Y-66280816D01*
X69439331Y-66299033D01*
X69446133Y-66333231D01*
X69490448Y-66399552D01*
X69500761Y-66406443D01*
X69543176Y-66434784D01*
X69556769Y-66443867D01*
X69568938Y-66446288D01*
X69568939Y-66446288D01*
X69609184Y-66454293D01*
X69615252Y-66455500D01*
X71354748Y-66455500D01*
X71360816Y-66454293D01*
X71401061Y-66446288D01*
X71401062Y-66446288D01*
X71413231Y-66443867D01*
X71426825Y-66434784D01*
X71469239Y-66406443D01*
X71479552Y-66399552D01*
X71523867Y-66333231D01*
X71530670Y-66299033D01*
X71534293Y-66280816D01*
X71535500Y-66274748D01*
X71535500Y-64535252D01*
X71523867Y-64476769D01*
X71479552Y-64410448D01*
X71413231Y-64366133D01*
X71401062Y-64363712D01*
X71401061Y-64363712D01*
X71360816Y-64355707D01*
X71354748Y-64354500D01*
X69615252Y-64354500D01*
X69609184Y-64355707D01*
X69568939Y-64363712D01*
X69568938Y-64363712D01*
X69556769Y-64366133D01*
X69490448Y-64410448D01*
X69446133Y-64476769D01*
X69434500Y-64535252D01*
X69434500Y-66274748D01*
X68538142Y-66274748D01*
X68668101Y-66173213D01*
X68672951Y-66169424D01*
X68697343Y-66141166D01*
X68803540Y-66018134D01*
X68803540Y-66018133D01*
X68807564Y-66013472D01*
X68816764Y-65997278D01*
X68854039Y-65931661D01*
X68909323Y-65834344D01*
X68974351Y-65638863D01*
X69000171Y-65434474D01*
X69000583Y-65405000D01*
X68980480Y-65199970D01*
X68920935Y-65002749D01*
X68824218Y-64820849D01*
X68748206Y-64727649D01*
X68697906Y-64665975D01*
X68697903Y-64665972D01*
X68694011Y-64661200D01*
X68687173Y-64655543D01*
X68540025Y-64533811D01*
X68540021Y-64533809D01*
X68535275Y-64529882D01*
X68354055Y-64431897D01*
X68157254Y-64370977D01*
X68151129Y-64370333D01*
X68151128Y-64370333D01*
X67958498Y-64350087D01*
X67958496Y-64350087D01*
X67952369Y-64349443D01*
X67865529Y-64357346D01*
X67753342Y-64367555D01*
X67753339Y-64367556D01*
X67747203Y-64368114D01*
X67549572Y-64426280D01*
X67544107Y-64429137D01*
X67514721Y-64444500D01*
X67367002Y-64521726D01*
X67362201Y-64525586D01*
X67362198Y-64525588D01*
X67235589Y-64627384D01*
X67206447Y-64650815D01*
X67074024Y-64808630D01*
X67071056Y-64814028D01*
X67071053Y-64814033D01*
X66981617Y-64976718D01*
X66974776Y-64989162D01*
X66912484Y-65185532D01*
X66911798Y-65191649D01*
X66911797Y-65191653D01*
X66906306Y-65240609D01*
X66889520Y-65390262D01*
X66459138Y-65390262D01*
X66440480Y-65199970D01*
X66380935Y-65002749D01*
X66284218Y-64820849D01*
X66208206Y-64727649D01*
X66157906Y-64665975D01*
X66157903Y-64665972D01*
X66154011Y-64661200D01*
X66147173Y-64655543D01*
X66000025Y-64533811D01*
X66000021Y-64533809D01*
X65995275Y-64529882D01*
X65814055Y-64431897D01*
X65617254Y-64370977D01*
X65611129Y-64370333D01*
X65611128Y-64370333D01*
X65418498Y-64350087D01*
X65418496Y-64350087D01*
X65412369Y-64349443D01*
X65325529Y-64357346D01*
X65213342Y-64367555D01*
X65213339Y-64367556D01*
X65207203Y-64368114D01*
X65009572Y-64426280D01*
X65004107Y-64429137D01*
X64974721Y-64444500D01*
X64827002Y-64521726D01*
X64822201Y-64525586D01*
X64822198Y-64525588D01*
X64695589Y-64627384D01*
X64666447Y-64650815D01*
X64534024Y-64808630D01*
X64531056Y-64814028D01*
X64531053Y-64814033D01*
X64441617Y-64976718D01*
X64434776Y-64989162D01*
X64372484Y-65185532D01*
X64371798Y-65191649D01*
X64371797Y-65191653D01*
X64366306Y-65240609D01*
X64349520Y-65390262D01*
X63919138Y-65390262D01*
X63900480Y-65199970D01*
X63840935Y-65002749D01*
X63744218Y-64820849D01*
X63668206Y-64727649D01*
X63617906Y-64665975D01*
X63617903Y-64665972D01*
X63614011Y-64661200D01*
X63607173Y-64655543D01*
X63460025Y-64533811D01*
X63460021Y-64533809D01*
X63455275Y-64529882D01*
X63274055Y-64431897D01*
X63077254Y-64370977D01*
X63071129Y-64370333D01*
X63071128Y-64370333D01*
X62878498Y-64350087D01*
X62878496Y-64350087D01*
X62872369Y-64349443D01*
X62785529Y-64357346D01*
X62673342Y-64367555D01*
X62673339Y-64367556D01*
X62667203Y-64368114D01*
X62469572Y-64426280D01*
X62464107Y-64429137D01*
X62434721Y-64444500D01*
X62287002Y-64521726D01*
X62282201Y-64525586D01*
X62282198Y-64525588D01*
X62155589Y-64627384D01*
X62126447Y-64650815D01*
X61994024Y-64808630D01*
X61991056Y-64814028D01*
X61991053Y-64814033D01*
X61901617Y-64976718D01*
X61894776Y-64989162D01*
X61832484Y-65185532D01*
X61831798Y-65191649D01*
X61831797Y-65191653D01*
X61826306Y-65240609D01*
X61809520Y-65390262D01*
X61379138Y-65390262D01*
X61360480Y-65199970D01*
X61300935Y-65002749D01*
X61204218Y-64820849D01*
X61128206Y-64727649D01*
X61077906Y-64665975D01*
X61077903Y-64665972D01*
X61074011Y-64661200D01*
X61067173Y-64655543D01*
X60920025Y-64533811D01*
X60920021Y-64533809D01*
X60915275Y-64529882D01*
X60734055Y-64431897D01*
X60537254Y-64370977D01*
X60531129Y-64370333D01*
X60531128Y-64370333D01*
X60338498Y-64350087D01*
X60338496Y-64350087D01*
X60332369Y-64349443D01*
X60245529Y-64357346D01*
X60133342Y-64367555D01*
X60133339Y-64367556D01*
X60127203Y-64368114D01*
X59929572Y-64426280D01*
X59924107Y-64429137D01*
X59894721Y-64444500D01*
X59747002Y-64521726D01*
X59742201Y-64525586D01*
X59742198Y-64525588D01*
X59615589Y-64627384D01*
X59586447Y-64650815D01*
X59454024Y-64808630D01*
X59451056Y-64814028D01*
X59451053Y-64814033D01*
X59361617Y-64976718D01*
X59354776Y-64989162D01*
X59352914Y-64995032D01*
X59336068Y-65048138D01*
X59296405Y-65107022D01*
X59231202Y-65135114D01*
X59161163Y-65123497D01*
X59108523Y-65075857D01*
X59093762Y-65040735D01*
X59076214Y-64970875D01*
X59072894Y-64961124D01*
X58987972Y-64765814D01*
X58983105Y-64756739D01*
X58867426Y-64577926D01*
X58861136Y-64569757D01*
X58717806Y-64412240D01*
X58710273Y-64405215D01*
X58543139Y-64273222D01*
X58534552Y-64267517D01*
X58348117Y-64164599D01*
X58338705Y-64160369D01*
X58137959Y-64089280D01*
X58127988Y-64086646D01*
X58056837Y-64073972D01*
X58043540Y-64075432D01*
X58039000Y-64089989D01*
X58039000Y-66723517D01*
X57531000Y-66723517D01*
X57531000Y-65677115D01*
X57526525Y-65661876D01*
X57525135Y-65660671D01*
X57517452Y-65659000D01*
X56468225Y-65659000D01*
X56454694Y-65662973D01*
X56453257Y-65672966D01*
X44450000Y-65672966D01*
X44450000Y-65139183D01*
X56449389Y-65139183D01*
X56450912Y-65147607D01*
X56463292Y-65151000D01*
X57512885Y-65151000D01*
X57528124Y-65146525D01*
X57529329Y-65145135D01*
X57531000Y-65137452D01*
X57531000Y-64088102D01*
X57527082Y-64074758D01*
X57512806Y-64072771D01*
X57474324Y-64078660D01*
X57464288Y-64081051D01*
X57261868Y-64147212D01*
X57252359Y-64151209D01*
X57063463Y-64249542D01*
X57054738Y-64255036D01*
X56884433Y-64382905D01*
X56876726Y-64389748D01*
X56729590Y-64543717D01*
X56723104Y-64551727D01*
X56603098Y-64727649D01*
X56598000Y-64736623D01*
X56508338Y-64929783D01*
X56504775Y-64939470D01*
X56449389Y-65139183D01*
X44450000Y-65139183D01*
X44450000Y-58546000D01*
X44470002Y-58477879D01*
X44523658Y-58431386D01*
X44576000Y-58420000D01*
X79572800Y-58420000D01*
X79640921Y-58440002D01*
G37*
G04 #@! TD.AperFunction*
M02*
