G04 #@! TF.GenerationSoftware,KiCad,Pcbnew,(6.0.4)*
G04 #@! TF.CreationDate,2022-05-21T11:57:55-05:00*
G04 #@! TF.ProjectId,REEL,5245454c-2e6b-4696-9361-645f70636258,rev?*
G04 #@! TF.SameCoordinates,Original*
G04 #@! TF.FileFunction,AssemblyDrawing,Bot*
%FSLAX46Y46*%
G04 Gerber Fmt 4.6, Leading zero omitted, Abs format (unit mm)*
G04 Created by KiCad (PCBNEW (6.0.4)) date 2022-05-21 11:57:55*
%MOMM*%
%LPD*%
G01*
G04 APERTURE LIST*
%ADD10C,0.150000*%
G04 APERTURE END LIST*
D10*
X108586609Y-84243071D02*
X108253276Y-84243071D01*
X108110419Y-84766880D02*
X108586609Y-84766880D01*
X108586609Y-83766880D01*
X108110419Y-83766880D01*
X107729466Y-84719261D02*
X107586609Y-84766880D01*
X107348514Y-84766880D01*
X107253276Y-84719261D01*
X107205657Y-84671642D01*
X107158038Y-84576404D01*
X107158038Y-84481166D01*
X107205657Y-84385928D01*
X107253276Y-84338309D01*
X107348514Y-84290690D01*
X107538990Y-84243071D01*
X107634228Y-84195452D01*
X107681847Y-84147833D01*
X107729466Y-84052595D01*
X107729466Y-83957357D01*
X107681847Y-83862119D01*
X107634228Y-83814500D01*
X107538990Y-83766880D01*
X107300895Y-83766880D01*
X107158038Y-83814500D01*
X106729466Y-84766880D02*
X106729466Y-83766880D01*
X106348514Y-83766880D01*
X106253276Y-83814500D01*
X106205657Y-83862119D01*
X106158038Y-83957357D01*
X106158038Y-84100214D01*
X106205657Y-84195452D01*
X106253276Y-84243071D01*
X106348514Y-84290690D01*
X106729466Y-84290690D01*
X105824704Y-83766880D02*
X105205657Y-83766880D01*
X105538990Y-84147833D01*
X105396133Y-84147833D01*
X105300895Y-84195452D01*
X105253276Y-84243071D01*
X105205657Y-84338309D01*
X105205657Y-84576404D01*
X105253276Y-84671642D01*
X105300895Y-84719261D01*
X105396133Y-84766880D01*
X105681847Y-84766880D01*
X105777085Y-84719261D01*
X105824704Y-84671642D01*
X104824704Y-83862119D02*
X104777085Y-83814500D01*
X104681847Y-83766880D01*
X104443752Y-83766880D01*
X104348514Y-83814500D01*
X104300895Y-83862119D01*
X104253276Y-83957357D01*
X104253276Y-84052595D01*
X104300895Y-84195452D01*
X104872323Y-84766880D01*
X104253276Y-84766880D01*
X103824704Y-84385928D02*
X103062800Y-84385928D01*
X102681847Y-83766880D02*
X102443752Y-84766880D01*
X102253276Y-84052595D01*
X102062800Y-84766880D01*
X101824704Y-83766880D01*
X100872323Y-84766880D02*
X101205657Y-84290690D01*
X101443752Y-84766880D02*
X101443752Y-83766880D01*
X101062800Y-83766880D01*
X100967561Y-83814500D01*
X100919942Y-83862119D01*
X100872323Y-83957357D01*
X100872323Y-84100214D01*
X100919942Y-84195452D01*
X100967561Y-84243071D01*
X101062800Y-84290690D01*
X101443752Y-84290690D01*
X100253276Y-83766880D02*
X100062800Y-83766880D01*
X99967561Y-83814500D01*
X99872323Y-83909738D01*
X99824704Y-84100214D01*
X99824704Y-84433547D01*
X99872323Y-84624023D01*
X99967561Y-84719261D01*
X100062800Y-84766880D01*
X100253276Y-84766880D01*
X100348514Y-84719261D01*
X100443752Y-84624023D01*
X100491371Y-84433547D01*
X100491371Y-84100214D01*
X100443752Y-83909738D01*
X100348514Y-83814500D01*
X100253276Y-83766880D01*
X99205657Y-83766880D02*
X99015180Y-83766880D01*
X98919942Y-83814500D01*
X98824704Y-83909738D01*
X98777085Y-84100214D01*
X98777085Y-84433547D01*
X98824704Y-84624023D01*
X98919942Y-84719261D01*
X99015180Y-84766880D01*
X99205657Y-84766880D01*
X99300895Y-84719261D01*
X99396133Y-84624023D01*
X99443752Y-84433547D01*
X99443752Y-84100214D01*
X99396133Y-83909738D01*
X99300895Y-83814500D01*
X99205657Y-83766880D01*
X98348514Y-84766880D02*
X98348514Y-83766880D01*
X98015180Y-84481166D01*
X97681847Y-83766880D01*
X97681847Y-84766880D01*
X97205657Y-84385928D02*
X96443752Y-84385928D01*
X96062800Y-83766880D02*
X95443752Y-83766880D01*
X95777085Y-84147833D01*
X95634228Y-84147833D01*
X95538990Y-84195452D01*
X95491371Y-84243071D01*
X95443752Y-84338309D01*
X95443752Y-84576404D01*
X95491371Y-84671642D01*
X95538990Y-84719261D01*
X95634228Y-84766880D01*
X95919942Y-84766880D01*
X96015180Y-84719261D01*
X96062800Y-84671642D01*
X95062800Y-83862119D02*
X95015180Y-83814500D01*
X94919942Y-83766880D01*
X94681847Y-83766880D01*
X94586609Y-83814500D01*
X94538990Y-83862119D01*
X94491371Y-83957357D01*
X94491371Y-84052595D01*
X94538990Y-84195452D01*
X95110419Y-84766880D01*
X94491371Y-84766880D01*
M02*
