M48
; DRILL file {KiCad (6.0.4)} date Sat May 21 11:58:01 2022
; FORMAT={-:-/ absolute / metric / decimal}
; #@! TF.CreationDate,2022-05-21T11:58:01-05:00
; #@! TF.GenerationSoftware,Kicad,Pcbnew,(6.0.4)
; #@! TF.FileFunction,Plated,1,2,PTH
FMAT,2
METRIC
; #@! TA.AperFunction,Plated,PTH,ViaDrill
T1C0.400
; #@! TA.AperFunction,Plated,PTH,ViaDrill
T2C0.600
; #@! TA.AperFunction,Plated,PTH,ComponentDrill
T3C0.750
; #@! TA.AperFunction,Plated,PTH,ComponentDrill
T4C0.950
; #@! TA.AperFunction,Plated,PTH,ComponentDrill
T5C1.000
; #@! TA.AperFunction,Plated,PTH,ComponentDrill
T6C1.320
%
G90
G05
T1
X56.515Y-97.79
X56.515Y-99.06
X57.785Y-97.79
X57.785Y-99.06
X58.42Y-111.76
X58.42Y-113.03
X58.42Y-114.3
X59.055Y-97.79
X59.055Y-99.06
X59.69Y-106.68
X59.69Y-111.76
X59.69Y-113.03
X59.69Y-114.3
X67.221Y-67.31
X67.31Y-71.12
X67.945Y-68.58
X69.215Y-75.565
X69.215Y-76.835
X69.519Y-82.854
X69.573Y-80.354
X70.485Y-70.485
X70.485Y-75.565
X70.485Y-76.835
X71.755Y-75.565
X71.755Y-76.835
X77.47Y-87.63
X79.21Y-77.94
X79.375Y-85.725
X79.375Y-86.995
X80.645Y-85.725
X80.645Y-86.995
X81.915Y-85.725
X81.915Y-86.995
X82.47Y-71.675
X82.55Y-65.405
X82.55Y-67.945
X82.55Y-70.485
X87.358Y-96.43
X87.63Y-71.12
X87.63Y-72.39
X90.827Y-85.09
X92.71Y-87.63
X95.25Y-118.745
X96.52Y-120.015
X98.425Y-106.68
X98.425Y-107.95
X99.695Y-75.565
X99.695Y-76.835
X99.695Y-106.68
X99.695Y-107.95
X100.965Y-106.68
X100.965Y-107.95
X101.6Y-113.03
X101.726Y-95.759
X102.235Y-117.475
X102.235Y-118.745
X102.87Y-113.03
X103.505Y-117.475
X103.505Y-118.745
X104.14Y-100.695
X104.775Y-75.565
X104.775Y-76.835
X104.775Y-117.475
X104.775Y-118.745
X105.41Y-79.375
X106.68Y-67.945
X108.585Y-69.215
X109.22Y-90.17
X111.76Y-88.9
X111.76Y-90.17
X111.76Y-121.92
X111.76Y-123.19
X113.03Y-88.9
X113.03Y-90.17
X113.03Y-121.92
X113.03Y-123.19
X114.3Y-88.9
X114.3Y-90.17
X114.3Y-121.92
X114.3Y-123.19
X117.475Y-64.046
X118.015Y-70.58
T2
X38.735Y-74.93
X41.275Y-82.55
X41.399Y-102.746
X45.085Y-109.855
X80.645Y-104.14
X83.82Y-106.68
T3
X42.46Y-113.3
X42.46Y-115.3
T4
X75.565Y-66.675
X75.565Y-69.175
X75.565Y-71.675
X75.565Y-74.175
X75.565Y-76.675
X75.565Y-79.175
X75.565Y-81.675
X75.565Y-84.175
X113.965Y-66.795
X113.965Y-69.295
X113.965Y-71.795
X113.965Y-74.295
X113.965Y-76.795
X113.965Y-79.295
X113.965Y-81.795
T5
X57.785Y-65.405
X60.325Y-65.405
X62.865Y-65.405
X65.405Y-65.405
X67.945Y-65.405
X70.485Y-65.405
X86.36Y-123.825
X88.9Y-123.825
X91.44Y-123.825
X92.405Y-111.023
X93.98Y-123.825
X96.215Y-111.023
X96.52Y-123.825
X99.06Y-123.825
X101.6Y-123.825
X124.485Y-67.335
X124.485Y-69.875
X124.485Y-72.415
X124.485Y-74.955
X124.485Y-77.495
X124.485Y-80.035
X124.795Y-106.065
X124.795Y-108.565
T6
X68.25Y-120.895
X73.25Y-120.895
X109.63Y-109.22
X114.63Y-109.22
T0
M30
