G04 #@! TF.GenerationSoftware,KiCad,Pcbnew,(6.0.4)*
G04 #@! TF.CreationDate,2022-05-21T11:57:55-05:00*
G04 #@! TF.ProjectId,REEL,5245454c-2e6b-4696-9361-645f70636258,rev?*
G04 #@! TF.SameCoordinates,Original*
G04 #@! TF.FileFunction,AssemblyDrawing,Top*
%FSLAX46Y46*%
G04 Gerber Fmt 4.6, Leading zero omitted, Abs format (unit mm)*
G04 Created by KiCad (PCBNEW (6.0.4)) date 2022-05-21 11:57:55*
%MOMM*%
%LPD*%
G01*
G04 APERTURE LIST*
%ADD10C,0.150000*%
%ADD11C,0.120000*%
%ADD12C,0.080000*%
%ADD13C,0.254000*%
%ADD14C,0.100000*%
%ADD15C,0.127000*%
%ADD16C,0.200000*%
G04 APERTURE END LIST*
D10*
X62627380Y-86025357D02*
X62627380Y-86596785D01*
X62627380Y-86311071D02*
X61627380Y-86311071D01*
X61770238Y-86406309D01*
X61865476Y-86501547D01*
X61913095Y-86596785D01*
X61627380Y-85406309D02*
X61627380Y-85311071D01*
X61675000Y-85215833D01*
X61722619Y-85168214D01*
X61817857Y-85120595D01*
X62008333Y-85072976D01*
X62246428Y-85072976D01*
X62436904Y-85120595D01*
X62532142Y-85168214D01*
X62579761Y-85215833D01*
X62627380Y-85311071D01*
X62627380Y-85406309D01*
X62579761Y-85501547D01*
X62532142Y-85549166D01*
X62436904Y-85596785D01*
X62246428Y-85644404D01*
X62008333Y-85644404D01*
X61817857Y-85596785D01*
X61722619Y-85549166D01*
X61675000Y-85501547D01*
X61627380Y-85406309D01*
X61960714Y-84215833D02*
X62627380Y-84215833D01*
X61960714Y-84644404D02*
X62484523Y-84644404D01*
X62579761Y-84596785D01*
X62627380Y-84501547D01*
X62627380Y-84358690D01*
X62579761Y-84263452D01*
X62532142Y-84215833D01*
D11*
X60610714Y-86144404D02*
X60648809Y-86182500D01*
X60686904Y-86296785D01*
X60686904Y-86372976D01*
X60648809Y-86487261D01*
X60572619Y-86563452D01*
X60496428Y-86601547D01*
X60344047Y-86639642D01*
X60229761Y-86639642D01*
X60077380Y-86601547D01*
X60001190Y-86563452D01*
X59925000Y-86487261D01*
X59886904Y-86372976D01*
X59886904Y-86296785D01*
X59925000Y-86182500D01*
X59963095Y-86144404D01*
X60763095Y-85992023D02*
X60763095Y-85382500D01*
X60686904Y-85192023D02*
X59886904Y-85192023D01*
X60382142Y-85115833D02*
X60686904Y-84887261D01*
X60153571Y-84887261D02*
X60458333Y-85192023D01*
X60686904Y-84125357D02*
X60686904Y-84582500D01*
X60686904Y-84353928D02*
X59886904Y-84353928D01*
X60001190Y-84430119D01*
X60077380Y-84506309D01*
X60115476Y-84582500D01*
D10*
X79137380Y-104050357D02*
X79137380Y-104621785D01*
X79137380Y-104336071D02*
X78137380Y-104336071D01*
X78280238Y-104431309D01*
X78375476Y-104526547D01*
X78423095Y-104621785D01*
X78137380Y-103431309D02*
X78137380Y-103336071D01*
X78185000Y-103240833D01*
X78232619Y-103193214D01*
X78327857Y-103145595D01*
X78518333Y-103097976D01*
X78756428Y-103097976D01*
X78946904Y-103145595D01*
X79042142Y-103193214D01*
X79089761Y-103240833D01*
X79137380Y-103336071D01*
X79137380Y-103431309D01*
X79089761Y-103526547D01*
X79042142Y-103574166D01*
X78946904Y-103621785D01*
X78756428Y-103669404D01*
X78518333Y-103669404D01*
X78327857Y-103621785D01*
X78232619Y-103574166D01*
X78185000Y-103526547D01*
X78137380Y-103431309D01*
X78470714Y-102240833D02*
X79137380Y-102240833D01*
X78470714Y-102669404D02*
X78994523Y-102669404D01*
X79089761Y-102621785D01*
X79137380Y-102526547D01*
X79137380Y-102383690D01*
X79089761Y-102288452D01*
X79042142Y-102240833D01*
D11*
X77120714Y-103921785D02*
X77158809Y-103959880D01*
X77196904Y-104074166D01*
X77196904Y-104150357D01*
X77158809Y-104264642D01*
X77082619Y-104340833D01*
X77006428Y-104378928D01*
X76854047Y-104417023D01*
X76739761Y-104417023D01*
X76587380Y-104378928D01*
X76511190Y-104340833D01*
X76435000Y-104264642D01*
X76396904Y-104150357D01*
X76396904Y-104074166D01*
X76435000Y-103959880D01*
X76473095Y-103921785D01*
X77196904Y-103159880D02*
X77196904Y-103617023D01*
X77196904Y-103388452D02*
X76396904Y-103388452D01*
X76511190Y-103464642D01*
X76587380Y-103540833D01*
X76625476Y-103617023D01*
X76663571Y-102474166D02*
X77196904Y-102474166D01*
X76358809Y-102664642D02*
X76930238Y-102855119D01*
X76930238Y-102359880D01*
D10*
X74532619Y-110971785D02*
X74485000Y-110924166D01*
X74437380Y-110828928D01*
X74437380Y-110590833D01*
X74485000Y-110495595D01*
X74532619Y-110447976D01*
X74627857Y-110400357D01*
X74723095Y-110400357D01*
X74865952Y-110447976D01*
X75437380Y-111019404D01*
X75437380Y-110400357D01*
X74532619Y-110019404D02*
X74485000Y-109971785D01*
X74437380Y-109876547D01*
X74437380Y-109638452D01*
X74485000Y-109543214D01*
X74532619Y-109495595D01*
X74627857Y-109447976D01*
X74723095Y-109447976D01*
X74865952Y-109495595D01*
X75437380Y-110067023D01*
X75437380Y-109447976D01*
X74770714Y-108590833D02*
X75437380Y-108590833D01*
X74770714Y-109019404D02*
X75294523Y-109019404D01*
X75389761Y-108971785D01*
X75437380Y-108876547D01*
X75437380Y-108733690D01*
X75389761Y-108638452D01*
X75342142Y-108590833D01*
D11*
X77120714Y-109890833D02*
X77158809Y-109928928D01*
X77196904Y-110043214D01*
X77196904Y-110119404D01*
X77158809Y-110233690D01*
X77082619Y-110309880D01*
X77006428Y-110347976D01*
X76854047Y-110386071D01*
X76739761Y-110386071D01*
X76587380Y-110347976D01*
X76511190Y-110309880D01*
X76435000Y-110233690D01*
X76396904Y-110119404D01*
X76396904Y-110043214D01*
X76435000Y-109928928D01*
X76473095Y-109890833D01*
X76739761Y-109433690D02*
X76701666Y-109509880D01*
X76663571Y-109547976D01*
X76587380Y-109586071D01*
X76549285Y-109586071D01*
X76473095Y-109547976D01*
X76435000Y-109509880D01*
X76396904Y-109433690D01*
X76396904Y-109281309D01*
X76435000Y-109205119D01*
X76473095Y-109167023D01*
X76549285Y-109128928D01*
X76587380Y-109128928D01*
X76663571Y-109167023D01*
X76701666Y-109205119D01*
X76739761Y-109281309D01*
X76739761Y-109433690D01*
X76777857Y-109509880D01*
X76815952Y-109547976D01*
X76892142Y-109586071D01*
X77044523Y-109586071D01*
X77120714Y-109547976D01*
X77158809Y-109509880D01*
X77196904Y-109433690D01*
X77196904Y-109281309D01*
X77158809Y-109205119D01*
X77120714Y-109167023D01*
X77044523Y-109128928D01*
X76892142Y-109128928D01*
X76815952Y-109167023D01*
X76777857Y-109205119D01*
X76739761Y-109281309D01*
D10*
X54737619Y-86596785D02*
X54690000Y-86549166D01*
X54642380Y-86453928D01*
X54642380Y-86215833D01*
X54690000Y-86120595D01*
X54737619Y-86072976D01*
X54832857Y-86025357D01*
X54928095Y-86025357D01*
X55070952Y-86072976D01*
X55642380Y-86644404D01*
X55642380Y-86025357D01*
X54737619Y-85644404D02*
X54690000Y-85596785D01*
X54642380Y-85501547D01*
X54642380Y-85263452D01*
X54690000Y-85168214D01*
X54737619Y-85120595D01*
X54832857Y-85072976D01*
X54928095Y-85072976D01*
X55070952Y-85120595D01*
X55642380Y-85692023D01*
X55642380Y-85072976D01*
X54975714Y-84215833D02*
X55642380Y-84215833D01*
X54975714Y-84644404D02*
X55499523Y-84644404D01*
X55594761Y-84596785D01*
X55642380Y-84501547D01*
X55642380Y-84358690D01*
X55594761Y-84263452D01*
X55547142Y-84215833D01*
D11*
X53625714Y-85515833D02*
X53663809Y-85553928D01*
X53701904Y-85668214D01*
X53701904Y-85744404D01*
X53663809Y-85858690D01*
X53587619Y-85934880D01*
X53511428Y-85972976D01*
X53359047Y-86011071D01*
X53244761Y-86011071D01*
X53092380Y-85972976D01*
X53016190Y-85934880D01*
X52940000Y-85858690D01*
X52901904Y-85744404D01*
X52901904Y-85668214D01*
X52940000Y-85553928D01*
X52978095Y-85515833D01*
X52901904Y-85249166D02*
X52901904Y-84715833D01*
X53701904Y-85058690D01*
D10*
X65532619Y-104719285D02*
X65485000Y-104671666D01*
X65437380Y-104576428D01*
X65437380Y-104338333D01*
X65485000Y-104243095D01*
X65532619Y-104195476D01*
X65627857Y-104147857D01*
X65723095Y-104147857D01*
X65865952Y-104195476D01*
X66437380Y-104766904D01*
X66437380Y-104147857D01*
X65532619Y-103766904D02*
X65485000Y-103719285D01*
X65437380Y-103624047D01*
X65437380Y-103385952D01*
X65485000Y-103290714D01*
X65532619Y-103243095D01*
X65627857Y-103195476D01*
X65723095Y-103195476D01*
X65865952Y-103243095D01*
X66437380Y-103814523D01*
X66437380Y-103195476D01*
X65770714Y-102338333D02*
X66437380Y-102338333D01*
X65770714Y-102766904D02*
X66294523Y-102766904D01*
X66389761Y-102719285D01*
X66437380Y-102624047D01*
X66437380Y-102481190D01*
X66389761Y-102385952D01*
X66342142Y-102338333D01*
D11*
X64420714Y-103638333D02*
X64458809Y-103676428D01*
X64496904Y-103790714D01*
X64496904Y-103866904D01*
X64458809Y-103981190D01*
X64382619Y-104057380D01*
X64306428Y-104095476D01*
X64154047Y-104133571D01*
X64039761Y-104133571D01*
X63887380Y-104095476D01*
X63811190Y-104057380D01*
X63735000Y-103981190D01*
X63696904Y-103866904D01*
X63696904Y-103790714D01*
X63735000Y-103676428D01*
X63773095Y-103638333D01*
X63696904Y-102952619D02*
X63696904Y-103105000D01*
X63735000Y-103181190D01*
X63773095Y-103219285D01*
X63887380Y-103295476D01*
X64039761Y-103333571D01*
X64344523Y-103333571D01*
X64420714Y-103295476D01*
X64458809Y-103257380D01*
X64496904Y-103181190D01*
X64496904Y-103028809D01*
X64458809Y-102952619D01*
X64420714Y-102914523D01*
X64344523Y-102876428D01*
X64154047Y-102876428D01*
X64077857Y-102914523D01*
X64039761Y-102952619D01*
X64001666Y-103028809D01*
X64001666Y-103181190D01*
X64039761Y-103257380D01*
X64077857Y-103295476D01*
X64154047Y-103333571D01*
D10*
X71882619Y-104719285D02*
X71835000Y-104671666D01*
X71787380Y-104576428D01*
X71787380Y-104338333D01*
X71835000Y-104243095D01*
X71882619Y-104195476D01*
X71977857Y-104147857D01*
X72073095Y-104147857D01*
X72215952Y-104195476D01*
X72787380Y-104766904D01*
X72787380Y-104147857D01*
X71882619Y-103766904D02*
X71835000Y-103719285D01*
X71787380Y-103624047D01*
X71787380Y-103385952D01*
X71835000Y-103290714D01*
X71882619Y-103243095D01*
X71977857Y-103195476D01*
X72073095Y-103195476D01*
X72215952Y-103243095D01*
X72787380Y-103814523D01*
X72787380Y-103195476D01*
X72120714Y-102338333D02*
X72787380Y-102338333D01*
X72120714Y-102766904D02*
X72644523Y-102766904D01*
X72739761Y-102719285D01*
X72787380Y-102624047D01*
X72787380Y-102481190D01*
X72739761Y-102385952D01*
X72692142Y-102338333D01*
D11*
X70770714Y-103638333D02*
X70808809Y-103676428D01*
X70846904Y-103790714D01*
X70846904Y-103866904D01*
X70808809Y-103981190D01*
X70732619Y-104057380D01*
X70656428Y-104095476D01*
X70504047Y-104133571D01*
X70389761Y-104133571D01*
X70237380Y-104095476D01*
X70161190Y-104057380D01*
X70085000Y-103981190D01*
X70046904Y-103866904D01*
X70046904Y-103790714D01*
X70085000Y-103676428D01*
X70123095Y-103638333D01*
X70046904Y-102914523D02*
X70046904Y-103295476D01*
X70427857Y-103333571D01*
X70389761Y-103295476D01*
X70351666Y-103219285D01*
X70351666Y-103028809D01*
X70389761Y-102952619D01*
X70427857Y-102914523D01*
X70504047Y-102876428D01*
X70694523Y-102876428D01*
X70770714Y-102914523D01*
X70808809Y-102952619D01*
X70846904Y-103028809D01*
X70846904Y-103219285D01*
X70808809Y-103295476D01*
X70770714Y-103333571D01*
D10*
X67622380Y-111721785D02*
X67622380Y-111626547D01*
X67670000Y-111531309D01*
X67717619Y-111483690D01*
X67812857Y-111436071D01*
X68003333Y-111388452D01*
X68241428Y-111388452D01*
X68431904Y-111436071D01*
X68527142Y-111483690D01*
X68574761Y-111531309D01*
X68622380Y-111626547D01*
X68622380Y-111721785D01*
X68574761Y-111817023D01*
X68527142Y-111864642D01*
X68431904Y-111912261D01*
X68241428Y-111959880D01*
X68003333Y-111959880D01*
X67812857Y-111912261D01*
X67717619Y-111864642D01*
X67670000Y-111817023D01*
X67622380Y-111721785D01*
X68527142Y-110959880D02*
X68574761Y-110912261D01*
X68622380Y-110959880D01*
X68574761Y-111007500D01*
X68527142Y-110959880D01*
X68622380Y-110959880D01*
X68622380Y-109959880D02*
X68622380Y-110531309D01*
X68622380Y-110245595D02*
X67622380Y-110245595D01*
X67765238Y-110340833D01*
X67860476Y-110436071D01*
X67908095Y-110531309D01*
X67955714Y-109102738D02*
X68622380Y-109102738D01*
X67955714Y-109531309D02*
X68479523Y-109531309D01*
X68574761Y-109483690D01*
X68622380Y-109388452D01*
X68622380Y-109245595D01*
X68574761Y-109150357D01*
X68527142Y-109102738D01*
D12*
X70028571Y-110590833D02*
X70052380Y-110614642D01*
X70076190Y-110686071D01*
X70076190Y-110733690D01*
X70052380Y-110805119D01*
X70004761Y-110852738D01*
X69957142Y-110876547D01*
X69861904Y-110900357D01*
X69790476Y-110900357D01*
X69695238Y-110876547D01*
X69647619Y-110852738D01*
X69600000Y-110805119D01*
X69576190Y-110733690D01*
X69576190Y-110686071D01*
X69600000Y-110614642D01*
X69623809Y-110590833D01*
X69742857Y-110162261D02*
X70076190Y-110162261D01*
X69552380Y-110281309D02*
X69909523Y-110400357D01*
X69909523Y-110090833D01*
D10*
X68310714Y-85828095D02*
X68977380Y-85828095D01*
X67929761Y-86066190D02*
X68644047Y-86304285D01*
X68644047Y-85685238D01*
X67977380Y-85399523D02*
X67977380Y-84732857D01*
X68977380Y-85161428D01*
X68310714Y-83923333D02*
X68977380Y-83923333D01*
X68310714Y-84351904D02*
X68834523Y-84351904D01*
X68929761Y-84304285D01*
X68977380Y-84209047D01*
X68977380Y-84066190D01*
X68929761Y-83970952D01*
X68882142Y-83923333D01*
D11*
X66960714Y-85223333D02*
X66998809Y-85261428D01*
X67036904Y-85375714D01*
X67036904Y-85451904D01*
X66998809Y-85566190D01*
X66922619Y-85642380D01*
X66846428Y-85680476D01*
X66694047Y-85718571D01*
X66579761Y-85718571D01*
X66427380Y-85680476D01*
X66351190Y-85642380D01*
X66275000Y-85566190D01*
X66236904Y-85451904D01*
X66236904Y-85375714D01*
X66275000Y-85261428D01*
X66313095Y-85223333D01*
X66236904Y-84956666D02*
X66236904Y-84461428D01*
X66541666Y-84728095D01*
X66541666Y-84613809D01*
X66579761Y-84537619D01*
X66617857Y-84499523D01*
X66694047Y-84461428D01*
X66884523Y-84461428D01*
X66960714Y-84499523D01*
X66998809Y-84537619D01*
X67036904Y-84613809D01*
X67036904Y-84842380D01*
X66998809Y-84918571D01*
X66960714Y-84956666D01*
D10*
X49392380Y-85669285D02*
X49392380Y-85574047D01*
X49440000Y-85478809D01*
X49487619Y-85431190D01*
X49582857Y-85383571D01*
X49773333Y-85335952D01*
X50011428Y-85335952D01*
X50201904Y-85383571D01*
X50297142Y-85431190D01*
X50344761Y-85478809D01*
X50392380Y-85574047D01*
X50392380Y-85669285D01*
X50344761Y-85764523D01*
X50297142Y-85812142D01*
X50201904Y-85859761D01*
X50011428Y-85907380D01*
X49773333Y-85907380D01*
X49582857Y-85859761D01*
X49487619Y-85812142D01*
X49440000Y-85764523D01*
X49392380Y-85669285D01*
X50297142Y-84907380D02*
X50344761Y-84859761D01*
X50392380Y-84907380D01*
X50344761Y-84955000D01*
X50297142Y-84907380D01*
X50392380Y-84907380D01*
X50392380Y-83907380D02*
X50392380Y-84478809D01*
X50392380Y-84193095D02*
X49392380Y-84193095D01*
X49535238Y-84288333D01*
X49630476Y-84383571D01*
X49678095Y-84478809D01*
X49725714Y-83050238D02*
X50392380Y-83050238D01*
X49725714Y-83478809D02*
X50249523Y-83478809D01*
X50344761Y-83431190D01*
X50392380Y-83335952D01*
X50392380Y-83193095D01*
X50344761Y-83097857D01*
X50297142Y-83050238D01*
D12*
X48438571Y-84538333D02*
X48462380Y-84562142D01*
X48486190Y-84633571D01*
X48486190Y-84681190D01*
X48462380Y-84752619D01*
X48414761Y-84800238D01*
X48367142Y-84824047D01*
X48271904Y-84847857D01*
X48200476Y-84847857D01*
X48105238Y-84824047D01*
X48057619Y-84800238D01*
X48010000Y-84752619D01*
X47986190Y-84681190D01*
X47986190Y-84633571D01*
X48010000Y-84562142D01*
X48033809Y-84538333D01*
X48033809Y-84347857D02*
X48010000Y-84324047D01*
X47986190Y-84276428D01*
X47986190Y-84157380D01*
X48010000Y-84109761D01*
X48033809Y-84085952D01*
X48081428Y-84062142D01*
X48129047Y-84062142D01*
X48200476Y-84085952D01*
X48486190Y-84371666D01*
X48486190Y-84062142D01*
D10*
X66437380Y-110742857D02*
X66437380Y-111314285D01*
X66437380Y-111028571D02*
X65437380Y-111028571D01*
X65580238Y-111123809D01*
X65675476Y-111219047D01*
X65723095Y-111314285D01*
X65437380Y-110123809D02*
X65437380Y-110028571D01*
X65485000Y-109933333D01*
X65532619Y-109885714D01*
X65627857Y-109838095D01*
X65818333Y-109790476D01*
X66056428Y-109790476D01*
X66246904Y-109838095D01*
X66342142Y-109885714D01*
X66389761Y-109933333D01*
X66437380Y-110028571D01*
X66437380Y-110123809D01*
X66389761Y-110219047D01*
X66342142Y-110266666D01*
X66246904Y-110314285D01*
X66056428Y-110361904D01*
X65818333Y-110361904D01*
X65627857Y-110314285D01*
X65532619Y-110266666D01*
X65485000Y-110219047D01*
X65437380Y-110123809D01*
X65770714Y-108933333D02*
X66437380Y-108933333D01*
X65770714Y-109361904D02*
X66294523Y-109361904D01*
X66389761Y-109314285D01*
X66437380Y-109219047D01*
X66437380Y-109076190D01*
X66389761Y-108980952D01*
X66342142Y-108933333D01*
D11*
X64420714Y-110233333D02*
X64458809Y-110271428D01*
X64496904Y-110385714D01*
X64496904Y-110461904D01*
X64458809Y-110576190D01*
X64382619Y-110652380D01*
X64306428Y-110690476D01*
X64154047Y-110728571D01*
X64039761Y-110728571D01*
X63887380Y-110690476D01*
X63811190Y-110652380D01*
X63735000Y-110576190D01*
X63696904Y-110461904D01*
X63696904Y-110385714D01*
X63735000Y-110271428D01*
X63773095Y-110233333D01*
X64496904Y-109471428D02*
X64496904Y-109928571D01*
X64496904Y-109700000D02*
X63696904Y-109700000D01*
X63811190Y-109776190D01*
X63887380Y-109852380D01*
X63925476Y-109928571D01*
D10*
X53434166Y-115377380D02*
X52862738Y-115377380D01*
X53148452Y-115377380D02*
X53148452Y-114377380D01*
X53053214Y-114520238D01*
X52957976Y-114615476D01*
X52862738Y-114663095D01*
X53862738Y-115282142D02*
X53910357Y-115329761D01*
X53862738Y-115377380D01*
X53815119Y-115329761D01*
X53862738Y-115282142D01*
X53862738Y-115377380D01*
X54862738Y-115377380D02*
X54291309Y-115377380D01*
X54577023Y-115377380D02*
X54577023Y-114377380D01*
X54481785Y-114520238D01*
X54386547Y-114615476D01*
X54291309Y-114663095D01*
X55291309Y-115377380D02*
X55291309Y-114377380D01*
X55386547Y-114996428D02*
X55672261Y-115377380D01*
X55672261Y-114710714D02*
X55291309Y-115091666D01*
D12*
X54184166Y-113501190D02*
X54017500Y-113263095D01*
X53898452Y-113501190D02*
X53898452Y-113001190D01*
X54088928Y-113001190D01*
X54136547Y-113025000D01*
X54160357Y-113048809D01*
X54184166Y-113096428D01*
X54184166Y-113167857D01*
X54160357Y-113215476D01*
X54136547Y-113239285D01*
X54088928Y-113263095D01*
X53898452Y-113263095D01*
X54612738Y-113167857D02*
X54612738Y-113501190D01*
X54493690Y-112977380D02*
X54374642Y-113334523D01*
X54684166Y-113334523D01*
D10*
X54148452Y-119697380D02*
X53577023Y-119697380D01*
X53862738Y-119697380D02*
X53862738Y-118697380D01*
X53767500Y-118840238D01*
X53672261Y-118935476D01*
X53577023Y-118983095D01*
X54577023Y-119697380D02*
X54577023Y-118697380D01*
X54672261Y-119316428D02*
X54957976Y-119697380D01*
X54957976Y-119030714D02*
X54577023Y-119411666D01*
D12*
X54184166Y-121121190D02*
X54017500Y-120883095D01*
X53898452Y-121121190D02*
X53898452Y-120621190D01*
X54088928Y-120621190D01*
X54136547Y-120645000D01*
X54160357Y-120668809D01*
X54184166Y-120716428D01*
X54184166Y-120787857D01*
X54160357Y-120835476D01*
X54136547Y-120859285D01*
X54088928Y-120883095D01*
X53898452Y-120883095D01*
X54350833Y-120621190D02*
X54660357Y-120621190D01*
X54493690Y-120811666D01*
X54565119Y-120811666D01*
X54612738Y-120835476D01*
X54636547Y-120859285D01*
X54660357Y-120906904D01*
X54660357Y-121025952D01*
X54636547Y-121073571D01*
X54612738Y-121097380D01*
X54565119Y-121121190D01*
X54422261Y-121121190D01*
X54374642Y-121097380D01*
X54350833Y-121073571D01*
D10*
X42338214Y-95957380D02*
X41766785Y-95957380D01*
X42052500Y-95957380D02*
X42052500Y-94957380D01*
X41957261Y-95100238D01*
X41862023Y-95195476D01*
X41766785Y-95243095D01*
D12*
X41969166Y-97381190D02*
X41802500Y-97143095D01*
X41683452Y-97381190D02*
X41683452Y-96881190D01*
X41873928Y-96881190D01*
X41921547Y-96905000D01*
X41945357Y-96928809D01*
X41969166Y-96976428D01*
X41969166Y-97047857D01*
X41945357Y-97095476D01*
X41921547Y-97119285D01*
X41873928Y-97143095D01*
X41683452Y-97143095D01*
X42159642Y-96928809D02*
X42183452Y-96905000D01*
X42231071Y-96881190D01*
X42350119Y-96881190D01*
X42397738Y-96905000D01*
X42421547Y-96928809D01*
X42445357Y-96976428D01*
X42445357Y-97024047D01*
X42421547Y-97095476D01*
X42135833Y-97381190D01*
X42445357Y-97381190D01*
D10*
X42538214Y-87067380D02*
X41966785Y-87067380D01*
X42252500Y-87067380D02*
X42252500Y-86067380D01*
X42157261Y-86210238D01*
X42062023Y-86305476D01*
X41966785Y-86353095D01*
D12*
X42169166Y-88491190D02*
X42002500Y-88253095D01*
X41883452Y-88491190D02*
X41883452Y-87991190D01*
X42073928Y-87991190D01*
X42121547Y-88015000D01*
X42145357Y-88038809D01*
X42169166Y-88086428D01*
X42169166Y-88157857D01*
X42145357Y-88205476D01*
X42121547Y-88229285D01*
X42073928Y-88253095D01*
X41883452Y-88253095D01*
X42645357Y-88491190D02*
X42359642Y-88491190D01*
X42502500Y-88491190D02*
X42502500Y-87991190D01*
X42454880Y-88062619D01*
X42407261Y-88110238D01*
X42359642Y-88134047D01*
D10*
X85132380Y-92691547D02*
X85132380Y-93262976D01*
X85132380Y-92977261D02*
X84132380Y-92977261D01*
X84275238Y-93072500D01*
X84370476Y-93167738D01*
X84418095Y-93262976D01*
X84132380Y-92072500D02*
X84132380Y-91977261D01*
X84180000Y-91882023D01*
X84227619Y-91834404D01*
X84322857Y-91786785D01*
X84513333Y-91739166D01*
X84751428Y-91739166D01*
X84941904Y-91786785D01*
X85037142Y-91834404D01*
X85084761Y-91882023D01*
X85132380Y-91977261D01*
X85132380Y-92072500D01*
X85084761Y-92167738D01*
X85037142Y-92215357D01*
X84941904Y-92262976D01*
X84751428Y-92310595D01*
X84513333Y-92310595D01*
X84322857Y-92262976D01*
X84227619Y-92215357D01*
X84180000Y-92167738D01*
X84132380Y-92072500D01*
X84132380Y-91120119D02*
X84132380Y-91024880D01*
X84180000Y-90929642D01*
X84227619Y-90882023D01*
X84322857Y-90834404D01*
X84513333Y-90786785D01*
X84751428Y-90786785D01*
X84941904Y-90834404D01*
X85037142Y-90882023D01*
X85084761Y-90929642D01*
X85132380Y-91024880D01*
X85132380Y-91120119D01*
X85084761Y-91215357D01*
X85037142Y-91262976D01*
X84941904Y-91310595D01*
X84751428Y-91358214D01*
X84513333Y-91358214D01*
X84322857Y-91310595D01*
X84227619Y-91262976D01*
X84180000Y-91215357D01*
X84132380Y-91120119D01*
X84465714Y-90358214D02*
X85132380Y-90358214D01*
X84560952Y-90358214D02*
X84513333Y-90310595D01*
X84465714Y-90215357D01*
X84465714Y-90072500D01*
X84513333Y-89977261D01*
X84608571Y-89929642D01*
X85132380Y-89929642D01*
D12*
X86538571Y-91655833D02*
X86562380Y-91679642D01*
X86586190Y-91751071D01*
X86586190Y-91798690D01*
X86562380Y-91870119D01*
X86514761Y-91917738D01*
X86467142Y-91941547D01*
X86371904Y-91965357D01*
X86300476Y-91965357D01*
X86205238Y-91941547D01*
X86157619Y-91917738D01*
X86110000Y-91870119D01*
X86086190Y-91798690D01*
X86086190Y-91751071D01*
X86110000Y-91679642D01*
X86133809Y-91655833D01*
X86586190Y-91417738D02*
X86586190Y-91322500D01*
X86562380Y-91274880D01*
X86538571Y-91251071D01*
X86467142Y-91203452D01*
X86371904Y-91179642D01*
X86181428Y-91179642D01*
X86133809Y-91203452D01*
X86110000Y-91227261D01*
X86086190Y-91274880D01*
X86086190Y-91370119D01*
X86110000Y-91417738D01*
X86133809Y-91441547D01*
X86181428Y-91465357D01*
X86300476Y-91465357D01*
X86348095Y-91441547D01*
X86371904Y-91417738D01*
X86395714Y-91370119D01*
X86395714Y-91274880D01*
X86371904Y-91227261D01*
X86348095Y-91203452D01*
X86300476Y-91179642D01*
D10*
X48162600Y-70161866D02*
X48638790Y-70161866D01*
X48067361Y-70447580D02*
X48400695Y-69447580D01*
X48734028Y-70447580D01*
X49067361Y-70447580D02*
X49067361Y-69447580D01*
X49400695Y-70161866D01*
X49734028Y-69447580D01*
X49734028Y-70447580D01*
X50162600Y-70399961D02*
X50305457Y-70447580D01*
X50543552Y-70447580D01*
X50638790Y-70399961D01*
X50686409Y-70352342D01*
X50734028Y-70257104D01*
X50734028Y-70161866D01*
X50686409Y-70066628D01*
X50638790Y-70019009D01*
X50543552Y-69971390D01*
X50353076Y-69923771D01*
X50257838Y-69876152D01*
X50210219Y-69828533D01*
X50162600Y-69733295D01*
X50162600Y-69638057D01*
X50210219Y-69542819D01*
X50257838Y-69495200D01*
X50353076Y-69447580D01*
X50591171Y-69447580D01*
X50734028Y-69495200D01*
X51686409Y-70447580D02*
X51114980Y-70447580D01*
X51400695Y-70447580D02*
X51400695Y-69447580D01*
X51305457Y-69590438D01*
X51210219Y-69685676D01*
X51114980Y-69733295D01*
X52638790Y-70447580D02*
X52067361Y-70447580D01*
X52353076Y-70447580D02*
X52353076Y-69447580D01*
X52257838Y-69590438D01*
X52162600Y-69685676D01*
X52067361Y-69733295D01*
X53591171Y-70447580D02*
X53019742Y-70447580D01*
X53305457Y-70447580D02*
X53305457Y-69447580D01*
X53210219Y-69590438D01*
X53114980Y-69685676D01*
X53019742Y-69733295D01*
X53924504Y-69447580D02*
X54591171Y-69447580D01*
X54162599Y-70447580D01*
X54972123Y-70066628D02*
X55734028Y-70066628D01*
X56114980Y-69447580D02*
X56734028Y-69447580D01*
X56400695Y-69828533D01*
X56543552Y-69828533D01*
X56638790Y-69876152D01*
X56686409Y-69923771D01*
X56734028Y-70019009D01*
X56734028Y-70257104D01*
X56686409Y-70352342D01*
X56638790Y-70399961D01*
X56543552Y-70447580D01*
X56257838Y-70447580D01*
X56162599Y-70399961D01*
X56114980Y-70352342D01*
X57162600Y-70352342D02*
X57210219Y-70399961D01*
X57162600Y-70447580D01*
X57114980Y-70399961D01*
X57162600Y-70352342D01*
X57162600Y-70447580D01*
X57543552Y-69447580D02*
X58162599Y-69447580D01*
X57829266Y-69828533D01*
X57972123Y-69828533D01*
X58067361Y-69876152D01*
X58114980Y-69923771D01*
X58162599Y-70019009D01*
X58162599Y-70257104D01*
X58114980Y-70352342D01*
X58067361Y-70399961D01*
X57972123Y-70447580D01*
X57686409Y-70447580D01*
X57591171Y-70399961D01*
X57543552Y-70352342D01*
D11*
X50819504Y-66104723D02*
X51467123Y-66104723D01*
X51543314Y-66066628D01*
X51581409Y-66028533D01*
X51619504Y-65952342D01*
X51619504Y-65799961D01*
X51581409Y-65723771D01*
X51543314Y-65685676D01*
X51467123Y-65647580D01*
X50819504Y-65647580D01*
X51086171Y-64923771D02*
X51619504Y-64923771D01*
X50781409Y-65114247D02*
X51352838Y-65304723D01*
X51352838Y-64809485D01*
D10*
X73969761Y-63062380D02*
X73398333Y-63062380D01*
X73684047Y-63062380D02*
X73684047Y-62062380D01*
X73588809Y-62205238D01*
X73493571Y-62300476D01*
X73398333Y-62348095D01*
X74588809Y-62062380D02*
X74684047Y-62062380D01*
X74779285Y-62110000D01*
X74826904Y-62157619D01*
X74874523Y-62252857D01*
X74922142Y-62443333D01*
X74922142Y-62681428D01*
X74874523Y-62871904D01*
X74826904Y-62967142D01*
X74779285Y-63014761D01*
X74684047Y-63062380D01*
X74588809Y-63062380D01*
X74493571Y-63014761D01*
X74445952Y-62967142D01*
X74398333Y-62871904D01*
X74350714Y-62681428D01*
X74350714Y-62443333D01*
X74398333Y-62252857D01*
X74445952Y-62157619D01*
X74493571Y-62110000D01*
X74588809Y-62062380D01*
X75350714Y-63062380D02*
X75350714Y-62062380D01*
X75445952Y-62681428D02*
X75731666Y-63062380D01*
X75731666Y-62395714D02*
X75350714Y-62776666D01*
D12*
X74243571Y-61186190D02*
X74076904Y-60948095D01*
X73957857Y-61186190D02*
X73957857Y-60686190D01*
X74148333Y-60686190D01*
X74195952Y-60710000D01*
X74219761Y-60733809D01*
X74243571Y-60781428D01*
X74243571Y-60852857D01*
X74219761Y-60900476D01*
X74195952Y-60924285D01*
X74148333Y-60948095D01*
X73957857Y-60948095D01*
X74719761Y-61186190D02*
X74434047Y-61186190D01*
X74576904Y-61186190D02*
X74576904Y-60686190D01*
X74529285Y-60757619D01*
X74481666Y-60805238D01*
X74434047Y-60829047D01*
X75195952Y-61186190D02*
X74910238Y-61186190D01*
X75053095Y-61186190D02*
X75053095Y-60686190D01*
X75005476Y-60757619D01*
X74957857Y-60805238D01*
X74910238Y-60829047D01*
D10*
X96512142Y-98622380D02*
X96035952Y-98622380D01*
X95988333Y-99098571D01*
X96035952Y-99050952D01*
X96131190Y-99003333D01*
X96369285Y-99003333D01*
X96464523Y-99050952D01*
X96512142Y-99098571D01*
X96559761Y-99193809D01*
X96559761Y-99431904D01*
X96512142Y-99527142D01*
X96464523Y-99574761D01*
X96369285Y-99622380D01*
X96131190Y-99622380D01*
X96035952Y-99574761D01*
X95988333Y-99527142D01*
X97512142Y-99622380D02*
X96940714Y-99622380D01*
X97226428Y-99622380D02*
X97226428Y-98622380D01*
X97131190Y-98765238D01*
X97035952Y-98860476D01*
X96940714Y-98908095D01*
X97940714Y-99622380D02*
X97940714Y-98622380D01*
X98035952Y-99241428D02*
X98321666Y-99622380D01*
X98321666Y-98955714D02*
X97940714Y-99336666D01*
D12*
X97071666Y-97746190D02*
X96905000Y-97508095D01*
X96785952Y-97746190D02*
X96785952Y-97246190D01*
X96976428Y-97246190D01*
X97024047Y-97270000D01*
X97047857Y-97293809D01*
X97071666Y-97341428D01*
X97071666Y-97412857D01*
X97047857Y-97460476D01*
X97024047Y-97484285D01*
X96976428Y-97508095D01*
X96785952Y-97508095D01*
X97309761Y-97746190D02*
X97405000Y-97746190D01*
X97452619Y-97722380D01*
X97476428Y-97698571D01*
X97524047Y-97627142D01*
X97547857Y-97531904D01*
X97547857Y-97341428D01*
X97524047Y-97293809D01*
X97500238Y-97270000D01*
X97452619Y-97246190D01*
X97357380Y-97246190D01*
X97309761Y-97270000D01*
X97285952Y-97293809D01*
X97262142Y-97341428D01*
X97262142Y-97460476D01*
X97285952Y-97508095D01*
X97309761Y-97531904D01*
X97357380Y-97555714D01*
X97452619Y-97555714D01*
X97500238Y-97531904D01*
X97524047Y-97508095D01*
X97547857Y-97460476D01*
D10*
X111981428Y-116898571D02*
X111648095Y-116898571D01*
X111648095Y-117422380D02*
X111648095Y-116422380D01*
X112124285Y-116422380D01*
X112410000Y-116422380D02*
X112648095Y-117422380D01*
X112838571Y-116708095D01*
X113029047Y-117422380D01*
X113267142Y-116422380D01*
X110796666Y-107624761D02*
X110939523Y-107672380D01*
X111177619Y-107672380D01*
X111272857Y-107624761D01*
X111320476Y-107577142D01*
X111368095Y-107481904D01*
X111368095Y-107386666D01*
X111320476Y-107291428D01*
X111272857Y-107243809D01*
X111177619Y-107196190D01*
X110987142Y-107148571D01*
X110891904Y-107100952D01*
X110844285Y-107053333D01*
X110796666Y-106958095D01*
X110796666Y-106862857D01*
X110844285Y-106767619D01*
X110891904Y-106720000D01*
X110987142Y-106672380D01*
X111225238Y-106672380D01*
X111368095Y-106720000D01*
X111701428Y-106672380D02*
X111939523Y-107672380D01*
X112130000Y-106958095D01*
X112320476Y-107672380D01*
X112558571Y-106672380D01*
X113415714Y-106672380D02*
X112939523Y-106672380D01*
X112891904Y-107148571D01*
X112939523Y-107100952D01*
X113034761Y-107053333D01*
X113272857Y-107053333D01*
X113368095Y-107100952D01*
X113415714Y-107148571D01*
X113463333Y-107243809D01*
X113463333Y-107481904D01*
X113415714Y-107577142D01*
X113368095Y-107624761D01*
X113272857Y-107672380D01*
X113034761Y-107672380D01*
X112939523Y-107624761D01*
X112891904Y-107577142D01*
X104727142Y-127301190D02*
X104774761Y-127348809D01*
X104822380Y-127491666D01*
X104822380Y-127586904D01*
X104774761Y-127729761D01*
X104679523Y-127825000D01*
X104584285Y-127872619D01*
X104393809Y-127920238D01*
X104250952Y-127920238D01*
X104060476Y-127872619D01*
X103965238Y-127825000D01*
X103870000Y-127729761D01*
X103822380Y-127586904D01*
X103822380Y-127491666D01*
X103870000Y-127348809D01*
X103917619Y-127301190D01*
X104822380Y-126729761D02*
X104774761Y-126825000D01*
X104727142Y-126872619D01*
X104631904Y-126920238D01*
X104346190Y-126920238D01*
X104250952Y-126872619D01*
X104203333Y-126825000D01*
X104155714Y-126729761D01*
X104155714Y-126586904D01*
X104203333Y-126491666D01*
X104250952Y-126444047D01*
X104346190Y-126396428D01*
X104631904Y-126396428D01*
X104727142Y-126444047D01*
X104774761Y-126491666D01*
X104822380Y-126586904D01*
X104822380Y-126729761D01*
X104155714Y-125967857D02*
X104822380Y-125967857D01*
X104250952Y-125967857D02*
X104203333Y-125920238D01*
X104155714Y-125825000D01*
X104155714Y-125682142D01*
X104203333Y-125586904D01*
X104298571Y-125539285D01*
X104822380Y-125539285D01*
X104155714Y-125063095D02*
X104822380Y-125063095D01*
X104250952Y-125063095D02*
X104203333Y-125015476D01*
X104155714Y-124920238D01*
X104155714Y-124777380D01*
X104203333Y-124682142D01*
X104298571Y-124634523D01*
X104822380Y-124634523D01*
X104917619Y-124396428D02*
X104917619Y-123634523D01*
X104822380Y-122967857D02*
X104298571Y-122967857D01*
X104203333Y-123015476D01*
X104155714Y-123110714D01*
X104155714Y-123301190D01*
X104203333Y-123396428D01*
X104774761Y-122967857D02*
X104822380Y-123063095D01*
X104822380Y-123301190D01*
X104774761Y-123396428D01*
X104679523Y-123444047D01*
X104584285Y-123444047D01*
X104489047Y-123396428D01*
X104441428Y-123301190D01*
X104441428Y-123063095D01*
X104393809Y-122967857D01*
X104155714Y-122063095D02*
X104822380Y-122063095D01*
X104155714Y-122491666D02*
X104679523Y-122491666D01*
X104774761Y-122444047D01*
X104822380Y-122348809D01*
X104822380Y-122205952D01*
X104774761Y-122110714D01*
X104727142Y-122063095D01*
X104822380Y-121158333D02*
X103822380Y-121158333D01*
X104774761Y-121158333D02*
X104822380Y-121253571D01*
X104822380Y-121444047D01*
X104774761Y-121539285D01*
X104727142Y-121586904D01*
X104631904Y-121634523D01*
X104346190Y-121634523D01*
X104250952Y-121586904D01*
X104203333Y-121539285D01*
X104155714Y-121444047D01*
X104155714Y-121253571D01*
X104203333Y-121158333D01*
X104822380Y-120682142D02*
X104155714Y-120682142D01*
X103822380Y-120682142D02*
X103870000Y-120729761D01*
X103917619Y-120682142D01*
X103870000Y-120634523D01*
X103822380Y-120682142D01*
X103917619Y-120682142D01*
X104822380Y-120063095D02*
X104774761Y-120158333D01*
X104727142Y-120205952D01*
X104631904Y-120253571D01*
X104346190Y-120253571D01*
X104250952Y-120205952D01*
X104203333Y-120158333D01*
X104155714Y-120063095D01*
X104155714Y-119920238D01*
X104203333Y-119825000D01*
X104250952Y-119777380D01*
X104346190Y-119729761D01*
X104631904Y-119729761D01*
X104727142Y-119777380D01*
X104774761Y-119825000D01*
X104822380Y-119920238D01*
X104822380Y-120063095D01*
X93646666Y-123277380D02*
X93646666Y-123991666D01*
X93599047Y-124134523D01*
X93503809Y-124229761D01*
X93360952Y-124277380D01*
X93265714Y-124277380D01*
X94551428Y-123610714D02*
X94551428Y-124277380D01*
X94313333Y-123229761D02*
X94075238Y-123944047D01*
X94694285Y-123944047D01*
X102544761Y-99892380D02*
X101973333Y-99892380D01*
X102259047Y-99892380D02*
X102259047Y-98892380D01*
X102163809Y-99035238D01*
X102068571Y-99130476D01*
X101973333Y-99178095D01*
X103163809Y-98892380D02*
X103259047Y-98892380D01*
X103354285Y-98940000D01*
X103401904Y-98987619D01*
X103449523Y-99082857D01*
X103497142Y-99273333D01*
X103497142Y-99511428D01*
X103449523Y-99701904D01*
X103401904Y-99797142D01*
X103354285Y-99844761D01*
X103259047Y-99892380D01*
X103163809Y-99892380D01*
X103068571Y-99844761D01*
X103020952Y-99797142D01*
X102973333Y-99701904D01*
X102925714Y-99511428D01*
X102925714Y-99273333D01*
X102973333Y-99082857D01*
X103020952Y-98987619D01*
X103068571Y-98940000D01*
X103163809Y-98892380D01*
X103925714Y-99892380D02*
X103925714Y-98892380D01*
X104020952Y-99511428D02*
X104306666Y-99892380D01*
X104306666Y-99225714D02*
X103925714Y-99606666D01*
D12*
X103056666Y-98016190D02*
X102890000Y-97778095D01*
X102770952Y-98016190D02*
X102770952Y-97516190D01*
X102961428Y-97516190D01*
X103009047Y-97540000D01*
X103032857Y-97563809D01*
X103056666Y-97611428D01*
X103056666Y-97682857D01*
X103032857Y-97730476D01*
X103009047Y-97754285D01*
X102961428Y-97778095D01*
X102770952Y-97778095D01*
X103485238Y-97516190D02*
X103390000Y-97516190D01*
X103342380Y-97540000D01*
X103318571Y-97563809D01*
X103270952Y-97635238D01*
X103247142Y-97730476D01*
X103247142Y-97920952D01*
X103270952Y-97968571D01*
X103294761Y-97992380D01*
X103342380Y-98016190D01*
X103437619Y-98016190D01*
X103485238Y-97992380D01*
X103509047Y-97968571D01*
X103532857Y-97920952D01*
X103532857Y-97801904D01*
X103509047Y-97754285D01*
X103485238Y-97730476D01*
X103437619Y-97706666D01*
X103342380Y-97706666D01*
X103294761Y-97730476D01*
X103270952Y-97754285D01*
X103247142Y-97801904D01*
D10*
X108458095Y-91480714D02*
X108458095Y-92147380D01*
X108220000Y-91099761D02*
X107981904Y-91814047D01*
X108600952Y-91814047D01*
X108886666Y-91147380D02*
X109553333Y-91147380D01*
X109124761Y-92147380D01*
X110124761Y-91147380D02*
X110220000Y-91147380D01*
X110315238Y-91195000D01*
X110362857Y-91242619D01*
X110410476Y-91337857D01*
X110458095Y-91528333D01*
X110458095Y-91766428D01*
X110410476Y-91956904D01*
X110362857Y-92052142D01*
X110315238Y-92099761D01*
X110220000Y-92147380D01*
X110124761Y-92147380D01*
X110029523Y-92099761D01*
X109981904Y-92052142D01*
X109934285Y-91956904D01*
X109886666Y-91766428D01*
X109886666Y-91528333D01*
X109934285Y-91337857D01*
X109981904Y-91242619D01*
X110029523Y-91195000D01*
X110124761Y-91147380D01*
D12*
X109136666Y-93571190D02*
X108970000Y-93333095D01*
X108850952Y-93571190D02*
X108850952Y-93071190D01*
X109041428Y-93071190D01*
X109089047Y-93095000D01*
X109112857Y-93118809D01*
X109136666Y-93166428D01*
X109136666Y-93237857D01*
X109112857Y-93285476D01*
X109089047Y-93309285D01*
X109041428Y-93333095D01*
X108850952Y-93333095D01*
X109303333Y-93071190D02*
X109636666Y-93071190D01*
X109422380Y-93571190D01*
D10*
X55812142Y-69952619D02*
X55859761Y-70000238D01*
X55907380Y-70143095D01*
X55907380Y-70238333D01*
X55859761Y-70381190D01*
X55764523Y-70476428D01*
X55669285Y-70524047D01*
X55478809Y-70571666D01*
X55335952Y-70571666D01*
X55145476Y-70524047D01*
X55050238Y-70476428D01*
X54955000Y-70381190D01*
X54907380Y-70238333D01*
X54907380Y-70143095D01*
X54955000Y-70000238D01*
X55002619Y-69952619D01*
X55907380Y-69381190D02*
X55859761Y-69476428D01*
X55812142Y-69524047D01*
X55716904Y-69571666D01*
X55431190Y-69571666D01*
X55335952Y-69524047D01*
X55288333Y-69476428D01*
X55240714Y-69381190D01*
X55240714Y-69238333D01*
X55288333Y-69143095D01*
X55335952Y-69095476D01*
X55431190Y-69047857D01*
X55716904Y-69047857D01*
X55812142Y-69095476D01*
X55859761Y-69143095D01*
X55907380Y-69238333D01*
X55907380Y-69381190D01*
X55240714Y-68619285D02*
X55907380Y-68619285D01*
X55335952Y-68619285D02*
X55288333Y-68571666D01*
X55240714Y-68476428D01*
X55240714Y-68333571D01*
X55288333Y-68238333D01*
X55383571Y-68190714D01*
X55907380Y-68190714D01*
X55240714Y-67714523D02*
X55907380Y-67714523D01*
X55335952Y-67714523D02*
X55288333Y-67666904D01*
X55240714Y-67571666D01*
X55240714Y-67428809D01*
X55288333Y-67333571D01*
X55383571Y-67285952D01*
X55907380Y-67285952D01*
X56002619Y-67047857D02*
X56002619Y-66285952D01*
X55907380Y-65619285D02*
X54907380Y-65619285D01*
X55859761Y-65619285D02*
X55907380Y-65714523D01*
X55907380Y-65905000D01*
X55859761Y-66000238D01*
X55812142Y-66047857D01*
X55716904Y-66095476D01*
X55431190Y-66095476D01*
X55335952Y-66047857D01*
X55288333Y-66000238D01*
X55240714Y-65905000D01*
X55240714Y-65714523D01*
X55288333Y-65619285D01*
X55907380Y-65143095D02*
X55240714Y-65143095D01*
X54907380Y-65143095D02*
X54955000Y-65190714D01*
X55002619Y-65143095D01*
X54955000Y-65095476D01*
X54907380Y-65143095D01*
X55002619Y-65143095D01*
X55859761Y-64714523D02*
X55907380Y-64619285D01*
X55907380Y-64428809D01*
X55859761Y-64333571D01*
X55764523Y-64285952D01*
X55716904Y-64285952D01*
X55621666Y-64333571D01*
X55574047Y-64428809D01*
X55574047Y-64571666D01*
X55526428Y-64666904D01*
X55431190Y-64714523D01*
X55383571Y-64714523D01*
X55288333Y-64666904D01*
X55240714Y-64571666D01*
X55240714Y-64428809D01*
X55288333Y-64333571D01*
X55240714Y-63857380D02*
X56240714Y-63857380D01*
X55288333Y-63857380D02*
X55240714Y-63762142D01*
X55240714Y-63571666D01*
X55288333Y-63476428D01*
X55335952Y-63428809D01*
X55431190Y-63381190D01*
X55716904Y-63381190D01*
X55812142Y-63428809D01*
X55859761Y-63476428D01*
X55907380Y-63571666D01*
X55907380Y-63762142D01*
X55859761Y-63857380D01*
X55907380Y-62809761D02*
X55859761Y-62905000D01*
X55764523Y-62952619D01*
X54907380Y-62952619D01*
X55907380Y-62000238D02*
X55383571Y-62000238D01*
X55288333Y-62047857D01*
X55240714Y-62143095D01*
X55240714Y-62333571D01*
X55288333Y-62428809D01*
X55859761Y-62000238D02*
X55907380Y-62095476D01*
X55907380Y-62333571D01*
X55859761Y-62428809D01*
X55764523Y-62476428D01*
X55669285Y-62476428D01*
X55574047Y-62428809D01*
X55526428Y-62333571D01*
X55526428Y-62095476D01*
X55478809Y-62000238D01*
X55240714Y-61619285D02*
X55907380Y-61381190D01*
X55240714Y-61143095D02*
X55907380Y-61381190D01*
X56145476Y-61476428D01*
X56193095Y-61524047D01*
X56240714Y-61619285D01*
X55002619Y-60809761D02*
X54955000Y-60762142D01*
X54907380Y-60666904D01*
X54907380Y-60428809D01*
X54955000Y-60333571D01*
X55002619Y-60285952D01*
X55097857Y-60238333D01*
X55193095Y-60238333D01*
X55335952Y-60285952D01*
X55907380Y-60857380D01*
X55907380Y-60238333D01*
X63801666Y-64857380D02*
X63801666Y-65571666D01*
X63754047Y-65714523D01*
X63658809Y-65809761D01*
X63515952Y-65857380D01*
X63420714Y-65857380D01*
X64801666Y-65857380D02*
X64230238Y-65857380D01*
X64515952Y-65857380D02*
X64515952Y-64857380D01*
X64420714Y-65000238D01*
X64325476Y-65095476D01*
X64230238Y-65143095D01*
X99389961Y-115118638D02*
X99437580Y-114975780D01*
X99437580Y-114737685D01*
X99389961Y-114642447D01*
X99342342Y-114594828D01*
X99247104Y-114547209D01*
X99151866Y-114547209D01*
X99056628Y-114594828D01*
X99009009Y-114642447D01*
X98961390Y-114737685D01*
X98913771Y-114928161D01*
X98866152Y-115023400D01*
X98818533Y-115071019D01*
X98723295Y-115118638D01*
X98628057Y-115118638D01*
X98532819Y-115071019D01*
X98485200Y-115023400D01*
X98437580Y-114928161D01*
X98437580Y-114690066D01*
X98485200Y-114547209D01*
X99437580Y-113690066D02*
X98913771Y-113690066D01*
X98818533Y-113737685D01*
X98770914Y-113832923D01*
X98770914Y-114023400D01*
X98818533Y-114118638D01*
X99389961Y-113690066D02*
X99437580Y-113785304D01*
X99437580Y-114023400D01*
X99389961Y-114118638D01*
X99294723Y-114166257D01*
X99199485Y-114166257D01*
X99104247Y-114118638D01*
X99056628Y-114023400D01*
X99056628Y-113785304D01*
X99009009Y-113690066D01*
X99437580Y-113071019D02*
X99389961Y-113166257D01*
X99294723Y-113213876D01*
X98437580Y-113213876D01*
X99437580Y-112690066D02*
X98770914Y-112690066D01*
X98437580Y-112690066D02*
X98485200Y-112737685D01*
X98532819Y-112690066D01*
X98485200Y-112642447D01*
X98437580Y-112690066D01*
X98532819Y-112690066D01*
X99437580Y-111785304D02*
X98437580Y-111785304D01*
X99389961Y-111785304D02*
X99437580Y-111880542D01*
X99437580Y-112071019D01*
X99389961Y-112166257D01*
X99342342Y-112213876D01*
X99247104Y-112261495D01*
X98961390Y-112261495D01*
X98866152Y-112213876D01*
X98818533Y-112166257D01*
X98770914Y-112071019D01*
X98770914Y-111880542D01*
X98818533Y-111785304D01*
X99437580Y-110880542D02*
X98913771Y-110880542D01*
X98818533Y-110928161D01*
X98770914Y-111023400D01*
X98770914Y-111213876D01*
X98818533Y-111309114D01*
X99389961Y-110880542D02*
X99437580Y-110975780D01*
X99437580Y-111213876D01*
X99389961Y-111309114D01*
X99294723Y-111356733D01*
X99199485Y-111356733D01*
X99104247Y-111309114D01*
X99056628Y-111213876D01*
X99056628Y-110975780D01*
X99009009Y-110880542D01*
X99532819Y-110642447D02*
X99532819Y-109880542D01*
X99437580Y-109213876D02*
X98913771Y-109213876D01*
X98818533Y-109261495D01*
X98770914Y-109356733D01*
X98770914Y-109547209D01*
X98818533Y-109642447D01*
X99389961Y-109213876D02*
X99437580Y-109309114D01*
X99437580Y-109547209D01*
X99389961Y-109642447D01*
X99294723Y-109690066D01*
X99199485Y-109690066D01*
X99104247Y-109642447D01*
X99056628Y-109547209D01*
X99056628Y-109309114D01*
X99009009Y-109213876D01*
X99437580Y-108737685D02*
X98770914Y-108737685D01*
X98866152Y-108737685D02*
X98818533Y-108690066D01*
X98770914Y-108594828D01*
X98770914Y-108451971D01*
X98818533Y-108356733D01*
X98913771Y-108309114D01*
X99437580Y-108309114D01*
X98913771Y-108309114D02*
X98818533Y-108261495D01*
X98770914Y-108166257D01*
X98770914Y-108023400D01*
X98818533Y-107928161D01*
X98913771Y-107880542D01*
X99437580Y-107880542D01*
X98770914Y-107404352D02*
X99770914Y-107404352D01*
X98818533Y-107404352D02*
X98770914Y-107309114D01*
X98770914Y-107118638D01*
X98818533Y-107023400D01*
X98866152Y-106975780D01*
X98961390Y-106928161D01*
X99247104Y-106928161D01*
X99342342Y-106975780D01*
X99389961Y-107023400D01*
X99437580Y-107118638D01*
X99437580Y-107309114D01*
X99389961Y-107404352D01*
X93411866Y-110475780D02*
X93411866Y-111190066D01*
X93364247Y-111332923D01*
X93269009Y-111428161D01*
X93126152Y-111475780D01*
X93030914Y-111475780D01*
X94316628Y-110475780D02*
X94126152Y-110475780D01*
X94030914Y-110523400D01*
X93983295Y-110571019D01*
X93888057Y-110713876D01*
X93840438Y-110904352D01*
X93840438Y-111285304D01*
X93888057Y-111380542D01*
X93935676Y-111428161D01*
X94030914Y-111475780D01*
X94221390Y-111475780D01*
X94316628Y-111428161D01*
X94364247Y-111380542D01*
X94411866Y-111285304D01*
X94411866Y-111047209D01*
X94364247Y-110951971D01*
X94316628Y-110904352D01*
X94221390Y-110856733D01*
X94030914Y-110856733D01*
X93935676Y-110904352D01*
X93888057Y-110951971D01*
X93840438Y-111047209D01*
X83227380Y-101216547D02*
X83227380Y-101787976D01*
X83227380Y-101502261D02*
X82227380Y-101502261D01*
X82370238Y-101597500D01*
X82465476Y-101692738D01*
X82513095Y-101787976D01*
X82227380Y-100597500D02*
X82227380Y-100502261D01*
X82275000Y-100407023D01*
X82322619Y-100359404D01*
X82417857Y-100311785D01*
X82608333Y-100264166D01*
X82846428Y-100264166D01*
X83036904Y-100311785D01*
X83132142Y-100359404D01*
X83179761Y-100407023D01*
X83227380Y-100502261D01*
X83227380Y-100597500D01*
X83179761Y-100692738D01*
X83132142Y-100740357D01*
X83036904Y-100787976D01*
X82846428Y-100835595D01*
X82608333Y-100835595D01*
X82417857Y-100787976D01*
X82322619Y-100740357D01*
X82275000Y-100692738D01*
X82227380Y-100597500D01*
X82227380Y-99645119D02*
X82227380Y-99549880D01*
X82275000Y-99454642D01*
X82322619Y-99407023D01*
X82417857Y-99359404D01*
X82608333Y-99311785D01*
X82846428Y-99311785D01*
X83036904Y-99359404D01*
X83132142Y-99407023D01*
X83179761Y-99454642D01*
X83227380Y-99549880D01*
X83227380Y-99645119D01*
X83179761Y-99740357D01*
X83132142Y-99787976D01*
X83036904Y-99835595D01*
X82846428Y-99883214D01*
X82608333Y-99883214D01*
X82417857Y-99835595D01*
X82322619Y-99787976D01*
X82275000Y-99740357D01*
X82227380Y-99645119D01*
X82560714Y-98883214D02*
X83227380Y-98883214D01*
X82655952Y-98883214D02*
X82608333Y-98835595D01*
X82560714Y-98740357D01*
X82560714Y-98597500D01*
X82608333Y-98502261D01*
X82703571Y-98454642D01*
X83227380Y-98454642D01*
D12*
X84633571Y-100418928D02*
X84657380Y-100442738D01*
X84681190Y-100514166D01*
X84681190Y-100561785D01*
X84657380Y-100633214D01*
X84609761Y-100680833D01*
X84562142Y-100704642D01*
X84466904Y-100728452D01*
X84395476Y-100728452D01*
X84300238Y-100704642D01*
X84252619Y-100680833D01*
X84205000Y-100633214D01*
X84181190Y-100561785D01*
X84181190Y-100514166D01*
X84205000Y-100442738D01*
X84228809Y-100418928D01*
X84681190Y-99942738D02*
X84681190Y-100228452D01*
X84681190Y-100085595D02*
X84181190Y-100085595D01*
X84252619Y-100133214D01*
X84300238Y-100180833D01*
X84324047Y-100228452D01*
X84681190Y-99466547D02*
X84681190Y-99752261D01*
X84681190Y-99609404D02*
X84181190Y-99609404D01*
X84252619Y-99657023D01*
X84300238Y-99704642D01*
X84324047Y-99752261D01*
D10*
X101983452Y-92117380D02*
X101412023Y-92117380D01*
X101697738Y-92117380D02*
X101697738Y-91117380D01*
X101602500Y-91260238D01*
X101507261Y-91355476D01*
X101412023Y-91403095D01*
X102602500Y-91117380D02*
X102697738Y-91117380D01*
X102792976Y-91165000D01*
X102840595Y-91212619D01*
X102888214Y-91307857D01*
X102935833Y-91498333D01*
X102935833Y-91736428D01*
X102888214Y-91926904D01*
X102840595Y-92022142D01*
X102792976Y-92069761D01*
X102697738Y-92117380D01*
X102602500Y-92117380D01*
X102507261Y-92069761D01*
X102459642Y-92022142D01*
X102412023Y-91926904D01*
X102364404Y-91736428D01*
X102364404Y-91498333D01*
X102412023Y-91307857D01*
X102459642Y-91212619D01*
X102507261Y-91165000D01*
X102602500Y-91117380D01*
X103554880Y-91117380D02*
X103650119Y-91117380D01*
X103745357Y-91165000D01*
X103792976Y-91212619D01*
X103840595Y-91307857D01*
X103888214Y-91498333D01*
X103888214Y-91736428D01*
X103840595Y-91926904D01*
X103792976Y-92022142D01*
X103745357Y-92069761D01*
X103650119Y-92117380D01*
X103554880Y-92117380D01*
X103459642Y-92069761D01*
X103412023Y-92022142D01*
X103364404Y-91926904D01*
X103316785Y-91736428D01*
X103316785Y-91498333D01*
X103364404Y-91307857D01*
X103412023Y-91212619D01*
X103459642Y-91165000D01*
X103554880Y-91117380D01*
X104316785Y-91450714D02*
X104316785Y-92117380D01*
X104316785Y-91545952D02*
X104364404Y-91498333D01*
X104459642Y-91450714D01*
X104602500Y-91450714D01*
X104697738Y-91498333D01*
X104745357Y-91593571D01*
X104745357Y-92117380D01*
D12*
X102781071Y-93523571D02*
X102757261Y-93547380D01*
X102685833Y-93571190D01*
X102638214Y-93571190D01*
X102566785Y-93547380D01*
X102519166Y-93499761D01*
X102495357Y-93452142D01*
X102471547Y-93356904D01*
X102471547Y-93285476D01*
X102495357Y-93190238D01*
X102519166Y-93142619D01*
X102566785Y-93095000D01*
X102638214Y-93071190D01*
X102685833Y-93071190D01*
X102757261Y-93095000D01*
X102781071Y-93118809D01*
X103257261Y-93571190D02*
X102971547Y-93571190D01*
X103114404Y-93571190D02*
X103114404Y-93071190D01*
X103066785Y-93142619D01*
X103019166Y-93190238D01*
X102971547Y-93214047D01*
X103447738Y-93118809D02*
X103471547Y-93095000D01*
X103519166Y-93071190D01*
X103638214Y-93071190D01*
X103685833Y-93095000D01*
X103709642Y-93118809D01*
X103733452Y-93166428D01*
X103733452Y-93214047D01*
X103709642Y-93285476D01*
X103423928Y-93571190D01*
X103733452Y-93571190D01*
D10*
X40162857Y-105800000D02*
X40067619Y-105752380D01*
X39924761Y-105752380D01*
X39781904Y-105800000D01*
X39686666Y-105895238D01*
X39639047Y-105990476D01*
X39591428Y-106180952D01*
X39591428Y-106323809D01*
X39639047Y-106514285D01*
X39686666Y-106609523D01*
X39781904Y-106704761D01*
X39924761Y-106752380D01*
X40020000Y-106752380D01*
X40162857Y-106704761D01*
X40210476Y-106657142D01*
X40210476Y-106323809D01*
X40020000Y-106323809D01*
X40639047Y-106752380D02*
X40639047Y-106085714D01*
X40639047Y-106276190D02*
X40686666Y-106180952D01*
X40734285Y-106133333D01*
X40829523Y-106085714D01*
X40924761Y-106085714D01*
X41639047Y-106704761D02*
X41543809Y-106752380D01*
X41353333Y-106752380D01*
X41258095Y-106704761D01*
X41210476Y-106609523D01*
X41210476Y-106228571D01*
X41258095Y-106133333D01*
X41353333Y-106085714D01*
X41543809Y-106085714D01*
X41639047Y-106133333D01*
X41686666Y-106228571D01*
X41686666Y-106323809D01*
X41210476Y-106419047D01*
X42496190Y-106704761D02*
X42400952Y-106752380D01*
X42210476Y-106752380D01*
X42115238Y-106704761D01*
X42067619Y-106609523D01*
X42067619Y-106228571D01*
X42115238Y-106133333D01*
X42210476Y-106085714D01*
X42400952Y-106085714D01*
X42496190Y-106133333D01*
X42543809Y-106228571D01*
X42543809Y-106323809D01*
X42067619Y-106419047D01*
X42972380Y-106085714D02*
X42972380Y-106752380D01*
X42972380Y-106180952D02*
X43020000Y-106133333D01*
X43115238Y-106085714D01*
X43258095Y-106085714D01*
X43353333Y-106133333D01*
X43400952Y-106228571D01*
X43400952Y-106752380D01*
D12*
X41150952Y-108176190D02*
X41150952Y-107676190D01*
X41270000Y-107676190D01*
X41341428Y-107700000D01*
X41389047Y-107747619D01*
X41412857Y-107795238D01*
X41436666Y-107890476D01*
X41436666Y-107961904D01*
X41412857Y-108057142D01*
X41389047Y-108104761D01*
X41341428Y-108152380D01*
X41270000Y-108176190D01*
X41150952Y-108176190D01*
X41912857Y-108176190D02*
X41627142Y-108176190D01*
X41770000Y-108176190D02*
X41770000Y-107676190D01*
X41722380Y-107747619D01*
X41674761Y-107795238D01*
X41627142Y-107819047D01*
D10*
X62984047Y-70192380D02*
X62507857Y-70192380D01*
X62460238Y-70668571D01*
X62507857Y-70620952D01*
X62603095Y-70573333D01*
X62841190Y-70573333D01*
X62936428Y-70620952D01*
X62984047Y-70668571D01*
X63031666Y-70763809D01*
X63031666Y-71001904D01*
X62984047Y-71097142D01*
X62936428Y-71144761D01*
X62841190Y-71192380D01*
X62603095Y-71192380D01*
X62507857Y-71144761D01*
X62460238Y-71097142D01*
X63460238Y-71097142D02*
X63507857Y-71144761D01*
X63460238Y-71192380D01*
X63412619Y-71144761D01*
X63460238Y-71097142D01*
X63460238Y-71192380D01*
X64460238Y-71192380D02*
X63888809Y-71192380D01*
X64174523Y-71192380D02*
X64174523Y-70192380D01*
X64079285Y-70335238D01*
X63984047Y-70430476D01*
X63888809Y-70478095D01*
X64888809Y-71192380D02*
X64888809Y-70192380D01*
X64984047Y-70811428D02*
X65269761Y-71192380D01*
X65269761Y-70525714D02*
X64888809Y-70906666D01*
D12*
X63543571Y-72616190D02*
X63376904Y-72378095D01*
X63257857Y-72616190D02*
X63257857Y-72116190D01*
X63448333Y-72116190D01*
X63495952Y-72140000D01*
X63519761Y-72163809D01*
X63543571Y-72211428D01*
X63543571Y-72282857D01*
X63519761Y-72330476D01*
X63495952Y-72354285D01*
X63448333Y-72378095D01*
X63257857Y-72378095D01*
X64019761Y-72616190D02*
X63734047Y-72616190D01*
X63876904Y-72616190D02*
X63876904Y-72116190D01*
X63829285Y-72187619D01*
X63781666Y-72235238D01*
X63734047Y-72259047D01*
X64210238Y-72163809D02*
X64234047Y-72140000D01*
X64281666Y-72116190D01*
X64400714Y-72116190D01*
X64448333Y-72140000D01*
X64472142Y-72163809D01*
X64495952Y-72211428D01*
X64495952Y-72259047D01*
X64472142Y-72330476D01*
X64186428Y-72616190D01*
X64495952Y-72616190D01*
D10*
X40703571Y-103577380D02*
X40370238Y-103101190D01*
X40132142Y-103577380D02*
X40132142Y-102577380D01*
X40513095Y-102577380D01*
X40608333Y-102625000D01*
X40655952Y-102672619D01*
X40703571Y-102767857D01*
X40703571Y-102910714D01*
X40655952Y-103005952D01*
X40608333Y-103053571D01*
X40513095Y-103101190D01*
X40132142Y-103101190D01*
X41513095Y-103529761D02*
X41417857Y-103577380D01*
X41227380Y-103577380D01*
X41132142Y-103529761D01*
X41084523Y-103434523D01*
X41084523Y-103053571D01*
X41132142Y-102958333D01*
X41227380Y-102910714D01*
X41417857Y-102910714D01*
X41513095Y-102958333D01*
X41560714Y-103053571D01*
X41560714Y-103148809D01*
X41084523Y-103244047D01*
X42417857Y-103577380D02*
X42417857Y-102577380D01*
X42417857Y-103529761D02*
X42322619Y-103577380D01*
X42132142Y-103577380D01*
X42036904Y-103529761D01*
X41989285Y-103482142D01*
X41941666Y-103386904D01*
X41941666Y-103101190D01*
X41989285Y-103005952D01*
X42036904Y-102958333D01*
X42132142Y-102910714D01*
X42322619Y-102910714D01*
X42417857Y-102958333D01*
D12*
X40905952Y-105001190D02*
X40905952Y-104501190D01*
X41025000Y-104501190D01*
X41096428Y-104525000D01*
X41144047Y-104572619D01*
X41167857Y-104620238D01*
X41191666Y-104715476D01*
X41191666Y-104786904D01*
X41167857Y-104882142D01*
X41144047Y-104929761D01*
X41096428Y-104977380D01*
X41025000Y-105001190D01*
X40905952Y-105001190D01*
X41382142Y-104548809D02*
X41405952Y-104525000D01*
X41453571Y-104501190D01*
X41572619Y-104501190D01*
X41620238Y-104525000D01*
X41644047Y-104548809D01*
X41667857Y-104596428D01*
X41667857Y-104644047D01*
X41644047Y-104715476D01*
X41358333Y-105001190D01*
X41667857Y-105001190D01*
D10*
X69970000Y-113073571D02*
X70112857Y-113121190D01*
X70160476Y-113168809D01*
X70208095Y-113264047D01*
X70208095Y-113406904D01*
X70160476Y-113502142D01*
X70112857Y-113549761D01*
X70017619Y-113597380D01*
X69636666Y-113597380D01*
X69636666Y-112597380D01*
X69970000Y-112597380D01*
X70065238Y-112645000D01*
X70112857Y-112692619D01*
X70160476Y-112787857D01*
X70160476Y-112883095D01*
X70112857Y-112978333D01*
X70065238Y-113025952D01*
X69970000Y-113073571D01*
X69636666Y-113073571D01*
X70541428Y-112597380D02*
X70779523Y-113597380D01*
X70970000Y-112883095D01*
X71160476Y-113597380D01*
X71398571Y-112597380D01*
X69416666Y-123299761D02*
X69559523Y-123347380D01*
X69797619Y-123347380D01*
X69892857Y-123299761D01*
X69940476Y-123252142D01*
X69988095Y-123156904D01*
X69988095Y-123061666D01*
X69940476Y-122966428D01*
X69892857Y-122918809D01*
X69797619Y-122871190D01*
X69607142Y-122823571D01*
X69511904Y-122775952D01*
X69464285Y-122728333D01*
X69416666Y-122633095D01*
X69416666Y-122537857D01*
X69464285Y-122442619D01*
X69511904Y-122395000D01*
X69607142Y-122347380D01*
X69845238Y-122347380D01*
X69988095Y-122395000D01*
X70321428Y-122347380D02*
X70559523Y-123347380D01*
X70750000Y-122633095D01*
X70940476Y-123347380D01*
X71178571Y-122347380D01*
X71988095Y-122680714D02*
X71988095Y-123347380D01*
X71750000Y-122299761D02*
X71511904Y-123014047D01*
X72130952Y-123014047D01*
X79417380Y-67159047D02*
X79417380Y-67730476D01*
X79417380Y-67444761D02*
X78417380Y-67444761D01*
X78560238Y-67540000D01*
X78655476Y-67635238D01*
X78703095Y-67730476D01*
X78417380Y-66540000D02*
X78417380Y-66444761D01*
X78465000Y-66349523D01*
X78512619Y-66301904D01*
X78607857Y-66254285D01*
X78798333Y-66206666D01*
X79036428Y-66206666D01*
X79226904Y-66254285D01*
X79322142Y-66301904D01*
X79369761Y-66349523D01*
X79417380Y-66444761D01*
X79417380Y-66540000D01*
X79369761Y-66635238D01*
X79322142Y-66682857D01*
X79226904Y-66730476D01*
X79036428Y-66778095D01*
X78798333Y-66778095D01*
X78607857Y-66730476D01*
X78512619Y-66682857D01*
X78465000Y-66635238D01*
X78417380Y-66540000D01*
X78417380Y-65587619D02*
X78417380Y-65492380D01*
X78465000Y-65397142D01*
X78512619Y-65349523D01*
X78607857Y-65301904D01*
X78798333Y-65254285D01*
X79036428Y-65254285D01*
X79226904Y-65301904D01*
X79322142Y-65349523D01*
X79369761Y-65397142D01*
X79417380Y-65492380D01*
X79417380Y-65587619D01*
X79369761Y-65682857D01*
X79322142Y-65730476D01*
X79226904Y-65778095D01*
X79036428Y-65825714D01*
X78798333Y-65825714D01*
X78607857Y-65778095D01*
X78512619Y-65730476D01*
X78465000Y-65682857D01*
X78417380Y-65587619D01*
X78750714Y-64825714D02*
X79417380Y-64825714D01*
X78845952Y-64825714D02*
X78798333Y-64778095D01*
X78750714Y-64682857D01*
X78750714Y-64540000D01*
X78798333Y-64444761D01*
X78893571Y-64397142D01*
X79417380Y-64397142D01*
D12*
X80823571Y-66361428D02*
X80847380Y-66385238D01*
X80871190Y-66456666D01*
X80871190Y-66504285D01*
X80847380Y-66575714D01*
X80799761Y-66623333D01*
X80752142Y-66647142D01*
X80656904Y-66670952D01*
X80585476Y-66670952D01*
X80490238Y-66647142D01*
X80442619Y-66623333D01*
X80395000Y-66575714D01*
X80371190Y-66504285D01*
X80371190Y-66456666D01*
X80395000Y-66385238D01*
X80418809Y-66361428D01*
X80871190Y-65885238D02*
X80871190Y-66170952D01*
X80871190Y-66028095D02*
X80371190Y-66028095D01*
X80442619Y-66075714D01*
X80490238Y-66123333D01*
X80514047Y-66170952D01*
X80371190Y-65718571D02*
X80371190Y-65409047D01*
X80561666Y-65575714D01*
X80561666Y-65504285D01*
X80585476Y-65456666D01*
X80609285Y-65432857D01*
X80656904Y-65409047D01*
X80775952Y-65409047D01*
X80823571Y-65432857D01*
X80847380Y-65456666D01*
X80871190Y-65504285D01*
X80871190Y-65647142D01*
X80847380Y-65694761D01*
X80823571Y-65718571D01*
D10*
X72522142Y-80353571D02*
X72569761Y-80401190D01*
X72617380Y-80544047D01*
X72617380Y-80639285D01*
X72569761Y-80782142D01*
X72474523Y-80877380D01*
X72379285Y-80925000D01*
X72188809Y-80972619D01*
X72045952Y-80972619D01*
X71855476Y-80925000D01*
X71760238Y-80877380D01*
X71665000Y-80782142D01*
X71617380Y-80639285D01*
X71617380Y-80544047D01*
X71665000Y-80401190D01*
X71712619Y-80353571D01*
X72617380Y-79782142D02*
X72569761Y-79877380D01*
X72522142Y-79925000D01*
X72426904Y-79972619D01*
X72141190Y-79972619D01*
X72045952Y-79925000D01*
X71998333Y-79877380D01*
X71950714Y-79782142D01*
X71950714Y-79639285D01*
X71998333Y-79544047D01*
X72045952Y-79496428D01*
X72141190Y-79448809D01*
X72426904Y-79448809D01*
X72522142Y-79496428D01*
X72569761Y-79544047D01*
X72617380Y-79639285D01*
X72617380Y-79782142D01*
X71950714Y-79020238D02*
X72617380Y-79020238D01*
X72045952Y-79020238D02*
X71998333Y-78972619D01*
X71950714Y-78877380D01*
X71950714Y-78734523D01*
X71998333Y-78639285D01*
X72093571Y-78591666D01*
X72617380Y-78591666D01*
X71950714Y-78115476D02*
X72617380Y-78115476D01*
X72045952Y-78115476D02*
X71998333Y-78067857D01*
X71950714Y-77972619D01*
X71950714Y-77829761D01*
X71998333Y-77734523D01*
X72093571Y-77686904D01*
X72617380Y-77686904D01*
X72712619Y-77448809D02*
X72712619Y-76686904D01*
X72617380Y-76020238D02*
X71617380Y-76020238D01*
X72569761Y-76020238D02*
X72617380Y-76115476D01*
X72617380Y-76305952D01*
X72569761Y-76401190D01*
X72522142Y-76448809D01*
X72426904Y-76496428D01*
X72141190Y-76496428D01*
X72045952Y-76448809D01*
X71998333Y-76401190D01*
X71950714Y-76305952D01*
X71950714Y-76115476D01*
X71998333Y-76020238D01*
X72617380Y-75544047D02*
X71950714Y-75544047D01*
X71617380Y-75544047D02*
X71665000Y-75591666D01*
X71712619Y-75544047D01*
X71665000Y-75496428D01*
X71617380Y-75544047D01*
X71712619Y-75544047D01*
X72569761Y-75115476D02*
X72617380Y-75020238D01*
X72617380Y-74829761D01*
X72569761Y-74734523D01*
X72474523Y-74686904D01*
X72426904Y-74686904D01*
X72331666Y-74734523D01*
X72284047Y-74829761D01*
X72284047Y-74972619D01*
X72236428Y-75067857D01*
X72141190Y-75115476D01*
X72093571Y-75115476D01*
X71998333Y-75067857D01*
X71950714Y-74972619D01*
X71950714Y-74829761D01*
X71998333Y-74734523D01*
X71950714Y-74258333D02*
X72950714Y-74258333D01*
X71998333Y-74258333D02*
X71950714Y-74163095D01*
X71950714Y-73972619D01*
X71998333Y-73877380D01*
X72045952Y-73829761D01*
X72141190Y-73782142D01*
X72426904Y-73782142D01*
X72522142Y-73829761D01*
X72569761Y-73877380D01*
X72617380Y-73972619D01*
X72617380Y-74163095D01*
X72569761Y-74258333D01*
X72617380Y-73210714D02*
X72569761Y-73305952D01*
X72474523Y-73353571D01*
X71617380Y-73353571D01*
X72617380Y-72401190D02*
X72093571Y-72401190D01*
X71998333Y-72448809D01*
X71950714Y-72544047D01*
X71950714Y-72734523D01*
X71998333Y-72829761D01*
X72569761Y-72401190D02*
X72617380Y-72496428D01*
X72617380Y-72734523D01*
X72569761Y-72829761D01*
X72474523Y-72877380D01*
X72379285Y-72877380D01*
X72284047Y-72829761D01*
X72236428Y-72734523D01*
X72236428Y-72496428D01*
X72188809Y-72401190D01*
X71950714Y-72020238D02*
X72617380Y-71782142D01*
X71950714Y-71544047D02*
X72617380Y-71782142D01*
X72855476Y-71877380D01*
X72903095Y-71925000D01*
X72950714Y-72020238D01*
X72712619Y-71401190D02*
X72712619Y-70639285D01*
X71712619Y-70448809D02*
X71665000Y-70401190D01*
X71617380Y-70305952D01*
X71617380Y-70067857D01*
X71665000Y-69972619D01*
X71712619Y-69925000D01*
X71807857Y-69877380D01*
X71903095Y-69877380D01*
X72045952Y-69925000D01*
X72617380Y-70496428D01*
X72617380Y-69877380D01*
X73517380Y-75758333D02*
X74231666Y-75758333D01*
X74374523Y-75805952D01*
X74469761Y-75901190D01*
X74517380Y-76044047D01*
X74517380Y-76139285D01*
X73612619Y-75329761D02*
X73565000Y-75282142D01*
X73517380Y-75186904D01*
X73517380Y-74948809D01*
X73565000Y-74853571D01*
X73612619Y-74805952D01*
X73707857Y-74758333D01*
X73803095Y-74758333D01*
X73945952Y-74805952D01*
X74517380Y-75377380D01*
X74517380Y-74758333D01*
X77812380Y-92447857D02*
X77812380Y-92924047D01*
X78288571Y-92971666D01*
X78240952Y-92924047D01*
X78193333Y-92828809D01*
X78193333Y-92590714D01*
X78240952Y-92495476D01*
X78288571Y-92447857D01*
X78383809Y-92400238D01*
X78621904Y-92400238D01*
X78717142Y-92447857D01*
X78764761Y-92495476D01*
X78812380Y-92590714D01*
X78812380Y-92828809D01*
X78764761Y-92924047D01*
X78717142Y-92971666D01*
X78812380Y-91447857D02*
X78812380Y-92019285D01*
X78812380Y-91733571D02*
X77812380Y-91733571D01*
X77955238Y-91828809D01*
X78050476Y-91924047D01*
X78098095Y-92019285D01*
X78812380Y-91019285D02*
X77812380Y-91019285D01*
X78431428Y-90924047D02*
X78812380Y-90638333D01*
X78145714Y-90638333D02*
X78526666Y-91019285D01*
D12*
X80236190Y-91888333D02*
X79998095Y-92055000D01*
X80236190Y-92174047D02*
X79736190Y-92174047D01*
X79736190Y-91983571D01*
X79760000Y-91935952D01*
X79783809Y-91912142D01*
X79831428Y-91888333D01*
X79902857Y-91888333D01*
X79950476Y-91912142D01*
X79974285Y-91935952D01*
X79998095Y-91983571D01*
X79998095Y-92174047D01*
X79736190Y-91435952D02*
X79736190Y-91674047D01*
X79974285Y-91697857D01*
X79950476Y-91674047D01*
X79926666Y-91626428D01*
X79926666Y-91507380D01*
X79950476Y-91459761D01*
X79974285Y-91435952D01*
X80021904Y-91412142D01*
X80140952Y-91412142D01*
X80188571Y-91435952D01*
X80212380Y-91459761D01*
X80236190Y-91507380D01*
X80236190Y-91626428D01*
X80212380Y-91674047D01*
X80188571Y-91697857D01*
D10*
X110922142Y-78485476D02*
X110969761Y-78533095D01*
X111017380Y-78675952D01*
X111017380Y-78771190D01*
X110969761Y-78914047D01*
X110874523Y-79009285D01*
X110779285Y-79056904D01*
X110588809Y-79104523D01*
X110445952Y-79104523D01*
X110255476Y-79056904D01*
X110160238Y-79009285D01*
X110065000Y-78914047D01*
X110017380Y-78771190D01*
X110017380Y-78675952D01*
X110065000Y-78533095D01*
X110112619Y-78485476D01*
X111017380Y-77914047D02*
X110969761Y-78009285D01*
X110922142Y-78056904D01*
X110826904Y-78104523D01*
X110541190Y-78104523D01*
X110445952Y-78056904D01*
X110398333Y-78009285D01*
X110350714Y-77914047D01*
X110350714Y-77771190D01*
X110398333Y-77675952D01*
X110445952Y-77628333D01*
X110541190Y-77580714D01*
X110826904Y-77580714D01*
X110922142Y-77628333D01*
X110969761Y-77675952D01*
X111017380Y-77771190D01*
X111017380Y-77914047D01*
X110350714Y-77152142D02*
X111017380Y-77152142D01*
X110445952Y-77152142D02*
X110398333Y-77104523D01*
X110350714Y-77009285D01*
X110350714Y-76866428D01*
X110398333Y-76771190D01*
X110493571Y-76723571D01*
X111017380Y-76723571D01*
X110350714Y-76247380D02*
X111017380Y-76247380D01*
X110445952Y-76247380D02*
X110398333Y-76199761D01*
X110350714Y-76104523D01*
X110350714Y-75961666D01*
X110398333Y-75866428D01*
X110493571Y-75818809D01*
X111017380Y-75818809D01*
X111112619Y-75580714D02*
X111112619Y-74818809D01*
X110350714Y-74723571D02*
X110350714Y-74342619D01*
X110017380Y-74580714D02*
X110874523Y-74580714D01*
X110969761Y-74533095D01*
X111017380Y-74437857D01*
X111017380Y-74342619D01*
X110969761Y-73628333D02*
X111017380Y-73723571D01*
X111017380Y-73914047D01*
X110969761Y-74009285D01*
X110874523Y-74056904D01*
X110493571Y-74056904D01*
X110398333Y-74009285D01*
X110350714Y-73914047D01*
X110350714Y-73723571D01*
X110398333Y-73628333D01*
X110493571Y-73580714D01*
X110588809Y-73580714D01*
X110684047Y-74056904D01*
X110969761Y-72723571D02*
X111017380Y-72818809D01*
X111017380Y-73009285D01*
X110969761Y-73104523D01*
X110922142Y-73152142D01*
X110826904Y-73199761D01*
X110541190Y-73199761D01*
X110445952Y-73152142D01*
X110398333Y-73104523D01*
X110350714Y-73009285D01*
X110350714Y-72818809D01*
X110398333Y-72723571D01*
X111017380Y-72152142D02*
X110969761Y-72247380D01*
X110874523Y-72295000D01*
X110017380Y-72295000D01*
X111017380Y-71342619D02*
X110493571Y-71342619D01*
X110398333Y-71390238D01*
X110350714Y-71485476D01*
X110350714Y-71675952D01*
X110398333Y-71771190D01*
X110969761Y-71342619D02*
X111017380Y-71437857D01*
X111017380Y-71675952D01*
X110969761Y-71771190D01*
X110874523Y-71818809D01*
X110779285Y-71818809D01*
X110684047Y-71771190D01*
X110636428Y-71675952D01*
X110636428Y-71437857D01*
X110588809Y-71342619D01*
X111017380Y-70437857D02*
X110017380Y-70437857D01*
X110969761Y-70437857D02*
X111017380Y-70533095D01*
X111017380Y-70723571D01*
X110969761Y-70818809D01*
X110922142Y-70866428D01*
X110826904Y-70914047D01*
X110541190Y-70914047D01*
X110445952Y-70866428D01*
X110398333Y-70818809D01*
X110350714Y-70723571D01*
X110350714Y-70533095D01*
X110398333Y-70437857D01*
X111017380Y-69818809D02*
X110969761Y-69914047D01*
X110922142Y-69961666D01*
X110826904Y-70009285D01*
X110541190Y-70009285D01*
X110445952Y-69961666D01*
X110398333Y-69914047D01*
X110350714Y-69818809D01*
X110350714Y-69675952D01*
X110398333Y-69580714D01*
X110445952Y-69533095D01*
X110541190Y-69485476D01*
X110826904Y-69485476D01*
X110922142Y-69533095D01*
X110969761Y-69580714D01*
X111017380Y-69675952D01*
X111017380Y-69818809D01*
X111917380Y-74628333D02*
X112631666Y-74628333D01*
X112774523Y-74675952D01*
X112869761Y-74771190D01*
X112917380Y-74914047D01*
X112917380Y-75009285D01*
X111917380Y-74247380D02*
X111917380Y-73628333D01*
X112298333Y-73961666D01*
X112298333Y-73818809D01*
X112345952Y-73723571D01*
X112393571Y-73675952D01*
X112488809Y-73628333D01*
X112726904Y-73628333D01*
X112822142Y-73675952D01*
X112869761Y-73723571D01*
X112917380Y-73818809D01*
X112917380Y-74104523D01*
X112869761Y-74199761D01*
X112822142Y-74247380D01*
X118134047Y-85432380D02*
X117657857Y-85432380D01*
X117610238Y-85908571D01*
X117657857Y-85860952D01*
X117753095Y-85813333D01*
X117991190Y-85813333D01*
X118086428Y-85860952D01*
X118134047Y-85908571D01*
X118181666Y-86003809D01*
X118181666Y-86241904D01*
X118134047Y-86337142D01*
X118086428Y-86384761D01*
X117991190Y-86432380D01*
X117753095Y-86432380D01*
X117657857Y-86384761D01*
X117610238Y-86337142D01*
X118610238Y-86337142D02*
X118657857Y-86384761D01*
X118610238Y-86432380D01*
X118562619Y-86384761D01*
X118610238Y-86337142D01*
X118610238Y-86432380D01*
X119610238Y-86432380D02*
X119038809Y-86432380D01*
X119324523Y-86432380D02*
X119324523Y-85432380D01*
X119229285Y-85575238D01*
X119134047Y-85670476D01*
X119038809Y-85718095D01*
X120038809Y-86432380D02*
X120038809Y-85432380D01*
X120134047Y-86051428D02*
X120419761Y-86432380D01*
X120419761Y-85765714D02*
X120038809Y-86146666D01*
D12*
X118693571Y-87856190D02*
X118526904Y-87618095D01*
X118407857Y-87856190D02*
X118407857Y-87356190D01*
X118598333Y-87356190D01*
X118645952Y-87380000D01*
X118669761Y-87403809D01*
X118693571Y-87451428D01*
X118693571Y-87522857D01*
X118669761Y-87570476D01*
X118645952Y-87594285D01*
X118598333Y-87618095D01*
X118407857Y-87618095D01*
X119169761Y-87856190D02*
X118884047Y-87856190D01*
X119026904Y-87856190D02*
X119026904Y-87356190D01*
X118979285Y-87427619D01*
X118931666Y-87475238D01*
X118884047Y-87499047D01*
X119407857Y-87856190D02*
X119503095Y-87856190D01*
X119550714Y-87832380D01*
X119574523Y-87808571D01*
X119622142Y-87737142D01*
X119645952Y-87641904D01*
X119645952Y-87451428D01*
X119622142Y-87403809D01*
X119598333Y-87380000D01*
X119550714Y-87356190D01*
X119455476Y-87356190D01*
X119407857Y-87380000D01*
X119384047Y-87403809D01*
X119360238Y-87451428D01*
X119360238Y-87570476D01*
X119384047Y-87618095D01*
X119407857Y-87641904D01*
X119455476Y-87665714D01*
X119550714Y-87665714D01*
X119598333Y-87641904D01*
X119622142Y-87618095D01*
X119645952Y-87570476D01*
D10*
X77177380Y-117720952D02*
X77177380Y-118197142D01*
X77653571Y-118244761D01*
X77605952Y-118197142D01*
X77558333Y-118101904D01*
X77558333Y-117863809D01*
X77605952Y-117768571D01*
X77653571Y-117720952D01*
X77748809Y-117673333D01*
X77986904Y-117673333D01*
X78082142Y-117720952D01*
X78129761Y-117768571D01*
X78177380Y-117863809D01*
X78177380Y-118101904D01*
X78129761Y-118197142D01*
X78082142Y-118244761D01*
X78082142Y-117244761D02*
X78129761Y-117197142D01*
X78177380Y-117244761D01*
X78129761Y-117292380D01*
X78082142Y-117244761D01*
X78177380Y-117244761D01*
X78177380Y-116244761D02*
X78177380Y-116816190D01*
X78177380Y-116530476D02*
X77177380Y-116530476D01*
X77320238Y-116625714D01*
X77415476Y-116720952D01*
X77463095Y-116816190D01*
X78177380Y-115816190D02*
X77177380Y-115816190D01*
X77796428Y-115720952D02*
X78177380Y-115435238D01*
X77510714Y-115435238D02*
X77891666Y-115816190D01*
D12*
X79601190Y-116923333D02*
X79363095Y-117090000D01*
X79601190Y-117209047D02*
X79101190Y-117209047D01*
X79101190Y-117018571D01*
X79125000Y-116970952D01*
X79148809Y-116947142D01*
X79196428Y-116923333D01*
X79267857Y-116923333D01*
X79315476Y-116947142D01*
X79339285Y-116970952D01*
X79363095Y-117018571D01*
X79363095Y-117209047D01*
X79315476Y-116637619D02*
X79291666Y-116685238D01*
X79267857Y-116709047D01*
X79220238Y-116732857D01*
X79196428Y-116732857D01*
X79148809Y-116709047D01*
X79125000Y-116685238D01*
X79101190Y-116637619D01*
X79101190Y-116542380D01*
X79125000Y-116494761D01*
X79148809Y-116470952D01*
X79196428Y-116447142D01*
X79220238Y-116447142D01*
X79267857Y-116470952D01*
X79291666Y-116494761D01*
X79315476Y-116542380D01*
X79315476Y-116637619D01*
X79339285Y-116685238D01*
X79363095Y-116709047D01*
X79410714Y-116732857D01*
X79505952Y-116732857D01*
X79553571Y-116709047D01*
X79577380Y-116685238D01*
X79601190Y-116637619D01*
X79601190Y-116542380D01*
X79577380Y-116494761D01*
X79553571Y-116470952D01*
X79505952Y-116447142D01*
X79410714Y-116447142D01*
X79363095Y-116470952D01*
X79339285Y-116494761D01*
X79315476Y-116542380D01*
D10*
X115697380Y-101809761D02*
X115840238Y-101857380D01*
X116078333Y-101857380D01*
X116173571Y-101809761D01*
X116221190Y-101762142D01*
X116268809Y-101666904D01*
X116268809Y-101571666D01*
X116221190Y-101476428D01*
X116173571Y-101428809D01*
X116078333Y-101381190D01*
X115887857Y-101333571D01*
X115792619Y-101285952D01*
X115745000Y-101238333D01*
X115697380Y-101143095D01*
X115697380Y-101047857D01*
X115745000Y-100952619D01*
X115792619Y-100905000D01*
X115887857Y-100857380D01*
X116125952Y-100857380D01*
X116268809Y-100905000D01*
X116602142Y-100857380D02*
X116840238Y-101857380D01*
X117030714Y-101143095D01*
X117221190Y-101857380D01*
X117459285Y-100857380D01*
X117602142Y-101952619D02*
X118364047Y-101952619D01*
X118602142Y-101857380D02*
X118602142Y-100857380D01*
X118983095Y-100857380D01*
X119078333Y-100905000D01*
X119125952Y-100952619D01*
X119173571Y-101047857D01*
X119173571Y-101190714D01*
X119125952Y-101285952D01*
X119078333Y-101333571D01*
X118983095Y-101381190D01*
X118602142Y-101381190D01*
X120030714Y-101190714D02*
X120030714Y-101857380D01*
X119602142Y-101190714D02*
X119602142Y-101714523D01*
X119649761Y-101809761D01*
X119745000Y-101857380D01*
X119887857Y-101857380D01*
X119983095Y-101809761D01*
X120030714Y-101762142D01*
X120459285Y-101809761D02*
X120554523Y-101857380D01*
X120745000Y-101857380D01*
X120840238Y-101809761D01*
X120887857Y-101714523D01*
X120887857Y-101666904D01*
X120840238Y-101571666D01*
X120745000Y-101524047D01*
X120602142Y-101524047D01*
X120506904Y-101476428D01*
X120459285Y-101381190D01*
X120459285Y-101333571D01*
X120506904Y-101238333D01*
X120602142Y-101190714D01*
X120745000Y-101190714D01*
X120840238Y-101238333D01*
X121316428Y-101857380D02*
X121316428Y-100857380D01*
X121745000Y-101857380D02*
X121745000Y-101333571D01*
X121697380Y-101238333D01*
X121602142Y-101190714D01*
X121459285Y-101190714D01*
X121364047Y-101238333D01*
X121316428Y-101285952D01*
X117461666Y-93609761D02*
X117604523Y-93657380D01*
X117842619Y-93657380D01*
X117937857Y-93609761D01*
X117985476Y-93562142D01*
X118033095Y-93466904D01*
X118033095Y-93371666D01*
X117985476Y-93276428D01*
X117937857Y-93228809D01*
X117842619Y-93181190D01*
X117652142Y-93133571D01*
X117556904Y-93085952D01*
X117509285Y-93038333D01*
X117461666Y-92943095D01*
X117461666Y-92847857D01*
X117509285Y-92752619D01*
X117556904Y-92705000D01*
X117652142Y-92657380D01*
X117890238Y-92657380D01*
X118033095Y-92705000D01*
X118366428Y-92657380D02*
X118604523Y-93657380D01*
X118795000Y-92943095D01*
X118985476Y-93657380D01*
X119223571Y-92657380D01*
X119509285Y-92657380D02*
X120128333Y-92657380D01*
X119795000Y-93038333D01*
X119937857Y-93038333D01*
X120033095Y-93085952D01*
X120080714Y-93133571D01*
X120128333Y-93228809D01*
X120128333Y-93466904D01*
X120080714Y-93562142D01*
X120033095Y-93609761D01*
X119937857Y-93657380D01*
X119652142Y-93657380D01*
X119556904Y-93609761D01*
X119509285Y-93562142D01*
X118134047Y-74002380D02*
X117657857Y-74002380D01*
X117610238Y-74478571D01*
X117657857Y-74430952D01*
X117753095Y-74383333D01*
X117991190Y-74383333D01*
X118086428Y-74430952D01*
X118134047Y-74478571D01*
X118181666Y-74573809D01*
X118181666Y-74811904D01*
X118134047Y-74907142D01*
X118086428Y-74954761D01*
X117991190Y-75002380D01*
X117753095Y-75002380D01*
X117657857Y-74954761D01*
X117610238Y-74907142D01*
X118610238Y-74907142D02*
X118657857Y-74954761D01*
X118610238Y-75002380D01*
X118562619Y-74954761D01*
X118610238Y-74907142D01*
X118610238Y-75002380D01*
X119610238Y-75002380D02*
X119038809Y-75002380D01*
X119324523Y-75002380D02*
X119324523Y-74002380D01*
X119229285Y-74145238D01*
X119134047Y-74240476D01*
X119038809Y-74288095D01*
X120038809Y-75002380D02*
X120038809Y-74002380D01*
X120134047Y-74621428D02*
X120419761Y-75002380D01*
X120419761Y-74335714D02*
X120038809Y-74716666D01*
D12*
X118693571Y-76426190D02*
X118526904Y-76188095D01*
X118407857Y-76426190D02*
X118407857Y-75926190D01*
X118598333Y-75926190D01*
X118645952Y-75950000D01*
X118669761Y-75973809D01*
X118693571Y-76021428D01*
X118693571Y-76092857D01*
X118669761Y-76140476D01*
X118645952Y-76164285D01*
X118598333Y-76188095D01*
X118407857Y-76188095D01*
X119169761Y-76426190D02*
X118884047Y-76426190D01*
X119026904Y-76426190D02*
X119026904Y-75926190D01*
X118979285Y-75997619D01*
X118931666Y-76045238D01*
X118884047Y-76069047D01*
X119598333Y-75926190D02*
X119503095Y-75926190D01*
X119455476Y-75950000D01*
X119431666Y-75973809D01*
X119384047Y-76045238D01*
X119360238Y-76140476D01*
X119360238Y-76330952D01*
X119384047Y-76378571D01*
X119407857Y-76402380D01*
X119455476Y-76426190D01*
X119550714Y-76426190D01*
X119598333Y-76402380D01*
X119622142Y-76378571D01*
X119645952Y-76330952D01*
X119645952Y-76211904D01*
X119622142Y-76164285D01*
X119598333Y-76140476D01*
X119550714Y-76116666D01*
X119455476Y-76116666D01*
X119407857Y-76140476D01*
X119384047Y-76164285D01*
X119360238Y-76211904D01*
D10*
X92936895Y-71974380D02*
X92936895Y-72783904D01*
X92984514Y-72879142D01*
X93032133Y-72926761D01*
X93127371Y-72974380D01*
X93317847Y-72974380D01*
X93413085Y-72926761D01*
X93460704Y-72879142D01*
X93508323Y-72783904D01*
X93508323Y-71974380D01*
X93936895Y-72069619D02*
X93984514Y-72022000D01*
X94079752Y-71974380D01*
X94317847Y-71974380D01*
X94413085Y-72022000D01*
X94460704Y-72069619D01*
X94508323Y-72164857D01*
X94508323Y-72260095D01*
X94460704Y-72402952D01*
X93889276Y-72974380D01*
X94508323Y-72974380D01*
X57777142Y-99127380D02*
X57205714Y-99127380D01*
X57491428Y-99127380D02*
X57491428Y-98127380D01*
X57396190Y-98270238D01*
X57300952Y-98365476D01*
X57205714Y-98413095D01*
X58396190Y-98127380D02*
X58491428Y-98127380D01*
X58586666Y-98175000D01*
X58634285Y-98222619D01*
X58681904Y-98317857D01*
X58729523Y-98508333D01*
X58729523Y-98746428D01*
X58681904Y-98936904D01*
X58634285Y-99032142D01*
X58586666Y-99079761D01*
X58491428Y-99127380D01*
X58396190Y-99127380D01*
X58300952Y-99079761D01*
X58253333Y-99032142D01*
X58205714Y-98936904D01*
X58158095Y-98746428D01*
X58158095Y-98508333D01*
X58205714Y-98317857D01*
X58253333Y-98222619D01*
X58300952Y-98175000D01*
X58396190Y-98127380D01*
X59586666Y-98460714D02*
X59586666Y-99127380D01*
X59158095Y-98460714D02*
X59158095Y-98984523D01*
X59205714Y-99079761D01*
X59300952Y-99127380D01*
X59443809Y-99127380D01*
X59539047Y-99079761D01*
X59586666Y-99032142D01*
X58253333Y-94677380D02*
X57777142Y-94677380D01*
X57777142Y-93677380D01*
X59110476Y-94677380D02*
X58539047Y-94677380D01*
X58824761Y-94677380D02*
X58824761Y-93677380D01*
X58729523Y-93820238D01*
X58634285Y-93915476D01*
X58539047Y-93963095D01*
X117864047Y-70192380D02*
X117387857Y-70192380D01*
X117340238Y-70668571D01*
X117387857Y-70620952D01*
X117483095Y-70573333D01*
X117721190Y-70573333D01*
X117816428Y-70620952D01*
X117864047Y-70668571D01*
X117911666Y-70763809D01*
X117911666Y-71001904D01*
X117864047Y-71097142D01*
X117816428Y-71144761D01*
X117721190Y-71192380D01*
X117483095Y-71192380D01*
X117387857Y-71144761D01*
X117340238Y-71097142D01*
X118340238Y-71097142D02*
X118387857Y-71144761D01*
X118340238Y-71192380D01*
X118292619Y-71144761D01*
X118340238Y-71097142D01*
X118340238Y-71192380D01*
X119340238Y-71192380D02*
X118768809Y-71192380D01*
X119054523Y-71192380D02*
X119054523Y-70192380D01*
X118959285Y-70335238D01*
X118864047Y-70430476D01*
X118768809Y-70478095D01*
X119768809Y-71192380D02*
X119768809Y-70192380D01*
X119864047Y-70811428D02*
X120149761Y-71192380D01*
X120149761Y-70525714D02*
X119768809Y-70906666D01*
D12*
X118423571Y-72616190D02*
X118256904Y-72378095D01*
X118137857Y-72616190D02*
X118137857Y-72116190D01*
X118328333Y-72116190D01*
X118375952Y-72140000D01*
X118399761Y-72163809D01*
X118423571Y-72211428D01*
X118423571Y-72282857D01*
X118399761Y-72330476D01*
X118375952Y-72354285D01*
X118328333Y-72378095D01*
X118137857Y-72378095D01*
X118899761Y-72616190D02*
X118614047Y-72616190D01*
X118756904Y-72616190D02*
X118756904Y-72116190D01*
X118709285Y-72187619D01*
X118661666Y-72235238D01*
X118614047Y-72259047D01*
X119352142Y-72116190D02*
X119114047Y-72116190D01*
X119090238Y-72354285D01*
X119114047Y-72330476D01*
X119161666Y-72306666D01*
X119280714Y-72306666D01*
X119328333Y-72330476D01*
X119352142Y-72354285D01*
X119375952Y-72401904D01*
X119375952Y-72520952D01*
X119352142Y-72568571D01*
X119328333Y-72592380D01*
X119280714Y-72616190D01*
X119161666Y-72616190D01*
X119114047Y-72592380D01*
X119090238Y-72568571D01*
D10*
X122818333Y-82733571D02*
X122485000Y-82733571D01*
X122485000Y-83257380D02*
X122485000Y-82257380D01*
X122961190Y-82257380D01*
X123199285Y-82257380D02*
X123770714Y-82257380D01*
X123485000Y-83257380D02*
X123485000Y-82257380D01*
X124056428Y-82352619D02*
X124104047Y-82305000D01*
X124199285Y-82257380D01*
X124437380Y-82257380D01*
X124532619Y-82305000D01*
X124580238Y-82352619D01*
X124627857Y-82447857D01*
X124627857Y-82543095D01*
X124580238Y-82685952D01*
X124008809Y-83257380D01*
X124627857Y-83257380D01*
X124961190Y-82257380D02*
X125580238Y-82257380D01*
X125246904Y-82638333D01*
X125389761Y-82638333D01*
X125485000Y-82685952D01*
X125532619Y-82733571D01*
X125580238Y-82828809D01*
X125580238Y-83066904D01*
X125532619Y-83162142D01*
X125485000Y-83209761D01*
X125389761Y-83257380D01*
X125104047Y-83257380D01*
X125008809Y-83209761D01*
X124961190Y-83162142D01*
X125961190Y-82352619D02*
X126008809Y-82305000D01*
X126104047Y-82257380D01*
X126342142Y-82257380D01*
X126437380Y-82305000D01*
X126485000Y-82352619D01*
X126532619Y-82447857D01*
X126532619Y-82543095D01*
X126485000Y-82685952D01*
X125913571Y-83257380D01*
X126532619Y-83257380D01*
X123937380Y-74446904D02*
X124746904Y-74446904D01*
X124842142Y-74399285D01*
X124889761Y-74351666D01*
X124937380Y-74256428D01*
X124937380Y-74065952D01*
X124889761Y-73970714D01*
X124842142Y-73923095D01*
X124746904Y-73875476D01*
X123937380Y-73875476D01*
X123937380Y-73494523D02*
X123937380Y-72875476D01*
X124318333Y-73208809D01*
X124318333Y-73065952D01*
X124365952Y-72970714D01*
X124413571Y-72923095D01*
X124508809Y-72875476D01*
X124746904Y-72875476D01*
X124842142Y-72923095D01*
X124889761Y-72970714D01*
X124937380Y-73065952D01*
X124937380Y-73351666D01*
X124889761Y-73446904D01*
X124842142Y-73494523D01*
X96438452Y-100372380D02*
X95867023Y-100372380D01*
X96152738Y-100372380D02*
X96152738Y-99372380D01*
X96057500Y-99515238D01*
X95962261Y-99610476D01*
X95867023Y-99658095D01*
X97057500Y-99372380D02*
X97152738Y-99372380D01*
X97247976Y-99420000D01*
X97295595Y-99467619D01*
X97343214Y-99562857D01*
X97390833Y-99753333D01*
X97390833Y-99991428D01*
X97343214Y-100181904D01*
X97295595Y-100277142D01*
X97247976Y-100324761D01*
X97152738Y-100372380D01*
X97057500Y-100372380D01*
X96962261Y-100324761D01*
X96914642Y-100277142D01*
X96867023Y-100181904D01*
X96819404Y-99991428D01*
X96819404Y-99753333D01*
X96867023Y-99562857D01*
X96914642Y-99467619D01*
X96962261Y-99420000D01*
X97057500Y-99372380D01*
X98009880Y-99372380D02*
X98105119Y-99372380D01*
X98200357Y-99420000D01*
X98247976Y-99467619D01*
X98295595Y-99562857D01*
X98343214Y-99753333D01*
X98343214Y-99991428D01*
X98295595Y-100181904D01*
X98247976Y-100277142D01*
X98200357Y-100324761D01*
X98105119Y-100372380D01*
X98009880Y-100372380D01*
X97914642Y-100324761D01*
X97867023Y-100277142D01*
X97819404Y-100181904D01*
X97771785Y-99991428D01*
X97771785Y-99753333D01*
X97819404Y-99562857D01*
X97867023Y-99467619D01*
X97914642Y-99420000D01*
X98009880Y-99372380D01*
X98771785Y-99705714D02*
X98771785Y-100372380D01*
X98771785Y-99800952D02*
X98819404Y-99753333D01*
X98914642Y-99705714D01*
X99057500Y-99705714D01*
X99152738Y-99753333D01*
X99200357Y-99848571D01*
X99200357Y-100372380D01*
D12*
X97236071Y-101778571D02*
X97212261Y-101802380D01*
X97140833Y-101826190D01*
X97093214Y-101826190D01*
X97021785Y-101802380D01*
X96974166Y-101754761D01*
X96950357Y-101707142D01*
X96926547Y-101611904D01*
X96926547Y-101540476D01*
X96950357Y-101445238D01*
X96974166Y-101397619D01*
X97021785Y-101350000D01*
X97093214Y-101326190D01*
X97140833Y-101326190D01*
X97212261Y-101350000D01*
X97236071Y-101373809D01*
X97712261Y-101826190D02*
X97426547Y-101826190D01*
X97569404Y-101826190D02*
X97569404Y-101326190D01*
X97521785Y-101397619D01*
X97474166Y-101445238D01*
X97426547Y-101469047D01*
X98021785Y-101326190D02*
X98069404Y-101326190D01*
X98117023Y-101350000D01*
X98140833Y-101373809D01*
X98164642Y-101421428D01*
X98188452Y-101516666D01*
X98188452Y-101635714D01*
X98164642Y-101730952D01*
X98140833Y-101778571D01*
X98117023Y-101802380D01*
X98069404Y-101826190D01*
X98021785Y-101826190D01*
X97974166Y-101802380D01*
X97950357Y-101778571D01*
X97926547Y-101730952D01*
X97902738Y-101635714D01*
X97902738Y-101516666D01*
X97926547Y-101421428D01*
X97950357Y-101373809D01*
X97974166Y-101350000D01*
X98021785Y-101326190D01*
D13*
X52372380Y-102809523D02*
X52372380Y-103837619D01*
X52432857Y-103958571D01*
X52493333Y-104019047D01*
X52614285Y-104079523D01*
X52856190Y-104079523D01*
X52977142Y-104019047D01*
X53037619Y-103958571D01*
X53098095Y-103837619D01*
X53098095Y-102809523D01*
X54368095Y-104079523D02*
X53642380Y-104079523D01*
X54005238Y-104079523D02*
X54005238Y-102809523D01*
X53884285Y-102990952D01*
X53763333Y-103111904D01*
X53642380Y-103172380D01*
D10*
X128123571Y-112767380D02*
X128123571Y-112434047D01*
X128647380Y-112291190D02*
X128647380Y-112767380D01*
X127647380Y-112767380D01*
X127647380Y-112291190D01*
X127980714Y-111862619D02*
X128647380Y-111862619D01*
X128075952Y-111862619D02*
X128028333Y-111815000D01*
X127980714Y-111719761D01*
X127980714Y-111576904D01*
X128028333Y-111481666D01*
X128123571Y-111434047D01*
X128647380Y-111434047D01*
X127980714Y-111100714D02*
X127980714Y-110719761D01*
X127647380Y-110957857D02*
X128504523Y-110957857D01*
X128599761Y-110910238D01*
X128647380Y-110815000D01*
X128647380Y-110719761D01*
X128647380Y-110386428D02*
X127980714Y-110386428D01*
X128171190Y-110386428D02*
X128075952Y-110338809D01*
X128028333Y-110291190D01*
X127980714Y-110195952D01*
X127980714Y-110100714D01*
X128647380Y-109338809D02*
X128123571Y-109338809D01*
X128028333Y-109386428D01*
X127980714Y-109481666D01*
X127980714Y-109672142D01*
X128028333Y-109767380D01*
X128599761Y-109338809D02*
X128647380Y-109434047D01*
X128647380Y-109672142D01*
X128599761Y-109767380D01*
X128504523Y-109815000D01*
X128409285Y-109815000D01*
X128314047Y-109767380D01*
X128266428Y-109672142D01*
X128266428Y-109434047D01*
X128218809Y-109338809D01*
X128647380Y-108434047D02*
X127647380Y-108434047D01*
X128599761Y-108434047D02*
X128647380Y-108529285D01*
X128647380Y-108719761D01*
X128599761Y-108815000D01*
X128552142Y-108862619D01*
X128456904Y-108910238D01*
X128171190Y-108910238D01*
X128075952Y-108862619D01*
X128028333Y-108815000D01*
X127980714Y-108719761D01*
X127980714Y-108529285D01*
X128028333Y-108434047D01*
X128647380Y-107529285D02*
X128123571Y-107529285D01*
X128028333Y-107576904D01*
X127980714Y-107672142D01*
X127980714Y-107862619D01*
X128028333Y-107957857D01*
X128599761Y-107529285D02*
X128647380Y-107624523D01*
X128647380Y-107862619D01*
X128599761Y-107957857D01*
X128504523Y-108005476D01*
X128409285Y-108005476D01*
X128314047Y-107957857D01*
X128266428Y-107862619D01*
X128266428Y-107624523D01*
X128218809Y-107529285D01*
X128742619Y-107291190D02*
X128742619Y-106529285D01*
X128647380Y-106291190D02*
X127647380Y-106291190D01*
X128028333Y-106291190D02*
X127980714Y-106195952D01*
X127980714Y-106005476D01*
X128028333Y-105910238D01*
X128075952Y-105862619D01*
X128171190Y-105815000D01*
X128456904Y-105815000D01*
X128552142Y-105862619D01*
X128599761Y-105910238D01*
X128647380Y-106005476D01*
X128647380Y-106195952D01*
X128599761Y-106291190D01*
X127980714Y-104957857D02*
X128647380Y-104957857D01*
X127980714Y-105386428D02*
X128504523Y-105386428D01*
X128599761Y-105338809D01*
X128647380Y-105243571D01*
X128647380Y-105100714D01*
X128599761Y-105005476D01*
X128552142Y-104957857D01*
X127980714Y-104576904D02*
X127980714Y-104053095D01*
X128647380Y-104576904D01*
X128647380Y-104053095D01*
X127980714Y-103767380D02*
X127980714Y-103243571D01*
X128647380Y-103767380D01*
X128647380Y-103243571D01*
X128599761Y-102481666D02*
X128647380Y-102576904D01*
X128647380Y-102767380D01*
X128599761Y-102862619D01*
X128504523Y-102910238D01*
X128123571Y-102910238D01*
X128028333Y-102862619D01*
X127980714Y-102767380D01*
X127980714Y-102576904D01*
X128028333Y-102481666D01*
X128123571Y-102434047D01*
X128218809Y-102434047D01*
X128314047Y-102910238D01*
X128647380Y-102005476D02*
X127980714Y-102005476D01*
X128171190Y-102005476D02*
X128075952Y-101957857D01*
X128028333Y-101910238D01*
X127980714Y-101815000D01*
X127980714Y-101719761D01*
X125747380Y-107648333D02*
X126461666Y-107648333D01*
X126604523Y-107695952D01*
X126699761Y-107791190D01*
X126747380Y-107934047D01*
X126747380Y-108029285D01*
X125747380Y-107267380D02*
X125747380Y-106600714D01*
X126747380Y-107029285D01*
X34896190Y-65837380D02*
X34896190Y-66646904D01*
X34943809Y-66742142D01*
X34991428Y-66789761D01*
X35086666Y-66837380D01*
X35277142Y-66837380D01*
X35372380Y-66789761D01*
X35420000Y-66742142D01*
X35467619Y-66646904D01*
X35467619Y-65837380D01*
X35896190Y-66789761D02*
X36039047Y-66837380D01*
X36277142Y-66837380D01*
X36372380Y-66789761D01*
X36420000Y-66742142D01*
X36467619Y-66646904D01*
X36467619Y-66551666D01*
X36420000Y-66456428D01*
X36372380Y-66408809D01*
X36277142Y-66361190D01*
X36086666Y-66313571D01*
X35991428Y-66265952D01*
X35943809Y-66218333D01*
X35896190Y-66123095D01*
X35896190Y-66027857D01*
X35943809Y-65932619D01*
X35991428Y-65885000D01*
X36086666Y-65837380D01*
X36324761Y-65837380D01*
X36467619Y-65885000D01*
X37229523Y-66313571D02*
X37372380Y-66361190D01*
X37420000Y-66408809D01*
X37467619Y-66504047D01*
X37467619Y-66646904D01*
X37420000Y-66742142D01*
X37372380Y-66789761D01*
X37277142Y-66837380D01*
X36896190Y-66837380D01*
X36896190Y-65837380D01*
X37229523Y-65837380D01*
X37324761Y-65885000D01*
X37372380Y-65932619D01*
X37420000Y-66027857D01*
X37420000Y-66123095D01*
X37372380Y-66218333D01*
X37324761Y-66265952D01*
X37229523Y-66313571D01*
X36896190Y-66313571D01*
X37658095Y-66932619D02*
X38420000Y-66932619D01*
X38991428Y-66313571D02*
X39134285Y-66361190D01*
X39181904Y-66408809D01*
X39229523Y-66504047D01*
X39229523Y-66646904D01*
X39181904Y-66742142D01*
X39134285Y-66789761D01*
X39039047Y-66837380D01*
X38658095Y-66837380D01*
X38658095Y-65837380D01*
X38991428Y-65837380D01*
X39086666Y-65885000D01*
X39134285Y-65932619D01*
X39181904Y-66027857D01*
X39181904Y-66123095D01*
X39134285Y-66218333D01*
X39086666Y-66265952D01*
X38991428Y-66313571D01*
X38658095Y-66313571D01*
X39420000Y-66932619D02*
X40181904Y-66932619D01*
X40420000Y-66837380D02*
X40420000Y-65837380D01*
X40753333Y-66551666D01*
X41086666Y-65837380D01*
X41086666Y-66837380D01*
X41562857Y-66837380D02*
X41562857Y-66170714D01*
X41562857Y-65837380D02*
X41515238Y-65885000D01*
X41562857Y-65932619D01*
X41610476Y-65885000D01*
X41562857Y-65837380D01*
X41562857Y-65932619D01*
X42039047Y-66170714D02*
X42039047Y-66837380D01*
X42039047Y-66265952D02*
X42086666Y-66218333D01*
X42181904Y-66170714D01*
X42324761Y-66170714D01*
X42420000Y-66218333D01*
X42467619Y-66313571D01*
X42467619Y-66837380D01*
X42943809Y-66837380D02*
X42943809Y-66170714D01*
X42943809Y-65837380D02*
X42896190Y-65885000D01*
X42943809Y-65932619D01*
X42991428Y-65885000D01*
X42943809Y-65837380D01*
X42943809Y-65932619D01*
X37882380Y-74283333D02*
X38596666Y-74283333D01*
X38739523Y-74330952D01*
X38834761Y-74426190D01*
X38882380Y-74569047D01*
X38882380Y-74664285D01*
X37882380Y-73330952D02*
X37882380Y-73807142D01*
X38358571Y-73854761D01*
X38310952Y-73807142D01*
X38263333Y-73711904D01*
X38263333Y-73473809D01*
X38310952Y-73378571D01*
X38358571Y-73330952D01*
X38453809Y-73283333D01*
X38691904Y-73283333D01*
X38787142Y-73330952D01*
X38834761Y-73378571D01*
X38882380Y-73473809D01*
X38882380Y-73711904D01*
X38834761Y-73807142D01*
X38787142Y-73854761D01*
X69092261Y-99369285D02*
X69139880Y-99226428D01*
X69139880Y-98988333D01*
X69092261Y-98893095D01*
X69044642Y-98845476D01*
X68949404Y-98797857D01*
X68854166Y-98797857D01*
X68758928Y-98845476D01*
X68711309Y-98893095D01*
X68663690Y-98988333D01*
X68616071Y-99178809D01*
X68568452Y-99274047D01*
X68520833Y-99321666D01*
X68425595Y-99369285D01*
X68330357Y-99369285D01*
X68235119Y-99321666D01*
X68187500Y-99274047D01*
X68139880Y-99178809D01*
X68139880Y-98940714D01*
X68187500Y-98797857D01*
X69092261Y-98416904D02*
X69139880Y-98274047D01*
X69139880Y-98035952D01*
X69092261Y-97940714D01*
X69044642Y-97893095D01*
X68949404Y-97845476D01*
X68854166Y-97845476D01*
X68758928Y-97893095D01*
X68711309Y-97940714D01*
X68663690Y-98035952D01*
X68616071Y-98226428D01*
X68568452Y-98321666D01*
X68520833Y-98369285D01*
X68425595Y-98416904D01*
X68330357Y-98416904D01*
X68235119Y-98369285D01*
X68187500Y-98321666D01*
X68139880Y-98226428D01*
X68139880Y-97988333D01*
X68187500Y-97845476D01*
X68139880Y-97512142D02*
X68139880Y-96893095D01*
X68520833Y-97226428D01*
X68520833Y-97083571D01*
X68568452Y-96988333D01*
X68616071Y-96940714D01*
X68711309Y-96893095D01*
X68949404Y-96893095D01*
X69044642Y-96940714D01*
X69092261Y-96988333D01*
X69139880Y-97083571D01*
X69139880Y-97369285D01*
X69092261Y-97464523D01*
X69044642Y-97512142D01*
X68235119Y-96512142D02*
X68187500Y-96464523D01*
X68139880Y-96369285D01*
X68139880Y-96131190D01*
X68187500Y-96035952D01*
X68235119Y-95988333D01*
X68330357Y-95940714D01*
X68425595Y-95940714D01*
X68568452Y-95988333D01*
X69139880Y-96559761D01*
X69139880Y-95940714D01*
X118134047Y-77812380D02*
X117657857Y-77812380D01*
X117610238Y-78288571D01*
X117657857Y-78240952D01*
X117753095Y-78193333D01*
X117991190Y-78193333D01*
X118086428Y-78240952D01*
X118134047Y-78288571D01*
X118181666Y-78383809D01*
X118181666Y-78621904D01*
X118134047Y-78717142D01*
X118086428Y-78764761D01*
X117991190Y-78812380D01*
X117753095Y-78812380D01*
X117657857Y-78764761D01*
X117610238Y-78717142D01*
X118610238Y-78717142D02*
X118657857Y-78764761D01*
X118610238Y-78812380D01*
X118562619Y-78764761D01*
X118610238Y-78717142D01*
X118610238Y-78812380D01*
X119610238Y-78812380D02*
X119038809Y-78812380D01*
X119324523Y-78812380D02*
X119324523Y-77812380D01*
X119229285Y-77955238D01*
X119134047Y-78050476D01*
X119038809Y-78098095D01*
X120038809Y-78812380D02*
X120038809Y-77812380D01*
X120134047Y-78431428D02*
X120419761Y-78812380D01*
X120419761Y-78145714D02*
X120038809Y-78526666D01*
D12*
X118693571Y-80236190D02*
X118526904Y-79998095D01*
X118407857Y-80236190D02*
X118407857Y-79736190D01*
X118598333Y-79736190D01*
X118645952Y-79760000D01*
X118669761Y-79783809D01*
X118693571Y-79831428D01*
X118693571Y-79902857D01*
X118669761Y-79950476D01*
X118645952Y-79974285D01*
X118598333Y-79998095D01*
X118407857Y-79998095D01*
X119169761Y-80236190D02*
X118884047Y-80236190D01*
X119026904Y-80236190D02*
X119026904Y-79736190D01*
X118979285Y-79807619D01*
X118931666Y-79855238D01*
X118884047Y-79879047D01*
X119336428Y-79736190D02*
X119669761Y-79736190D01*
X119455476Y-80236190D01*
D10*
X118134047Y-81622380D02*
X117657857Y-81622380D01*
X117610238Y-82098571D01*
X117657857Y-82050952D01*
X117753095Y-82003333D01*
X117991190Y-82003333D01*
X118086428Y-82050952D01*
X118134047Y-82098571D01*
X118181666Y-82193809D01*
X118181666Y-82431904D01*
X118134047Y-82527142D01*
X118086428Y-82574761D01*
X117991190Y-82622380D01*
X117753095Y-82622380D01*
X117657857Y-82574761D01*
X117610238Y-82527142D01*
X118610238Y-82527142D02*
X118657857Y-82574761D01*
X118610238Y-82622380D01*
X118562619Y-82574761D01*
X118610238Y-82527142D01*
X118610238Y-82622380D01*
X119610238Y-82622380D02*
X119038809Y-82622380D01*
X119324523Y-82622380D02*
X119324523Y-81622380D01*
X119229285Y-81765238D01*
X119134047Y-81860476D01*
X119038809Y-81908095D01*
X120038809Y-82622380D02*
X120038809Y-81622380D01*
X120134047Y-82241428D02*
X120419761Y-82622380D01*
X120419761Y-81955714D02*
X120038809Y-82336666D01*
D12*
X118693571Y-84046190D02*
X118526904Y-83808095D01*
X118407857Y-84046190D02*
X118407857Y-83546190D01*
X118598333Y-83546190D01*
X118645952Y-83570000D01*
X118669761Y-83593809D01*
X118693571Y-83641428D01*
X118693571Y-83712857D01*
X118669761Y-83760476D01*
X118645952Y-83784285D01*
X118598333Y-83808095D01*
X118407857Y-83808095D01*
X119169761Y-84046190D02*
X118884047Y-84046190D01*
X119026904Y-84046190D02*
X119026904Y-83546190D01*
X118979285Y-83617619D01*
X118931666Y-83665238D01*
X118884047Y-83689047D01*
X119455476Y-83760476D02*
X119407857Y-83736666D01*
X119384047Y-83712857D01*
X119360238Y-83665238D01*
X119360238Y-83641428D01*
X119384047Y-83593809D01*
X119407857Y-83570000D01*
X119455476Y-83546190D01*
X119550714Y-83546190D01*
X119598333Y-83570000D01*
X119622142Y-83593809D01*
X119645952Y-83641428D01*
X119645952Y-83665238D01*
X119622142Y-83712857D01*
X119598333Y-83736666D01*
X119550714Y-83760476D01*
X119455476Y-83760476D01*
X119407857Y-83784285D01*
X119384047Y-83808095D01*
X119360238Y-83855714D01*
X119360238Y-83950952D01*
X119384047Y-83998571D01*
X119407857Y-84022380D01*
X119455476Y-84046190D01*
X119550714Y-84046190D01*
X119598333Y-84022380D01*
X119622142Y-83998571D01*
X119645952Y-83950952D01*
X119645952Y-83855714D01*
X119622142Y-83808095D01*
X119598333Y-83784285D01*
X119550714Y-83760476D01*
D10*
X38388571Y-118204761D02*
X38436190Y-118061904D01*
X38483809Y-118014285D01*
X38579047Y-117966666D01*
X38721904Y-117966666D01*
X38817142Y-118014285D01*
X38864761Y-118061904D01*
X38912380Y-118157142D01*
X38912380Y-118538095D01*
X37912380Y-118538095D01*
X37912380Y-118204761D01*
X37960000Y-118109523D01*
X38007619Y-118061904D01*
X38102857Y-118014285D01*
X38198095Y-118014285D01*
X38293333Y-118061904D01*
X38340952Y-118109523D01*
X38388571Y-118204761D01*
X38388571Y-118538095D01*
X38912380Y-117109523D02*
X38388571Y-117109523D01*
X38293333Y-117157142D01*
X38245714Y-117252380D01*
X38245714Y-117442857D01*
X38293333Y-117538095D01*
X38864761Y-117109523D02*
X38912380Y-117204761D01*
X38912380Y-117442857D01*
X38864761Y-117538095D01*
X38769523Y-117585714D01*
X38674285Y-117585714D01*
X38579047Y-117538095D01*
X38531428Y-117442857D01*
X38531428Y-117204761D01*
X38483809Y-117109523D01*
X38245714Y-116776190D02*
X38245714Y-116395238D01*
X37912380Y-116633333D02*
X38769523Y-116633333D01*
X38864761Y-116585714D01*
X38912380Y-116490476D01*
X38912380Y-116395238D01*
X38245714Y-116204761D02*
X38245714Y-115823809D01*
X37912380Y-116061904D02*
X38769523Y-116061904D01*
X38864761Y-116014285D01*
X38912380Y-115919047D01*
X38912380Y-115823809D01*
X38864761Y-115109523D02*
X38912380Y-115204761D01*
X38912380Y-115395238D01*
X38864761Y-115490476D01*
X38769523Y-115538095D01*
X38388571Y-115538095D01*
X38293333Y-115490476D01*
X38245714Y-115395238D01*
X38245714Y-115204761D01*
X38293333Y-115109523D01*
X38388571Y-115061904D01*
X38483809Y-115061904D01*
X38579047Y-115538095D01*
X38912380Y-114633333D02*
X38245714Y-114633333D01*
X38436190Y-114633333D02*
X38340952Y-114585714D01*
X38293333Y-114538095D01*
X38245714Y-114442857D01*
X38245714Y-114347619D01*
X38245714Y-114109523D02*
X38912380Y-113871428D01*
X38245714Y-113633333D02*
X38912380Y-113871428D01*
X39150476Y-113966666D01*
X39198095Y-114014285D01*
X39245714Y-114109523D01*
X39007619Y-113490476D02*
X39007619Y-112728571D01*
X38817142Y-111919047D02*
X38864761Y-111966666D01*
X38912380Y-112109523D01*
X38912380Y-112204761D01*
X38864761Y-112347619D01*
X38769523Y-112442857D01*
X38674285Y-112490476D01*
X38483809Y-112538095D01*
X38340952Y-112538095D01*
X38150476Y-112490476D01*
X38055238Y-112442857D01*
X37960000Y-112347619D01*
X37912380Y-112204761D01*
X37912380Y-112109523D01*
X37960000Y-111966666D01*
X38007619Y-111919047D01*
X38864761Y-111109523D02*
X38912380Y-111204761D01*
X38912380Y-111395238D01*
X38864761Y-111490476D01*
X38769523Y-111538095D01*
X38388571Y-111538095D01*
X38293333Y-111490476D01*
X38245714Y-111395238D01*
X38245714Y-111204761D01*
X38293333Y-111109523D01*
X38388571Y-111061904D01*
X38483809Y-111061904D01*
X38579047Y-111538095D01*
X38912380Y-110490476D02*
X38864761Y-110585714D01*
X38769523Y-110633333D01*
X37912380Y-110633333D01*
X38912380Y-109966666D02*
X38864761Y-110061904D01*
X38769523Y-110109523D01*
X37912380Y-110109523D01*
X40888571Y-115085714D02*
X40936190Y-114942857D01*
X40983809Y-114895238D01*
X41079047Y-114847619D01*
X41221904Y-114847619D01*
X41317142Y-114895238D01*
X41364761Y-114942857D01*
X41412380Y-115038095D01*
X41412380Y-115419047D01*
X40412380Y-115419047D01*
X40412380Y-115085714D01*
X40460000Y-114990476D01*
X40507619Y-114942857D01*
X40602857Y-114895238D01*
X40698095Y-114895238D01*
X40793333Y-114942857D01*
X40840952Y-114990476D01*
X40888571Y-115085714D01*
X40888571Y-115419047D01*
X40412380Y-114561904D02*
X40412380Y-113990476D01*
X41412380Y-114276190D02*
X40412380Y-114276190D01*
X41412380Y-113133333D02*
X41412380Y-113704761D01*
X41412380Y-113419047D02*
X40412380Y-113419047D01*
X40555238Y-113514285D01*
X40650476Y-113609523D01*
X40698095Y-113704761D01*
X96004047Y-94447380D02*
X95527857Y-94447380D01*
X95480238Y-94923571D01*
X95527857Y-94875952D01*
X95623095Y-94828333D01*
X95861190Y-94828333D01*
X95956428Y-94875952D01*
X96004047Y-94923571D01*
X96051666Y-95018809D01*
X96051666Y-95256904D01*
X96004047Y-95352142D01*
X95956428Y-95399761D01*
X95861190Y-95447380D01*
X95623095Y-95447380D01*
X95527857Y-95399761D01*
X95480238Y-95352142D01*
X96480238Y-95352142D02*
X96527857Y-95399761D01*
X96480238Y-95447380D01*
X96432619Y-95399761D01*
X96480238Y-95352142D01*
X96480238Y-95447380D01*
X97480238Y-95447380D02*
X96908809Y-95447380D01*
X97194523Y-95447380D02*
X97194523Y-94447380D01*
X97099285Y-94590238D01*
X97004047Y-94685476D01*
X96908809Y-94733095D01*
X97908809Y-95447380D02*
X97908809Y-94447380D01*
X98004047Y-95066428D02*
X98289761Y-95447380D01*
X98289761Y-94780714D02*
X97908809Y-95161666D01*
D12*
X96563571Y-93571190D02*
X96396904Y-93333095D01*
X96277857Y-93571190D02*
X96277857Y-93071190D01*
X96468333Y-93071190D01*
X96515952Y-93095000D01*
X96539761Y-93118809D01*
X96563571Y-93166428D01*
X96563571Y-93237857D01*
X96539761Y-93285476D01*
X96515952Y-93309285D01*
X96468333Y-93333095D01*
X96277857Y-93333095D01*
X97039761Y-93571190D02*
X96754047Y-93571190D01*
X96896904Y-93571190D02*
X96896904Y-93071190D01*
X96849285Y-93142619D01*
X96801666Y-93190238D01*
X96754047Y-93214047D01*
X97349285Y-93071190D02*
X97396904Y-93071190D01*
X97444523Y-93095000D01*
X97468333Y-93118809D01*
X97492142Y-93166428D01*
X97515952Y-93261666D01*
X97515952Y-93380714D01*
X97492142Y-93475952D01*
X97468333Y-93523571D01*
X97444523Y-93547380D01*
X97396904Y-93571190D01*
X97349285Y-93571190D01*
X97301666Y-93547380D01*
X97277857Y-93523571D01*
X97254047Y-93475952D01*
X97230238Y-93380714D01*
X97230238Y-93261666D01*
X97254047Y-93166428D01*
X97277857Y-93118809D01*
X97301666Y-93095000D01*
X97349285Y-93071190D01*
D10*
X114959047Y-58762380D02*
X114482857Y-58762380D01*
X114435238Y-59238571D01*
X114482857Y-59190952D01*
X114578095Y-59143333D01*
X114816190Y-59143333D01*
X114911428Y-59190952D01*
X114959047Y-59238571D01*
X115006666Y-59333809D01*
X115006666Y-59571904D01*
X114959047Y-59667142D01*
X114911428Y-59714761D01*
X114816190Y-59762380D01*
X114578095Y-59762380D01*
X114482857Y-59714761D01*
X114435238Y-59667142D01*
X115435238Y-59667142D02*
X115482857Y-59714761D01*
X115435238Y-59762380D01*
X115387619Y-59714761D01*
X115435238Y-59667142D01*
X115435238Y-59762380D01*
X116435238Y-59762380D02*
X115863809Y-59762380D01*
X116149523Y-59762380D02*
X116149523Y-58762380D01*
X116054285Y-58905238D01*
X115959047Y-59000476D01*
X115863809Y-59048095D01*
X116863809Y-59762380D02*
X116863809Y-58762380D01*
X116959047Y-59381428D02*
X117244761Y-59762380D01*
X117244761Y-59095714D02*
X116863809Y-59476666D01*
D12*
X115518571Y-61186190D02*
X115351904Y-60948095D01*
X115232857Y-61186190D02*
X115232857Y-60686190D01*
X115423333Y-60686190D01*
X115470952Y-60710000D01*
X115494761Y-60733809D01*
X115518571Y-60781428D01*
X115518571Y-60852857D01*
X115494761Y-60900476D01*
X115470952Y-60924285D01*
X115423333Y-60948095D01*
X115232857Y-60948095D01*
X115994761Y-61186190D02*
X115709047Y-61186190D01*
X115851904Y-61186190D02*
X115851904Y-60686190D01*
X115804285Y-60757619D01*
X115756666Y-60805238D01*
X115709047Y-60829047D01*
X116161428Y-60686190D02*
X116470952Y-60686190D01*
X116304285Y-60876666D01*
X116375714Y-60876666D01*
X116423333Y-60900476D01*
X116447142Y-60924285D01*
X116470952Y-60971904D01*
X116470952Y-61090952D01*
X116447142Y-61138571D01*
X116423333Y-61162380D01*
X116375714Y-61186190D01*
X116232857Y-61186190D01*
X116185238Y-61162380D01*
X116161428Y-61138571D01*
D10*
X117499047Y-66382380D02*
X117022857Y-66382380D01*
X116975238Y-66858571D01*
X117022857Y-66810952D01*
X117118095Y-66763333D01*
X117356190Y-66763333D01*
X117451428Y-66810952D01*
X117499047Y-66858571D01*
X117546666Y-66953809D01*
X117546666Y-67191904D01*
X117499047Y-67287142D01*
X117451428Y-67334761D01*
X117356190Y-67382380D01*
X117118095Y-67382380D01*
X117022857Y-67334761D01*
X116975238Y-67287142D01*
X117975238Y-67287142D02*
X118022857Y-67334761D01*
X117975238Y-67382380D01*
X117927619Y-67334761D01*
X117975238Y-67287142D01*
X117975238Y-67382380D01*
X118975238Y-67382380D02*
X118403809Y-67382380D01*
X118689523Y-67382380D02*
X118689523Y-66382380D01*
X118594285Y-66525238D01*
X118499047Y-66620476D01*
X118403809Y-66668095D01*
X119403809Y-67382380D02*
X119403809Y-66382380D01*
X119499047Y-67001428D02*
X119784761Y-67382380D01*
X119784761Y-66715714D02*
X119403809Y-67096666D01*
D12*
X118058571Y-68806190D02*
X117891904Y-68568095D01*
X117772857Y-68806190D02*
X117772857Y-68306190D01*
X117963333Y-68306190D01*
X118010952Y-68330000D01*
X118034761Y-68353809D01*
X118058571Y-68401428D01*
X118058571Y-68472857D01*
X118034761Y-68520476D01*
X118010952Y-68544285D01*
X117963333Y-68568095D01*
X117772857Y-68568095D01*
X118534761Y-68806190D02*
X118249047Y-68806190D01*
X118391904Y-68806190D02*
X118391904Y-68306190D01*
X118344285Y-68377619D01*
X118296666Y-68425238D01*
X118249047Y-68449047D01*
X118963333Y-68472857D02*
X118963333Y-68806190D01*
X118844285Y-68282380D02*
X118725238Y-68639523D01*
X119034761Y-68639523D01*
D10*
X45802380Y-77036904D02*
X45802380Y-76417857D01*
X46183333Y-76751190D01*
X46183333Y-76608333D01*
X46230952Y-76513095D01*
X46278571Y-76465476D01*
X46373809Y-76417857D01*
X46611904Y-76417857D01*
X46707142Y-76465476D01*
X46754761Y-76513095D01*
X46802380Y-76608333D01*
X46802380Y-76894047D01*
X46754761Y-76989285D01*
X46707142Y-77036904D01*
X45802380Y-76084523D02*
X45802380Y-75465476D01*
X46183333Y-75798809D01*
X46183333Y-75655952D01*
X46230952Y-75560714D01*
X46278571Y-75513095D01*
X46373809Y-75465476D01*
X46611904Y-75465476D01*
X46707142Y-75513095D01*
X46754761Y-75560714D01*
X46802380Y-75655952D01*
X46802380Y-75941666D01*
X46754761Y-76036904D01*
X46707142Y-76084523D01*
X46135714Y-74608333D02*
X46802380Y-74608333D01*
X46135714Y-75036904D02*
X46659523Y-75036904D01*
X46754761Y-74989285D01*
X46802380Y-74894047D01*
X46802380Y-74751190D01*
X46754761Y-74655952D01*
X46707142Y-74608333D01*
X51252380Y-75941666D02*
X51252380Y-76417857D01*
X50252380Y-76417857D01*
X50347619Y-75655952D02*
X50300000Y-75608333D01*
X50252380Y-75513095D01*
X50252380Y-75275000D01*
X50300000Y-75179761D01*
X50347619Y-75132142D01*
X50442857Y-75084523D01*
X50538095Y-75084523D01*
X50680952Y-75132142D01*
X51252380Y-75703571D01*
X51252380Y-75084523D01*
X92939761Y-103377619D02*
X92987380Y-103234761D01*
X92987380Y-102996666D01*
X92939761Y-102901428D01*
X92892142Y-102853809D01*
X92796904Y-102806190D01*
X92701666Y-102806190D01*
X92606428Y-102853809D01*
X92558809Y-102901428D01*
X92511190Y-102996666D01*
X92463571Y-103187142D01*
X92415952Y-103282380D01*
X92368333Y-103330000D01*
X92273095Y-103377619D01*
X92177857Y-103377619D01*
X92082619Y-103330000D01*
X92035000Y-103282380D01*
X91987380Y-103187142D01*
X91987380Y-102949047D01*
X92035000Y-102806190D01*
X91987380Y-102472857D02*
X92987380Y-102234761D01*
X92273095Y-102044285D01*
X92987380Y-101853809D01*
X91987380Y-101615714D01*
X93082619Y-101472857D02*
X93082619Y-100710952D01*
X92987380Y-100472857D02*
X91987380Y-100472857D01*
X91987380Y-100091904D01*
X92035000Y-99996666D01*
X92082619Y-99949047D01*
X92177857Y-99901428D01*
X92320714Y-99901428D01*
X92415952Y-99949047D01*
X92463571Y-99996666D01*
X92511190Y-100091904D01*
X92511190Y-100472857D01*
X92320714Y-99044285D02*
X92987380Y-99044285D01*
X92320714Y-99472857D02*
X92844523Y-99472857D01*
X92939761Y-99425238D01*
X92987380Y-99330000D01*
X92987380Y-99187142D01*
X92939761Y-99091904D01*
X92892142Y-99044285D01*
X92939761Y-98615714D02*
X92987380Y-98520476D01*
X92987380Y-98330000D01*
X92939761Y-98234761D01*
X92844523Y-98187142D01*
X92796904Y-98187142D01*
X92701666Y-98234761D01*
X92654047Y-98330000D01*
X92654047Y-98472857D01*
X92606428Y-98568095D01*
X92511190Y-98615714D01*
X92463571Y-98615714D01*
X92368333Y-98568095D01*
X92320714Y-98472857D01*
X92320714Y-98330000D01*
X92368333Y-98234761D01*
X92987380Y-97758571D02*
X91987380Y-97758571D01*
X92987380Y-97330000D02*
X92463571Y-97330000D01*
X92368333Y-97377619D01*
X92320714Y-97472857D01*
X92320714Y-97615714D01*
X92368333Y-97710952D01*
X92415952Y-97758571D01*
X87339761Y-101663333D02*
X87387380Y-101520476D01*
X87387380Y-101282380D01*
X87339761Y-101187142D01*
X87292142Y-101139523D01*
X87196904Y-101091904D01*
X87101666Y-101091904D01*
X87006428Y-101139523D01*
X86958809Y-101187142D01*
X86911190Y-101282380D01*
X86863571Y-101472857D01*
X86815952Y-101568095D01*
X86768333Y-101615714D01*
X86673095Y-101663333D01*
X86577857Y-101663333D01*
X86482619Y-101615714D01*
X86435000Y-101568095D01*
X86387380Y-101472857D01*
X86387380Y-101234761D01*
X86435000Y-101091904D01*
X86387380Y-100758571D02*
X87387380Y-100520476D01*
X86673095Y-100330000D01*
X87387380Y-100139523D01*
X86387380Y-99901428D01*
X87387380Y-98996666D02*
X87387380Y-99568095D01*
X87387380Y-99282380D02*
X86387380Y-99282380D01*
X86530238Y-99377619D01*
X86625476Y-99472857D01*
X86673095Y-99568095D01*
D14*
X59525000Y-83782500D02*
X61125000Y-83782500D01*
X59525000Y-86982500D02*
X59525000Y-83782500D01*
X61125000Y-83782500D02*
X61125000Y-86982500D01*
X61125000Y-86982500D02*
X59525000Y-86982500D01*
X76035000Y-101807500D02*
X77635000Y-101807500D01*
X76035000Y-105007500D02*
X76035000Y-101807500D01*
X77635000Y-101807500D02*
X77635000Y-105007500D01*
X77635000Y-105007500D02*
X76035000Y-105007500D01*
X77635000Y-111357500D02*
X76035000Y-111357500D01*
X77635000Y-108157500D02*
X77635000Y-111357500D01*
X76035000Y-111357500D02*
X76035000Y-108157500D01*
X76035000Y-108157500D02*
X77635000Y-108157500D01*
X52540000Y-83782500D02*
X54140000Y-83782500D01*
X52540000Y-86982500D02*
X52540000Y-83782500D01*
X54140000Y-83782500D02*
X54140000Y-86982500D01*
X54140000Y-86982500D02*
X52540000Y-86982500D01*
X63335000Y-101905000D02*
X64935000Y-101905000D01*
X63335000Y-105105000D02*
X63335000Y-101905000D01*
X64935000Y-101905000D02*
X64935000Y-105105000D01*
X64935000Y-105105000D02*
X63335000Y-105105000D01*
X69685000Y-101905000D02*
X71285000Y-101905000D01*
X69685000Y-105105000D02*
X69685000Y-101905000D01*
X71285000Y-101905000D02*
X71285000Y-105105000D01*
X71285000Y-105105000D02*
X69685000Y-105105000D01*
X70475000Y-109507500D02*
X70475000Y-111507500D01*
X70475000Y-111507500D02*
X69225000Y-111507500D01*
X69225000Y-111507500D02*
X69225000Y-109507500D01*
X69225000Y-109507500D02*
X70475000Y-109507500D01*
X65875000Y-83490000D02*
X67475000Y-83490000D01*
X65875000Y-86690000D02*
X65875000Y-83490000D01*
X67475000Y-83490000D02*
X67475000Y-86690000D01*
X67475000Y-86690000D02*
X65875000Y-86690000D01*
X47635000Y-85455000D02*
X47635000Y-83455000D01*
X47635000Y-83455000D02*
X48885000Y-83455000D01*
X48885000Y-83455000D02*
X48885000Y-85455000D01*
X48885000Y-85455000D02*
X47635000Y-85455000D01*
X63335000Y-108500000D02*
X64935000Y-108500000D01*
X63335000Y-111700000D02*
X63335000Y-108500000D01*
X64935000Y-108500000D02*
X64935000Y-111700000D01*
X64935000Y-111700000D02*
X63335000Y-111700000D01*
X53267500Y-113900000D02*
X53267500Y-112650000D01*
X55267500Y-112650000D02*
X55267500Y-113900000D01*
X53267500Y-112650000D02*
X55267500Y-112650000D01*
X55267500Y-113900000D02*
X53267500Y-113900000D01*
X55267500Y-120270000D02*
X55267500Y-121520000D01*
X53267500Y-121520000D02*
X53267500Y-120270000D01*
X55267500Y-121520000D02*
X53267500Y-121520000D01*
X53267500Y-120270000D02*
X55267500Y-120270000D01*
X43052500Y-96530000D02*
X43052500Y-97780000D01*
X41052500Y-97780000D02*
X41052500Y-96530000D01*
X43052500Y-97780000D02*
X41052500Y-97780000D01*
X41052500Y-96530000D02*
X43052500Y-96530000D01*
X43252500Y-87640000D02*
X43252500Y-88890000D01*
X41252500Y-88890000D02*
X41252500Y-87640000D01*
X43252500Y-88890000D02*
X41252500Y-88890000D01*
X41252500Y-87640000D02*
X43252500Y-87640000D01*
X85735000Y-92572500D02*
X85735000Y-90572500D01*
X85735000Y-90572500D02*
X86985000Y-90572500D01*
X86985000Y-92572500D02*
X85735000Y-92572500D01*
X86985000Y-90572500D02*
X86985000Y-92572500D01*
X49407600Y-68845200D02*
X53107600Y-68845200D01*
X49407600Y-63145200D02*
X50407600Y-62145200D01*
X53107600Y-62145200D02*
X53107600Y-68845200D01*
X50407600Y-62145200D02*
X53107600Y-62145200D01*
X49407600Y-63145200D02*
X49407600Y-68845200D01*
X73565000Y-60335000D02*
X75565000Y-60335000D01*
X73565000Y-61585000D02*
X73565000Y-60335000D01*
X75565000Y-61585000D02*
X73565000Y-61585000D01*
X75565000Y-60335000D02*
X75565000Y-61585000D01*
X98155000Y-96895000D02*
X98155000Y-98145000D01*
X96155000Y-96895000D02*
X98155000Y-96895000D01*
X98155000Y-98145000D02*
X96155000Y-98145000D01*
X96155000Y-98145000D02*
X96155000Y-96895000D01*
X111169976Y-104148466D02*
G75*
G03*
X108010000Y-104220000I-1549976J-1361533D01*
G01*
X108067028Y-104161301D02*
G75*
G03*
X108210000Y-105090000I432973J-408699D01*
G01*
X113177667Y-105051737D02*
G75*
G03*
X116160000Y-105100000I1522333J1901737D01*
G01*
X108170171Y-105061418D02*
G75*
G03*
X111160000Y-105100000I1519829J1911418D01*
G01*
X111115620Y-105133996D02*
G75*
G03*
X111160000Y-104170000I-455620J503996D01*
G01*
X116115532Y-105143995D02*
G75*
G03*
X116170000Y-104170000I-455532J513995D01*
G01*
X116168240Y-104158314D02*
G75*
G03*
X113020000Y-104220000I-1548240J-1351686D01*
G01*
X113067028Y-104161301D02*
G75*
G03*
X113210000Y-105090000I432972J-408699D01*
G01*
X111290000Y-112900000D02*
X111290000Y-109730000D01*
X117240000Y-107570000D02*
X117240000Y-108580000D01*
X107050000Y-115440000D02*
X107050000Y-108580000D01*
X111290000Y-108970000D02*
X107990000Y-108970000D01*
X117240000Y-103000000D02*
X117240000Y-106050000D01*
X111670000Y-113540000D02*
X111670000Y-108970000D01*
X111670000Y-113540000D02*
X107610000Y-113540000D01*
X111290000Y-109730000D02*
X110910000Y-109730000D01*
X111670000Y-115440000D02*
X112610000Y-115440000D01*
X116300000Y-112900000D02*
X112990000Y-112900000D01*
X113150000Y-104900000D02*
X116190000Y-104270000D01*
X107990000Y-109730000D02*
X108370000Y-109730000D01*
X116300000Y-108580000D02*
X112990000Y-108580000D01*
X111670000Y-103250000D02*
X107610000Y-103250000D01*
X107050000Y-106050000D02*
X107050000Y-103000000D01*
X116680000Y-105790000D02*
X112610000Y-105790000D01*
X107610000Y-105790000D02*
X107610000Y-103250000D01*
X113020000Y-104770000D02*
X116070000Y-104140000D01*
X112610000Y-103250000D02*
X116680000Y-103250000D01*
X112990000Y-112900000D02*
X112990000Y-109730000D01*
X107610000Y-108970000D02*
X107990000Y-108970000D01*
X107990000Y-112900000D02*
X107990000Y-109730000D01*
X115910000Y-111760000D02*
X115910000Y-108970000D01*
X108370000Y-111760000D02*
X110910000Y-111760000D01*
X108140000Y-104900000D02*
X111190000Y-104270000D01*
X117740000Y-113030000D02*
X117240000Y-113280000D01*
X111670000Y-108970000D02*
X111290000Y-108970000D01*
X107050000Y-108580000D02*
X107990000Y-108580000D01*
X117240000Y-108580000D02*
X117240000Y-113280000D01*
X111290000Y-112900000D02*
X107990000Y-112900000D01*
X112610000Y-113540000D02*
X112610000Y-108970000D01*
X116680000Y-108970000D02*
X116680000Y-113540000D01*
X107050000Y-108580000D02*
X107050000Y-106050000D01*
X117240000Y-113280000D02*
X117240000Y-114430000D01*
X116300000Y-109730000D02*
X115910000Y-109730000D01*
X107610000Y-113540000D02*
X107610000Y-115440000D01*
X113370000Y-111760000D02*
X115910000Y-111760000D01*
X117240000Y-114430000D02*
X117240000Y-115440000D01*
X112610000Y-113540000D02*
X116680000Y-113540000D01*
X111670000Y-105790000D02*
X111670000Y-103250000D01*
X111670000Y-105790000D02*
X107610000Y-105790000D01*
X107050000Y-106050000D02*
X117240000Y-106050000D01*
X112610000Y-115440000D02*
X112610000Y-113540000D01*
X113370000Y-111760000D02*
X113370000Y-108970000D01*
X107610000Y-115440000D02*
X111670000Y-115440000D01*
X116680000Y-113540000D02*
X116680000Y-115440000D01*
X107990000Y-108580000D02*
X111290000Y-108580000D01*
X111290000Y-108580000D02*
X112990000Y-108580000D01*
X112990000Y-108970000D02*
X116300000Y-108970000D01*
X117740000Y-113030000D02*
X117740000Y-114680000D01*
X108370000Y-111760000D02*
X108370000Y-108970000D01*
X112610000Y-108970000D02*
X112990000Y-108970000D01*
X116680000Y-108970000D02*
X116300000Y-108970000D01*
X107050000Y-115440000D02*
X107610000Y-115440000D01*
X117240000Y-103000000D02*
X117740000Y-103000000D01*
X112610000Y-105790000D02*
X112610000Y-103250000D01*
X112610000Y-115440000D02*
X116680000Y-115440000D01*
X116680000Y-115440000D02*
X117240000Y-115440000D01*
X108370000Y-108970000D02*
X110910000Y-108970000D01*
X108010000Y-104770000D02*
X111070000Y-104140000D01*
X117240000Y-103000000D02*
X107050000Y-103000000D01*
X117240000Y-106050000D02*
X117240000Y-107570000D01*
X117740000Y-114680000D02*
X117240000Y-114430000D01*
X116300000Y-112900000D02*
X116300000Y-109730000D01*
X112990000Y-109730000D02*
X113370000Y-109730000D01*
X111670000Y-115440000D02*
X111670000Y-113540000D01*
X107610000Y-108970000D02*
X107610000Y-113540000D01*
X110910000Y-111760000D02*
X110910000Y-108970000D01*
X117740000Y-107820000D02*
X117240000Y-107570000D01*
X117240000Y-108580000D02*
X116300000Y-108580000D01*
X116680000Y-103250000D02*
X116680000Y-105790000D01*
X117740000Y-103000000D02*
X117740000Y-107820000D01*
X113370000Y-108970000D02*
X115910000Y-108970000D01*
X85090000Y-125095000D02*
X85090000Y-123190000D01*
X102870000Y-122555000D02*
X102870000Y-125095000D01*
X102870000Y-125095000D02*
X85090000Y-125095000D01*
X85725000Y-122555000D02*
X102870000Y-122555000D01*
X85090000Y-123190000D02*
X85725000Y-122555000D01*
X104140000Y-97165000D02*
X104140000Y-98415000D01*
X104140000Y-98415000D02*
X102140000Y-98415000D01*
X102140000Y-97165000D02*
X104140000Y-97165000D01*
X102140000Y-98415000D02*
X102140000Y-97165000D01*
X108220000Y-92720000D02*
X110220000Y-92720000D01*
X110220000Y-92720000D02*
X110220000Y-93970000D01*
X110220000Y-93970000D02*
X108220000Y-93970000D01*
X108220000Y-93970000D02*
X108220000Y-92720000D01*
X56515000Y-66675000D02*
X56515000Y-64135000D01*
X71755000Y-64770000D02*
X71755000Y-66675000D01*
X71755000Y-66675000D02*
X56515000Y-66675000D01*
X56515000Y-64135000D02*
X71120000Y-64135000D01*
X71120000Y-64135000D02*
X71755000Y-64770000D01*
X91840200Y-109753400D02*
X96285200Y-109753400D01*
X91205200Y-112293400D02*
X91205200Y-110388400D01*
X97485200Y-109753400D02*
X97485200Y-112293400D01*
X96285200Y-112293400D02*
X91205200Y-112293400D01*
X91205200Y-110388400D02*
X91840200Y-109753400D01*
X83830000Y-101097500D02*
X83830000Y-99097500D01*
X85080000Y-99097500D02*
X85080000Y-101097500D01*
X85080000Y-101097500D02*
X83830000Y-101097500D01*
X83830000Y-99097500D02*
X85080000Y-99097500D01*
X102102500Y-93970000D02*
X102102500Y-92720000D01*
X104102500Y-92720000D02*
X104102500Y-93970000D01*
X104102500Y-93970000D02*
X102102500Y-93970000D01*
X102102500Y-92720000D02*
X104102500Y-92720000D01*
X40520000Y-108550000D02*
X42220000Y-108550000D01*
X40520000Y-107350000D02*
X40520000Y-108550000D01*
X42220000Y-108550000D02*
X42520000Y-108250000D01*
X42520000Y-108250000D02*
X42520000Y-107350000D01*
X42520000Y-107350000D02*
X40520000Y-107350000D01*
X64865000Y-73015000D02*
X62865000Y-73015000D01*
X62865000Y-73015000D02*
X62865000Y-71765000D01*
X62865000Y-71765000D02*
X64865000Y-71765000D01*
X64865000Y-71765000D02*
X64865000Y-73015000D01*
X40275000Y-105375000D02*
X41975000Y-105375000D01*
X40275000Y-104175000D02*
X40275000Y-105375000D01*
X42275000Y-105075000D02*
X42275000Y-104175000D01*
X42275000Y-104175000D02*
X40275000Y-104175000D01*
X41975000Y-105375000D02*
X42275000Y-105075000D01*
X66711760Y-125956686D02*
G75*
G03*
X69860000Y-125895000I1548240J1351686D01*
G01*
X74812972Y-125953699D02*
G75*
G03*
X74670000Y-125025000I-432973J408699D01*
G01*
X69812972Y-125953699D02*
G75*
G03*
X69670000Y-125025000I-432972J408699D01*
G01*
X71710024Y-125966534D02*
G75*
G03*
X74870000Y-125895000I1549976J1361533D01*
G01*
X69702333Y-125063263D02*
G75*
G03*
X66720000Y-125015000I-1522333J-1901737D01*
G01*
X74709829Y-125053582D02*
G75*
G03*
X71720000Y-125015000I-1519829J-1911418D01*
G01*
X66764468Y-124971005D02*
G75*
G03*
X66710000Y-125945000I455532J-513995D01*
G01*
X71764380Y-124981004D02*
G75*
G03*
X71720000Y-125945000I455620J-503996D01*
G01*
X66970000Y-118355000D02*
X66970000Y-121145000D01*
X74510000Y-121145000D02*
X71970000Y-121145000D01*
X65140000Y-122295000D02*
X65640000Y-122545000D01*
X74890000Y-117215000D02*
X74890000Y-120385000D01*
X74870000Y-125345000D02*
X71810000Y-125975000D01*
X70270000Y-126865000D02*
X66200000Y-126865000D01*
X65640000Y-116835000D02*
X65640000Y-115685000D01*
X70270000Y-116575000D02*
X66200000Y-116575000D01*
X65640000Y-124065000D02*
X65640000Y-122545000D01*
X65640000Y-121535000D02*
X65640000Y-116835000D01*
X70270000Y-114675000D02*
X66200000Y-114675000D01*
X65640000Y-127115000D02*
X75830000Y-127115000D01*
X69510000Y-118355000D02*
X69510000Y-121145000D01*
X65140000Y-117085000D02*
X65640000Y-116835000D01*
X71590000Y-117215000D02*
X71590000Y-120385000D01*
X65140000Y-115435000D02*
X65640000Y-115685000D01*
X74740000Y-125215000D02*
X71690000Y-125845000D01*
X71210000Y-124325000D02*
X71210000Y-126865000D01*
X66580000Y-120385000D02*
X66970000Y-120385000D01*
X70270000Y-124325000D02*
X70270000Y-126865000D01*
X71210000Y-116575000D02*
X75270000Y-116575000D01*
X71210000Y-124325000D02*
X75270000Y-124325000D01*
X74510000Y-118355000D02*
X74510000Y-121145000D01*
X75270000Y-121145000D02*
X75270000Y-116575000D01*
X66580000Y-121535000D02*
X69890000Y-121535000D01*
X71210000Y-116575000D02*
X71210000Y-121145000D01*
X71210000Y-126865000D02*
X75270000Y-126865000D01*
X70270000Y-121145000D02*
X69890000Y-121145000D01*
X71210000Y-121145000D02*
X71590000Y-121145000D01*
X66200000Y-121145000D02*
X66580000Y-121145000D01*
X71590000Y-120385000D02*
X71970000Y-120385000D01*
X65640000Y-115685000D02*
X65640000Y-114675000D01*
X75830000Y-124065000D02*
X75830000Y-127115000D01*
X66580000Y-117215000D02*
X66580000Y-120385000D01*
X75270000Y-121145000D02*
X74890000Y-121145000D01*
X71970000Y-118355000D02*
X71970000Y-121145000D01*
X75270000Y-114675000D02*
X71210000Y-114675000D01*
X74510000Y-118355000D02*
X71970000Y-118355000D01*
X65140000Y-127115000D02*
X65140000Y-122295000D01*
X69510000Y-121145000D02*
X66970000Y-121145000D01*
X74890000Y-121535000D02*
X71590000Y-121535000D01*
X65140000Y-117085000D02*
X65140000Y-115435000D01*
X69730000Y-125215000D02*
X66690000Y-125845000D01*
X75830000Y-114675000D02*
X75830000Y-121535000D01*
X66200000Y-126865000D02*
X66200000Y-124325000D01*
X71590000Y-117215000D02*
X74890000Y-117215000D01*
X70270000Y-114675000D02*
X70270000Y-116575000D01*
X69510000Y-118355000D02*
X66970000Y-118355000D01*
X65640000Y-127115000D02*
X65140000Y-127115000D01*
X69890000Y-121145000D02*
X66580000Y-121145000D01*
X65640000Y-121535000D02*
X66580000Y-121535000D01*
X75830000Y-114675000D02*
X75270000Y-114675000D01*
X75830000Y-121535000D02*
X75830000Y-124065000D01*
X71210000Y-114675000D02*
X70270000Y-114675000D01*
X71590000Y-121535000D02*
X69890000Y-121535000D01*
X69860000Y-125345000D02*
X66810000Y-125975000D01*
X65640000Y-127115000D02*
X65640000Y-124065000D01*
X74890000Y-120385000D02*
X74510000Y-120385000D01*
X75270000Y-124325000D02*
X75270000Y-126865000D01*
X69890000Y-120385000D02*
X69510000Y-120385000D01*
X66580000Y-117215000D02*
X69890000Y-117215000D01*
X65640000Y-122545000D02*
X65640000Y-121535000D01*
X70270000Y-116575000D02*
X70270000Y-121145000D01*
X66200000Y-114675000D02*
X65640000Y-114675000D01*
X71590000Y-121145000D02*
X74890000Y-121145000D01*
X71210000Y-114675000D02*
X71210000Y-116575000D01*
X66200000Y-121145000D02*
X66200000Y-116575000D01*
X75830000Y-124065000D02*
X65640000Y-124065000D01*
X69890000Y-117215000D02*
X69890000Y-120385000D01*
X75830000Y-121535000D02*
X74890000Y-121535000D01*
X66200000Y-124325000D02*
X70270000Y-124325000D01*
X66200000Y-116575000D02*
X66200000Y-114675000D01*
X75270000Y-116575000D02*
X75270000Y-114675000D01*
X80020000Y-67040000D02*
X80020000Y-65040000D01*
X80020000Y-65040000D02*
X81270000Y-65040000D01*
X81270000Y-65040000D02*
X81270000Y-67040000D01*
X81270000Y-67040000D02*
X80020000Y-67040000D01*
X75455000Y-63765000D02*
X72955000Y-63765000D01*
X73365000Y-86675000D02*
X77165000Y-86675000D01*
X72955000Y-63765000D02*
X72955000Y-66265000D01*
X77165000Y-86675000D02*
X77165000Y-64175000D01*
X73365000Y-64175000D02*
X73365000Y-86675000D01*
X77165000Y-64175000D02*
X73365000Y-64175000D01*
X80635000Y-92805000D02*
X79385000Y-92805000D01*
X79385000Y-90805000D02*
X80635000Y-90805000D01*
X79385000Y-92805000D02*
X79385000Y-90805000D01*
X80635000Y-90805000D02*
X80635000Y-92805000D01*
X115565000Y-84295000D02*
X115565000Y-64295000D01*
X111355000Y-63885000D02*
X111355000Y-66385000D01*
X113855000Y-63885000D02*
X111355000Y-63885000D01*
X111765000Y-64295000D02*
X111765000Y-84295000D01*
X111765000Y-84295000D02*
X115565000Y-84295000D01*
X115565000Y-64295000D02*
X111765000Y-64295000D01*
X118015000Y-87005000D02*
X120015000Y-87005000D01*
X120015000Y-88255000D02*
X118015000Y-88255000D01*
X120015000Y-87005000D02*
X120015000Y-88255000D01*
X118015000Y-88255000D02*
X118015000Y-87005000D01*
X80000000Y-117840000D02*
X78750000Y-117840000D01*
X80000000Y-115840000D02*
X80000000Y-117840000D01*
X78750000Y-115840000D02*
X80000000Y-115840000D01*
X78750000Y-117840000D02*
X78750000Y-115840000D01*
X120245000Y-97155000D02*
G75*
G03*
X120245000Y-97155000I-1500000J0D01*
G01*
X120645000Y-97155000D02*
G75*
G03*
X120645000Y-97155000I-1900000J0D01*
G01*
X115495000Y-94155000D02*
X121995000Y-94155000D01*
X121995000Y-94155000D02*
X121995000Y-100155000D01*
X121995000Y-100155000D02*
X115495000Y-100155000D01*
X115495000Y-100155000D02*
X115495000Y-94155000D01*
X118015000Y-76825000D02*
X118015000Y-75575000D01*
X120015000Y-75575000D02*
X120015000Y-76825000D01*
X118015000Y-75575000D02*
X120015000Y-75575000D01*
X120015000Y-76825000D02*
X118015000Y-76825000D01*
X102698800Y-82282000D02*
X102698800Y-56777000D01*
X84698800Y-56777000D02*
X102698800Y-56777000D01*
X84698800Y-63502000D02*
X85198800Y-63002000D01*
X84698800Y-82282000D02*
X102698800Y-82282000D01*
X85198800Y-63002000D02*
X84698800Y-62502000D01*
X84698800Y-63502000D02*
X84698800Y-82282000D01*
X84698800Y-56777000D02*
X84698800Y-62502000D01*
X55270000Y-97375000D02*
X61570000Y-97375000D01*
X55270000Y-91075000D02*
X55270000Y-92725000D01*
X61570000Y-97375000D02*
X61570000Y-95725000D01*
X61570000Y-91075000D02*
X61570000Y-92725000D01*
X55270000Y-91075000D02*
X61570000Y-91075000D01*
X55270000Y-97375000D02*
X55270000Y-95725000D01*
X56510000Y-96135000D02*
G75*
G03*
X60330000Y-96135000I1910000J1910000D01*
G01*
X60330000Y-92315000D02*
G75*
G03*
X56510000Y-92315000I-1910000J-1910000D01*
G01*
X117745000Y-71765000D02*
X119745000Y-71765000D01*
X119745000Y-73015000D02*
X117745000Y-73015000D01*
X117745000Y-73015000D02*
X117745000Y-71765000D01*
X119745000Y-71765000D02*
X119745000Y-73015000D01*
X123215000Y-66065000D02*
X125120000Y-66065000D01*
X125120000Y-66065000D02*
X125755000Y-66700000D01*
X123215000Y-81305000D02*
X123215000Y-66065000D01*
X125755000Y-66700000D02*
X125755000Y-81305000D01*
X125755000Y-81305000D02*
X123215000Y-81305000D01*
X98557500Y-102225000D02*
X96557500Y-102225000D01*
X96557500Y-100975000D02*
X98557500Y-100975000D01*
X96557500Y-102225000D02*
X96557500Y-100975000D01*
X98557500Y-100975000D02*
X98557500Y-102225000D01*
X51390000Y-102325000D02*
X52660000Y-101055000D01*
X51390000Y-101055000D02*
X55290000Y-101055000D01*
X55290000Y-105955000D02*
X51390000Y-105955000D01*
X51390000Y-105955000D02*
X51390000Y-101055000D01*
X55290000Y-101055000D02*
X55290000Y-105955000D01*
X124905000Y-111475000D02*
X127405000Y-111475000D01*
X126995000Y-103565000D02*
X123195000Y-103565000D01*
X126995000Y-111065000D02*
X126995000Y-103565000D01*
X127405000Y-111475000D02*
X127405000Y-108975000D01*
X123195000Y-111065000D02*
X126995000Y-111065000D01*
X123195000Y-103565000D02*
X123195000Y-111065000D01*
X36070000Y-77815000D02*
X39970000Y-77815000D01*
X38720000Y-68115000D02*
X38720000Y-70115000D01*
X39570000Y-75565000D02*
X39970000Y-75315000D01*
X39970000Y-79815000D02*
X39970000Y-68115000D01*
X39970000Y-68115000D02*
X38720000Y-68115000D01*
X39970000Y-70115000D02*
X36070000Y-70115000D01*
X38720000Y-79815000D02*
X38720000Y-77815000D01*
X36070000Y-70115000D02*
X36070000Y-77815000D01*
X39970000Y-79815000D02*
X38720000Y-79815000D01*
X39970000Y-75815000D02*
X39570000Y-75565000D01*
D15*
X70072500Y-90797500D02*
X70072500Y-97652500D01*
X75977500Y-97652500D02*
X75977500Y-90797500D01*
X75977500Y-90797500D02*
X70072500Y-90797500D01*
X70072500Y-97652500D02*
X75977500Y-97652500D01*
D16*
X73125000Y-88975000D02*
G75*
G03*
X73125000Y-88975000I-100000J0D01*
G01*
D14*
X118015000Y-80635000D02*
X118015000Y-79385000D01*
X120015000Y-80635000D02*
X118015000Y-80635000D01*
X120015000Y-79385000D02*
X120015000Y-80635000D01*
X118015000Y-79385000D02*
X120015000Y-79385000D01*
X118015000Y-83195000D02*
X120015000Y-83195000D01*
X120015000Y-83195000D02*
X120015000Y-84445000D01*
X118015000Y-84445000D02*
X118015000Y-83195000D01*
X120015000Y-84445000D02*
X118015000Y-84445000D01*
X44570000Y-110940000D02*
X43320000Y-110940000D01*
X44160000Y-111350000D02*
X39660000Y-111350000D01*
X44570000Y-112190000D02*
X44570000Y-110940000D01*
X44160000Y-117250000D02*
X44160000Y-111350000D01*
X39660000Y-117250000D02*
X44160000Y-117250000D01*
X39660000Y-111350000D02*
X39660000Y-117250000D01*
X97885000Y-93970000D02*
X95885000Y-93970000D01*
X95885000Y-93970000D02*
X95885000Y-92720000D01*
X95885000Y-92720000D02*
X97885000Y-92720000D01*
X97885000Y-92720000D02*
X97885000Y-93970000D01*
X116840000Y-61585000D02*
X114840000Y-61585000D01*
X116840000Y-60335000D02*
X116840000Y-61585000D01*
X114840000Y-61585000D02*
X114840000Y-60335000D01*
X114840000Y-60335000D02*
X116840000Y-60335000D01*
X117380000Y-67955000D02*
X119380000Y-67955000D01*
X117380000Y-69205000D02*
X117380000Y-67955000D01*
X119380000Y-67955000D02*
X119380000Y-69205000D01*
X119380000Y-69205000D02*
X117380000Y-69205000D01*
X47650000Y-78925000D02*
X49300000Y-78925000D01*
X53950000Y-72625000D02*
X53950000Y-78925000D01*
X53950000Y-78925000D02*
X52300000Y-78925000D01*
X47650000Y-72625000D02*
X47650000Y-78925000D01*
X47650000Y-72625000D02*
X49300000Y-72625000D01*
X53950000Y-72625000D02*
X52300000Y-72625000D01*
X48890000Y-73865000D02*
G75*
G03*
X48890000Y-77685000I1910000J-1910000D01*
G01*
X52710000Y-77685000D02*
G75*
G03*
X52710000Y-73865000I-1910000J1910000D01*
G01*
X87735000Y-103330000D02*
X91335000Y-103330000D01*
X88735000Y-98830000D02*
X90335000Y-98830000D01*
X90535000Y-102080000D02*
X88535000Y-102080000D01*
X90535000Y-98580000D02*
X90535000Y-102080000D01*
X90335000Y-101830000D02*
X90335000Y-98830000D01*
X87735000Y-97330000D02*
X91335000Y-97330000D01*
X88535000Y-102080000D02*
X88535000Y-98580000D01*
X91335000Y-103330000D02*
X91335000Y-97330000D01*
X88535000Y-98580000D02*
X90535000Y-98580000D01*
X87735000Y-103330000D02*
X87735000Y-97330000D01*
X88735000Y-101830000D02*
X90335000Y-101830000D01*
X88735000Y-101830000D02*
X88735000Y-98830000D01*
M02*
